<?xml version="1.0" encoding="UTF-8" standalone="no"?>
<svg
   xmlns:dc="http://purl.org/dc/elements/1.1/"
   xmlns:cc="http://creativecommons.org/ns#"
   xmlns:rdf="http://www.w3.org/1999/02/22-rdf-syntax-ns#"
   xmlns:svg="http://www.w3.org/2000/svg"
   xmlns="http://www.w3.org/2000/svg"
   xmlns:sodipodi="http://sodipodi.sourceforge.net/DTD/sodipodi-0.dtd"
   xmlns:inkscape="http://www.inkscape.org/namespaces/inkscape"
   sodipodi:docname="SM-v201021-521-LogoCircle-ColourWhite-OnBlack.svg"
   inkscape:version="1.0.1 (3bc2e813f5, 2020-09-07)"
   id="svg8"
   version="1.1"
   viewBox="0 0 63.510586 63.510559"
   height="63.510559mm"
   width="63.510586mm">
  <defs
     id="defs2">
    <marker
       id="DistanceX"
       orient="auto"
       refX="0"
       refY="0"
       style="overflow:visible">
      <path
         d="M 3,-3 -3,3 M 0,-5 V 5"
         style="stroke:#000000;stroke-width:0.5"
         id="path833" />
    </marker>
    <pattern
       id="Hatch"
       patternUnits="userSpaceOnUse"
       width="8"
       height="8"
       x="0"
       y="0">
      <path
         d="M8 4 l-4,4"
         stroke="#000000"
         stroke-width="0.25"
         linecap="square"
         id="path836" />
      <path
         d="M6 2 l-4,4"
         stroke="#000000"
         stroke-width="0.25"
         linecap="square"
         id="path838" />
      <path
         d="M4 0 l-4,4"
         stroke="#000000"
         stroke-width="0.25"
         linecap="square"
         id="path840" />
    </pattern>
    <symbol
       id="*Model_Space" />
    <symbol
       id="*Paper_Space" />
    <symbol
       id="*Paper_Space0" />
  </defs>
  <sodipodi:namedview
     inkscape:window-maximized="1"
     inkscape:window-y="-9"
     inkscape:window-x="-9"
     inkscape:window-height="1001"
     inkscape:window-width="1920"
     fit-margin-bottom="0"
     fit-margin-right="0"
     fit-margin-left="0"
     fit-margin-top="0"
     showgrid="false"
     inkscape:document-rotation="0"
     inkscape:current-layer="layer1"
     inkscape:document-units="mm"
     inkscape:cy="102.30999"
     inkscape:cx="120.3427"
     inkscape:zoom="2.8"
     inkscape:pageshadow="2"
     inkscape:pageopacity="0.0"
     borderopacity="1.0"
     bordercolor="#666666"
     pagecolor="#ffffff"
     id="base"
     inkscape:pagecheckerboard="true" />
  <metadata
     id="metadata5">
    <rdf:RDF>
      <cc:Work
         rdf:about="">
        <dc:format>image/svg+xml</dc:format>
        <dc:type
           rdf:resource="http://purl.org/dc/dcmitype/StillImage" />
        <dc:title></dc:title>
      </cc:Work>
    </rdf:RDF>
  </metadata>
  <g
     transform="translate(-6.7982773,-113.38758)"
     id="layer1"
     inkscape:groupmode="layer"
     inkscape:label="Layer 1">
    <path
       d="m 70.176573,145.14286 a 31.623002,31.623002 0 1 0 -63.2460042,0 31.623002,31.623002 0 1 0 63.2460042,0 z"
       style="fill:#000000;stroke:none;stroke-width:0.264583"
       id="path864" />
    <path
       d="m 50.506002,140.83835 a 11.803399,11.803399 0 0 1 2.793099,5.021 17.705098,17.705098 0 0 1 -12.519395,21.68422 27.254247,27.254247 0 0 1 -20.954755,-2.88287 2.2542489,2.2542489 0 0 1 2.299527,-3.87798 22.745751,22.745751 0 0 0 17.488343,2.40597 13.196601,13.196601 0 0 0 9.331406,-16.16247 7.2949016,7.2949016 0 0 0 -1.72623,-3.10314 2.2542486,2.2542486 0 1 1 3.288005,-3.08473 z"
       style="fill:#ffffff;stroke:none;stroke-width:0.264583"
       id="path854" />
    <path
       d="m 34.24907,133.19041 a 11.803399,11.803399 0 0 1 5.020988,-2.7931 17.705098,17.705098 0 0 1 21.684228,12.5194 27.254247,27.254247 0 0 1 -2.882869,20.95476 2.2542486,2.2542486 0 0 1 -3.877979,-2.29952 22.745751,22.745751 0 0 0 2.405974,-17.48835 13.196601,13.196601 0 0 0 -16.162469,-9.3314 7.2949016,7.2949016 0 0 0 -3.103141,1.72622 2.2542505,2.2542505 0 1 1 -3.084732,-3.28801 z"
       style="fill:#ffffff;stroke:none;stroke-width:0.264583"
       id="path856" />
    <path
       d="m 26.60114,149.44737 a 11.803399,11.803399 0 0 1 -2.793099,-5.021 17.705098,17.705098 0 0 1 12.519395,-21.68422 27.254247,27.254247 0 0 1 20.954755,2.88285 2.2542576,2.2542576 0 0 1 -2.299527,3.878 22.745751,22.745751 0 0 0 -17.488343,-2.40599 13.196601,13.196601 0 0 0 -9.331406,16.16247 7.2949016,7.2949016 0 0 0 1.72623,3.10314 2.2542551,2.2542551 0 1 1 -3.288005,3.08475 z"
       style="fill:#ffffff;stroke:none;stroke-width:0.264583"
       id="path858" />
    <path
       d="m 42.858072,157.09528 a 11.803399,11.803399 0 0 1 -5.020988,2.7931 17.705098,17.705098 0 0 1 -21.684228,-12.5194 27.254247,27.254247 0 0 1 2.882869,-20.95476 2.2542544,2.2542544 0 0 1 3.877979,2.29955 22.745751,22.745751 0 0 0 -2.405974,17.48832 13.196601,13.196601 0 0 0 16.162469,9.33143 7.2949016,7.2949016 0 0 0 3.103141,-1.72624 2.2542486,2.2542486 0 1 1 3.084732,3.288 z"
       style="fill:#00d528;stroke:none;stroke-width:0.264583;fill-opacity:1"
       id="path860" />
  </g>
</svg>
