<?xml version="1.0" encoding="UTF-8" standalone="no"?>
<svg
   xmlns:dc="http://purl.org/dc/elements/1.1/"
   xmlns:cc="http://creativecommons.org/ns#"
   xmlns:rdf="http://www.w3.org/1999/02/22-rdf-syntax-ns#"
   xmlns:svg="http://www.w3.org/2000/svg"
   xmlns="http://www.w3.org/2000/svg"
   xmlns:sodipodi="http://sodipodi.sourceforge.net/DTD/sodipodi-0.dtd"
   xmlns:inkscape="http://www.inkscape.org/namespaces/inkscape"
   version="1.1"
   x="0px"
   y="0px"
   width="310.28479"
   height="64.308113"
   viewBox="0.007 0 310.28477 64.308117"
   enable-background="new 0.007 0 310.394 48.189"
   xml:space="preserve"
   id="svg46"
   sodipodi:docname="SP-v210125-255-Horizontal-Outline-NoBack.svg"
   inkscape:version="1.0.1 (3bc2e813f5, 2020-09-07)"
   inkscape:export-filename="C:\Users\kenji\Desktop\SM Lighting Logo\SM-v201021-212-Horizontal-OrangeBlack-OnWhite.png"
   inkscape:export-xdpi="494.84076"
   inkscape:export-ydpi="494.84076"><g
   id="g1033"
   transform="translate(-13.617735,-0.55762768)"
   style="fill:none;stroke:#000000;stroke-width:0.377953;stroke-miterlimit:4;stroke-dasharray:none"><g
     id="g993"
     style="fill:none;stroke:#000000;stroke-width:0.377953;stroke-miterlimit:4;stroke-dasharray:none"><path
       d="m 30.11008,29.882469 a 9.3221491,9.3221491 0 0 1 -2.20595,-3.96552 13.983223,13.983223 0 0 1 9.88764,-17.12587 21.524999,21.524999 0 0 1 16.54975,2.27683 1.7803804,1.7803804 0 0 1 -1.81613,3.06279 17.964256,17.964256 0 0 0 -13.81204,-1.90022 10.422479,10.422479 0 0 0 -7.3698,12.76488 5.7614049,5.7614049 0 0 0 1.36335,2.45082 1.780378,1.780378 0 1 1 -2.59682,2.43629 z"
       style="fill:none;fill-opacity:1;stroke:#000000;stroke-width:0.377953;stroke-miterlimit:4;stroke-dasharray:none"
       id="path1188-3-5-4-7" /><path
       d="m 42.94956,35.922669 a 9.3221491,9.3221491 0 0 1 -3.9655,2.20595 13.983223,13.983223 0 0 1 -17.12588,-9.88764 21.524999,21.524999 0 0 1 2.27685,-16.54975 1.7803766,1.7803766 0 0 1 3.06277,1.81615 17.964256,17.964256 0 0 0 -1.9002,13.81201 10.422479,10.422479 0 0 0 12.76487,7.36983 5.7614049,5.7614049 0 0 0 2.45082,-1.36336 1.780372,1.780372 0 1 1 2.43627,2.59681 z"
       style="fill:none;fill-opacity:1;stroke:#000000;stroke-width:0.377953;stroke-miterlimit:4;stroke-dasharray:none"
       id="path1190-2-4-7-8" /><path
       d="m 48.98979,23.083189 a 9.3221491,9.3221491 0 0 1 2.20594,3.96551 13.983223,13.983223 0 0 1 -9.88763,17.12588 21.524999,21.524999 0 0 1 -16.54975,-2.27685 1.7803723,1.7803723 0 0 1 1.81613,-3.06277 17.964256,17.964256 0 0 0 13.81203,1.9002 10.422479,10.422479 0 0 0 7.36981,-12.76488 5.7614049,5.7614049 0 0 0 -1.36335,-2.45082 1.780372,1.780372 0 1 1 2.59682,-2.43627 z"
       style="fill:none;stroke:#000000;stroke-width:0.377953;stroke-miterlimit:4;stroke-dasharray:none"
       id="path1192-5-6-9-6" /><path
       d="m 36.1503,17.042959 a 9.3221491,9.3221491 0 0 1 3.9655,-2.20595 13.983223,13.983223 0 0 1 17.12589,9.88764 21.524999,21.524999 0 0 1 -2.27685,16.54976 1.780372,1.780372 0 0 1 -3.06277,-1.81613 17.964256,17.964256 0 0 0 1.9002,-13.81204 10.422479,10.422479 0 0 0 -12.76488,-7.3698 5.7614049,5.7614049 0 0 0 -2.45081,1.36334 1.7803746,1.7803746 0 1 1 -2.43628,-2.59682 z"
       style="fill:none;stroke:#000000;stroke-width:0.377953;stroke-miterlimit:4;stroke-dasharray:none"
       id="path1194-7-8-2-9" /></g><g
     id="g1010"
     style="fill:none;stroke:#000000;stroke-width:0.377953;stroke-miterlimit:4;stroke-dasharray:none"><g
       style="fill:none;stroke:#000000;stroke-width:0.377953;stroke-miterlimit:4;stroke-dasharray:none"
       id="g1210-4-0-6-6"
       transform="translate(15.45152,2.388409)"><path
         style="fill:none;stroke:#000000;stroke-width:0.377953;stroke-miterlimit:4;stroke-dasharray:none"
         id="path1198-8-5-0-2"
         d="m 64.874,17.203 c -0.773,-0.407 -1.606,-0.752 -2.501,-1.037 -0.895,-0.285 -1.759,-0.427 -2.593,-0.427 -1.139,0 -2.043,0.259 -2.714,0.778 -0.671,0.519 -1.006,1.225 -1.006,2.12 0,0.631 0.223,1.18 0.671,1.647 0.447,0.468 1.026,0.875 1.738,1.22 0.711,0.346 1.464,0.671 2.257,0.976 0.671,0.244 1.336,0.534 1.998,0.869 0.661,0.335 1.261,0.747 1.799,1.235 0.539,0.487 0.966,1.093 1.281,1.815 0.315,0.722 0.473,1.601 0.473,2.638 0,1.18 -0.29,2.247 -0.869,3.202 -0.58,0.956 -1.414,1.714 -2.501,2.272 -1.088,0.56 -2.405,0.839 -3.95,0.839 -0.936,0 -1.845,-0.106 -2.73,-0.32 -0.884,-0.214 -1.718,-0.498 -2.501,-0.854 -0.783,-0.355 -1.49,-0.747 -2.12,-1.174 l 1.464,-2.531 c 0.488,0.346 1.047,0.676 1.678,0.991 0.63,0.315 1.286,0.564 1.967,0.747 0.681,0.183 1.327,0.274 1.937,0.274 0.671,0 1.332,-0.117 1.982,-0.351 0.65,-0.233 1.189,-0.6 1.617,-1.098 0.427,-0.498 0.641,-1.154 0.641,-1.968 0,-0.691 -0.188,-1.275 -0.564,-1.754 -0.376,-0.478 -0.875,-0.889 -1.495,-1.234 -0.621,-0.346 -1.286,-0.651 -1.998,-0.916 -0.691,-0.264 -1.393,-0.559 -2.104,-0.884 -0.712,-0.325 -1.373,-0.717 -1.982,-1.174 -0.61,-0.458 -1.104,-1.026 -1.479,-1.708 -0.376,-0.681 -0.564,-1.52 -0.564,-2.516 0,-1.179 0.279,-2.211 0.838,-3.096 0.559,-0.884 1.337,-1.581 2.333,-2.089 0.996,-0.508 2.145,-0.793 3.446,-0.854 1.484,0 2.775,0.183 3.874,0.549 1.098,0.366 2.074,0.803 2.928,1.312 z" /><path
         style="fill:none;stroke:#000000;stroke-width:0.377953;stroke-miterlimit:4;stroke-dasharray:none"
         id="path1200-9-7-3-6"
         d="m 71.919,12.963 h 3.264 v 22.143 h -3.264 z" /><path
         style="fill:none;stroke:#000000;stroke-width:0.377953;stroke-miterlimit:4;stroke-dasharray:none"
         id="path1202-2-7-3-3"
         d="m 117.547,12.963 c 1.647,0 3.055,0.28 4.224,0.839 1.169,0.56 2.063,1.357 2.684,2.394 0.62,1.037 0.93,2.298 0.93,3.782 0,0.875 -0.132,1.738 -0.396,2.592 -0.264,0.854 -0.686,1.632 -1.266,2.333 -0.58,0.701 -1.347,1.261 -2.303,1.678 -0.956,0.417 -2.115,0.625 -3.477,0.625 h -3.233 v 7.899 h -3.264 V 12.963 Z m 0.396,11.102 c 0.813,0 1.495,-0.137 2.043,-0.412 0.549,-0.274 0.981,-0.625 1.296,-1.052 0.315,-0.427 0.539,-0.869 0.671,-1.327 0.132,-0.458 0.198,-0.87 0.198,-1.235 0,-0.407 -0.066,-0.839 -0.198,-1.296 -0.132,-0.457 -0.351,-0.884 -0.656,-1.281 -0.305,-0.396 -0.722,-0.722 -1.25,-0.976 -0.529,-0.254 -1.189,-0.381 -1.982,-0.381 h -3.355 v 7.96 z" /><path
         style="fill:none;stroke:#000000;stroke-width:0.377953;stroke-miterlimit:4;stroke-dasharray:none"
         id="path1204-9-1-3-0"
         d="m 130.662,12.963 h 3.264 v 19.001 h 11.071 v 3.142 h -14.335 z" /><path
         style="fill:none;stroke:#000000;stroke-width:0.377953;stroke-miterlimit:4;stroke-dasharray:none"
         id="path1206-9-1-9-9"
         d="m 150.579,12.963 h 14.547 v 3.142 H 153.84 v 6.313 h 10.035 v 3.141 H 153.84 v 6.405 h 11.713 v 3.142 H 150.578 V 12.963 Z" /><path
         d="m 98.485,20.4205 5.856,-8.1895 h 0.061 v 22.875 h -3.233 V 21.561648 L 93.209,32.819 H 93.148 L 85.371005,22.021242 85.371,35.106 H 82.228 V 12.231 h 0.031 l 10.967832,15.542955 z"
         id="path1208-7-0-7-2"
         style="fill:none;stroke:#000000;stroke-width:0.377953;stroke-miterlimit:4;stroke-dasharray:none"
         sodipodi:nodetypes="ccccccccccccccc" /></g><g
       style="fill:none;fill-opacity:1;stroke:#000000;stroke-width:0.377953;stroke-miterlimit:4;stroke-dasharray:none"
       id="g1226-3-0-2-1"
       transform="translate(15.45152,2.388409)"><g
         style="fill:none;fill-opacity:1;stroke:#000000;stroke-width:0.377953;stroke-miterlimit:4;stroke-dasharray:none"
         id="g1224-9-3-6-3"><path
           style="fill:none;fill-opacity:1;stroke:#000000;stroke-width:0.377953;stroke-miterlimit:4;stroke-dasharray:none"
           fill="#FF6900"
           d="M 171.149,35.106 V 12.353 h 0.031 L 182.03188,27.756834 193.018,12.353 h 0.061 v 22.753 h -2.928 V 20.818146 L 182.008,32.331 h -0.061 l -7.93,-11.051123 V 35.106 Z"
           id="path1212-9-0-3-1"
           sodipodi:nodetypes="cccccccccccccc" /><path
           style="fill:none;fill-opacity:1;stroke:#000000;stroke-width:0.377953;stroke-miterlimit:4;stroke-dasharray:none"
           fill="#FF6900"
           d="m 198.66,24.095 c 0,-1.525 0.29,-2.963 0.87,-4.315 0.578,-1.352 1.387,-2.552 2.424,-3.599 1.037,-1.047 2.231,-1.871 3.584,-2.47 1.352,-0.6 2.811,-0.9 4.377,-0.9 1.545,0 2.994,0.3 4.346,0.9 1.353,0.6 2.552,1.423 3.6,2.47 1.047,1.047 1.865,2.247 2.455,3.599 0.59,1.353 0.885,2.791 0.885,4.315 0,1.566 -0.295,3.03 -0.885,4.392 -0.59,1.363 -1.408,2.559 -2.455,3.584 -1.048,1.027 -2.247,1.83 -3.6,2.41 -1.352,0.579 -2.801,0.869 -4.346,0.869 -1.566,0 -3.025,-0.285 -4.377,-0.854 -1.353,-0.57 -2.547,-1.363 -3.584,-2.379 -1.037,-1.018 -1.846,-2.207 -2.424,-3.569 -0.58,-1.362 -0.87,-2.846 -0.87,-4.453 z m 3.049,0.031 c 0,1.16 0.214,2.242 0.641,3.248 0.428,1.008 1.017,1.896 1.77,2.67 0.752,0.772 1.627,1.377 2.623,1.814 0.996,0.437 2.074,0.656 3.232,0.656 1.139,0 2.206,-0.219 3.203,-0.656 0.996,-0.438 1.86,-1.042 2.592,-1.814 0.732,-0.773 1.313,-1.662 1.738,-2.67 0.428,-1.006 0.641,-2.099 0.641,-3.278 0,-1.159 -0.213,-2.251 -0.641,-3.278 -0.426,-1.027 -1.017,-1.926 -1.769,-2.699 -0.753,-0.773 -1.627,-1.377 -2.623,-1.815 -0.997,-0.437 -2.063,-0.656 -3.202,-0.656 -1.159,0 -2.237,0.224 -3.233,0.671 -0.996,0.448 -1.87,1.058 -2.622,1.83 -0.754,0.773 -1.332,1.673 -1.739,2.699 -0.407,1.026 -0.611,2.119 -0.611,3.278 z"
           id="path1214-7-3-8-9" /><path
           style="fill:none;fill-opacity:1;stroke:#000000;stroke-width:0.377953;stroke-miterlimit:4;stroke-dasharray:none"
           fill="#FF6900"
           d="m 225.165,13.055 h 14.639 v 2.836 h -5.916 v 19.215 h -2.959 V 15.891 h -5.764 z"
           id="path1216-1-9-0-4" /><path
           style="fill:none;fill-opacity:1;stroke:#000000;stroke-width:0.377953;stroke-miterlimit:4;stroke-dasharray:none"
           fill="#FF6900"
           d="m 245.112,13.055 h 2.959 v 22.051 h -2.959 z"
           id="path1218-5-2-5-4" /><path
           style="fill:none;fill-opacity:1;stroke:#000000;stroke-width:0.377953;stroke-miterlimit:4;stroke-dasharray:none"
           fill="#FF6900"
           d="m 253.653,24.095 c 0,-1.525 0.289,-2.963 0.869,-4.315 0.578,-1.352 1.387,-2.552 2.424,-3.599 1.037,-1.047 2.232,-1.871 3.584,-2.47 1.352,-0.599 2.811,-0.9 4.377,-0.9 1.545,0 2.994,0.3 4.346,0.9 1.352,0.6 2.553,1.423 3.6,2.47 1.047,1.047 1.865,2.247 2.455,3.599 0.59,1.353 0.885,2.791 0.885,4.315 0,1.566 -0.295,3.03 -0.885,4.392 -0.59,1.363 -1.408,2.559 -2.455,3.584 -1.047,1.027 -2.248,1.83 -3.6,2.41 -1.352,0.579 -2.801,0.869 -4.346,0.869 -1.566,0 -3.025,-0.285 -4.377,-0.854 -1.352,-0.57 -2.547,-1.363 -3.584,-2.379 -1.037,-1.018 -1.846,-2.207 -2.424,-3.569 -0.58,-1.362 -0.869,-2.846 -0.869,-4.453 z m 3.049,0.031 c 0,1.16 0.215,2.242 0.641,3.248 0.428,1.008 1.018,1.896 1.77,2.67 0.752,0.772 1.627,1.377 2.623,1.814 0.996,0.437 2.074,0.656 3.232,0.656 1.139,0 2.207,-0.219 3.203,-0.656 0.996,-0.437 1.859,-1.042 2.592,-1.814 0.732,-0.773 1.313,-1.662 1.738,-2.67 0.428,-1.006 0.641,-2.099 0.641,-3.278 0,-1.159 -0.213,-2.251 -0.641,-3.278 -0.426,-1.027 -1.016,-1.926 -1.768,-2.699 -0.754,-0.773 -1.627,-1.377 -2.623,-1.815 -0.998,-0.437 -2.064,-0.656 -3.203,-0.656 -1.16,0 -2.236,0.224 -3.232,0.671 -0.998,0.448 -1.871,1.058 -2.623,1.83 -0.754,0.773 -1.332,1.673 -1.738,2.699 -0.409,1.026 -0.612,2.119 -0.612,3.278 z"
           id="path1220-4-3-8-6" /><path
           style="fill:none;fill-opacity:1;stroke:#000000;stroke-width:0.377953;stroke-miterlimit:4;stroke-dasharray:none"
           fill="#FF6900"
           d="M 300.866,35.807 284.67343,19.3827 284.732,35.105 h -2.959 V 12.384 h 0.152 L 298.08887,29.014591 298.03,13.055 h 2.928 v 22.752 z"
           id="path1222-3-4-4-9"
           sodipodi:nodetypes="ccccccccccc" /></g></g></g></g><g
   id="g934"
   transform="translate(-15.029633)"><path
     d="m 114.66629,43.921575 q 1.41854,0 2.4269,0.478545 1.00837,0.478545 1.53818,1.367272 0.54691,0.888727 0.54691,2.153454 0,0.734908 -0.23927,1.469817 -0.22218,0.734909 -0.71782,1.33309 -0.47854,0.598182 -1.29891,0.957091 -0.80327,0.358909 -1.98254,0.358909 h -1.79454 v 4.323997 h -1.99964 V 43.921575 Z m 0.27345,6.203997 q 0.64945,0 1.09382,-0.222182 0.44436,-0.222182 0.68363,-0.564 0.25637,-0.341818 0.35891,-0.717817 0.11964,-0.376 0.11964,-0.666546 0,-0.290545 -0.10255,-0.649454 -0.10254,-0.376 -0.34181,-0.700727 -0.23928,-0.341818 -0.66655,-0.546908 -0.42727,-0.222182 -1.09382,-0.222182 h -1.84581 v 4.289816 z"
     style="font-style:normal;font-variant:normal;font-weight:600;font-stretch:normal;font-size:17.0909px;font-family:'Josefin Sans';-inkscape-font-specification:'Josefin Sans Semi-Bold';text-align:center;letter-spacing:5px;text-anchor:middle;fill:none;stroke:#000000;stroke-width:0.377953;stroke-miterlimit:4;stroke-dasharray:none"
     id="path945" /><path
     id="path947"
     style="font-style:normal;font-variant:normal;font-weight:600;font-stretch:normal;font-size:17.0909px;font-family:'Josefin Sans';-inkscape-font-specification:'Josefin Sans Semi-Bold';text-align:center;letter-spacing:5px;text-anchor:middle;fill:none;stroke:#000000;stroke-width:0.377953;stroke-miterlimit:4;stroke-dasharray:none"
     d="m 126.58203,43.921875 v 12.441406 h 1.99805 v -4.324219 h 1.79492 c 0.0708,0 0.12649,-0.01379 0.19531,-0.01562 l 2.8125,4.339843 h 2.3086 l -3.03321,-4.826172 c 0.42416,-0.227524 0.79179,-0.490531 1.06641,-0.8125 0.34181,-0.398787 0.58821,-0.844045 0.73633,-1.333984 0.14812,-0.489939 0.2207,-0.980764 0.2207,-1.470703 0,-0.638061 -0.11392,-1.201468 -0.3418,-1.691406 -0.21648,-0.501334 -0.52308,-0.921854 -0.92187,-1.263672 -0.39879,-0.341818 -0.88343,-0.598622 -1.45313,-0.769532 -0.56969,-0.182302 -1.19722,-0.273437 -1.88086,-0.273437 z m 1.99805,1.914063 h 1.8457 c 0.43297,0 0.79328,0.07453 1.07813,0.222656 0.28484,0.14812 0.5065,0.334621 0.66601,0.5625 0.17092,0.216484 0.29102,0.450505 0.35938,0.701172 0.0684,0.239272 0.10156,0.460925 0.10156,0.666015 0,0.216485 -0.0394,0.450505 -0.11914,0.701172 -0.0684,0.239273 -0.18846,0.467109 -0.35938,0.683594 -0.15951,0.216485 -0.38735,0.398754 -0.68359,0.546875 -0.29625,0.136727 -0.66697,0.205078 -1.11133,0.205078 h -1.77734 z"
     transform="translate(0.007)" /><path
     d="m 141.92803,50.159754 q 0,-1.298909 0.49563,-2.443999 0.49564,-1.14509 1.36727,-2.033817 0.87164,-0.888727 2.01673,-1.384363 1.16218,-0.512727 2.47818,-0.512727 1.29891,0 2.444,0.512727 1.16218,0.495636 2.03382,1.384363 0.88872,0.888727 1.38436,2.033817 0.51273,1.14509 0.51273,2.443999 0,1.315999 -0.51273,2.47818 -0.49564,1.14509 -1.38436,2.016726 -0.87164,0.871636 -2.03382,1.367272 -1.14509,0.478546 -2.444,0.478546 -1.33309,0 -2.47818,-0.478546 -1.14509,-0.495636 -2.01673,-1.350181 -0.87163,-0.871636 -1.36727,-2.016726 -0.49563,-1.162181 -0.49563,-2.495271 z m 2.0509,0 q 0,0.922908 0.32473,1.726181 0.34182,0.803272 0.94,1.418544 0.59818,0.598182 1.38436,0.94 0.78618,0.341818 1.70909,0.341818 0.88873,0 1.65782,-0.341818 0.78618,-0.341818 1.36727,-0.94 0.58109,-0.615272 0.90582,-1.418544 0.34182,-0.803273 0.34182,-1.726181 0,-0.94 -0.34182,-1.743272 -0.34182,-0.803273 -0.92291,-1.418545 -0.58109,-0.615272 -1.36727,-0.95709 -0.78618,-0.341818 -1.692,-0.341818 -0.90582,0 -1.692,0.341818 -0.78618,0.341818 -1.38436,0.95709 -0.58109,0.615272 -0.90582,1.435636 -0.32473,0.803272 -0.32473,1.726181 z"
     style="font-style:normal;font-variant:normal;font-weight:600;font-stretch:normal;font-size:17.0909px;font-family:'Josefin Sans';-inkscape-font-specification:'Josefin Sans Semi-Bold';text-align:center;letter-spacing:5px;text-anchor:middle;fill:none;stroke:#000000;stroke-width:0.377953;stroke-miterlimit:4;stroke-dasharray:none"
     id="path949" /><path
     d="m 165.3691,53.953933 q 0,1.555272 -0.61527,2.64909 -0.59818,1.110909 -1.65782,1.691999 -1.05964,0.598182 -2.42691,0.649454 v 0 -1.931271 q 1.17927,-0.06836 1.93127,-0.786182 0.76909,-0.734908 0.76909,-2.324362 v -9.981086 h 1.99964 z"
     style="font-style:normal;font-variant:normal;font-weight:600;font-stretch:normal;font-size:17.0909px;font-family:'Josefin Sans';-inkscape-font-specification:'Josefin Sans Semi-Bold';text-align:center;letter-spacing:5px;text-anchor:middle;fill:none;stroke:#000000;stroke-width:0.377953;stroke-miterlimit:4;stroke-dasharray:none"
     id="path951" /><path
     d="m 173.78727,43.921575 h 8.25491 v 1.914181 h -6.25527 v 3.315634 h 5.57163 v 1.914181 h -5.57163 v 3.383999 h 6.49454 v 1.91418 h -8.49418 z"
     style="font-style:normal;font-variant:normal;font-weight:600;font-stretch:normal;font-size:17.0909px;font-family:'Josefin Sans';-inkscape-font-specification:'Josefin Sans Semi-Bold';text-align:center;letter-spacing:5px;text-anchor:middle;fill:none;stroke:#000000;stroke-width:0.377953;stroke-miterlimit:4;stroke-dasharray:none"
     id="path953" /><path
     d="m 199.26216,55.389569 q -0.27346,0.188 -0.82036,0.461454 -0.52982,0.273455 -1.28182,0.478546 -0.73491,0.188 -1.64073,0.170909 -1.45273,-0.01709 -2.61491,-0.512727 -1.16218,-0.512727 -1.96545,-1.367272 -0.80327,-0.871636 -1.24764,-1.982545 -0.42727,-1.127999 -0.42727,-2.392726 0,-1.418545 0.44437,-2.597817 0.44436,-1.179272 1.26472,-2.033817 0.82036,-0.871636 1.94836,-1.350181 1.128,-0.478545 2.46109,-0.478545 1.17928,0 2.10218,0.324727 0.94,0.307636 1.57237,0.700727 l -0.78618,1.862908 q -0.47855,-0.324727 -1.19637,-0.649454 -0.71781,-0.324727 -1.62363,-0.324727 -0.82037,0 -1.57237,0.341818 -0.75199,0.324727 -1.31599,0.939999 -0.564,0.598182 -0.90582,1.401454 -0.32473,0.803272 -0.32473,1.743272 0,0.974181 0.29055,1.794544 0.30763,0.820364 0.85454,1.418545 0.564,0.581091 1.33309,0.922909 0.78618,0.324727 1.76036,0.324727 0.95709,0 1.67491,-0.290545 0.73491,-0.307637 1.17927,-0.683637 z"
     style="font-style:normal;font-variant:normal;font-weight:600;font-stretch:normal;font-size:17.0909px;font-family:'Josefin Sans';-inkscape-font-specification:'Josefin Sans Semi-Bold';text-align:center;letter-spacing:5px;text-anchor:middle;fill:none;stroke:#000000;stroke-width:0.377953;stroke-miterlimit:4;stroke-dasharray:none"
     id="path955" /><path
     d="m 206.02251,43.921575 h 8.32327 v 1.914181 h -3.21309 V 56.36375 h -1.98254 V 45.835756 h -3.12764 z"
     style="font-style:normal;font-variant:normal;font-weight:600;font-stretch:normal;font-size:17.0909px;font-family:'Josefin Sans';-inkscape-font-specification:'Josefin Sans Semi-Bold';text-align:center;letter-spacing:5px;text-anchor:middle;fill:none;stroke:#000000;stroke-width:0.377953;stroke-miterlimit:4;stroke-dasharray:none"
     id="path957" /><path
     d="m 228.40393,46.451028 q -0.66655,-0.341818 -1.41855,-0.58109 -0.752,-0.256364 -1.43563,-0.256364 -0.92291,0 -1.46982,0.410182 -0.52982,0.410181 -0.52982,1.127999 0,0.512727 0.35891,0.905818 0.376,0.376 0.95709,0.666545 0.59818,0.273454 1.24764,0.529818 0.564,0.205091 1.11091,0.495636 0.564,0.273454 1.00836,0.683636 0.44436,0.410182 0.70073,1.025454 0.25636,0.598182 0.25636,1.486908 0,0.974182 -0.49564,1.794545 -0.47854,0.803272 -1.40145,1.281817 -0.92291,0.478546 -2.23891,0.478546 -0.78618,0 -1.53818,-0.170909 -0.73491,-0.170909 -1.40145,-0.461455 -0.66655,-0.307636 -1.23055,-0.683636 l 0.88873,-1.555272 q 0.41018,0.307637 0.94,0.564 0.52982,0.256364 1.09382,0.410182 0.564,0.153818 1.05963,0.153818 0.52982,0 1.04255,-0.170909 0.52982,-0.188 0.87163,-0.581091 0.35891,-0.393091 0.35891,-1.042545 0,-0.529818 -0.30763,-0.905817 -0.29055,-0.376 -0.78619,-0.649455 -0.49563,-0.290545 -1.07672,-0.512727 -0.58109,-0.222181 -1.17927,-0.495636 -0.59819,-0.273454 -1.128,-0.666545 -0.51273,-0.410182 -0.83746,-0.991272 -0.32473,-0.581091 -0.32473,-1.435636 0,-1.025454 0.47855,-1.777453 0.47855,-0.752 1.316,-1.196363 0.85454,-0.444364 1.96545,-0.478546 1.316,0 2.23891,0.324727 0.94,0.307637 1.65782,0.752 z"
     style="font-style:normal;font-variant:normal;font-weight:600;font-stretch:normal;font-size:17.0909px;font-family:'Josefin Sans';-inkscape-font-specification:'Josefin Sans Semi-Bold';text-align:center;letter-spacing:5px;text-anchor:middle;fill:none;stroke:#000000;stroke-width:0.377953;stroke-miterlimit:4;stroke-dasharray:none"
     id="path959" /></g><metadata
   id="metadata52"><rdf:RDF><cc:Work
       rdf:about=""><dc:format>image/svg+xml</dc:format><dc:type
         rdf:resource="http://purl.org/dc/dcmitype/StillImage" /><dc:title /></cc:Work></rdf:RDF></metadata><defs
   id="defs50"><marker
   style="overflow:visible"
   refY="0"
   refX="0"
   orient="auto"
   id="DistanceX"><path
     id="path5451"
     style="stroke:#000000;stroke-width:0.5"
     d="M 3,-3 -3,3 M 0,-5 V 5" /></marker><pattern
   y="0"
   x="0"
   height="8"
   width="8"
   patternUnits="userSpaceOnUse"
   id="Hatch"><path
     id="path5454"
     linecap="square"
     stroke-width="0.25"
     stroke="#000000"
     d="M8 4 l-4,4" /><path
     id="path5456"
     linecap="square"
     stroke-width="0.25"
     stroke="#000000"
     d="M6 2 l-4,4" /><path
     id="path5458"
     linecap="square"
     stroke-width="0.25"
     stroke="#000000"
     d="M4 0 l-4,4" /></pattern><symbol
   id="*Model_Space" /><symbol
   id="*Paper_Space" /><symbol
   id="*Paper_Space0" /><marker
   style="overflow:visible"
   refY="0"
   refX="0"
   orient="auto"
   id="DistanceX-9"><path
     id="path5533"
     style="stroke:#000000;stroke-width:0.5"
     d="M 3,-3 -3,3 M 0,-5 V 5" /></marker><pattern
   y="0"
   x="0"
   height="8"
   width="8"
   patternUnits="userSpaceOnUse"
   id="Hatch-7"><path
     id="path5536"
     linecap="square"
     stroke-width="0.25"
     stroke="#000000"
     d="M8 4 l-4,4" /><path
     id="path5538"
     linecap="square"
     stroke-width="0.25"
     stroke="#000000"
     d="M6 2 l-4,4" /><path
     id="path5540"
     linecap="square"
     stroke-width="0.25"
     stroke="#000000"
     d="M4 0 l-4,4" /></pattern><symbol
   id="*Model_Space-6" /><symbol
   id="*Paper_Space-4" /><symbol
   id="*Paper_Space0-5" />
	
	
<marker
   id="DistanceX-1"
   orient="auto"
   refX="0"
   refY="0"
   style="overflow:visible"><path
     d="M 3,-3 -3,3 M 0,-5 V 5"
     style="stroke:#000000;stroke-width:0.5"
     id="path5451-1" /></marker><pattern
   id="Hatch-1"
   patternUnits="userSpaceOnUse"
   width="8"
   height="8"
   x="0"
   y="0"><path
     d="M8 4 l-4,4"
     stroke="#000000"
     stroke-width="0.25"
     linecap="square"
     id="path5454-4" /><path
     d="M6 2 l-4,4"
     stroke="#000000"
     stroke-width="0.25"
     linecap="square"
     id="path5456-0" /><path
     d="M4 0 l-4,4"
     stroke="#000000"
     stroke-width="0.25"
     linecap="square"
     id="path5458-7" /></pattern><symbol
   id="*Model_Space-0" /><symbol
   id="*Paper_Space-8" /><symbol
   id="*Paper_Space0-8" /><marker
   id="DistanceX-9-9"
   orient="auto"
   refX="0"
   refY="0"
   style="overflow:visible"><path
     d="M 3,-3 -3,3 M 0,-5 V 5"
     style="stroke:#000000;stroke-width:0.5"
     id="path5533-5" /></marker><pattern
   id="Hatch-7-3"
   patternUnits="userSpaceOnUse"
   width="8"
   height="8"
   x="0"
   y="0"><path
     d="M8 4 l-4,4"
     stroke="#000000"
     stroke-width="0.25"
     linecap="square"
     id="path5536-2" /><path
     d="M6 2 l-4,4"
     stroke="#000000"
     stroke-width="0.25"
     linecap="square"
     id="path5538-1" /><path
     d="M4 0 l-4,4"
     stroke="#000000"
     stroke-width="0.25"
     linecap="square"
     id="path5540-2" /></pattern><symbol
   id="*Model_Space-6-9" /><symbol
   id="*Paper_Space-4-4" /><symbol
   id="*Paper_Space0-5-8" />
		
		
		
		
		
		
	
	
</defs><sodipodi:namedview
   inkscape:snap-page="true"
   inkscape:snap-object-midpoints="true"
   inkscape:snap-bbox="false"
   inkscape:snap-intersection-paths="true"
   inkscape:pagecheckerboard="true"
   inkscape:document-rotation="0"
   pagecolor="#ffffff"
   bordercolor="#666666"
   borderopacity="1"
   objecttolerance="10"
   gridtolerance="10"
   guidetolerance="10"
   inkscape:pageopacity="0"
   inkscape:pageshadow="2"
   inkscape:window-width="1600"
   inkscape:window-height="821"
   id="namedview48"
   showgrid="false"
   inkscape:zoom="2.5823761"
   inkscape:cx="151.12487"
   inkscape:cy="53.908337"
   inkscape:window-x="1911"
   inkscape:window-y="-9"
   inkscape:window-maximized="1"
   inkscape:current-layer="svg46"
   units="px"
   fit-margin-top="7.5"
   fit-margin-right="7.5"
   fit-margin-left="7.5"
   fit-margin-bottom="7.5"
   lock-margins="true" />
<g
   id="Logo"
   inkscape:version="1.0 (4035a4fb49, 2020-05-01)"
   sodipodi:docname="SM-Horizontal-v201021-Filled.svg"
   transform="translate(7.8341332,-0.68641868)">
	
		<sodipodi:namedview
   id="base"
   pagecolor="#ffffff"
   lock-margins="true"
   bordercolor="#666666"
   showgrid="false"
   borderopacity="1.0"
   inkscape:zoom="1.4"
   inkscape:cx="111.43268"
   inkscape:cy="24.052929"
   fit-margin-top="2"
   fit-margin-left="2"
   inkscape:pageopacity="0.0"
   inkscape:pageshadow="2"
   inkscape:document-units="mm"
   inkscape:current-layer="layer1"
   inkscape:window-width="1920"
   inkscape:window-height="1001"
   inkscape:window-x="-9"
   inkscape:window-y="-9"
   fit-margin-right="2"
   fit-margin-bottom="2"
   inkscape:document-rotation="0"
   inkscape:window-maximized="1">
		</sodipodi:namedview>
</g>
<g
   id="Spacing"
   display="none"
   transform="translate(7.8341332,-0.68641868)">
	<rect
   x="51.603001"
   y="12.756"
   display="inline"
   opacity="0.52"
   fill="#ff5fd7"
   width="14.667"
   height="22.676001"
   id="rect4" />
	<rect
   x="42.526001"
   y="12.756"
   display="inline"
   opacity="0.52"
   fill="#ff5fd7"
   width="9.0710001"
   height="22.676001"
   id="rect6" />
	<rect
   x="165.54201"
   y="12.907"
   display="inline"
   opacity="0.45"
   fill="#ff5fd7"
   width="5.5630002"
   height="22.125"
   id="rect8" />
</g>

<g
   inkscape:groupmode="layer"
   inkscape:label="Layer 1"
   transform="translate(-11.037462,-136.73064)"
   id="layer1">
		
		
		
		
	</g>
</svg>
