<?xml version="1.0" encoding="UTF-8" standalone="no"?>
<svg
   xmlns:dc="http://purl.org/dc/elements/1.1/"
   xmlns:cc="http://creativecommons.org/ns#"
   xmlns:rdf="http://www.w3.org/1999/02/22-rdf-syntax-ns#"
   xmlns:svg="http://www.w3.org/2000/svg"
   xmlns="http://www.w3.org/2000/svg"
   xmlns:sodipodi="http://sodipodi.sourceforge.net/DTD/sodipodi-0.dtd"
   xmlns:inkscape="http://www.inkscape.org/namespaces/inkscape"
   sodipodi:docname="SL-v201021-315-Logo-ColourBlack-NoBack.svg"
   inkscape:version="1.0.1 (3bc2e813f5, 2020-09-07)"
   id="svg5449"
   version="1.1"
   viewBox="0 0 46.923477 46.92347"
   height="46.92347mm"
   width="46.923477mm">
  <defs
     id="defs5443">
    <marker
       id="DistanceX"
       orient="auto"
       refX="0"
       refY="0"
       style="overflow:visible">
      <path
         d="M 3,-3 -3,3 M 0,-5 V 5"
         style="stroke:#000000;stroke-width:0.5"
         id="path5451" />
    </marker>
    <pattern
       id="Hatch"
       patternUnits="userSpaceOnUse"
       width="8"
       height="8"
       x="0"
       y="0">
      <path
         d="M8 4 l-4,4"
         stroke="#000000"
         stroke-width="0.25"
         linecap="square"
         id="path5454" />
      <path
         d="M6 2 l-4,4"
         stroke="#000000"
         stroke-width="0.25"
         linecap="square"
         id="path5456" />
      <path
         d="M4 0 l-4,4"
         stroke="#000000"
         stroke-width="0.25"
         linecap="square"
         id="path5458" />
    </pattern>
    <symbol
       id="*Model_Space" />
    <symbol
       id="*Paper_Space" />
    <symbol
       id="*Paper_Space0" />
    <marker
       id="DistanceX-9"
       orient="auto"
       refX="0"
       refY="0"
       style="overflow:visible">
      <path
         d="M 3,-3 -3,3 M 0,-5 V 5"
         style="stroke:#000000;stroke-width:0.5"
         id="path5533" />
    </marker>
    <pattern
       id="Hatch-7"
       patternUnits="userSpaceOnUse"
       width="8"
       height="8"
       x="0"
       y="0">
      <path
         d="M8 4 l-4,4"
         stroke="#000000"
         stroke-width="0.25"
         linecap="square"
         id="path5536" />
      <path
         d="M6 2 l-4,4"
         stroke="#000000"
         stroke-width="0.25"
         linecap="square"
         id="path5538" />
      <path
         d="M4 0 l-4,4"
         stroke="#000000"
         stroke-width="0.25"
         linecap="square"
         id="path5540" />
    </pattern>
    <symbol
       id="*Model_Space-6" />
    <symbol
       id="*Paper_Space-4" />
    <symbol
       id="*Paper_Space0-5" />
  </defs>
  <sodipodi:namedview
     inkscape:window-maximized="1"
     inkscape:window-y="-9"
     inkscape:window-x="-9"
     inkscape:window-height="1001"
     inkscape:window-width="1920"
     fit-margin-bottom="0"
     fit-margin-right="0"
     fit-margin-left="0"
     fit-margin-top="0"
     showgrid="false"
     inkscape:document-rotation="0"
     inkscape:current-layer="layer1"
     inkscape:document-units="mm"
     inkscape:cy="93.745815"
     inkscape:cx="66.389476"
     inkscape:zoom="2.8"
     inkscape:pageshadow="2"
     inkscape:pageopacity="0.0"
     borderopacity="1.0"
     bordercolor="#666666"
     pagecolor="#ffffff"
     id="base" />
  <metadata
     id="metadata5446">
    <rdf:RDF>
      <cc:Work
         rdf:about="">
        <dc:format>image/svg+xml</dc:format>
        <dc:type
           rdf:resource="http://purl.org/dc/dcmitype/StillImage" />
        <dc:title></dc:title>
      </cc:Work>
    </rdf:RDF>
  </metadata>
  <g
     transform="translate(-18.871594,-136.04422)"
     id="layer1"
     inkscape:groupmode="layer"
     inkscape:label="Layer 1">
    <path
       d="m 46.637834,171.45838 a 11.803399,11.803399 0 0 1 -5.020988,2.7931 17.705098,17.705098 0 0 1 -21.684228,-12.5194 27.254247,27.254247 0 0 1 2.882869,-20.95476 2.2542544,2.2542544 0 0 1 3.877979,2.29955 22.745751,22.745751 0 0 0 -2.405974,17.48832 13.196601,13.196601 0 0 0 16.162469,9.33143 7.2949016,7.2949016 0 0 0 3.103141,-1.72624 2.2542486,2.2542486 0 1 1 3.084732,3.288 z"
       style="fill:#00d528;stroke:none;stroke-width:0.264583;fill-opacity:1"
       id="path5560" />
    <path
       d="m 54.285764,155.20145 a 11.803399,11.803399 0 0 1 2.793099,5.021 17.705098,17.705098 0 0 1 -12.519395,21.68422 27.254247,27.254247 0 0 1 -20.954755,-2.88287 2.2542489,2.2542489 0 0 1 2.299527,-3.87798 22.745751,22.745751 0 0 0 17.488343,2.40597 13.196601,13.196601 0 0 0 9.331406,-16.16247 7.2949016,7.2949016 0 0 0 -1.72623,-3.10314 2.2542486,2.2542486 0 1 1 3.288005,-3.08473 z"
       style="fill:#000000;stroke:none;stroke-width:0.264583"
       id="path5554" />
    <path
       d="m 38.028832,147.55351 a 11.803399,11.803399 0 0 1 5.020988,-2.7931 17.705098,17.705098 0 0 1 21.684228,12.5194 27.254247,27.254247 0 0 1 -2.882869,20.95476 2.2542486,2.2542486 0 0 1 -3.877979,-2.29952 22.745751,22.745751 0 0 0 2.405974,-17.48835 13.196601,13.196601 0 0 0 -16.162469,-9.3314 7.2949016,7.2949016 0 0 0 -3.103141,1.72622 2.2542505,2.2542505 0 1 1 -3.084732,-3.28801 z"
       style="fill:#000000;stroke:none;stroke-width:0.264583"
       id="path5556" />
    <path
       d="m 30.380902,163.81047 a 11.803399,11.803399 0 0 1 -2.793099,-5.021 17.705098,17.705098 0 0 1 12.519395,-21.68422 27.254247,27.254247 0 0 1 20.954755,2.88285 2.2542576,2.2542576 0 0 1 -2.299527,3.878 22.745751,22.745751 0 0 0 -17.488343,-2.40599 13.196601,13.196601 0 0 0 -9.331406,16.16247 7.2949016,7.2949016 0 0 0 1.72623,3.10314 2.2542551,2.2542551 0 1 1 -3.288005,3.08475 z"
       style="fill:#000000;stroke:none;stroke-width:0.264583"
       id="path5558" />
  </g>
</svg>
