<?xml version="1.0" encoding="UTF-8" standalone="no"?>
<svg
   xmlns:dc="http://purl.org/dc/elements/1.1/"
   xmlns:cc="http://creativecommons.org/ns#"
   xmlns:rdf="http://www.w3.org/1999/02/22-rdf-syntax-ns#"
   xmlns:svg="http://www.w3.org/2000/svg"
   xmlns="http://www.w3.org/2000/svg"
   xmlns:sodipodi="http://sodipodi.sourceforge.net/DTD/sodipodi-0.dtd"
   xmlns:inkscape="http://www.inkscape.org/namespaces/inkscape"
   sodipodi:docname="SM-v201021-655-LogoSquare-Outline-NoBack.svg"
   inkscape:version="1.0.1 (3bc2e813f5, 2020-09-07)"
   id="svg925"
   version="1.1"
   viewBox="0 0 55.940342 55.940323"
   height="55.940323mm"
   width="55.940342mm">
  <defs
     id="defs919">
    <marker
       id="DistanceX"
       orient="auto"
       refX="0"
       refY="0"
       style="overflow:visible">
      <path
         d="M 3,-3 -3,3 M 0,-5 V 5"
         style="stroke:#000000;stroke-width:0.5"
         id="path927" />
    </marker>
    <pattern
       id="Hatch"
       patternUnits="userSpaceOnUse"
       width="8"
       height="8"
       x="0"
       y="0">
      <path
         d="M8 4 l-4,4"
         stroke="#000000"
         stroke-width="0.25"
         linecap="square"
         id="path930" />
      <path
         d="M6 2 l-4,4"
         stroke="#000000"
         stroke-width="0.25"
         linecap="square"
         id="path932" />
      <path
         d="M4 0 l-4,4"
         stroke="#000000"
         stroke-width="0.25"
         linecap="square"
         id="path934" />
    </pattern>
    <symbol
       id="*Model_Space" />
    <symbol
       id="*Paper_Space" />
    <symbol
       id="*Paper_Space0" />
  </defs>
  <sodipodi:namedview
     inkscape:window-maximized="1"
     inkscape:window-y="-9"
     inkscape:window-x="1911"
     inkscape:window-height="821"
     inkscape:window-width="1600"
     fit-margin-bottom="0"
     fit-margin-right="0"
     fit-margin-left="0"
     fit-margin-top="0"
     showgrid="false"
     inkscape:document-rotation="0"
     inkscape:current-layer="layer1"
     inkscape:document-units="mm"
     inkscape:cy="98.333957"
     inkscape:cx="58.864526"
     inkscape:zoom="2.6788909"
     inkscape:pageshadow="2"
     inkscape:pageopacity="0.0"
     borderopacity="1.0"
     bordercolor="#666666"
     pagecolor="#ffffff"
     id="base" />
  <metadata
     id="metadata922">
    <rdf:RDF>
      <cc:Work
         rdf:about="">
        <dc:format>image/svg+xml</dc:format>
        <dc:type
           rdf:resource="http://purl.org/dc/dcmitype/StillImage" />
        <dc:title />
      </cc:Work>
    </rdf:RDF>
  </metadata>
  <g
     transform="translate(-91.47031,-114.14889)"
     id="layer1"
     inkscape:groupmode="layer"
     inkscape:label="Layer 1">
    <g
       transform="matrix(0.26458333,0,0,0.26458333,119.44048,-154.88095)"
       id="g983"
       style="fill:none;stroke:#000000;stroke-width:0.37795276;stroke-miterlimit:4;stroke-dasharray:none">
      <g
         inkscape:label="0"
         id="g942"
         style="fill:none;stroke:#000000;stroke-width:0.37795276;stroke-miterlimit:4;stroke-dasharray:none" />
      <g
         inkscape:label="logo-outline"
         id="g952"
         style="fill:none;stroke:#000000;stroke-width:0.37795276;stroke-miterlimit:4;stroke-dasharray:none">
        <path
           d="m 45.174542,1106.2507 a 44.611271,44.611271 0 0 1 10.556594,18.977 66.916907,66.916907 0 0 1 -47.317399,81.9561 103.00818,103.00818 0 0 1 -79.199073,-10.8959 8.519995,8.519995 0 0 1 8.691125,-14.6569 85.968194,85.968194 0 0 0 66.097674,9.0934 49.876918,49.876918 0 0 0 35.268307,-61.0865 27.571282,27.571282 0 0 0 -6.524334,-11.7284 8.519995,8.519995 0 1 1 12.427106,-11.6588 z"
           style="fill:none;stroke:#000000;stroke-width:0.37795276;stroke-miterlimit:4;stroke-dasharray:none"
           id="path944" />
        <path
           d="m -16.26898,1077.3451 a 44.611271,44.611271 0 0 1 18.976962,-10.5566 66.916907,66.916907 0 0 1 81.956139,47.3174 103.00818,103.00818 0 0 1 -10.895883,79.1991 8.519995,8.519995 0 0 1 -14.656929,-8.6911 85.968194,85.968194 0 0 0 9.093446,-66.0977 49.876918,49.876918 0 0 0 -61.086499,-35.2683 27.571282,27.571282 0 0 0 -11.728407,6.5243 8.519995,8.519995 0 1 1 -11.658829,-12.4271 z"
           style="fill:none;stroke:#000000;stroke-width:0.37795276;stroke-miterlimit:4;stroke-dasharray:none"
           id="path946" />
        <path
           d="m -45.174542,1138.7887 a 44.611271,44.611271 0 0 1 -10.556594,-18.977 66.916907,66.916907 0 0 1 47.317399,-81.9561 103.00818,103.00818 0 0 1 79.199073,10.8958 8.520025,8.520025 0 0 1 -8.691125,14.657 85.968194,85.968194 0 0 0 -66.097674,-9.0935 49.876918,49.876918 0 0 0 -35.268307,61.0865 27.571282,27.571282 0 0 0 6.524334,11.7284 8.5200193,8.5200193 0 1 1 -12.427106,11.6589 z"
           style="fill:none;stroke:#000000;stroke-width:0.37795276;stroke-miterlimit:4;stroke-dasharray:none"
           id="path948" />
        <path
           d="m 16.26898,1167.6942 a 44.611271,44.611271 0 0 1 -18.976962,10.5566 66.916907,66.916907 0 0 1 -81.956139,-47.3174 103.00818,103.00818 0 0 1 10.895883,-79.1991 8.5200136,8.5200136 0 0 1 14.656929,8.6912 85.968194,85.968194 0 0 0 -9.093446,66.0976 49.876918,49.876918 0 0 0 61.086499,35.2684 27.571282,27.571282 0 0 0 11.728407,-6.5244 8.519995,8.519995 0 1 1 11.658829,12.4271 z"
           style="fill:none;stroke:#000000;stroke-width:0.37795276;stroke-miterlimit:4;stroke-dasharray:none"
           id="path950" />
      </g>
      <g
         inkscape:label="logo-square"
         id="g956"
         style="fill:none;stroke:#000000;stroke-width:0.37795276;stroke-miterlimit:4;stroke-dasharray:none">
        <path
           d="M 96.694034,1017.3057 H -96.694034 a 8.519995,8.519995 0 0 0 -8.519996,8.52 v 193.388 a 8.519995,8.519995 0 0 0 8.519996,8.52 H 96.694034 a 8.519995,8.519995 0 0 0 8.519996,-8.52 v -193.388 a 8.519995,8.519995 0 0 0 -8.519996,-8.52 z"
           style="fill:none;stroke:#000000;stroke-width:0.37795276;stroke-miterlimit:4;stroke-dasharray:none"
           id="path954" />
      </g>
    </g>
  </g>
</svg>
