  0
SECTION
  2
HEADER
  9
$ACADVER
  1
AC1027
  9
$ACADMAINTVER
 70
   125
  9
$DWGCODEPAGE
  3
ANSI_1252
  9
$LASTSAVEDBY
  1
kenji
  9
$REQUIREDVERSIONS
160
                 0
  9
$INSBASE
 10
0.0
 20
0.0
 30
0.0
  9
$EXTMIN
 10
-89.46700929582686
 20
18.107604
 30
0.0
  9
$EXTMAX
 10
205.179242
 20
154.8651814124901
 30
0.0
  9
$LIMMIN
 10
0.0
 20
0.0
  9
$LIMMAX
 10
12.0
 20
9.0
  9
$ORTHOMODE
 70
     0
  9
$REGENMODE
 70
     1
  9
$FILLMODE
 70
     1
  9
$QTEXTMODE
 70
     0
  9
$MIRRTEXT
 70
     0
  9
$LTSCALE
 40
1.0
  9
$ATTMODE
 70
     1
  9
$TEXTSIZE
 40
2.5
  9
$TRACEWID
 40
0.05
  9
$TEXTSTYLE
  7
STANDARD
  9
$CLAYER
  8
fill-base
  9
$CELTYPE
  6
CONTINUOUS
  9
$CECOLOR
 62
   256
  9
$CELTSCALE
 40
1.0
  9
$DISPSILH
 70
     0
  9
$DIMSCALE
 40
1.0
  9
$DIMASZ
 40
0.18
  9
$DIMEXO
 40
0.0625
  9
$DIMDLI
 40
0.38
  9
$DIMRND
 40
0.0
  9
$DIMDLE
 40
0.0
  9
$DIMEXE
 40
0.18
  9
$DIMTP
 40
0.0
  9
$DIMTM
 40
0.0
  9
$DIMTXT
 40
0.18
  9
$DIMCEN
 40
0.09
  9
$DIMTSZ
 40
0.0
  9
$DIMTOL
 70
     0
  9
$DIMLIM
 70
     0
  9
$DIMTIH
 70
     1
  9
$DIMTOH
 70
     1
  9
$DIMSE1
 70
     0
  9
$DIMSE2
 70
     0
  9
$DIMTAD
 70
     0
  9
$DIMZIN
 70
     0
  9
$DIMBLK
  1

  9
$DIMASO
 70
     1
  9
$DIMSHO
 70
     1
  9
$DIMPOST
  1

  9
$DIMAPOST
  1

  9
$DIMALT
 70
     0
  9
$DIMALTD
 70
     2
  9
$DIMALTF
 40
25.4
  9
$DIMLFAC
 40
1.0
  9
$DIMTOFL
 70
     0
  9
$DIMTVP
 40
0.0
  9
$DIMTIX
 70
     0
  9
$DIMSOXD
 70
     0
  9
$DIMSAH
 70
     0
  9
$DIMBLK1
  1

  9
$DIMBLK2
  1

  9
$DIMSTYLE
  2
ISO-25
  9
$DIMCLRD
 70
     0
  9
$DIMCLRE
 70
     0
  9
$DIMCLRT
 70
     0
  9
$DIMTFAC
 40
1.0
  9
$DIMGAP
 40
0.09
  9
$DIMJUST
 70
     0
  9
$DIMSD1
 70
     0
  9
$DIMSD2
 70
     0
  9
$DIMTOLJ
 70
     1
  9
$DIMTZIN
 70
     0
  9
$DIMALTZ
 70
     0
  9
$DIMALTTZ
 70
     0
  9
$DIMUPT
 70
     0
  9
$DIMDEC
 70
     4
  9
$DIMTDEC
 70
     4
  9
$DIMALTU
 70
     2
  9
$DIMALTTD
 70
     2
  9
$DIMTXSTY
  7
STANDARD
  9
$DIMAUNIT
 70
     0
  9
$DIMADEC
 70
     0
  9
$DIMALTRND
 40
0.0
  9
$DIMAZIN
 70
     0
  9
$DIMDSEP
 70
    46
  9
$DIMATFIT
 70
     3
  9
$DIMFRAC
 70
     0
  9
$DIMLDRBLK
  1

  9
$DIMLUNIT
 70
     2
  9
$DIMLWD
 70
    -2
  9
$DIMLWE
 70
    -2
  9
$DIMTMOVE
 70
     0
  9
$DIMFXL
 40
1.0
  9
$DIMFXLON
 70
     0
  9
$DIMJOGANG
 40
0.7853981633974483
  9
$DIMTFILL
 70
     0
  9
$DIMTFILLCLR
 70
     0
  9
$DIMARCSYM
 70
     0
  9
$DIMLTYPE
  6

  9
$DIMLTEX1
  6

  9
$DIMLTEX2
  6

  9
$DIMTXTDIRECTION
 70
     0
  9
$LUNITS
 70
     2
  9
$LUPREC
 70
     4
  9
$SKETCHINC
 40
0.1
  9
$FILLETRAD
 40
0.0
  9
$AUNITS
 70
     0
  9
$AUPREC
 70
     0
  9
$MENU
  1
.
  9
$ELEVATION
 40
0.0
  9
$PELEVATION
 40
0.0
  9
$THICKNESS
 40
0.0
  9
$LIMCHECK
 70
     0
  9
$CHAMFERA
 40
0.0
  9
$CHAMFERB
 40
0.0
  9
$CHAMFERC
 40
0.0
  9
$CHAMFERD
 40
0.0
  9
$SKPOLY
 70
     0
  9
$TDCREATE
 40
2459151.519942130
  9
$TDUCREATE
 40
2459151.061608797
  9
$TDUPDATE
 40
2459151.532210648
  9
$TDUUPDATE
 40
2459151.073877315
  9
$TDINDWG
 40
0.0122685185
  9
$TDUSRTIMER
 40
0.0122685185
  9
$USRTIMER
 70
     1
  9
$ANGBASE
 50
0.0
  9
$ANGDIR
 70
     0
  9
$PDMODE
 70
     0
  9
$PDSIZE
 40
0.0
  9
$PLINEWID
 40
0.0
  9
$SPLFRAME
 70
     0
  9
$SPLINETYPE
 70
     6
  9
$SPLINESEGS
 70
     8
  9
$HANDSEED
  5
10120
  9
$SURFTAB1
 70
     6
  9
$SURFTAB2
 70
     6
  9
$SURFTYPE
 70
     6
  9
$SURFU
 70
     6
  9
$SURFV
 70
     6
  9
$UCSBASE
  2

  9
$UCSNAME
  2

  9
$UCSORG
 10
0.0
 20
0.0
 30
0.0
  9
$UCSXDIR
 10
1.0
 20
0.0
 30
0.0
  9
$UCSYDIR
 10
0.0
 20
1.0
 30
0.0
  9
$UCSORTHOREF
  2

  9
$UCSORTHOVIEW
 70
     0
  9
$UCSORGTOP
 10
0.0
 20
0.0
 30
0.0
  9
$UCSORGBOTTOM
 10
0.0
 20
0.0
 30
0.0
  9
$UCSORGLEFT
 10
0.0
 20
0.0
 30
0.0
  9
$UCSORGRIGHT
 10
0.0
 20
0.0
 30
0.0
  9
$UCSORGFRONT
 10
0.0
 20
0.0
 30
0.0
  9
$UCSORGBACK
 10
0.0
 20
0.0
 30
0.0
  9
$PUCSBASE
  2

  9
$PUCSNAME
  2

  9
$PUCSORG
 10
0.0
 20
0.0
 30
0.0
  9
$PUCSXDIR
 10
1.0
 20
0.0
 30
0.0
  9
$PUCSYDIR
 10
0.0
 20
1.0
 30
0.0
  9
$PUCSORTHOREF
  2

  9
$PUCSORTHOVIEW
 70
     0
  9
$PUCSORGTOP
 10
0.0
 20
0.0
 30
0.0
  9
$PUCSORGBOTTOM
 10
0.0
 20
0.0
 30
0.0
  9
$PUCSORGLEFT
 10
0.0
 20
0.0
 30
0.0
  9
$PUCSORGRIGHT
 10
0.0
 20
0.0
 30
0.0
  9
$PUCSORGFRONT
 10
0.0
 20
0.0
 30
0.0
  9
$PUCSORGBACK
 10
0.0
 20
0.0
 30
0.0
  9
$USERI1
 70
     0
  9
$USERI2
 70
     0
  9
$USERI3
 70
     0
  9
$USERI4
 70
     0
  9
$USERI5
 70
     0
  9
$USERR1
 40
0.0
  9
$USERR2
 40
0.0
  9
$USERR3
 40
0.0
  9
$USERR4
 40
0.0
  9
$USERR5
 40
0.0
  9
$WORLDVIEW
 70
     1
  9
$SHADEDGE
 70
     3
  9
$SHADEDIF
 70
    70
  9
$TILEMODE
 70
     1
  9
$MAXACTVP
 70
    64
  9
$PINSBASE
 10
0.0
 20
0.0
 30
0.0
  9
$PLIMCHECK
 70
     0
  9
$PEXTMIN
 10
1.000000000000000E+20
 20
1.000000000000000E+20
 30
1.000000000000000E+20
  9
$PEXTMAX
 10
-1.000000000000000E+20
 20
-1.000000000000000E+20
 30
-1.000000000000000E+20
  9
$PLIMMIN
 10
0.0
 20
0.0
  9
$PLIMMAX
 10
12.0
 20
9.0
  9
$UNITMODE
 70
     0
  9
$VISRETAIN
 70
     1
  9
$PLINEGEN
 70
     0
  9
$PSLTSCALE
 70
     1
  9
$TREEDEPTH
 70
  3020
  9
$CMLSTYLE
  2

  9
$CMLJUST
 70
     0
  9
$CMLSCALE
 40
1.0
  9
$PROXYGRAPHICS
 70
     1
  9
$MEASUREMENT
 70
     1
  9
$CELWEIGHT
370
    -1
  9
$ENDCAPS
280
     0
  9
$JOINSTYLE
280
     0
  9
$LWDISPLAY
290
     0
  9
$INSUNITS
 70
     0
  9
$HYPERLINKBASE
  1

  9
$STYLESHEET
  1

  9
$XEDIT
290
     1
  9
$CEPSNTYPE
380
     0
  9
$PSTYLEMODE
290
     1
  9
$FINGERPRINTGUID
  2
{E9E29CE7-62C9-3C4D-809A-36F805758BA3}
  9
$VERSIONGUID
  2
{6E23870E-1451-4A45-AFA0-4DC4E4CCFB57}
  9
$EXTNAMES
290
     1
  9
$PSVPSCALE
 40
0.0
  9
$OLESTARTUP
290
     0
  9
$SORTENTS
280
   127
  9
$INDEXCTL
280
     0
  9
$HIDETEXT
280
     0
  9
$XCLIPFRAME
280
     2
  9
$HALOGAP
280
     0
  9
$OBSCOLOR
 70
   257
  9
$OBSLTYPE
280
     0
  9
$INTERSECTIONDISPLAY
280
     0
  9
$INTERSECTIONCOLOR
 70
   257
  9
$DIMASSOC
280
     1
  9
$PROJECTNAME
  1

  9
$CAMERADISPLAY
290
     0
  9
$LENSLENGTH
 40
50.0
  9
$CAMERAHEIGHT
 40
0.0
  9
$STEPSPERSEC
 40
2.0
  9
$STEPSIZE
 40
6.0
  9
$3DDWFPREC
 40
2.0
  9
$PSOLWIDTH
 40
0.25
  9
$PSOLHEIGHT
 40
4.0
  9
$LOFTANG1
 40
1.570796326794896
  9
$LOFTANG2
 40
1.570796326794896
  9
$LOFTMAG1
 40
0.0
  9
$LOFTMAG2
 40
0.0
  9
$LOFTPARAM
 70
     7
  9
$LOFTNORMALS
280
     1
  9
$LATITUDE
 40
37.795
  9
$LONGITUDE
 40
-122.394
  9
$NORTHDIRECTION
 40
0.0
  9
$TIMEZONE
 70
 -8000
  9
$LIGHTGLYPHDISPLAY
280
     1
  9
$TILEMODELIGHTSYNCH
280
     1
  9
$CMATERIAL
347
10004
  9
$SOLIDHIST
280
     0
  9
$SHOWHIST
280
     1
  9
$DWFFRAME
280
     2
  9
$DGNFRAME
280
     0
  9
$REALWORLDSCALE
290
     1
  9
$INTERFERECOLOR
 62
     1
  9
$INTERFEREOBJVS
345
10026
  9
$INTERFEREVPVS
346
10023
  9
$CSHADOW
280
     0
  9
$SHADOWPLANELOCATION
 40
0.0
  0
ENDSEC
  0
SECTION
  2
CLASSES
  0
CLASS
  1
ACDBDICTIONARYWDFLT
  2
AcDbDictionaryWithDefault
  3
ObjectDBX Classes
 90
        0
 91
        1
280
     0
281
     0
  0
CLASS
  1
MATERIAL
  2
AcDbMaterial
  3
ObjectDBX Classes
 90
     1153
 91
        3
280
     0
281
     0
  0
CLASS
  1
VISUALSTYLE
  2
AcDbVisualStyle
  3
ObjectDBX Classes
 90
     4095
 91
       24
280
     0
281
     0
  0
CLASS
  1
TABLESTYLE
  2
AcDbTableStyle
  3
ObjectDBX Classes
 90
     4095
 91
        1
280
     0
281
     0
  0
CLASS
  1
SCALE
  2
AcDbScale
  3
ObjectDBX Classes
 90
     1153
 91
       17
280
     0
281
     0
  0
CLASS
  1
MLEADERSTYLE
  2
AcDbMLeaderStyle
  3
ACDB_MLEADERSTYLE_CLASS
 90
     4095
 91
        1
280
     0
281
     0
  0
CLASS
  1
ACDBSECTIONVIEWSTYLE
  2
AcDbSectionViewStyle
  3
ObjectDBX Classes
 90
     1025
 91
        1
280
     0
281
     0
  0
CLASS
  1
ACDBDETAILVIEWSTYLE
  2
AcDbDetailViewStyle
  3
ObjectDBX Classes
 90
     1025
 91
        1
280
     0
281
     0
  0
CLASS
  1
DICTIONARYVAR
  2
AcDbDictionaryVar
  3
ObjectDBX Classes
 90
        0
 91
       11
280
     0
281
     0
  0
CLASS
  1
CELLSTYLEMAP
  2
AcDbCellStyleMap
  3
ObjectDBX Classes
 90
     1152
 91
        4
280
     0
281
     0
  0
CLASS
  1
SORTENTSTABLE
  2
AcDbSortentsTable
  3
ObjectDBX Classes
 90
        0
 91
        3
280
     0
281
     0
  0
ENDSEC
  0
SECTION
  2
TABLES
  0
TABLE
  2
VPORT
  5
8
330
0
100
AcDbSymbolTable
 70
     1
1001
ACAD
1000
DbSaveVer
1071
      224
  0
VPORT
  5
2E
330
8
100
AcDbSymbolTableRecord
100
AcDbViewportTableRecord
  2
*ACTIVE
 70
     0
 10
0.0
 20
0.0
 11
1.0
 21
1.0
 12
68.93700769939925
 22
92.17214319293862
 13
0.0
 23
0.0
 14
10.0
 24
10.0
 15
10.0
 25
10.0
 16
0.0
 26
0.0
 36
1.0
 17
0.0
 27
0.0
 37
0.0
 40
280.7555250313107
 41
1.98015873015873
 42
50.0
 43
0.0
 44
0.0
 50
0.0
 51
0.0
 71
     0
 72
   100
 73
     1
 74
     3
 75
     0
 76
     0
 77
     0
 78
     0
281
     0
 65
     1
110
0.0
120
0.0
130
0.0
111
1.0
121
0.0
131
0.0
112
0.0
122
1.0
132
0.0
 79
     0
146
0.0
348
10022
 60
     3
 61
     5
292
     1
282
     1
141
0.0
142
0.0
 63
   250
421
  3355443
1001
ACAD_NAV_VCDISPLAY
1070
     3
  0
ENDTAB
  0
TABLE
  2
LTYPE
  5
5
330
0
100
AcDbSymbolTable
 70
     2
  0
LTYPE
  5
14
330
5
100
AcDbSymbolTableRecord
100
AcDbLinetypeTableRecord
  2
BYBLOCK
 70
     0
  3

 72
    65
 73
     0
 40
0.0
  0
LTYPE
  5
15
330
5
100
AcDbSymbolTableRecord
100
AcDbLinetypeTableRecord
  2
BYLAYER
 70
     0
  3

 72
    65
 73
     0
 40
0.0
  0
LTYPE
  5
16
330
5
100
AcDbSymbolTableRecord
100
AcDbLinetypeTableRecord
  2
CONTINUOUS
 70
     0
  3
Solid line
 72
    65
 73
     0
 40
0.0
  0
ENDTAB
  0
TABLE
  2
LAYER
  5
2
102
{ACAD_XDICTIONARY
360
10070
102
}
330
0
100
AcDbSymbolTable
 70
     7
  0
LAYER
  5
50
102
{ACAD_XDICTIONARY
360
100A9
102
}
330
2
100
AcDbSymbolTableRecord
100
AcDbLayerTableRecord
  2
0
 70
     0
 62
     7
  6
CONTINUOUS
370
    -3
390
10002
347
10014
348
0
  0
LAYER
  5
1006B
102
{ACAD_XDICTIONARY
360
1006C
102
}
330
2
100
AcDbSymbolTableRecord
100
AcDbLayerTableRecord
  2
logo-outline
 70
     0
 62
     7
  6
CONTINUOUS
370
    -3
390
10002
347
10014
348
0
1001
AcAecLayerStandard
1000

1000

1001
AcCmTransparency
1071
        0
  0
LAYER
  5
100CD
330
2
100
AcDbSymbolTableRecord
100
AcDbLayerTableRecord
  2
fill-hero
 70
     0
 62
   253
  6
CONTINUOUS
370
    -3
390
10002
347
10014
348
0
1001
AcAecLayerStandard
1000

1000

1001
AcCmTransparency
1071
        0
  0
LAYER
  5
100CE
330
2
100
AcDbSymbolTableRecord
100
AcDbLayerTableRecord
  2
fill-base
 70
     0
 62
   255
  6
CONTINUOUS
370
    -3
390
10002
347
10014
348
0
1001
AcAecLayerStandard
1000

1000

1001
AcCmTransparency
1071
        0
  0
ENDTAB
  0
TABLE
  2
STYLE
  5
3
330
0
100
AcDbSymbolTable
 70
     1
  0
STYLE
  5
11
330
3
100
AcDbSymbolTableRecord
100
AcDbTextStyleTableRecord
  2
STANDARD
 70
     0
 40
0.0
 41
1.0
 50
0.0
 71
     0
 42
2.5
  3
txt
  4

  0
ENDTAB
  0
TABLE
  2
VIEW
  5
6
330
0
100
AcDbSymbolTable
 70
     0
  0
ENDTAB
  0
TABLE
  2
UCS
  5
7
330
0
100
AcDbSymbolTable
 70
     0
  0
ENDTAB
  0
TABLE
  2
APPID
  5
9
330
0
100
AcDbSymbolTable
 70
     7
  0
APPID
  5
12
330
9
100
AcDbSymbolTableRecord
100
AcDbRegAppTableRecord
  2
ACAD
 70
     0
  0
APPID
  5
10057
330
9
100
AcDbSymbolTableRecord
100
AcDbRegAppTableRecord
  2
ACAD_EXEMPT_FROM_CAD_STANDARDS
 70
     0
  0
APPID
  5
1005F
330
9
100
AcDbSymbolTableRecord
100
AcDbRegAppTableRecord
  2
ACAD_NAV_VCDISPLAY
 70
     0
  0
APPID
  5
1006D
330
9
100
AcDbSymbolTableRecord
100
AcDbRegAppTableRecord
  2
AcAecLayerStandard
 70
     0
  0
APPID
  5
1006E
330
9
100
AcDbSymbolTableRecord
100
AcDbRegAppTableRecord
  2
AcCmTransparency
 70
     0
  0
APPID
  5
100B5
330
9
100
AcDbSymbolTableRecord
100
AcDbRegAppTableRecord
  2
GradientColor1ACI
 70
     0
  0
APPID
  5
100B6
330
9
100
AcDbSymbolTableRecord
100
AcDbRegAppTableRecord
  2
GradientColor2ACI
 70
     0
  0
ENDTAB
  0
TABLE
  2
DIMSTYLE
  5
A
330
0
100
AcDbSymbolTable
 70
     2
100
AcDbDimStyleTable
 71
     1
340
27
  0
DIMSTYLE
105
27
330
A
100
AcDbSymbolTableRecord
100
AcDbDimStyleTableRecord
  2
ISO-25
 70
     0
 41
2.5
 42
0.625
 43
3.75
 44
1.25
 73
     0
 74
     0
 77
     1
 78
     8
140
2.5
141
2.5
143
0.03937007874016
147
0.625
171
     3
172
     1
271
     2
272
     2
274
     3
283
     0
284
     8
340
11
  0
ENDTAB
  0
TABLE
  2
BLOCK_RECORD
  5
1
330
0
100
AcDbSymbolTable
 70
     4
  0
BLOCK_RECORD
  5
1F
102
{ACAD_XDICTIONARY
360
100E6
102
}
330
1
100
AcDbSymbolTableRecord
100
AcDbBlockTableRecord
  2
*MODEL_SPACE
340
10052
 70
     0
280
     1
281
     0
  0
BLOCK_RECORD
  5
1B
330
1
100
AcDbSymbolTableRecord
100
AcDbBlockTableRecord
  2
*PAPER_SPACE
340
10053
 70
     0
280
     1
281
     0
  0
ENDTAB
  0
ENDSEC
  0
SECTION
  2
BLOCKS
  0
BLOCK
  5
20
330
1F
100
AcDbEntity
  8
0
100
AcDbBlockBegin
  2
*MODEL_SPACE
 70
     0
 10
0.0
 20
0.0
 30
0.0
  3
*MODEL_SPACE
  1

  0
ENDBLK
  5
21
330
1F
100
AcDbEntity
  8
0
100
AcDbBlockEnd
  0
BLOCK
  5
1C
330
1B
100
AcDbEntity
 67
     1
  8
0
100
AcDbBlockBegin
  2
*PAPER_SPACE
 70
     0
 10
0.0
 20
0.0
 30
0.0
  3
*PAPER_SPACE
  1

  0
ENDBLK
  5
1D
330
1B
100
AcDbEntity
 67
     1
  8
0
100
AcDbBlockEnd
  0
ENDSEC
  0
SECTION
  2
ENTITIES
  0
SPLINE
  5
1008E
102
{ACAD_REACTORS
330
100F4
102
}
330
1F
100
AcDbEntity
  8
logo-outline
100
AcDbSpline
210
0.0
220
0.0
230
1.0
 70
     9
 71
     3
 72
    53
 73
    49
 74
     0
 42
0.000000001
 43
0.0000000001
 40
0.0
 40
0.0
 40
0.0
 40
0.0
 40
1.0
 40
1.0
 40
1.0
 40
2.0
 40
2.0
 40
2.0
 40
3.0
 40
3.0
 40
3.0
 40
4.0
 40
4.0
 40
4.0
 40
5.0
 40
5.0
 40
5.0
 40
6.0
 40
6.0
 40
6.0
 40
7.0
 40
7.0
 40
7.0
 40
8.0
 40
8.0
 40
8.0
 40
9.0
 40
9.0
 40
9.0
 40
10.0
 40
10.0
 40
10.0
 40
11.0
 40
11.0
 40
11.0
 40
12.0
 40
12.0
 40
12.0
 40
13.0
 40
13.0
 40
13.0
 40
14.0
 40
14.0
 40
14.0
 40
15.0
 40
15.0
 40
15.0
 40
16.0
 40
16.0
 40
16.0
 40
16.0
 10
129.105501
 20
30.127869
 30
0.0
 10
129.539001
 20
31.141869
 30
0.0
 10
130.145751
 20
32.041869
 30
0.0
 10
130.923501
 20
32.827119
 30
0.0
 10
131.701251
 20
33.612369
 30
0.0
 10
132.596751
 20
34.230369
 30
0.0
 10
133.611501
 20
34.67961900000001
 30
0.0
 10
134.625501
 20
35.129619
 30
0.0
 10
135.719751
 20
35.354619
 30
0.0
 10
136.894251
 20
35.354619
 30
0.0
 10
138.053001
 20
35.354619
 30
0.0
 10
139.139751
 20
35.129619
 30
0.0
 10
140.153751
 20
34.67961900000001
 30
0.0
 10
141.168501
 20
34.229619
 30
0.0
 10
142.067751
 20
33.612369
 30
0.0
 10
142.853751
 20
32.827119
 30
0.0
 10
143.639001
 20
32.041869
 30
0.0
 10
144.252501
 20
31.141869
 30
0.0
 10
144.695001
 20
30.127869
 30
0.0
 10
145.137501
 20
29.113119
 30
0.0
 10
145.358751
 20
28.034619
 30
0.0
 10
145.358751
 20
26.891619
 30
0.0
 10
145.358751
 20
25.717119
 30
0.0
 10
145.137501
 20
24.619119
 30
0.0
 10
144.695001
 20
23.597619
 30
0.0
 10
144.252501
 20
22.575369
 30
0.0
 10
143.639001
 20
21.678369
 30
0.0
 10
142.853751
 20
20.909619
 30
0.0
 10
142.067751
 20
20.139369
 30
0.0
 10
141.168501
 20
19.537119
 30
0.0
 10
140.153751
 20
19.102119
 30
0.0
 10
139.139751
 20
18.667869
 30
0.0
 10
138.053001
 20
18.450369
 30
0.0
 10
136.894251
 20
18.450369
 30
0.0
 10
135.719751
 20
18.450369
 30
0.0
 10
134.625501
 20
18.664119
 30
0.0
 10
133.611501
 20
19.090869
 30
0.0
 10
132.596751
 20
19.518369
 30
0.0
 10
131.701251
 20
20.113119
 30
0.0
 10
130.923501
 20
20.875119
 30
0.0
 10
130.145751
 20
21.638619
 30
0.0
 10
129.539001
 20
22.530369
 30
0.0
 10
129.105501
 20
23.551869
 30
0.0
 10
128.670501
 20
24.573369
 30
0.0
 10
128.453001
 20
25.686369
 30
0.0
 10
128.453001
 20
26.891619
 30
0.0
 10
128.453001
 20
28.035369
 30
0.0
 10
128.670501
 20
29.113869
 30
0.0
 10
129.105501
 20
30.127869
 30
0.0
  0
LWPOLYLINE
  5
1008F
102
{ACAD_REACTORS
330
100F2
102
}
330
1F
100
AcDbEntity
  8
logo-outline
100
AcDbPolyline
 90
       13
 70
     1
 43
0.0
 10
107.819751
 20
18.633369
 10
107.819751
 20
35.698119
 10
107.843001
 20
35.698119
 10
115.981911
 20
24.145243
 10
124.221501
 20
35.698119
 10
124.267251
 20
35.698119
 10
124.267251
 20
18.633369
 10
122.071251
 20
18.633369
 10
122.071251
 20
29.349259
 10
115.964001
 20
20.714619
 10
115.918251
 20
20.714619
 10
109.970751
 20
29.002961
 10
109.970751
 20
18.633369
  0
SPLINE
  5
10090
102
{ACAD_REACTORS
330
100F4
102
}
330
1F
100
AcDbEntity
  8
logo-outline
100
AcDbSpline
210
0.0
220
0.0
230
1.0
 70
     9
 71
     3
 72
    53
 73
    49
 74
     0
 42
0.000000001
 43
0.0000000001
 40
0.0
 40
0.0
 40
0.0
 40
0.0
 40
1.0
 40
1.0
 40
1.0
 40
2.0
 40
2.0
 40
2.0
 40
3.0
 40
3.0
 40
3.0
 40
4.0
 40
4.0
 40
4.0
 40
5.0
 40
5.0
 40
5.0
 40
6.0
 40
6.0
 40
6.0
 40
7.0
 40
7.0
 40
7.0
 40
8.0
 40
8.0
 40
8.0
 40
9.0
 40
9.0
 40
9.0
 40
10.0
 40
10.0
 40
10.0
 40
11.0
 40
11.0
 40
11.0
 40
12.0
 40
12.0
 40
12.0
 40
13.0
 40
13.0
 40
13.0
 40
14.0
 40
14.0
 40
14.0
 40
15.0
 40
15.0
 40
15.0
 40
16.0
 40
16.0
 40
16.0
 40
16.0
 10
131.220501
 20
24.432369
 30
0.0
 10
131.541501
 20
23.676369
 30
0.0
 10
131.983251
 20
23.010369
 30
0.0
 10
132.548001
 20
22.429869
 30
0.0
 10
133.112001
 20
21.850869
 30
0.0
 10
133.768251
 20
21.39711899999999
 30
0.0
 10
134.515251
 20
21.069369
 30
0.0
 10
135.262251
 20
20.741619
 30
0.0
 10
136.070751
 20
20.577369
 30
0.0
 10
136.939251
 20
20.577369
 30
0.0
 10
137.793501
 20
20.577369
 30
0.0
 10
138.593751
 20
20.741619
 30
0.0
 10
139.341501
 20
21.069369
 30
0.0
 10
140.088501
 20
21.397869
 30
0.0
 10
140.736501
 20
21.850869
 30
0.0
 10
141.285501
 20
22.429869
 30
0.0
 10
141.834501
 20
23.009619
 30
0.0
 10
142.270251
 20
23.676369
 30
0.0
 10
142.589001
 20
24.432369
 30
0.0
 10
142.910001
 20
25.186869
 30
0.0
 10
143.069751
 20
26.006619
 30
0.0
 10
143.069751
 20
26.890869
 30
0.0
 10
143.069751
 20
27.760119
 30
0.0
 10
142.910001
 20
28.579119
 30
0.0
 10
142.589001
 20
29.349369
 30
0.0
 10
142.269501
 20
30.119619
 30
0.0
 10
141.826251
 20
30.793869
 30
0.0
 10
141.262251
 20
31.373619
 30
0.0
 10
140.697501
 20
31.953369
 30
0.0
 10
140.042001
 20
32.406369
 30
0.0
 10
139.295001
 20
32.734869
 30
0.0
 10
138.547251
 20
33.062619
 30
0.0
 10
137.747751
 20
33.226869
 30
0.0
 10
136.893501
 20
33.226869
 30
0.0
 10
136.024251
 20
33.226869
 30
0.0
 10
135.215751
 20
33.058869
 30
0.0
 10
134.468751
 20
32.723619
 30
0.0
 10
133.721751
 20
32.387619
 30
0.0
 10
133.066251
 20
31.930119
 30
0.0
 10
132.502251
 20
31.351119
 30
0.0
 10
131.936751
 20
30.771369
 30
0.0
 10
131.503251
 20
30.096369
 30
0.0
 10
131.198001
 20
29.326869
 30
0.0
 10
130.892751
 20
28.557369
 30
0.0
 10
130.739751
 20
27.737619
 30
0.0
 10
130.739751
 20
26.868369
 30
0.0
 10
130.739751
 20
25.998369
 30
0.0
 10
130.900251
 20
25.186869
 30
0.0
 10
131.220501
 20
24.432369
 30
0.0
  0
LWPOLYLINE
  5
10091
330
1F
100
AcDbEntity
  8
logo-outline
100
AcDbPolyline
 90
        2
 70
     1
 43
0.0
 10
128.453001
 20
26.891619
 10
128.453001
 20
26.891619
  0
LWPOLYLINE
  5
10092
330
1F
100
AcDbEntity
  8
logo-outline
100
AcDbPolyline
 90
        2
 70
     1
 43
0.0
 10
130.739751
 20
26.868369
 10
130.739751
 20
26.868369
  0
LWPOLYLINE
  5
10093
102
{ACAD_REACTORS
330
100F6
102
}
330
1F
100
AcDbEntity
  8
logo-outline
100
AcDbPolyline
 90
        8
 70
     1
 43
0.0
 10
148.331751
 20
35.171619
 10
159.311001
 20
35.171619
 10
159.311001
 20
33.044619
 10
154.874001
 20
33.044619
 10
154.874001
 20
18.633369
 10
152.654751
 20
18.633369
 10
152.654751
 20
33.044619
 10
148.331751
 20
33.044619
  0
SPLINE
  5
10094
102
{ACAD_REACTORS
330
100FA
102
}
330
1F
100
AcDbEntity
  8
logo-outline
100
AcDbSpline
210
0.0
220
0.0
230
1.0
 70
     9
 71
     3
 72
    53
 73
    49
 74
     0
 42
0.000000001
 43
0.0000000001
 40
0.0
 40
0.0
 40
0.0
 40
0.0
 40
1.0
 40
1.0
 40
1.0
 40
2.0
 40
2.0
 40
2.0
 40
3.0
 40
3.0
 40
3.0
 40
4.0
 40
4.0
 40
4.0
 40
5.0
 40
5.0
 40
5.0
 40
6.0
 40
6.0
 40
6.0
 40
7.0
 40
7.0
 40
7.0
 40
8.0
 40
8.0
 40
8.0
 40
9.0
 40
9.0
 40
9.0
 40
10.0
 40
10.0
 40
10.0
 40
11.0
 40
11.0
 40
11.0
 40
12.0
 40
12.0
 40
12.0
 40
13.0
 40
13.0
 40
13.0
 40
14.0
 40
14.0
 40
14.0
 40
15.0
 40
15.0
 40
15.0
 40
16.0
 40
16.0
 40
16.0
 40
16.0
 10
170.349501
 20
30.127869
 30
0.0
 10
170.783001
 20
31.141869
 30
0.0
 10
171.389751
 20
32.041869
 30
0.0
 10
172.167501
 20
32.827119
 30
0.0
 10
172.9452509999999
 20
33.612369
 30
0.0
 10
173.841501
 20
34.230369
 30
0.0
 10
174.855501
 20
34.67961900000001
 30
0.0
 10
175.8695009999999
 20
35.128869
 30
0.0
 10
176.963751
 20
35.354619
 30
0.0
 10
178.138251
 20
35.354619
 30
0.0
 10
179.297001
 20
35.354619
 30
0.0
 10
180.383751
 20
35.129619
 30
0.0
 10
181.397751
 20
34.67961900000001
 30
0.0
 10
182.411751
 20
34.229619
 30
0.0
 10
183.312501
 20
33.612369
 30
0.0
 10
184.097751
 20
32.827119
 30
0.0
 10
184.883001
 20
32.041869
 30
0.0
 10
185.496501
 20
31.141869
 30
0.0
 10
185.939001
 20
30.127869
 30
0.0
 10
186.381501
 20
29.113119
 30
0.0
 10
186.602751
 20
28.034619
 30
0.0
 10
186.602751
 20
26.891619
 30
0.0
 10
186.602751
 20
25.717119
 30
0.0
 10
186.381501
 20
24.619119
 30
0.0
 10
185.939001
 20
23.597619
 30
0.0
 10
185.496501
 20
22.575369
 30
0.0
 10
184.883001
 20
21.678369
 30
0.0
 10
184.097751
 20
20.909619
 30
0.0
 10
183.312501
 20
20.139369
 30
0.0
 10
182.411751
 20
19.537119
 30
0.0
 10
181.397751
 20
19.102119
 30
0.0
 10
180.383751
 20
18.667869
 30
0.0
 10
179.297001
 20
18.450369
 30
0.0
 10
178.138251
 20
18.450369
 30
0.0
 10
176.963751
 20
18.450369
 30
0.0
 10
175.8695009999999
 20
18.664119
 30
0.0
 10
174.855501
 20
19.090869
 30
0.0
 10
173.841501
 20
19.518369
 30
0.0
 10
172.9452509999999
 20
20.113119
 30
0.0
 10
172.167501
 20
20.875119
 30
0.0
 10
171.389751
 20
21.638619
 30
0.0
 10
170.783001
 20
22.530369
 30
0.0
 10
170.349501
 20
23.551869
 30
0.0
 10
169.914501
 20
24.573369
 30
0.0
 10
169.697751
 20
25.686369
 30
0.0
 10
169.697751
 20
26.891619
 30
0.0
 10
169.697751
 20
28.035369
 30
0.0
 10
169.914501
 20
29.113869
 30
0.0
 10
170.349501
 20
30.127869
 30
0.0
  0
LWPOLYLINE
  5
10095
102
{ACAD_REACTORS
330
100F8
102
}
330
1F
100
AcDbEntity
  8
logo-outline
100
AcDbPolyline
 90
        4
 70
     1
 43
0.0
 10
163.292001
 20
35.171619
 10
165.511251
 20
35.171619
 10
165.511251
 20
18.633369
 10
163.292001
 20
18.633369
  0
SPLINE
  5
10096
102
{ACAD_REACTORS
330
100FA
102
}
330
1F
100
AcDbEntity
  8
logo-outline
100
AcDbSpline
210
0.0
220
0.0
230
1.0
 70
     9
 71
     3
 72
    53
 73
    49
 74
     0
 42
0.000000001
 43
0.0000000001
 40
0.0
 40
0.0
 40
0.0
 40
0.0
 40
1.0
 40
1.0
 40
1.0
 40
2.0
 40
2.0
 40
2.0
 40
3.0
 40
3.0
 40
3.0
 40
4.0
 40
4.0
 40
4.0
 40
5.0
 40
5.0
 40
5.0
 40
6.0
 40
6.0
 40
6.0
 40
7.0
 40
7.0
 40
7.0
 40
8.0
 40
8.0
 40
8.0
 40
9.0
 40
9.0
 40
9.0
 40
10.0
 40
10.0
 40
10.0
 40
11.0
 40
11.0
 40
11.0
 40
12.0
 40
12.0
 40
12.0
 40
13.0
 40
13.0
 40
13.0
 40
14.0
 40
14.0
 40
14.0
 40
15.0
 40
15.0
 40
15.0
 40
16.0
 40
16.0
 40
16.0
 40
16.0
 10
172.465251
 20
24.432369
 30
0.0
 10
172.786251
 20
23.676369
 30
0.0
 10
173.228751
 20
23.010369
 30
0.0
 10
173.792751
 20
22.429869
 30
0.0
 10
174.356751
 20
21.850869
 30
0.0
 10
175.013001
 20
21.39711899999999
 30
0.0
 10
175.760001
 20
21.069369
 30
0.0
 10
176.507001
 20
20.741619
 30
0.0
 10
177.315501
 20
20.577369
 30
0.0
 10
178.184001
 20
20.577369
 30
0.0
 10
179.038251
 20
20.577369
 30
0.0
 10
179.839251
 20
20.741619
 30
0.0
 10
180.586251
 20
21.069369
 30
0.0
 10
181.333251
 20
21.39711899999999
 30
0.0
 10
181.980501
 20
21.850869
 30
0.0
 10
182.530251
 20
22.429869
 30
0.0
 10
183.079251
 20
23.009619
 30
0.0
 10
183.515001
 20
23.676369
 30
0.0
 10
183.833751
 20
24.432369
 30
0.0
 10
184.154751
 20
25.186869
 30
0.0
 10
184.314501
 20
26.006619
 30
0.0
 10
184.314501
 20
26.890869
 30
0.0
 10
184.314501
 20
27.760119
 30
0.0
 10
184.154751
 20
28.579119
 30
0.0
 10
183.833751
 20
29.349369
 30
0.0
 10
183.514251
 20
30.119619
 30
0.0
 10
183.071751
 20
30.793869
 30
0.0
 10
182.507751
 20
31.373619
 30
0.0
 10
181.942251
 20
31.953369
 30
0.0
 10
181.287501
 20
32.406369
 30
0.0
 10
180.5405010000001
 20
32.734869
 30
0.0
 10
179.792001
 20
33.062619
 30
0.0
 10
178.992501
 20
33.226869
 30
0.0
 10
178.138251
 20
33.226869
 30
0.0
 10
177.268251
 20
33.226869
 30
0.0
 10
176.461251
 20
33.058869
 30
0.0
 10
175.714251
 20
32.723619
 30
0.0
 10
174.965751
 20
32.387619
 30
0.0
 10
174.311001
 20
31.930119
 30
0.0
 10
173.747001
 20
31.351119
 30
0.0
 10
173.181501
 20
30.771369
 30
0.0
 10
172.748001
 20
30.096369
 30
0.0
 10
172.443501
 20
29.326869
 30
0.0
 10
172.136751
 20
28.557369
 30
0.0
 10
171.984501
 20
27.737619
 30
0.0
 10
171.984501
 20
26.868369
 30
0.0
 10
171.984501
 20
25.998369
 30
0.0
 10
172.145751
 20
25.186869
 30
0.0
 10
172.465251
 20
24.432369
 30
0.0
  0
LWPOLYLINE
  5
10097
330
1F
100
AcDbEntity
  8
logo-outline
100
AcDbPolyline
 90
        2
 70
     1
 43
0.0
 10
169.697751
 20
26.891619
 10
169.697751
 20
26.891619
  0
LWPOLYLINE
  5
10098
330
1F
100
AcDbEntity
  8
logo-outline
100
AcDbPolyline
 90
        2
 70
     1
 43
0.0
 10
171.984501
 20
26.868369
 10
171.984501
 20
26.868369
  0
LWPOLYLINE
  5
10099
102
{ACAD_REACTORS
330
100FC
102
}
330
1F
100
AcDbEntity
  8
logo-outline
100
AcDbPolyline
 90
       10
 70
     1
 43
0.0
 10
205.107501
 20
18.107619
 10
192.963073
 20
30.425844
 10
193.007001
 20
18.634119
 10
190.787751
 20
18.634119
 10
190.787751
 20
35.674869
 10
190.901751
 20
35.674869
 10
203.0246530000001
 20
23.201926
 10
202.980501
 20
35.171619
 10
205.176501
 20
35.171619
 10
205.176501
 20
18.107619
  0
SPLINE
  5
1009A
102
{ACAD_REACTORS
330
100FE
102
}
330
1F
100
AcDbEntity
  8
logo-outline
100
AcDbSpline
210
0.0
220
0.0
230
1.0
 70
    13
 71
     3
 72
   116
 73
   112
 74
     0
 42
0.000000001
 43
0.0000000001
 40
0.0
 40
0.0
 40
0.0
 40
0.0
 40
1.0
 40
1.0
 40
1.0
 40
2.0
 40
2.0
 40
2.0
 40
3.0
 40
3.0
 40
3.0
 40
4.0
 40
4.0
 40
4.0
 40
5.0
 40
5.0
 40
5.0
 40
6.0
 40
6.0
 40
6.0
 40
7.0
 40
7.0
 40
7.0
 40
8.0
 40
8.0
 40
8.0
 40
9.0
 40
9.0
 40
9.0
 40
10.0
 40
10.0
 40
10.0
 40
11.0
 40
11.0
 40
11.0
 40
12.0
 40
12.0
 40
12.0
 40
13.0
 40
13.0
 40
13.0
 40
14.0
 40
14.0
 40
14.0
 40
15.0
 40
15.0
 40
15.0
 40
16.0
 40
16.0
 40
16.0
 40
17.0
 40
17.0
 40
17.0
 40
18.0
 40
18.0
 40
18.0
 40
19.0
 40
19.0
 40
19.0
 40
20.0
 40
20.0
 40
20.0
 40
21.0
 40
21.0
 40
21.0
 40
22.0
 40
22.0
 40
22.0
 40
23.0
 40
23.0
 40
23.0
 40
24.0
 40
24.0
 40
24.0
 40
25.0
 40
25.0
 40
25.0
 40
26.0
 40
26.0
 40
26.0
 40
27.0
 40
27.0
 40
27.0
 40
28.0
 40
28.0
 40
28.0
 40
29.0
 40
29.0
 40
29.0
 40
30.0
 40
30.0
 40
30.0
 40
31.0
 40
31.0
 40
31.0
 40
32.0
 40
32.0
 40
32.0
 40
33.0
 40
33.0
 40
33.0
 40
34.0
 40
34.0
 40
34.0
 40
35.0
 40
35.0
 40
35.0
 40
36.0
 40
36.0
 40
36.0
 40
37.0
 40
37.0
 40
37.0
 40
37.0
 10
24.29300100000001
 20
33.158619
 30
0.0
 41
1.0
 10
23.43875100000003
 20
33.158619
 30
0.0
 41
1.0
 10
22.76075100000003
 20
32.964369
 30
0.0
 41
1.0
 10
22.25750100000002
 20
32.575119
 30
0.0
 41
1.0
 10
21.75425100000001
 20
32.185869
 30
0.0
 41
1.0
 10
21.50300100000001
 20
31.656369
 30
0.0
 41
1.0
 10
21.50300100000001
 20
30.985119
 30
0.0
 41
1.0
 10
21.50300100000001
 20
30.511869
 30
0.0
 41
1.0
 10
21.67025100000001
 20
30.100119
 30
0.0
 41
1.0
 10
22.00625100000002
 20
29.749869
 30
0.0
 41
1.0
 10
22.34150100000002
 20
29.398869
 30
0.0
 41
1.0
 10
22.77575100000001
 20
29.093619
 30
0.0
 41
1.0
 10
23.30975100000001
 20
28.834869
 30
0.0
 41
1.0
 10
23.84300100000002
 20
28.575369
 30
0.0
 41
1.0
 10
24.40775100000002
 20
28.331619
 30
0.0
 41
1.0
 10
25.00250100000002
 20
28.102869
 30
0.0
 41
1.0
 10
25.50575100000003
 20
27.919869
 30
0.0
 41
1.0
 10
26.00450100000001
 20
27.702369
 30
0.0
 41
1.0
 10
26.50100100000003
 20
27.451119
 30
0.0
 41
1.0
 10
26.99675100000002
 20
27.199869
 30
0.0
 41
1.0
 10
27.44675100000001
 20
26.890869
 30
0.0
 41
1.0
 10
27.85025100000002
 20
26.524869
 30
0.0
 41
1.0
 10
28.25450100000001
 20
26.159619
 30
0.0
 41
1.0
 10
28.57475099999999
 20
25.705119
 30
0.0
 41
1.0
 10
28.81100100000003
 20
25.163619
 30
0.0
 41
1.0
 10
29.04725100000002
 20
24.622119
 30
0.0
 41
1.0
 10
29.165751
 20
23.962869
 30
0.0
 41
1.0
 10
29.165751
 20
23.185119
 30
0.0
 41
1.0
 10
29.165751
 20
22.300119
 30
0.0
 41
1.0
 10
28.94825100000003
 20
21.499869
 30
0.0
 41
1.0
 10
28.51400100000001
 20
20.783619
 30
0.0
 41
1.0
 10
28.07900100000001
 20
20.066619
 30
0.0
 41
1.0
 10
27.45350100000002
 20
19.498119
 30
0.0
 41
1.0
 10
26.63825100000003
 20
19.079619
 30
0.0
 41
1.0
 10
25.82225100000002
 20
18.659619
 30
0.0
 41
1.0
 10
24.83450100000002
 20
18.450369
 30
0.0
 41
1.0
 10
23.67575100000002
 20
18.450369
 30
0.0
 41
1.0
 10
22.973751
 20
18.450369
 30
0.0
 41
1.0
 10
22.29200100000003
 20
18.529869
 30
0.0
 41
1.0
 10
21.62825100000004
 20
18.690369
 30
0.0
 41
1.0
 10
20.96525100000002
 20
18.850869
 30
0.0
 41
1.0
 10
20.33975100000001
 20
19.063869
 30
0.0
 41
1.0
 10
19.75250099999999
 20
19.330869
 30
0.0
 41
1.0
 10
19.16525100000001
 20
19.597119
 30
0.0
 41
1.0
 10
18.63500100000002
 20
19.891119
 30
0.0
 41
1.0
 10
18.16250100000002
 20
20.211369
 30
0.0
 41
1.0
 10
18.528501
 20
20.844119
 30
0.0
 41
1.0
 10
18.89450100000002
 20
21.476869
 30
0.0
 41
1.0
 10
19.26050100000003
 20
22.109619
 30
0.0
 41
1.0
 10
19.62650100000002
 20
21.850119
 30
0.0
 41
1.0
 10
20.045751
 20
21.602619
 30
0.0
 41
1.0
 10
20.51900100000003
 20
21.366369
 30
0.0
 41
1.0
 10
20.991501
 20
21.130119
 30
0.0
 41
1.0
 10
21.48350100000002
 20
20.943369
 30
0.0
 41
1.0
 10
21.99425100000002
 20
20.806119
 30
0.0
 41
1.0
 10
22.505001
 20
20.668869
 30
0.0
 41
1.0
 10
22.98950100000002
 20
20.600619
 30
0.0
 41
1.0
 10
23.447001
 20
20.600619
 30
0.0
 41
1.0
 10
23.95025100000001
 20
20.600619
 30
0.0
 41
1.0
 10
24.44600100000002
 20
20.688369
 30
0.0
 41
1.0
 10
24.93350100000001
 20
20.863869
 30
0.0
 41
1.0
 10
25.42100100000002
 20
21.038619
 30
0.0
 41
1.0
 10
25.82525100000001
 20
21.313869
 30
0.0
 41
1.0
 10
26.14625100000001
 20
21.687369
 30
0.0
 41
1.0
 10
26.466501
 20
22.060869
 30
0.0
 41
1.0
 10
26.62700100000001
 20
22.552869
 30
0.0
 41
1.0
 10
26.62700100000001
 20
23.163369
 30
0.0
 41
1.0
 10
26.62700100000001
 20
23.681619
 30
0.0
 41
1.0
 10
26.48600099999999
 20
24.119619
 30
0.0
 41
1.0
 10
26.20400100000001
 20
24.478869
 30
0.0
 41
1.0
 10
25.92200100000003
 20
24.837369
 30
0.0
 41
1.0
 10
25.547751
 20
25.145619
 30
0.0
 41
1.0
 10
25.08275100000003
 20
25.404369
 30
0.0
 41
1.0
 10
24.61700100000002
 20
25.663869
 30
0.0
 41
1.0
 10
24.11825100000001
 20
25.892619
 30
0.0
 41
1.0
 10
23.58425100000002
 20
26.091369
 30
0.0
 41
1.0
 10
23.06600100000003
 20
26.289369
 30
0.0
 41
1.0
 10
22.53950100000003
 20
26.510619
 30
0.0
 41
1.0
 10
22.00625100000002
 20
26.754369
 30
0.0
 41
1.0
 10
21.472251
 20
26.998119
 30
0.0
 41
1.0
 10
20.97650100000001
 20
27.292119
 30
0.0
 41
1.0
 10
20.51975100000001
 20
27.634869
 30
0.0
 41
1.0
 10
20.062251
 20
27.978369
 30
0.0
 41
1.0
 10
19.69175100000001
 20
28.404369
 30
0.0
 41
1.0
 10
19.41050100000001
 20
28.915869
 30
0.0
 41
1.0
 10
19.12850100000003
 20
29.426619
 30
0.0
 41
1.0
 10
18.98750100000001
 20
30.055869
 30
0.0
 41
1.0
 10
18.98750100000001
 20
30.802869
 30
0.0
 41
1.0
 10
18.98750100000001
 20
31.687119
 30
0.0
 41
1.0
 10
19.19675100000003
 20
32.461119
 30
0.0
 41
1.0
 10
19.61600100000001
 20
33.12486900000001
 30
0.0
 41
1.0
 10
20.03525100000002
 20
33.787869
 30
0.0
 41
1.0
 10
20.61875100000003
 20
34.310619
 30
0.0
 41
1.0
 10
21.36575100000002
 20
34.691619
 30
0.0
 41
1.0
 10
22.112751
 20
35.072619
 30
0.0
 41
1.0
 10
22.97450100000003
 20
35.286369
 30
0.0
 41
1.0
 10
23.95025100000001
 20
35.332119
 30
0.0
 41
1.0
 10
25.06325100000001
 20
35.332119
 30
0.0
 41
1.0
 10
26.03150100000005
 20
35.194869
 30
0.0
 41
1.0
 10
26.855751
 20
34.920369
 30
0.0
 41
1.0
 10
27.67925100000002
 20
34.645869
 30
0.0
 41
1.0
 10
28.41125099999999
 20
34.318119
 30
0.0
 41
1.0
 10
29.05175100000003
 20
33.936369
 30
0.0
 41
1.0
 10
28.73900100000003
 20
33.311119
 30
0.0
 41
1.0
 10
28.42625099999998
 20
32.685869
 30
0.0
 41
1.0
 10
28.11350099999998
 20
32.06061899999999
 30
0.0
 41
1.0
 10
27.53375099999999
 20
32.36586900000001
 30
0.0
 41
1.0
 10
26.90900099999999
 20
32.624619
 30
0.0
 41
1.0
 10
26.237751
 20
32.838369
 30
0.0
 41
1.0
 10
25.56650100000002
 20
33.052119
 30
0.0
 41
1.0
 10
24.91850100000002
 20
33.158619
 30
0.0
 41
1.0
 10
24.29300100000001
 20
33.158619
 30
0.0
 41
1.0
  0
SPLINE
  5
1009B
102
{ACAD_REACTORS
330
10105
102
}
330
1F
100
AcDbEntity
  8
logo-outline
100
AcDbSpline
210
0.0
220
0.0
230
1.0
 70
    13
 71
     3
 72
    41
 73
    37
 74
     0
 42
0.000000001
 43
0.0000000001
 40
0.0
 40
0.0
 40
0.0
 40
0.0
 40
1.0
 40
1.0
 40
1.0
 40
2.0
 40
2.0
 40
2.0
 40
3.0
 40
3.0
 40
3.0
 40
4.0
 40
4.0
 40
4.0
 40
5.0
 40
5.0
 40
5.0
 40
6.0
 40
6.0
 40
6.0
 40
7.0
 40
7.0
 40
7.0
 40
8.0
 40
8.0
 40
8.0
 40
9.0
 40
9.0
 40
9.0
 40
10.0
 40
10.0
 40
10.0
 40
11.0
 40
11.0
 40
11.0
 40
12.0
 40
12.0
 40
12.0
 40
12.0
 10
70.786251
 20
34.611369
 30
0.0
 41
1.0
 10
71.663001
 20
34.191369
 30
0.0
 41
1.0
 10
72.33350100000001
 20
33.59361900000001
 30
0.0
 41
1.0
 10
72.79925100000003
 20
32.815869
 30
0.0
 41
1.0
 10
73.264251
 20
32.038119
 30
0.0
 41
1.0
 10
73.49675100000002
 20
31.092369
 30
0.0
 41
1.0
 10
73.49675100000002
 20
29.979369
 30
0.0
 41
1.0
 10
73.49675100000002
 20
29.323119
 30
0.0
 41
1.0
 10
73.39775100000003
 20
28.675869
 30
0.0
 41
1.0
 10
73.19975099999999
 20
28.035369
 30
0.0
 41
1.0
 10
73.00175100000001
 20
27.394869
 30
0.0
 41
1.0
 10
72.68525099999999
 20
26.811369
 30
0.0
 41
1.0
 10
72.25025099999999
 20
26.285619
 30
0.0
 41
1.0
 10
71.81525099999999
 20
25.759869
 30
0.0
 41
1.0
 10
71.240001
 20
25.339869
 30
0.0
 41
1.0
 10
70.52300100000002
 20
25.027119
 30
0.0
 41
1.0
 10
69.80600100000003
 20
24.714369
 30
0.0
 41
1.0
 10
68.93675100000002
 20
24.558369
 30
0.0
 41
1.0
 10
67.91525100000001
 20
24.558369
 30
0.0
 41
1.0
 10
67.10700100000003
 20
24.558369
 30
0.0
 41
1.0
 10
66.29875099999998
 20
24.558369
 30
0.0
 41
1.0
 10
65.49050099999999
 20
24.558369
 30
0.0
 41
1.0
 10
65.49050099999999
 20
22.583619
 30
0.0
 41
1.0
 10
65.49050099999999
 20
20.608869
 30
0.0
 41
1.0
 10
65.49050099999999
 20
18.634119
 30
0.0
 41
1.0
 10
64.67450100000002
 20
18.634119
 30
0.0
 41
1.0
 10
63.85850100000005
 20
18.634119
 30
0.0
 41
1.0
 10
63.04250100000001
 20
18.634119
 30
0.0
 41
1.0
 10
63.04250100000001
 20
24.169619
 30
0.0
 41
1.0
 10
63.04250100000001
 20
29.705119
 30
0.0
 41
1.0
 10
63.04250100000001
 20
35.24061899999999
 30
0.0
 41
1.0
 10
64.56775100000005
 20
35.24061899999999
 30
0.0
 41
1.0
 10
66.09300100000002
 20
35.24061899999999
 30
0.0
 41
1.0
 10
67.61825100000004
 20
35.24061899999999
 30
0.0
 41
1.0
 10
68.853501
 20
35.24061899999999
 30
0.0
 41
1.0
 10
69.90950100000003
 20
35.030619
 30
0.0
 41
1.0
 10
70.786251
 20
34.611369
 30
0.0
 41
1.0
  0
LWPOLYLINE
  5
1009C
102
{ACAD_REACTORS
330
10100
102
}
330
1F
100
AcDbEntity
  8
logo-outline
100
AcDbPolyline
 90
        4
 70
     1
 43
0.0
 10
33.39725100000004
 20
35.24061899999999
 10
35.84525100000002
 20
35.24061899999999
 10
35.84525100000002
 20
18.633369
 10
33.39725100000004
 20
18.633369
  0
SPLINE
  5
1009D
102
{ACAD_REACTORS
330
10105
102
}
330
1F
100
AcDbEntity
  8
logo-outline
100
AcDbSpline
210
0.0
220
0.0
230
1.0
 70
    13
 71
     3
 72
    38
 73
    34
 74
     0
 42
0.000000001
 43
0.0000000001
 40
0.0
 40
0.0
 40
0.0
 40
0.0
 40
1.0
 40
1.0
 40
1.0
 40
2.0
 40
2.0
 40
2.0
 40
3.0
 40
3.0
 40
3.0
 40
4.0
 40
4.0
 40
4.0
 40
5.0
 40
5.0
 40
5.0
 40
6.0
 40
6.0
 40
6.0
 40
7.0
 40
7.0
 40
7.0
 40
8.0
 40
8.0
 40
8.0
 40
9.0
 40
9.0
 40
9.0
 40
10.0
 40
10.0
 40
10.0
 40
11.0
 40
11.0
 40
11.0
 40
11.0
 10
69.44750100000004
 20
27.223119
 30
0.0
 41
1.0
 10
69.85925100000002
 20
27.428619
 30
0.0
 41
1.0
 10
70.18325100000004
 20
27.691869
 30
0.0
 41
1.0
 10
70.41950100000002
 20
28.012119
 30
0.0
 41
1.0
 10
70.65575100000001
 20
28.332369
 30
0.0
 41
1.0
 10
70.82375100000001
 20
28.663869
 30
0.0
 41
1.0
 10
70.92275100000001
 20
29.007369
 30
0.0
 41
1.0
 10
71.021751
 20
29.350869
 30
0.0
 41
1.0
 10
71.07125100000001
 20
29.659869
 30
0.0
 41
1.0
 10
71.07125100000001
 20
29.933619
 30
0.0
 41
1.0
 10
71.07125100000001
 20
30.238869
 30
0.0
 41
1.0
 10
71.021751
 20
30.562869
 30
0.0
 41
1.0
 10
70.92275100000001
 20
30.905619
 30
0.0
 41
1.0
 10
70.82375100000001
 20
31.248369
 30
0.0
 41
1.0
 10
70.65950100000003
 20
31.568619
 30
0.0
 41
1.0
 10
70.43075100000004
 20
31.866369
 30
0.0
 41
1.0
 10
70.202001
 20
32.163369
 30
0.0
 41
1.0
 10
69.889251
 20
32.407869
 30
0.0
 41
1.0
 10
69.49325100000004
 20
32.598369
 30
0.0
 41
1.0
 10
69.09650099999999
 20
32.788869
 30
0.0
 41
1.0
 10
68.60150100000004
 20
32.884119
 30
0.0
 41
1.0
 10
68.00675100000001
 20
32.884119
 30
0.0
 41
1.0
 10
67.168001
 20
32.884119
 30
0.0
 41
1.0
 10
66.329251
 20
32.884119
 30
0.0
 41
1.0
 10
65.49050099999999
 20
32.884119
 30
0.0
 41
1.0
 10
65.49050099999999
 20
30.894119
 30
0.0
 41
1.0
 10
65.49050099999999
 20
28.90411900000001
 30
0.0
 41
1.0
 10
65.49050099999999
 20
26.91411900000001
 30
0.0
 41
1.0
 10
66.29875100000004
 20
26.914119
 30
0.0
 41
1.0
 10
67.10700100000003
 20
26.914119
 30
0.0
 41
1.0
 10
67.91525100000007
 20
26.914119
 30
0.0
 41
1.0
 10
68.52500099999997
 20
26.914119
 30
0.0
 41
1.0
 10
69.03650100000004
 20
27.016869
 30
0.0
 41
1.0
 10
69.44750100000004
 20
27.223119
 30
0.0
 41
1.0
  0
LWPOLYLINE
  5
1009E
102
{ACAD_REACTORS
330
10108
102
}
330
1F
100
AcDbEntity
  8
logo-outline
100
AcDbPolyline
 90
        6
 70
     1
 43
0.0
 10
77.45450099999999
 20
35.24061899999999
 10
79.90250100000003
 20
35.24061899999999
 10
79.90250100000003
 20
20.989869
 10
88.20575100000002
 20
20.989869
 10
88.20575100000002
 20
18.633369
 10
77.45450099999999
 20
18.633369
  0
LWPOLYLINE
  5
1009F
102
{ACAD_REACTORS
330
1010A
102
}
330
1F
100
AcDbEntity
  8
logo-outline
100
AcDbPolyline
 90
       13
 70
     1
 43
0.0
 10
92.39225099999998
 20
35.24061899999999
 10
103.302501
 20
35.24061899999999
 10
103.302501
 20
32.884119
 10
94.83800100000001
 20
32.884119
 10
94.83800100000001
 20
28.149369
 10
102.364251
 20
28.149369
 10
102.364251
 20
25.793619
 10
94.83800100000001
 20
25.793619
 10
94.83800100000001
 20
20.989869
 10
103.622751
 20
20.989869
 10
103.622751
 20
18.633369
 10
92.39150100000001
 20
18.633369
 10
92.39150100000001
 20
35.24061899999999
  0
LWPOLYLINE
  5
100A0
102
{ACAD_REACTORS
330
10103
102
}
330
1F
100
AcDbEntity
  8
logo-outline
100
AcDbPolyline
 90
       14
 70
     1
 43
0.0
 10
53.321751
 20
29.647494
 10
57.713751
 20
35.789619
 10
57.759501
 20
35.789619
 10
57.759501
 20
18.633369
 10
55.33475100000003
 20
18.633369
 10
55.33475100000003
 20
28.791633
 10
49.36475100000001
 20
20.348619
 10
49.31900100000001
 20
20.348619
 10
43.48625500000003
 20
28.446938
 10
43.48625099999998
 20
18.633369
 10
41.12900100000001
 20
18.633369
 10
41.12900100000001
 20
35.789619
 10
41.15225100000003
 20
35.789619
 10
49.37812500000001
 20
24.132403
  0
LWPOLYLINE
  5
100A1
102
{ACAD_REACTORS
330
100F0
102
}
330
1F
100
AcDbEntity
  8
logo-outline
100
AcDbPolyline
 90
        8
 70
     1
 43
0.0
 10
135.5334630501849
 20
109.2723395018174
 42
-0.1235510247152853
 10
141.1162033465143
 20
99.23657838127944
 42
-0.4142135623730951
 10
116.0929088250737
 20
55.89496089738457
 42
-0.2019381984217088
 10
74.20933551302681
 20
61.6571307691342
 42
-0.9999999999999948
 10
78.80554335764734
 20
69.40828919938674
 42
0.2019381984217089
 10
113.7605832401538
 20
64.59931848009865
 42
0.4142135623730951
 10
132.4118457638002
 20
96.90425279635945
 42
0.1235510247152854
 10
128.961522510305
 20
103.1066942718267
 42
-1.000000000000007
  0
LWPOLYLINE
  5
100A2
102
{ACAD_REACTORS
330
100EE
102
}
330
1F
100
AcDbEntity
  8
logo-outline
100
AcDbPolyline
 90
        8
 70
     1
 43
0.0
 10
103.0397209840235
 20
124.5587335991081
 42
-0.1235510247152853
 10
113.0754821045615
 20
130.1414738954376
 42
-0.4142135623730951
 10
156.4170995884564
 20
105.118179373997
 42
-0.2019381984217088
 10
150.6549297167067
 20
63.2346060619501
 42
-0.9999999999999948
 10
142.9037712864543
 20
67.83081390657061
 42
0.2019381984217089
 10
147.7127420057423
 20
102.7858537890771
 42
0.4142135623730951
 10
115.4078076894814
 20
121.4371163127234
 42
0.1235510247152854
 10
109.2053662140142
 20
117.9867930592282
 42
-1.000000000000007
  0
LWPOLYLINE
  5
100A3
102
{ACAD_REACTORS
330
100EC
102
}
330
1F
100
AcDbEntity
  8
logo-outline
100
AcDbPolyline
 90
        8
 70
     1
 43
0.0
 10
87.75332688673277
 20
92.06499153294672
 42
-0.1235510247152853
 10
82.17058659040338
 20
102.1007526534848
 42
-0.4142135623730951
 10
107.1938811118438
 20
145.4423701373797
 42
-0.2019381984217088
 10
149.0774544238908
 20
139.68020026563
 42
-0.9999999999999948
 10
144.4812465792703
 20
131.9290418353775
 42
0.2019381984217089
 10
109.5262066967638
 20
136.7380125546656
 42
0.4142135623730951
 10
90.87494417311742
 20
104.4330782384048
 42
0.1235510247152854
 10
94.32526742661272
 20
98.23063676293752
 42
-1.000000000000007
  0
LWPOLYLINE
  5
100A4
102
{ACAD_REACTORS
330
100EA
102
}
330
1F
100
AcDbEntity
  8
logo-outline
100
AcDbPolyline
 90
        8
 70
     1
 43
0.0
 10
120.2470689528942
 20
76.77859743565609
 42
-0.1235510247152853
 10
110.2113078323561
 20
71.19585713932662
 42
-0.4142135623730951
 10
66.86969034846128
 20
96.21915166076714
 42
-0.2019381984217088
 10
72.63186022021097
 20
138.1027249728141
 42
-0.9999999999999948
 10
80.3830186504634
 20
133.5065171281936
 42
0.2019381984217089
 10
75.57404793117536
 20
98.55147724568709
 42
0.4142135623730951
 10
107.8789822474362
 20
79.90021472204076
 42
0.1235510247152854
 10
114.0814237229034
 20
83.350537975536
 42
-1.000000000000007
  0
HATCH
  5
100EA
330
1F
100
AcDbEntity
  8
fill-hero
  6
Continuous
100
AcDbHatch
 10
0.0
 20
0.0
 30
0.0
210
0.0
220
0.0
230
1.0
  2
SOLID
 70
     1
 71
     1
 91
        1
 92
        1
 93
        8
 72
     2
 10
104.1052001782046
 20
93.98416114110517
 40
23.59218832498513
 50
46.82696444376487
 51
74.99999999999982
 73
     0
 72
     2
 10
101.052146351129
 20
105.3783131419943
 40
35.38828248747753
 50
75.00000000000001
 51
165.0
 73
     0
 72
     2
 10
119.4882715615505
 20
110.3182580036858
 40
54.47476377688473
 50
165.0
 51
210.6666879133276
 73
     0
 72
     2
 10
76.50743943533716
 20
135.8046210505039
 40
4.505707035577883
 50
210.6666879133281
 51
390.6666879133275
 73
     0
 72
     2
 10
119.4882715615504
 20
110.3182580036858
 40
45.4633497057289
 50
149.3333120866723
 51
195.0
 73
     1
 72
     2
 10
101.0521463511289
 20
105.3783131419943
 40
26.37686841632174
 50
195.0
 51
285.0000000000001
 73
     1
 72
     2
 10
104.1052001782047
 20
93.98416114110514
 40
14.58077425382922
 50
284.9999999999999
 51
313.1730355562349
 73
     1
 72
     2
 10
117.1642463378988
 20
80.06456770559607
 40
4.505707035577898
 50
226.8269644437643
 51
406.8269644437654
 73
     0
 97
        1
330
100A4
 75
     1
 76
     1
 98
        1
 10
0.0
 20
0.0
450
        0
451
        0
460
0.0
461
0.0
452
        0
462
0.0
453
        2
463
0.0
 63
     5
421
      255
463
1.0
 63
     2
421
 16776960
470
LINEAR
1001
GradientColor1ACI
1070
     5
1001
GradientColor2ACI
1070
     2
1001
ACAD
1010
0.0
1020
0.0
1030
0.0
  0
HATCH
  5
100EC
330
1F
100
AcDbEntity
  8
fill-base
  6
Continuous
100
AcDbHatch
 10
0.0
 20
0.0
 30
0.0
210
0.0
220
0.0
230
1.0
  2
SOLID
 70
     1
 71
     1
 91
        1
 92
        1
 93
        8
 72
     2
 10
104.958890592182
 20
108.2068603076361
 40
23.59218832498514
 50
136.8269644437654
 51
165.0000000000004
 73
     0
 72
     2
 10
116.353042593071
 20
111.259914134712
 40
35.38828248747752
 50
164.9999999999998
 51
254.9999999999998
 73
     0
 72
     2
 10
121.2929874547624
 20
92.82378892429044
 40
54.47476377688481
 50
255.0000000000001
 51
300.6666879133277
 73
     0
 72
     2
 10
146.7793505015805
 20
135.8046210505038
 40
4.505707035577895
 50
300.666687913328
 51
480.6666879133275
 73
     0
 72
     2
 10
121.2929874547625
 20
92.82378892429063
 40
45.46334970572881
 50
59.3333120866723
 51
105.0
 73
     1
 72
     2
 10
116.353042593071
 20
111.259914134712
 40
26.37686841632175
 50
104.9999999999999
 51
194.9999999999999
 73
     1
 72
     2
 10
104.9588905921819
 20
108.2068603076363
 40
14.58077425382936
 50
195.0000000000001
 51
223.1730355562351
 73
     1
 72
     2
 10
91.03929715667277
 20
95.14781414794208
 40
4.505707035577929
 50
316.8269644437641
 51
496.8269644437653
 73
     0
 97
        1
330
100A3
 75
     1
 76
     1
 98
        1
 10
0.0
 20
0.0
450
        0
451
        0
460
0.0
461
0.0
452
        0
462
0.0
453
        2
463
0.0
 63
     5
421
      255
463
1.0
 63
     2
421
 16776960
470
LINEAR
1001
GradientColor1ACI
1070
     5
1001
GradientColor2ACI
1070
     2
1001
ACAD
1010
0.0
1020
0.0
1030
0.0
  0
HATCH
  5
100EE
330
1F
100
AcDbEntity
  8
fill-base
  6
Continuous
100
AcDbHatch
 10
0.0
 20
0.0
 30
0.0
210
0.0
220
0.0
230
1.0
  2
SOLID
 70
     1
 71
     1
 91
        1
 92
        1
 93
        8
 72
     2
 10
119.1815897587131
 20
107.353169893659
 40
23.59218832498516
 50
226.8269644437648
 51
254.9999999999998
 73
     0
 72
     2
 10
122.2346435857887
 20
95.95901789276984
 40
35.38828248747761
 50
255.0
 51
345.0
 73
     0
 72
     2
 10
103.7985183753673
 20
91.01907303107848
 40
54.47476377688466
 50
345.0000000000001
 51
390.6666879133277
 73
     0
 72
     2
 10
146.7793505015805
 20
65.53270998426036
 40
4.505707035577888
 50
30.66668791332786
 51
210.6666879133277
 73
     0
 72
     2
 10
103.7985183753673
 20
91.01907303107841
 40
45.46334970572885
 50
329.3333120866723
 51
375.0
 73
     1
 72
     2
 10
122.2346435857887
 20
95.95901789276984
 40
26.37686841632176
 50
15.00000000000001
 51
105.0
 73
     1
 72
     2
 10
119.1815897587129
 20
107.3531698936591
 40
14.5807742538292
 50
105.0
 51
133.1730355562349
 73
     1
 72
     2
 10
106.1225435990188
 20
121.2727633291681
 40
4.505707035577898
 50
46.82696444376426
 51
226.8269644437654
 73
     0
 97
        1
330
100A2
 75
     1
 76
     1
 98
        1
 10
0.0
 20
0.0
450
        0
451
        0
460
0.0
461
0.0
452
        0
462
0.0
453
        2
463
0.0
 63
     5
421
      255
463
1.0
 63
     2
421
 16776960
470
LINEAR
1001
GradientColor1ACI
1070
     5
1001
GradientColor2ACI
1070
     2
1001
ACAD
1010
0.0
1020
0.0
1030
0.0
  0
HATCH
  5
100F0
330
1F
100
AcDbEntity
  8
fill-base
  6
Continuous
100
AcDbHatch
 10
0.0
 20
0.0
 30
0.0
210
0.0
220
0.0
230
1.0
  2
SOLID
 70
     1
 71
     1
 91
        1
 92
        1
 93
        8
 72
     2
 10
118.3278993447357
 20
93.13047072712814
 40
23.59218832498501
 50
316.8269644437655
 51
345.0000000000004
 73
     0
 72
     2
 10
106.9337473438465
 20
90.07741690005227
 40
35.38828248747755
 50
345.0
 51
435.0
 73
     0
 72
     2
 10
101.993802482155
 20
108.5135421104736
 40
54.47476377688463
 50
74.99999999999997
 51
120.6666879133276
 73
     0
 72
     2
 10
76.50743943533709
 20
65.53270998426047
 40
4.505707035577938
 50
120.6666879133277
 51
300.6666879133272
 73
     0
 72
     2
 10
101.9938024821552
 20
108.5135421104736
 40
45.46334970572882
 50
239.3333120866723
 51
284.9999999999999
 73
     1
 72
     2
 10
106.9337473438466
 20
90.07741690005225
 40
26.37686841632174
 50
284.9999999999999
 51
375.0
 73
     1
 72
     2
 10
118.3278993447357
 20
93.1304707271281
 40
14.58077425382924
 50
14.99999999999929
 51
43.17303555623428
 73
     1
 72
     2
 10
132.2474927802449
 20
106.1895168868221
 40
4.505707035577889
 50
136.8269644437644
 51
316.8269644437653
 73
     0
 97
        1
330
100A1
 75
     1
 76
     1
 98
        1
 10
0.0
 20
0.0
450
        0
451
        0
460
0.0
461
0.0
452
        0
462
0.0
453
        2
463
0.0
 63
     5
421
      255
463
1.0
 63
     2
421
 16776960
470
LINEAR
1001
GradientColor1ACI
1070
     5
1001
GradientColor2ACI
1070
     2
1001
ACAD
1010
0.0
1020
0.0
1030
0.0
  0
HATCH
  5
100F2
330
1F
100
AcDbEntity
  8
fill-hero
  6
Continuous
100
AcDbHatch
 10
0.0
 20
0.0
 30
0.0
210
0.0
220
0.0
230
1.0
  2
SOLID
 70
     1
 71
     1
 91
        1
 92
        1
 93
       13
 72
     1
 10
107.819751
 20
18.633369
 11
107.819751
 21
35.698119
 72
     1
 10
107.819751
 20
35.698119
 11
107.843001
 21
35.698119
 72
     1
 10
107.843001
 20
35.698119
 11
115.981911
 21
24.145243
 72
     1
 10
115.981911
 20
24.145243
 11
124.221501
 21
35.698119
 72
     1
 10
124.221501
 20
35.698119
 11
124.267251
 21
35.698119
 72
     1
 10
124.267251
 20
35.698119
 11
124.267251
 21
18.633369
 72
     1
 10
124.267251
 20
18.633369
 11
122.071251
 21
18.633369
 72
     1
 10
122.071251
 20
18.633369
 11
122.071251
 21
29.349259
 72
     1
 10
122.071251
 20
29.349259
 11
115.964001
 21
20.714619
 72
     1
 10
115.964001
 20
20.714619
 11
115.918251
 21
20.714619
 72
     1
 10
115.918251
 20
20.714619
 11
109.970751
 21
29.002961
 72
     1
 10
109.970751
 20
29.002961
 11
109.970751
 21
18.633369
 72
     1
 10
109.970751
 20
18.633369
 11
107.819751
 21
18.633369
 97
        1
330
1008F
 75
     1
 76
     1
 98
        1
 10
0.0
 20
0.0
450
        0
451
        0
460
0.0
461
0.0
452
        0
462
0.0
453
        2
463
0.0
 63
     5
421
      255
463
1.0
 63
     2
421
 16776960
470
LINEAR
1001
GradientColor1ACI
1070
     5
1001
GradientColor2ACI
1070
     2
1001
ACAD
1010
0.0
1020
0.0
1030
0.0
  0
HATCH
  5
100F4
330
1F
100
AcDbEntity
  8
fill-hero
  6
Continuous
100
AcDbHatch
 10
0.0
 20
0.0
 30
0.0
210
0.0
220
0.0
230
1.0
  2
SOLID
 70
     1
 71
     1
 91
        2
 92
        1
 93
        1
 72
     4
 94
        3
 73
     0
 74
     0
 95
       53
 96
       49
 40
0.0
 40
0.0
 40
0.0
 40
0.0
 40
1.0
 40
1.0
 40
1.0
 40
2.0
 40
2.0
 40
2.0
 40
3.0
 40
3.0
 40
3.0
 40
4.0
 40
4.0
 40
4.0
 40
5.0
 40
5.0
 40
5.0
 40
6.0
 40
6.0
 40
6.0
 40
7.0
 40
7.0
 40
7.0
 40
8.0
 40
8.0
 40
8.0
 40
9.0
 40
9.0
 40
9.0
 40
10.0
 40
10.0
 40
10.0
 40
11.0
 40
11.0
 40
11.0
 40
12.0
 40
12.0
 40
12.0
 40
13.0
 40
13.0
 40
13.0
 40
14.0
 40
14.0
 40
14.0
 40
15.0
 40
15.0
 40
15.0
 40
16.0
 40
16.0
 40
16.0
 40
16.0
 10
129.105501
 20
30.127869
 10
129.539001
 20
31.141869
 10
130.145751
 20
32.041869
 10
130.923501
 20
32.827119
 10
131.701251
 20
33.612369
 10
132.596751
 20
34.230369
 10
133.611501
 20
34.67961900000001
 10
134.625501
 20
35.129619
 10
135.719751
 20
35.354619
 10
136.894251
 20
35.354619
 10
138.053001
 20
35.354619
 10
139.139751
 20
35.129619
 10
140.153751
 20
34.67961900000001
 10
141.168501
 20
34.229619
 10
142.067751
 20
33.612369
 10
142.853751
 20
32.827119
 10
143.639001
 20
32.041869
 10
144.252501
 20
31.141869
 10
144.695001
 20
30.127869
 10
145.137501
 20
29.113119
 10
145.358751
 20
28.034619
 10
145.358751
 20
26.891619
 10
145.358751
 20
25.717119
 10
145.137501
 20
24.619119
 10
144.695001
 20
23.597619
 10
144.252501
 20
22.575369
 10
143.639001
 20
21.678369
 10
142.853751
 20
20.909619
 10
142.067751
 20
20.139369
 10
141.168501
 20
19.537119
 10
140.153751
 20
19.102119
 10
139.139751
 20
18.667869
 10
138.053001
 20
18.450369
 10
136.894251
 20
18.450369
 10
135.719751
 20
18.450369
 10
134.625501
 20
18.664119
 10
133.611501
 20
19.090869
 10
132.596751
 20
19.518369
 10
131.701251
 20
20.113119
 10
130.923501
 20
20.875119
 10
130.145751
 20
21.638619
 10
129.539001
 20
22.530369
 10
129.105501
 20
23.551869
 10
128.670501
 20
24.573369
 10
128.453001
 20
25.686369
 10
128.453001
 20
26.891619
 10
128.453001
 20
28.035369
 10
128.670501
 20
29.113869
 10
129.105501
 20
30.127869
 97
        0
 97
        1
330
1008E
 92
       16
 93
        1
 72
     4
 94
        3
 73
     0
 74
     0
 95
       53
 96
       49
 40
0.0
 40
0.0
 40
0.0
 40
0.0
 40
1.0
 40
1.0
 40
1.0
 40
2.0
 40
2.0
 40
2.0
 40
3.0
 40
3.0
 40
3.0
 40
4.0
 40
4.0
 40
4.0
 40
5.0
 40
5.0
 40
5.0
 40
6.0
 40
6.0
 40
6.0
 40
7.0
 40
7.0
 40
7.0
 40
8.0
 40
8.0
 40
8.0
 40
9.0
 40
9.0
 40
9.0
 40
10.0
 40
10.0
 40
10.0
 40
11.0
 40
11.0
 40
11.0
 40
12.0
 40
12.0
 40
12.0
 40
13.0
 40
13.0
 40
13.0
 40
14.0
 40
14.0
 40
14.0
 40
15.0
 40
15.0
 40
15.0
 40
16.0
 40
16.0
 40
16.0
 40
16.0
 10
131.220501
 20
24.432369
 10
131.541501
 20
23.676369
 10
131.983251
 20
23.010369
 10
132.548001
 20
22.429869
 10
133.112001
 20
21.850869
 10
133.768251
 20
21.39711899999999
 10
134.515251
 20
21.069369
 10
135.262251
 20
20.741619
 10
136.070751
 20
20.577369
 10
136.939251
 20
20.577369
 10
137.793501
 20
20.577369
 10
138.593751
 20
20.741619
 10
139.341501
 20
21.069369
 10
140.088501
 20
21.397869
 10
140.736501
 20
21.850869
 10
141.285501
 20
22.429869
 10
141.834501
 20
23.009619
 10
142.270251
 20
23.676369
 10
142.589001
 20
24.432369
 10
142.910001
 20
25.186869
 10
143.069751
 20
26.006619
 10
143.069751
 20
26.890869
 10
143.069751
 20
27.760119
 10
142.910001
 20
28.579119
 10
142.589001
 20
29.349369
 10
142.269501
 20
30.119619
 10
141.826251
 20
30.793869
 10
141.262251
 20
31.373619
 10
140.697501
 20
31.953369
 10
140.042001
 20
32.406369
 10
139.295001
 20
32.734869
 10
138.547251
 20
33.062619
 10
137.747751
 20
33.226869
 10
136.893501
 20
33.226869
 10
136.024251
 20
33.226869
 10
135.215751
 20
33.058869
 10
134.468751
 20
32.723619
 10
133.721751
 20
32.387619
 10
133.066251
 20
31.930119
 10
132.502251
 20
31.351119
 10
131.936751
 20
30.771369
 10
131.503251
 20
30.096369
 10
131.198001
 20
29.326869
 10
130.892751
 20
28.557369
 10
130.739751
 20
27.737619
 10
130.739751
 20
26.868369
 10
130.739751
 20
25.998369
 10
130.900251
 20
25.186869
 10
131.220501
 20
24.432369
 97
        0
 97
        1
330
10090
 75
     1
 76
     1
 98
        1
 10
0.0
 20
0.0
450
        0
451
        0
460
0.0
461
0.0
452
        0
462
0.0
453
        2
463
0.0
 63
     5
421
      255
463
1.0
 63
     2
421
 16776960
470
LINEAR
1001
GradientColor1ACI
1070
     5
1001
GradientColor2ACI
1070
     2
1001
ACAD
1010
0.0
1020
0.0
1030
0.0
  0
HATCH
  5
100F6
330
1F
100
AcDbEntity
  8
fill-hero
  6
Continuous
100
AcDbHatch
 10
0.0
 20
0.0
 30
0.0
210
0.0
220
0.0
230
1.0
  2
SOLID
 70
     1
 71
     1
 91
        1
 92
        1
 93
        8
 72
     1
 10
148.331751
 20
35.171619
 11
159.311001
 21
35.171619
 72
     1
 10
159.311001
 20
35.171619
 11
159.311001
 21
33.044619
 72
     1
 10
159.311001
 20
33.044619
 11
154.874001
 21
33.044619
 72
     1
 10
154.874001
 20
33.044619
 11
154.874001
 21
18.633369
 72
     1
 10
154.874001
 20
18.633369
 11
152.654751
 21
18.633369
 72
     1
 10
152.654751
 20
18.633369
 11
152.654751
 21
33.044619
 72
     1
 10
152.654751
 20
33.044619
 11
148.331751
 21
33.044619
 72
     1
 10
148.331751
 20
33.044619
 11
148.331751
 21
35.171619
 97
        1
330
10093
 75
     1
 76
     1
 98
        1
 10
0.0
 20
0.0
450
        0
451
        0
460
0.0
461
0.0
452
        0
462
0.0
453
        2
463
0.0
 63
     5
421
      255
463
1.0
 63
     2
421
 16776960
470
LINEAR
1001
GradientColor1ACI
1070
     5
1001
GradientColor2ACI
1070
     2
1001
ACAD
1010
0.0
1020
0.0
1030
0.0
  0
HATCH
  5
100F8
330
1F
100
AcDbEntity
  8
fill-hero
  6
Continuous
100
AcDbHatch
 10
0.0
 20
0.0
 30
0.0
210
0.0
220
0.0
230
1.0
  2
SOLID
 70
     1
 71
     1
 91
        1
 92
        1
 93
        4
 72
     1
 10
163.292001
 20
35.171619
 11
165.511251
 21
35.171619
 72
     1
 10
165.511251
 20
35.171619
 11
165.511251
 21
18.633369
 72
     1
 10
165.511251
 20
18.633369
 11
163.292001
 21
18.633369
 72
     1
 10
163.292001
 20
18.633369
 11
163.292001
 21
35.171619
 97
        1
330
10095
 75
     1
 76
     1
 98
        1
 10
0.0
 20
0.0
450
        0
451
        0
460
0.0
461
0.0
452
        0
462
0.0
453
        2
463
0.0
 63
     5
421
      255
463
1.0
 63
     2
421
 16776960
470
LINEAR
1001
GradientColor1ACI
1070
     5
1001
GradientColor2ACI
1070
     2
1001
ACAD
1010
0.0
1020
0.0
1030
0.0
  0
HATCH
  5
100FA
330
1F
100
AcDbEntity
  8
fill-hero
  6
Continuous
100
AcDbHatch
 10
0.0
 20
0.0
 30
0.0
210
0.0
220
0.0
230
1.0
  2
SOLID
 70
     1
 71
     1
 91
        2
 92
        1
 93
        1
 72
     4
 94
        3
 73
     0
 74
     0
 95
       53
 96
       49
 40
0.0
 40
0.0
 40
0.0
 40
0.0
 40
1.0
 40
1.0
 40
1.0
 40
2.0
 40
2.0
 40
2.0
 40
3.0
 40
3.0
 40
3.0
 40
4.0
 40
4.0
 40
4.0
 40
5.0
 40
5.0
 40
5.0
 40
6.0
 40
6.0
 40
6.0
 40
7.0
 40
7.0
 40
7.0
 40
8.0
 40
8.0
 40
8.0
 40
9.0
 40
9.0
 40
9.0
 40
10.0
 40
10.0
 40
10.0
 40
11.0
 40
11.0
 40
11.0
 40
12.0
 40
12.0
 40
12.0
 40
13.0
 40
13.0
 40
13.0
 40
14.0
 40
14.0
 40
14.0
 40
15.0
 40
15.0
 40
15.0
 40
16.0
 40
16.0
 40
16.0
 40
16.0
 10
170.349501
 20
30.127869
 10
170.783001
 20
31.141869
 10
171.389751
 20
32.041869
 10
172.167501
 20
32.827119
 10
172.9452509999999
 20
33.612369
 10
173.841501
 20
34.230369
 10
174.855501
 20
34.67961900000001
 10
175.8695009999999
 20
35.128869
 10
176.963751
 20
35.354619
 10
178.138251
 20
35.354619
 10
179.297001
 20
35.354619
 10
180.383751
 20
35.129619
 10
181.397751
 20
34.67961900000001
 10
182.411751
 20
34.229619
 10
183.312501
 20
33.612369
 10
184.097751
 20
32.827119
 10
184.883001
 20
32.041869
 10
185.496501
 20
31.141869
 10
185.939001
 20
30.127869
 10
186.381501
 20
29.113119
 10
186.602751
 20
28.034619
 10
186.602751
 20
26.891619
 10
186.602751
 20
25.717119
 10
186.381501
 20
24.619119
 10
185.939001
 20
23.597619
 10
185.496501
 20
22.575369
 10
184.883001
 20
21.678369
 10
184.097751
 20
20.909619
 10
183.312501
 20
20.139369
 10
182.411751
 20
19.537119
 10
181.397751
 20
19.102119
 10
180.383751
 20
18.667869
 10
179.297001
 20
18.450369
 10
178.138251
 20
18.450369
 10
176.963751
 20
18.450369
 10
175.8695009999999
 20
18.664119
 10
174.855501
 20
19.090869
 10
173.841501
 20
19.518369
 10
172.9452509999999
 20
20.113119
 10
172.167501
 20
20.875119
 10
171.389751
 20
21.638619
 10
170.783001
 20
22.530369
 10
170.349501
 20
23.551869
 10
169.914501
 20
24.573369
 10
169.697751
 20
25.686369
 10
169.697751
 20
26.891619
 10
169.697751
 20
28.035369
 10
169.914501
 20
29.113869
 10
170.349501
 20
30.127869
 97
        0
 97
        1
330
10094
 92
       16
 93
        1
 72
     4
 94
        3
 73
     0
 74
     0
 95
       53
 96
       49
 40
0.0
 40
0.0
 40
0.0
 40
0.0
 40
1.0
 40
1.0
 40
1.0
 40
2.0
 40
2.0
 40
2.0
 40
3.0
 40
3.0
 40
3.0
 40
4.0
 40
4.0
 40
4.0
 40
5.0
 40
5.0
 40
5.0
 40
6.0
 40
6.0
 40
6.0
 40
7.0
 40
7.0
 40
7.0
 40
8.0
 40
8.0
 40
8.0
 40
9.0
 40
9.0
 40
9.0
 40
10.0
 40
10.0
 40
10.0
 40
11.0
 40
11.0
 40
11.0
 40
12.0
 40
12.0
 40
12.0
 40
13.0
 40
13.0
 40
13.0
 40
14.0
 40
14.0
 40
14.0
 40
15.0
 40
15.0
 40
15.0
 40
16.0
 40
16.0
 40
16.0
 40
16.0
 10
172.465251
 20
24.432369
 10
172.786251
 20
23.676369
 10
173.228751
 20
23.010369
 10
173.792751
 20
22.429869
 10
174.356751
 20
21.850869
 10
175.013001
 20
21.39711899999999
 10
175.760001
 20
21.069369
 10
176.507001
 20
20.741619
 10
177.315501
 20
20.577369
 10
178.184001
 20
20.577369
 10
179.038251
 20
20.577369
 10
179.839251
 20
20.741619
 10
180.586251
 20
21.069369
 10
181.333251
 20
21.39711899999999
 10
181.980501
 20
21.850869
 10
182.530251
 20
22.429869
 10
183.079251
 20
23.009619
 10
183.515001
 20
23.676369
 10
183.833751
 20
24.432369
 10
184.154751
 20
25.186869
 10
184.314501
 20
26.006619
 10
184.314501
 20
26.890869
 10
184.314501
 20
27.760119
 10
184.154751
 20
28.579119
 10
183.833751
 20
29.349369
 10
183.514251
 20
30.119619
 10
183.071751
 20
30.793869
 10
182.507751
 20
31.373619
 10
181.942251
 20
31.953369
 10
181.287501
 20
32.406369
 10
180.5405010000001
 20
32.734869
 10
179.792001
 20
33.062619
 10
178.992501
 20
33.226869
 10
178.138251
 20
33.226869
 10
177.268251
 20
33.226869
 10
176.461251
 20
33.058869
 10
175.714251
 20
32.723619
 10
174.965751
 20
32.387619
 10
174.311001
 20
31.930119
 10
173.747001
 20
31.351119
 10
173.181501
 20
30.771369
 10
172.748001
 20
30.096369
 10
172.443501
 20
29.326869
 10
172.136751
 20
28.557369
 10
171.984501
 20
27.737619
 10
171.984501
 20
26.868369
 10
171.984501
 20
25.998369
 10
172.145751
 20
25.186869
 10
172.465251
 20
24.432369
 97
        0
 97
        1
330
10096
 75
     1
 76
     1
 98
        1
 10
0.0
 20
0.0
450
        0
451
        0
460
0.0
461
0.0
452
        0
462
0.0
453
        2
463
0.0
 63
     5
421
      255
463
1.0
 63
     2
421
 16776960
470
LINEAR
1001
GradientColor1ACI
1070
     5
1001
GradientColor2ACI
1070
     2
1001
ACAD
1010
0.0
1020
0.0
1030
0.0
  0
HATCH
  5
100FC
330
1F
100
AcDbEntity
  8
fill-hero
  6
Continuous
100
AcDbHatch
 10
0.0
 20
0.0
 30
0.0
210
0.0
220
0.0
230
1.0
  2
SOLID
 70
     1
 71
     1
 91
        1
 92
        1
 93
       10
 72
     1
 10
205.107501
 20
18.107619
 11
192.963073
 21
30.425844
 72
     1
 10
192.963073
 20
30.425844
 11
193.007001
 21
18.634119
 72
     1
 10
193.007001
 20
18.634119
 11
190.787751
 21
18.634119
 72
     1
 10
190.787751
 20
18.634119
 11
190.787751
 21
35.674869
 72
     1
 10
190.787751
 20
35.674869
 11
190.901751
 21
35.674869
 72
     1
 10
190.901751
 20
35.674869
 11
203.0246530000001
 21
23.201926
 72
     1
 10
203.0246530000001
 20
23.201926
 11
202.980501
 21
35.171619
 72
     1
 10
202.980501
 20
35.171619
 11
205.176501
 21
35.171619
 72
     1
 10
205.176501
 20
35.171619
 11
205.176501
 21
18.107619
 72
     1
 10
205.176501
 20
18.107619
 11
205.107501
 21
18.107619
 97
        1
330
10099
 75
     1
 76
     1
 98
        1
 10
0.0
 20
0.0
450
        0
451
        0
460
0.0
461
0.0
452
        0
462
0.0
453
        2
463
0.0
 63
     5
421
      255
463
1.0
 63
     2
421
 16776960
470
LINEAR
1001
GradientColor1ACI
1070
     5
1001
GradientColor2ACI
1070
     2
1001
ACAD
1010
0.0
1020
0.0
1030
0.0
  0
HATCH
  5
100FE
330
1F
100
AcDbEntity
  8
fill-base
  6
Continuous
100
AcDbHatch
 10
0.0
 20
0.0
 30
0.0
210
0.0
220
0.0
230
1.0
  2
SOLID
 70
     1
 71
     1
 91
        1
 92
        1
 93
        1
 72
     4
 94
        3
 73
     1
 74
     0
 95
      116
 96
      112
 40
0.0
 40
0.0
 40
0.0
 40
0.0
 40
1.0
 40
1.0
 40
1.0
 40
2.0
 40
2.0
 40
2.0
 40
3.0
 40
3.0
 40
3.0
 40
4.0
 40
4.0
 40
4.0
 40
5.0
 40
5.0
 40
5.0
 40
6.0
 40
6.0
 40
6.0
 40
7.0
 40
7.0
 40
7.0
 40
8.0
 40
8.0
 40
8.0
 40
9.0
 40
9.0
 40
9.0
 40
10.0
 40
10.0
 40
10.0
 40
11.0
 40
11.0
 40
11.0
 40
12.0
 40
12.0
 40
12.0
 40
13.0
 40
13.0
 40
13.0
 40
14.0
 40
14.0
 40
14.0
 40
15.0
 40
15.0
 40
15.0
 40
16.0
 40
16.0
 40
16.0
 40
17.0
 40
17.0
 40
17.0
 40
18.0
 40
18.0
 40
18.0
 40
19.0
 40
19.0
 40
19.0
 40
20.0
 40
20.0
 40
20.0
 40
21.0
 40
21.0
 40
21.0
 40
22.0
 40
22.0
 40
22.0
 40
23.0
 40
23.0
 40
23.0
 40
24.0
 40
24.0
 40
24.0
 40
25.0
 40
25.0
 40
25.0
 40
26.0
 40
26.0
 40
26.0
 40
27.0
 40
27.0
 40
27.0
 40
28.0
 40
28.0
 40
28.0
 40
29.0
 40
29.0
 40
29.0
 40
30.0
 40
30.0
 40
30.0
 40
31.0
 40
31.0
 40
31.0
 40
32.0
 40
32.0
 40
32.0
 40
33.0
 40
33.0
 40
33.0
 40
34.0
 40
34.0
 40
34.0
 40
35.0
 40
35.0
 40
35.0
 40
36.0
 40
36.0
 40
36.0
 40
37.0
 40
37.0
 40
37.0
 40
37.0
 10
24.29300100000001
 20
33.158619
 42
1.0
 10
23.43875100000003
 20
33.158619
 42
1.0
 10
22.76075100000003
 20
32.964369
 42
1.0
 10
22.25750100000002
 20
32.575119
 42
1.0
 10
21.75425100000001
 20
32.185869
 42
1.0
 10
21.50300100000001
 20
31.656369
 42
1.0
 10
21.50300100000001
 20
30.985119
 42
1.0
 10
21.50300100000001
 20
30.511869
 42
1.0
 10
21.67025100000001
 20
30.100119
 42
1.0
 10
22.00625100000002
 20
29.749869
 42
1.0
 10
22.34150100000002
 20
29.398869
 42
1.0
 10
22.77575100000001
 20
29.093619
 42
1.0
 10
23.30975100000001
 20
28.834869
 42
1.0
 10
23.84300100000002
 20
28.575369
 42
1.0
 10
24.40775100000002
 20
28.331619
 42
1.0
 10
25.00250100000002
 20
28.102869
 42
1.0
 10
25.50575100000003
 20
27.919869
 42
1.0
 10
26.00450100000001
 20
27.702369
 42
1.0
 10
26.50100100000003
 20
27.451119
 42
1.0
 10
26.99675100000002
 20
27.199869
 42
1.0
 10
27.44675100000001
 20
26.890869
 42
1.0
 10
27.85025100000002
 20
26.524869
 42
1.0
 10
28.25450100000001
 20
26.159619
 42
1.0
 10
28.57475099999999
 20
25.705119
 42
1.0
 10
28.81100100000003
 20
25.163619
 42
1.0
 10
29.04725100000002
 20
24.622119
 42
1.0
 10
29.165751
 20
23.962869
 42
1.0
 10
29.165751
 20
23.185119
 42
1.0
 10
29.165751
 20
22.300119
 42
1.0
 10
28.94825100000003
 20
21.499869
 42
1.0
 10
28.51400100000001
 20
20.783619
 42
1.0
 10
28.07900100000001
 20
20.066619
 42
1.0
 10
27.45350100000002
 20
19.498119
 42
1.0
 10
26.63825100000003
 20
19.079619
 42
1.0
 10
25.82225100000002
 20
18.659619
 42
1.0
 10
24.83450100000002
 20
18.450369
 42
1.0
 10
23.67575100000002
 20
18.450369
 42
1.0
 10
22.973751
 20
18.450369
 42
1.0
 10
22.29200100000003
 20
18.529869
 42
1.0
 10
21.62825100000004
 20
18.690369
 42
1.0
 10
20.96525100000002
 20
18.850869
 42
1.0
 10
20.33975100000001
 20
19.063869
 42
1.0
 10
19.75250099999999
 20
19.330869
 42
1.0
 10
19.16525100000001
 20
19.597119
 42
1.0
 10
18.63500100000002
 20
19.891119
 42
1.0
 10
18.16250100000002
 20
20.211369
 42
1.0
 10
18.528501
 20
20.844119
 42
1.0
 10
18.89450100000002
 20
21.476869
 42
1.0
 10
19.26050100000003
 20
22.109619
 42
1.0
 10
19.62650100000002
 20
21.850119
 42
1.0
 10
20.045751
 20
21.602619
 42
1.0
 10
20.51900100000003
 20
21.366369
 42
1.0
 10
20.991501
 20
21.130119
 42
1.0
 10
21.48350100000002
 20
20.943369
 42
1.0
 10
21.99425100000002
 20
20.806119
 42
1.0
 10
22.505001
 20
20.668869
 42
1.0
 10
22.98950100000002
 20
20.600619
 42
1.0
 10
23.447001
 20
20.600619
 42
1.0
 10
23.95025100000001
 20
20.600619
 42
1.0
 10
24.44600100000002
 20
20.688369
 42
1.0
 10
24.93350100000001
 20
20.863869
 42
1.0
 10
25.42100100000002
 20
21.038619
 42
1.0
 10
25.82525100000001
 20
21.313869
 42
1.0
 10
26.14625100000001
 20
21.687369
 42
1.0
 10
26.466501
 20
22.060869
 42
1.0
 10
26.62700100000001
 20
22.552869
 42
1.0
 10
26.62700100000001
 20
23.163369
 42
1.0
 10
26.62700100000001
 20
23.681619
 42
1.0
 10
26.48600099999999
 20
24.119619
 42
1.0
 10
26.20400100000001
 20
24.478869
 42
1.0
 10
25.92200100000003
 20
24.837369
 42
1.0
 10
25.547751
 20
25.145619
 42
1.0
 10
25.08275100000003
 20
25.404369
 42
1.0
 10
24.61700100000002
 20
25.663869
 42
1.0
 10
24.11825100000001
 20
25.892619
 42
1.0
 10
23.58425100000002
 20
26.091369
 42
1.0
 10
23.06600100000003
 20
26.289369
 42
1.0
 10
22.53950100000003
 20
26.510619
 42
1.0
 10
22.00625100000002
 20
26.754369
 42
1.0
 10
21.472251
 20
26.998119
 42
1.0
 10
20.97650100000001
 20
27.292119
 42
1.0
 10
20.51975100000001
 20
27.634869
 42
1.0
 10
20.062251
 20
27.978369
 42
1.0
 10
19.69175100000001
 20
28.404369
 42
1.0
 10
19.41050100000001
 20
28.915869
 42
1.0
 10
19.12850100000003
 20
29.426619
 42
1.0
 10
18.98750100000001
 20
30.055869
 42
1.0
 10
18.98750100000001
 20
30.802869
 42
1.0
 10
18.98750100000001
 20
31.687119
 42
1.0
 10
19.19675100000003
 20
32.461119
 42
1.0
 10
19.61600100000001
 20
33.12486900000001
 42
1.0
 10
20.03525100000002
 20
33.787869
 42
1.0
 10
20.61875100000003
 20
34.310619
 42
1.0
 10
21.36575100000002
 20
34.691619
 42
1.0
 10
22.112751
 20
35.072619
 42
1.0
 10
22.97450100000003
 20
35.286369
 42
1.0
 10
23.95025100000001
 20
35.332119
 42
1.0
 10
25.06325100000001
 20
35.332119
 42
1.0
 10
26.03150100000005
 20
35.194869
 42
1.0
 10
26.855751
 20
34.920369
 42
1.0
 10
27.67925100000002
 20
34.645869
 42
1.0
 10
28.41125099999999
 20
34.318119
 42
1.0
 10
29.05175100000003
 20
33.936369
 42
1.0
 10
28.73900100000003
 20
33.311119
 42
1.0
 10
28.42625099999998
 20
32.685869
 42
1.0
 10
28.11350099999998
 20
32.06061899999999
 42
1.0
 10
27.53375099999999
 20
32.36586900000001
 42
1.0
 10
26.90900099999999
 20
32.624619
 42
1.0
 10
26.237751
 20
32.838369
 42
1.0
 10
25.56650100000002
 20
33.052119
 42
1.0
 10
24.91850100000002
 20
33.158619
 42
1.0
 10
24.29300100000001
 20
33.158619
 42
1.0
 97
        0
 97
        1
330
1009A
 75
     1
 76
     1
 98
        1
 10
0.0
 20
0.0
450
        0
451
        0
460
0.0
461
0.0
452
        0
462
0.0
453
        2
463
0.0
 63
     5
421
      255
463
1.0
 63
     2
421
 16776960
470
LINEAR
1001
GradientColor1ACI
1070
     5
1001
GradientColor2ACI
1070
     2
1001
ACAD
1010
0.0
1020
0.0
1030
0.0
  0
HATCH
  5
10100
330
1F
100
AcDbEntity
  8
fill-base
  6
Continuous
100
AcDbHatch
 10
0.0
 20
0.0
 30
0.0
210
0.0
220
0.0
230
1.0
  2
SOLID
 70
     1
 71
     1
 91
        1
 92
        1
 93
        4
 72
     1
 10
33.39725100000004
 20
35.24061899999999
 11
35.84525100000002
 21
35.24061899999999
 72
     1
 10
35.84525100000002
 20
35.24061899999999
 11
35.84525100000002
 21
18.633369
 72
     1
 10
35.84525100000002
 20
18.633369
 11
33.39725100000004
 21
18.633369
 72
     1
 10
33.39725100000004
 20
18.633369
 11
33.39725100000004
 21
35.24061899999999
 97
        1
330
1009C
 75
     1
 76
     1
 98
        1
 10
0.0
 20
0.0
450
        0
451
        0
460
0.0
461
0.0
452
        0
462
0.0
453
        2
463
0.0
 63
     5
421
      255
463
1.0
 63
     2
421
 16776960
470
LINEAR
1001
GradientColor1ACI
1070
     5
1001
GradientColor2ACI
1070
     2
1001
ACAD
1010
0.0
1020
0.0
1030
0.0
  0
HATCH
  5
10103
330
1F
100
AcDbEntity
  8
fill-base
  6
Continuous
100
AcDbHatch
 10
0.0
 20
0.0
 30
0.0
210
0.0
220
0.0
230
1.0
  2
SOLID
 70
     1
 71
     1
 91
        1
 92
        1
 93
       14
 72
     1
 10
53.321751
 20
29.647494
 11
57.713751
 21
35.789619
 72
     1
 10
57.713751
 20
35.789619
 11
57.759501
 21
35.789619
 72
     1
 10
57.759501
 20
35.789619
 11
57.759501
 21
18.633369
 72
     1
 10
57.759501
 20
18.633369
 11
55.33475100000003
 21
18.633369
 72
     1
 10
55.33475100000003
 20
18.633369
 11
55.33475100000003
 21
28.791633
 72
     1
 10
55.33475100000003
 20
28.791633
 11
49.36475100000001
 21
20.348619
 72
     1
 10
49.36475100000001
 20
20.348619
 11
49.31900100000001
 21
20.348619
 72
     1
 10
49.31900100000001
 20
20.348619
 11
43.48625500000003
 21
28.446938
 72
     1
 10
43.48625500000003
 20
28.446938
 11
43.48625099999998
 21
18.633369
 72
     1
 10
43.48625099999998
 20
18.633369
 11
41.12900100000001
 21
18.633369
 72
     1
 10
41.12900100000001
 20
18.633369
 11
41.12900100000001
 21
35.789619
 72
     1
 10
41.12900100000001
 20
35.789619
 11
41.15225100000003
 21
35.789619
 72
     1
 10
41.15225100000003
 20
35.789619
 11
49.37812500000001
 21
24.132403
 72
     1
 10
49.37812500000001
 20
24.132403
 11
53.321751
 21
29.647494
 97
        1
330
100A0
 75
     1
 76
     1
 98
        1
 10
0.0
 20
0.0
450
        0
451
        0
460
0.0
461
0.0
452
        0
462
0.0
453
        2
463
0.0
 63
     5
421
      255
463
1.0
 63
     2
421
 16776960
470
LINEAR
1001
GradientColor1ACI
1070
     5
1001
GradientColor2ACI
1070
     2
1001
ACAD
1010
0.0
1020
0.0
1030
0.0
  0
HATCH
  5
10105
330
1F
100
AcDbEntity
  8
fill-base
  6
Continuous
100
AcDbHatch
 10
0.0
 20
0.0
 30
0.0
210
0.0
220
0.0
230
1.0
  2
SOLID
 70
     1
 71
     1
 91
        2
 92
        1
 93
        1
 72
     4
 94
        3
 73
     1
 74
     0
 95
       41
 96
       37
 40
0.0
 40
0.0
 40
0.0
 40
0.0
 40
1.0
 40
1.0
 40
1.0
 40
2.0
 40
2.0
 40
2.0
 40
3.0
 40
3.0
 40
3.0
 40
4.0
 40
4.0
 40
4.0
 40
5.0
 40
5.0
 40
5.0
 40
6.0
 40
6.0
 40
6.0
 40
7.0
 40
7.0
 40
7.0
 40
8.0
 40
8.0
 40
8.0
 40
9.0
 40
9.0
 40
9.0
 40
10.0
 40
10.0
 40
10.0
 40
11.0
 40
11.0
 40
11.0
 40
12.0
 40
12.0
 40
12.0
 40
12.0
 10
70.786251
 20
34.611369
 42
1.0
 10
71.663001
 20
34.191369
 42
1.0
 10
72.33350100000001
 20
33.59361900000001
 42
1.0
 10
72.79925100000003
 20
32.815869
 42
1.0
 10
73.264251
 20
32.038119
 42
1.0
 10
73.49675100000002
 20
31.092369
 42
1.0
 10
73.49675100000002
 20
29.979369
 42
1.0
 10
73.49675100000002
 20
29.323119
 42
1.0
 10
73.39775100000003
 20
28.675869
 42
1.0
 10
73.19975099999999
 20
28.035369
 42
1.0
 10
73.00175100000001
 20
27.394869
 42
1.0
 10
72.68525099999999
 20
26.811369
 42
1.0
 10
72.25025099999999
 20
26.285619
 42
1.0
 10
71.81525099999999
 20
25.759869
 42
1.0
 10
71.240001
 20
25.339869
 42
1.0
 10
70.52300100000002
 20
25.027119
 42
1.0
 10
69.80600100000003
 20
24.714369
 42
1.0
 10
68.93675100000002
 20
24.558369
 42
1.0
 10
67.91525100000001
 20
24.558369
 42
1.0
 10
67.10700100000003
 20
24.558369
 42
1.0
 10
66.29875099999998
 20
24.558369
 42
1.0
 10
65.49050099999999
 20
24.558369
 42
1.0
 10
65.49050099999999
 20
22.583619
 42
1.0
 10
65.49050099999999
 20
20.608869
 42
1.0
 10
65.49050099999999
 20
18.634119
 42
1.0
 10
64.67450100000002
 20
18.634119
 42
1.0
 10
63.85850100000005
 20
18.634119
 42
1.0
 10
63.04250100000001
 20
18.634119
 42
1.0
 10
63.04250100000001
 20
24.169619
 42
1.0
 10
63.04250100000001
 20
29.705119
 42
1.0
 10
63.04250100000001
 20
35.24061899999999
 42
1.0
 10
64.56775100000005
 20
35.24061899999999
 42
1.0
 10
66.09300100000002
 20
35.24061899999999
 42
1.0
 10
67.61825100000004
 20
35.24061899999999
 42
1.0
 10
68.853501
 20
35.24061899999999
 42
1.0
 10
69.90950100000003
 20
35.030619
 42
1.0
 10
70.786251
 20
34.611369
 42
1.0
 97
        0
 97
        1
330
1009B
 92
       16
 93
        1
 72
     4
 94
        3
 73
     1
 74
     0
 95
       38
 96
       34
 40
0.0
 40
0.0
 40
0.0
 40
0.0
 40
1.0
 40
1.0
 40
1.0
 40
2.0
 40
2.0
 40
2.0
 40
3.0
 40
3.0
 40
3.0
 40
4.0
 40
4.0
 40
4.0
 40
5.0
 40
5.0
 40
5.0
 40
6.0
 40
6.0
 40
6.0
 40
7.0
 40
7.0
 40
7.0
 40
8.0
 40
8.0
 40
8.0
 40
9.0
 40
9.0
 40
9.0
 40
10.0
 40
10.0
 40
10.0
 40
11.0
 40
11.0
 40
11.0
 40
11.0
 10
69.44750100000004
 20
27.223119
 42
1.0
 10
69.85925100000002
 20
27.428619
 42
1.0
 10
70.18325100000004
 20
27.691869
 42
1.0
 10
70.41950100000002
 20
28.012119
 42
1.0
 10
70.65575100000001
 20
28.332369
 42
1.0
 10
70.82375100000001
 20
28.663869
 42
1.0
 10
70.92275100000001
 20
29.007369
 42
1.0
 10
71.021751
 20
29.350869
 42
1.0
 10
71.07125100000001
 20
29.659869
 42
1.0
 10
71.07125100000001
 20
29.933619
 42
1.0
 10
71.07125100000001
 20
30.238869
 42
1.0
 10
71.021751
 20
30.562869
 42
1.0
 10
70.92275100000001
 20
30.905619
 42
1.0
 10
70.82375100000001
 20
31.248369
 42
1.0
 10
70.65950100000003
 20
31.568619
 42
1.0
 10
70.43075100000004
 20
31.866369
 42
1.0
 10
70.202001
 20
32.163369
 42
1.0
 10
69.889251
 20
32.407869
 42
1.0
 10
69.49325100000004
 20
32.598369
 42
1.0
 10
69.09650099999999
 20
32.788869
 42
1.0
 10
68.60150100000004
 20
32.884119
 42
1.0
 10
68.00675100000001
 20
32.884119
 42
1.0
 10
67.168001
 20
32.884119
 42
1.0
 10
66.329251
 20
32.884119
 42
1.0
 10
65.49050099999999
 20
32.884119
 42
1.0
 10
65.49050099999999
 20
30.894119
 42
1.0
 10
65.49050099999999
 20
28.90411900000001
 42
1.0
 10
65.49050099999999
 20
26.91411900000001
 42
1.0
 10
66.29875100000004
 20
26.914119
 42
1.0
 10
67.10700100000003
 20
26.914119
 42
1.0
 10
67.91525100000007
 20
26.914119
 42
1.0
 10
68.52500099999997
 20
26.914119
 42
1.0
 10
69.03650100000004
 20
27.016869
 42
1.0
 10
69.44750100000004
 20
27.223119
 42
1.0
 97
        0
 97
        1
330
1009D
 75
     1
 76
     1
 98
        1
 10
0.0
 20
0.0
450
        0
451
        0
460
0.0
461
0.0
452
        0
462
0.0
453
        2
463
0.0
 63
     5
421
      255
463
1.0
 63
     2
421
 16776960
470
LINEAR
1001
GradientColor1ACI
1070
     5
1001
GradientColor2ACI
1070
     2
1001
ACAD
1010
0.0
1020
0.0
1030
0.0
  0
HATCH
  5
10108
330
1F
100
AcDbEntity
  8
fill-base
  6
Continuous
100
AcDbHatch
 10
0.0
 20
0.0
 30
0.0
210
0.0
220
0.0
230
1.0
  2
SOLID
 70
     1
 71
     1
 91
        1
 92
        1
 93
        6
 72
     1
 10
77.45450099999999
 20
35.24061899999999
 11
79.90250100000003
 21
35.24061899999999
 72
     1
 10
79.90250100000003
 20
35.24061899999999
 11
79.90250100000003
 21
20.989869
 72
     1
 10
79.90250100000003
 20
20.989869
 11
88.20575100000002
 21
20.989869
 72
     1
 10
88.20575100000002
 20
20.989869
 11
88.20575100000002
 21
18.633369
 72
     1
 10
88.20575100000002
 20
18.633369
 11
77.45450099999999
 21
18.633369
 72
     1
 10
77.45450099999999
 20
18.633369
 11
77.45450099999999
 21
35.24061899999999
 97
        1
330
1009E
 75
     1
 76
     1
 98
        1
 10
0.0
 20
0.0
450
        0
451
        0
460
0.0
461
0.0
452
        0
462
0.0
453
        2
463
0.0
 63
     5
421
      255
463
1.0
 63
     2
421
 16776960
470
LINEAR
1001
GradientColor1ACI
1070
     5
1001
GradientColor2ACI
1070
     2
1001
ACAD
1010
0.0
1020
0.0
1030
0.0
  0
HATCH
  5
1010A
330
1F
100
AcDbEntity
  8
fill-base
  6
Continuous
100
AcDbHatch
 10
0.0
 20
0.0
 30
0.0
210
0.0
220
0.0
230
1.0
  2
SOLID
 70
     1
 71
     1
 91
        1
 92
        1
 93
       13
 72
     1
 10
92.39225099999998
 20
35.24061899999999
 11
103.302501
 21
35.24061899999999
 72
     1
 10
103.302501
 20
35.24061899999999
 11
103.302501
 21
32.884119
 72
     1
 10
103.302501
 20
32.884119
 11
94.83800100000001
 21
32.884119
 72
     1
 10
94.83800100000001
 20
32.884119
 11
94.83800100000001
 21
28.149369
 72
     1
 10
94.83800100000001
 20
28.149369
 11
102.364251
 21
28.149369
 72
     1
 10
102.364251
 20
28.149369
 11
102.364251
 21
25.793619
 72
     1
 10
102.364251
 20
25.793619
 11
94.83800100000001
 21
25.793619
 72
     1
 10
94.83800100000001
 20
25.793619
 11
94.83800100000001
 21
20.989869
 72
     1
 10
94.83800100000001
 20
20.989869
 11
103.622751
 21
20.989869
 72
     1
 10
103.622751
 20
20.989869
 11
103.622751
 21
18.633369
 72
     1
 10
103.622751
 20
18.633369
 11
92.39150100000001
 21
18.633369
 72
     1
 10
92.39150100000001
 20
18.633369
 11
92.39150100000001
 21
35.24061899999999
 72
     1
 10
92.39150100000001
 20
35.24061899999999
 11
92.39225099999998
 21
35.24061899999999
 97
        1
330
1009F
 75
     1
 76
     1
 98
        1
 10
0.0
 20
0.0
450
        0
451
        0
460
0.0
461
0.0
452
        0
462
0.0
453
        2
463
0.0
 63
     5
421
      255
463
1.0
 63
     2
421
 16776960
470
LINEAR
1001
GradientColor1ACI
1070
     5
1001
GradientColor2ACI
1070
     2
1001
ACAD
1010
0.0
1020
0.0
1030
0.0
  0
ENDSEC
  0
SECTION
  2
OBJECTS
  0
DICTIONARY
  5
C
330
0
100
AcDbDictionary
281
     1
  3
ACAD_CIP_PREVIOUS_PRODUCT_INFO
350
10056
  3
ACAD_COLOR
350
10035
  3
ACAD_DETAILVIEWSTYLE
350
1004F
  3
ACAD_GROUP
350
D
  3
ACAD_LAYOUT
350
10036
  3
ACAD_MATERIAL
350
10003
  3
ACAD_MLEADERSTYLE
350
1004B
  3
ACAD_MLINESTYLE
350
17
  3
ACAD_PLOTSETTINGS
350
10051
  3
ACAD_PLOTSTYLENAME
350
10001
  3
ACAD_SCALELIST
350
10039
  3
ACAD_SECTIONVIEWSTYLE
350
1004D
  3
ACAD_TABLESTYLE
350
10037
  3
ACAD_VISUALSTYLE
350
1001C
  3
ACDB_RECOMPOSE_DATA
350
1011B
  3
AcDbVariableDictionary
350
10060
  0
DICTIONARY
  5
10070
330
2
100
AcDbDictionary
280
     1
281
     1
  3
ACAD_LAYERSTATES
360
10071
  0
DICTIONARY
  5
100A9
330
50
100
AcDbDictionary
280
     1
281
     1
  3
ADSK_XREC_LAYER_RECONCILED
360
100AA
  0
DICTIONARY
  5
1006C
330
1006B
100
AcDbDictionary
280
     1
281
     1
  3
ADSK_XREC_LAYER_RECONCILED
360
100AB
  0
DICTIONARY
  5
100E6
330
1F
100
AcDbDictionary
280
     1
281
     1
  3
ACAD_SORTENTS
360
100E7
  0
XRECORD
  5
10056
102
{ACAD_REACTORS
330
C
102
}
330
C
100
AcDbXrecord
280
     1
300
ACD
300
2021
300

  0
DICTIONARY
  5
10035
102
{ACAD_REACTORS
330
C
102
}
330
C
100
AcDbDictionary
281
     1
  0
DICTIONARY
  5
1004F
102
{ACAD_REACTORS
330
C
102
}
330
C
100
AcDbDictionary
281
     1
  3
Metric50
350
10050
  0
DICTIONARY
  5
D
330
C
100
AcDbDictionary
281
     1
  0
DICTIONARY
  5
10036
102
{ACAD_REACTORS
330
C
102
}
330
C
100
AcDbDictionary
281
     1
  3
Layout1
350
10053
  3
Model
350
10052
  0
DICTIONARY
  5
10003
102
{ACAD_REACTORS
330
C
102
}
330
C
100
AcDbDictionary
281
     1
  3
ByBlock
350
1000C
  3
ByLayer
350
10004
  3
Global
350
10014
  0
DICTIONARY
  5
1004B
102
{ACAD_REACTORS
330
C
102
}
330
C
100
AcDbDictionary
281
     1
  3
Standard
350
1004C
  0
DICTIONARY
  5
17
330
C
100
AcDbDictionary
281
     1
  3
Standard
350
1006F
  0
DICTIONARY
  5
10051
102
{ACAD_REACTORS
330
C
102
}
330
C
100
AcDbDictionary
281
     1
  0
ACDBDICTIONARYWDFLT
  5
10001
102
{ACAD_REACTORS
330
C
102
}
330
C
100
AcDbDictionary
281
     1
  3
Normal
350
10002
100
AcDbDictionaryWithDefault
340
10002
  0
DICTIONARY
  5
10039
102
{ACAD_REACTORS
330
C
102
}
330
C
100
AcDbDictionary
281
     1
  3
A0
350
1003A
  3
A1
350
1003B
  3
A2
350
1003C
  3
A3
350
1003D
  3
A4
350
1003E
  3
A5
350
1003F
  3
A6
350
10040
  3
A7
350
10041
  3
A8
350
10042
  3
A9
350
10043
  3
B0
350
10044
  3
B1
350
10045
  3
B2
350
10046
  3
B3
350
10047
  3
B4
350
10048
  3
B5
350
10049
  3
B6
350
1004A
  0
DICTIONARY
  5
1004D
102
{ACAD_REACTORS
330
C
102
}
330
C
100
AcDbDictionary
281
     1
  3
Metric50
350
1004E
  0
DICTIONARY
  5
10037
102
{ACAD_REACTORS
330
C
102
}
330
C
100
AcDbDictionary
281
     1
  3
Standard
350
10038
  0
DICTIONARY
  5
1001C
102
{ACAD_REACTORS
330
C
102
}
330
C
100
AcDbDictionary
281
     1
  3
2dWireframe
350
10022
  3
Basic
350
10021
  3
Brighten
350
10028
  3
ColorChange
350
1002C
  3
Conceptual
350
10025
  3
Dim
350
10027
  3
EdgeColorOff
350
10034
  3
Facepattern
350
1002B
  3
Flat
350
1001D
  3
FlatWithEdges
350
1001E
  3
Gouraud
350
1001F
  3
GouraudWithEdges
350
10020
  3
Hidden
350
10024
  3
JitterOff
350
10032
  3
Linepattern
350
1002A
  3
OverhangOff
350
10033
  3
Realistic
350
10026
  3
Shaded
350
10031
  3
Shaded with edges
350
10030
  3
Shades of Gray
350
1002D
  3
Sketchy
350
1002E
  3
Thicken
350
10029
  3
Wireframe
350
10023
  3
X-Ray
350
1002F
  0
XRECORD
  5
1011B
102
{ACAD_REACTORS
330
C
102
}
330
C
100
AcDbXrecord
280
     1
 90
        1
330
10038
  0
DICTIONARY
  5
10060
102
{ACAD_REACTORS
330
C
102
}
330
C
100
AcDbDictionary
281
     1
  3
CANNOSCALE
350
10066
  3
CMLEADERSTYLE
350
10062
  3
CTABLESTYLE
350
10061
  3
CVIEWDETAILSTYLE
350
10063
  3
CVIEWSECTIONSTYLE
350
10064
  3
HPCOLOR
350
100E9
  3
HPTRANSPARENCY
350
100E8
  3
LAYEREVAL
350
10068
  3
LAYERNOTIFY
350
10069
  3
LIGHTINGUNITS
350
10067
  3
MSLTSCALE
350
10065
  0
DICTIONARY
  5
10071
102
{ACAD_REACTORS
330
10070
102
}
330
10070
100
AcDbDictionary
281
     1
  0
XRECORD
  5
100AA
102
{ACAD_REACTORS
330
100A9
102
}
330
100A9
100
AcDbXrecord
280
     1
290
     1
  0
XRECORD
  5
100AB
102
{ACAD_REACTORS
330
1006C
102
}
330
1006C
100
AcDbXrecord
280
     1
290
     1
  0
SORTENTSTABLE
  5
100E7
102
{ACAD_REACTORS
330
100E6
102
}
330
100E6
100
AcDbSortentsTable
330
1F
331
1008E
  5
10091
331
1008F
  5
10093
331
10090
  5
10094
331
10091
  5
10095
331
10092
  5
10096
331
10093
  5
10099
331
10094
  5
1009D
331
10095
  5
1009F
331
10096
  5
100A0
331
10097
  5
100DD
331
10098
  5
100DE
331
10099
  5
100E1
331
1009A
  5
100E4
331
1009B
  5
100EC
331
1009C
  5
100EE
331
1009D
  5
100EF
331
1009E
  5
100F3
331
1009F
  5
100F6
331
100A0
  5
100F8
331
100A1
  5
100FA
331
100A2
  5
100FC
331
100A3
  5
100FE
331
100A4
  5
10100
331
100EA
  5
100FF
331
100EC
  5
100FD
331
100EE
  5
100FB
331
100F0
  5
100F9
331
100F2
  5
10092
331
100F4
  5
10090
331
100F6
  5
10098
331
100F8
  5
1009E
331
100FA
  5
1009C
331
100FC
  5
100E0
331
100FE
  5
100E3
331
10100
  5
100ED
331
10103
  5
100F7
331
10105
  5
100EB
331
10108
  5
100F2
331
1010A
  5
100F5
  0
ACDBDETAILVIEWSTYLE
  5
10050
102
{ACAD_XDICTIONARY
360
1011E
102
}
102
{ACAD_REACTORS
330
1004F
102
}
330
1004F
100
AcDbModelDocViewStyle
 70
     0
  3
Metric50
290
     0
100
AcDbDetailViewStyle
 70
     0
 71
     0
 90
        3
 71
     1
340
11
 62
   256
 40
5.0
340
0
 62
   256
 40
5.0
300

 40
0.0
280
     1
 71
     2
340
16
 90
       25
 62
   256
 71
     3
340
11
 62
   256
 40
5.0
 90
        0
 40
15.0
 90
        1
300
%<\AcVar ViewDetailId>% (%<\AcVar ViewScale \f "%sn">%)
 71
     4
340
16
 90
       25
 62
   256
340
16
 90
       25
 62
   256
280
     0
  0
LAYOUT
  5
10053
102
{ACAD_REACTORS
330
10036
102
}
330
10036
100
AcDbPlotSettings
  1

  2
Microsoft Print to PDF
  4

  6

 40
0.0
 41
0.0
 42
0.0
 43
0.0
 44
0.0
 45
0.0
 46
0.0
 47
0.0
 48
0.0
 49
0.0
140
0.0
141
0.0
142
1.0
143
1.0
 70
   688
 72
     0
 73
     0
 74
     5
  7

 75
    16
147
1.0
 76
     0
 77
     2
 78
   300
148
0.0
149
0.0
100
AcDbLayout
  1
Layout1
 70
     1
 71
     1
 10
0.0
 20
0.0
 11
12.0
 21
9.0
 12
0.0
 22
0.0
 32
0.0
 14
1.000000000000000E+20
 24
1.000000000000000E+20
 34
1.000000000000000E+20
 15
-1.000000000000000E+20
 25
-1.000000000000000E+20
 35
-1.000000000000000E+20
146
0.0
 13
0.0
 23
0.0
 33
0.0
 16
1.0
 26
0.0
 36
0.0
 17
0.0
 27
1.0
 37
0.0
 76
     0
330
1B
  0
LAYOUT
  5
10052
102
{ACAD_REACTORS
330
10036
102
}
330
10036
100
AcDbPlotSettings
  1

  2
Microsoft Print to PDF
  4

  6

 40
0.0
 41
0.0
 42
0.0
 43
0.0
 44
0.0
 45
0.0
 46
0.0
 47
0.0
 48
0.0
 49
0.0
140
0.0
141
0.0
142
1.0
143
1.0
 70
  1712
 72
     0
 73
     0
 74
     0
  7

 75
     0
147
1.0
 76
     0
 77
     2
 78
   300
148
0.0
149
0.0
100
AcDbLayout
  1
Model
 70
     1
 71
     0
 10
0.0
 20
0.0
 11
12.0
 21
9.0
 12
0.0
 22
0.0
 32
0.0
 14
0.0
 24
0.0
 34
0.0
 15
0.0
 25
0.0
 35
0.0
146
0.0
 13
0.0
 23
0.0
 33
0.0
 16
1.0
 26
0.0
 36
0.0
 17
0.0
 27
1.0
 37
0.0
 76
     0
330
1F
331
2E
  0
MATERIAL
  5
1000C
102
{ACAD_XDICTIONARY
360
1000D
102
}
102
{ACAD_REACTORS
330
10003
102
}
330
10003
100
AcDbMaterial
  1
ByBlock
 72
     0
 43
0.0208333333333333
 43
0.0
 43
0.0
 43
0.0
 43
0.0
 43
0.0208333333333333
 43
0.0
 43
0.0
 43
0.0
 43
0.0
 43
1.0
 43
0.0
 43
0.0
 43
0.0
 43
0.0
 43
1.0
 77
     0
 47
0.0208333333333333
 47
0.0
 47
0.0
 47
0.0
 47
0.0
 47
0.0208333333333333
 47
0.0
 47
0.0
 47
0.0
 47
0.0
 47
1.0
 47
0.0
 47
0.0
 47
0.0
 47
0.0
 47
1.0
171
     0
 49
0.0208333333333333
 49
0.0
 49
0.0
 49
0.0
 49
0.0
 49
0.0208333333333333
 49
0.0
 49
0.0
 49
0.0
 49
0.0
 49
1.0
 49
0.0
 49
0.0
 49
0.0
 49
0.0
 49
1.0
175
     0
142
0.0208333333333333
142
0.0
142
0.0
142
0.0
142
0.0
142
0.0208333333333333
142
0.0
142
0.0
142
0.0
142
0.0
142
1.0
142
0.0
142
0.0
142
0.0
142
0.0
142
1.0
179
     0
144
0.0208333333333333
144
0.0
144
0.0
144
0.0
144
0.0
144
0.0208333333333333
144
0.0
144
0.0
144
0.0
144
0.0
144
1.0
144
0.0
144
0.0
144
0.0
144
0.0
144
1.0
147
0.0208333333333333
147
0.0
147
0.0
147
0.0
147
0.0
147
0.0208333333333333
147
0.0
147
0.0
147
0.0
147
0.0
147
1.0
147
0.0
147
0.0
147
0.0
147
0.0
147
1.0
  0
MATERIAL
  5
10004
102
{ACAD_XDICTIONARY
360
10005
102
}
102
{ACAD_REACTORS
330
10003
102
}
330
10003
100
AcDbMaterial
  1
ByLayer
 72
     0
 43
0.0208333333333333
 43
0.0
 43
0.0
 43
0.0
 43
0.0
 43
0.0208333333333333
 43
0.0
 43
0.0
 43
0.0
 43
0.0
 43
1.0
 43
0.0
 43
0.0
 43
0.0
 43
0.0
 43
1.0
 77
     0
 47
0.0208333333333333
 47
0.0
 47
0.0
 47
0.0
 47
0.0
 47
0.0208333333333333
 47
0.0
 47
0.0
 47
0.0
 47
0.0
 47
1.0
 47
0.0
 47
0.0
 47
0.0
 47
0.0
 47
1.0
171
     0
 49
0.0208333333333333
 49
0.0
 49
0.0
 49
0.0
 49
0.0
 49
0.0208333333333333
 49
0.0
 49
0.0
 49
0.0
 49
0.0
 49
1.0
 49
0.0
 49
0.0
 49
0.0
 49
0.0
 49
1.0
175
     0
142
0.0208333333333333
142
0.0
142
0.0
142
0.0
142
0.0
142
0.0208333333333333
142
0.0
142
0.0
142
0.0
142
0.0
142
1.0
142
0.0
142
0.0
142
0.0
142
0.0
142
1.0
179
     0
144
0.0208333333333333
144
0.0
144
0.0
144
0.0
144
0.0
144
0.0208333333333333
144
0.0
144
0.0
144
0.0
144
0.0
144
1.0
144
0.0
144
0.0
144
0.0
144
0.0
144
1.0
147
0.0208333333333333
147
0.0
147
0.0
147
0.0
147
0.0
147
0.0208333333333333
147
0.0
147
0.0
147
0.0
147
0.0
147
1.0
147
0.0
147
0.0
147
0.0
147
0.0
147
1.0
  0
MATERIAL
  5
10014
102
{ACAD_XDICTIONARY
360
10015
102
}
102
{ACAD_REACTORS
330
10003
102
}
330
10003
100
AcDbMaterial
  1
Global
 72
     0
 43
0.0208333333333333
 43
0.0
 43
0.0
 43
0.0
 43
0.0
 43
0.0208333333333333
 43
0.0
 43
0.0
 43
0.0
 43
0.0
 43
1.0
 43
0.0
 43
0.0
 43
0.0
 43
0.0
 43
1.0
 77
     0
 47
0.0208333333333333
 47
0.0
 47
0.0
 47
0.0
 47
0.0
 47
0.0208333333333333
 47
0.0
 47
0.0
 47
0.0
 47
0.0
 47
1.0
 47
0.0
 47
0.0
 47
0.0
 47
0.0
 47
1.0
171
     0
 49
0.0208333333333333
 49
0.0
 49
0.0
 49
0.0
 49
0.0
 49
0.0208333333333333
 49
0.0
 49
0.0
 49
0.0
 49
0.0
 49
1.0
 49
0.0
 49
0.0
 49
0.0
 49
0.0
 49
1.0
175
     0
142
0.0208333333333333
142
0.0
142
0.0
142
0.0
142
0.0
142
0.0208333333333333
142
0.0
142
0.0
142
0.0
142
0.0
142
1.0
142
0.0
142
0.0
142
0.0
142
0.0
142
1.0
179
     0
144
0.0208333333333333
144
0.0
144
0.0
144
0.0
144
0.0
144
0.0208333333333333
144
0.0
144
0.0
144
0.0
144
0.0
144
1.0
144
0.0
144
0.0
144
0.0
144
0.0
144
1.0
147
0.0208333333333333
147
0.0
147
0.0
147
0.0
147
0.0
147
0.0208333333333333
147
0.0
147
0.0
147
0.0
147
0.0
147
1.0
147
0.0
147
0.0
147
0.0
147
0.0
147
1.0
  0
MLEADERSTYLE
  5
1004C
102
{ACAD_REACTORS
330
1004B
102
}
330
1004B
100
AcDbMLeaderStyle
179
     2
170
     2
171
     1
172
     0
 90
        2
 40
0.0
 41
0.0
173
     1
 91
-1056964608
340
14
 92
       -2
290
     1
 42
2.0
291
     1
 43
0.36
  3
Standard
 44
4.0
300

342
11
174
     1
178
     6
175
     1
176
     0
 93
-1056964608
 45
4.0
292
     0
297
     0
 46
4.0
 94
-1056964608
 47
1.0
 49
1.0
140
1.0
293
     1
141
0.0
294
     1
177
     0
142
1.0
295
     0
296
     0
143
0.125
271
     0
272
     9
273
     9
298
     0
  0
MLINESTYLE
  5
1006F
102
{ACAD_REACTORS
330
17
102
}
330
17
100
AcDbMlineStyle
  2
STANDARD
 70
     0
  3

 62
   256
 51
90.0
 52
90.0
 71
     2
 49
0.5
 62
   256
  6
BYLAYER
 49
-0.5
 62
   256
  6
BYLAYER
  0
ACDBPLACEHOLDER
  5
10002
102
{ACAD_REACTORS
330
10001
102
}
330
10001
  0
SCALE
  5
1003A
102
{ACAD_REACTORS
330
10039
102
}
330
10039
100
AcDbScale
 70
     0
300
1:1
140
1.0
141
1.0
290
     1
  0
SCALE
  5
1003B
102
{ACAD_REACTORS
330
10039
102
}
330
10039
100
AcDbScale
 70
     0
300
1:2
140
1.0
141
2.0
290
     0
  0
SCALE
  5
1003C
102
{ACAD_REACTORS
330
10039
102
}
330
10039
100
AcDbScale
 70
     0
300
1:4
140
1.0
141
4.0
290
     0
  0
SCALE
  5
1003D
102
{ACAD_REACTORS
330
10039
102
}
330
10039
100
AcDbScale
 70
     0
300
1:5
140
1.0
141
5.0
290
     0
  0
SCALE
  5
1003E
102
{ACAD_REACTORS
330
10039
102
}
330
10039
100
AcDbScale
 70
     0
300
1:8
140
1.0
141
8.0
290
     0
  0
SCALE
  5
1003F
102
{ACAD_REACTORS
330
10039
102
}
330
10039
100
AcDbScale
 70
     0
300
1:10
140
1.0
141
10.0
290
     0
  0
SCALE
  5
10040
102
{ACAD_REACTORS
330
10039
102
}
330
10039
100
AcDbScale
 70
     0
300
1:16
140
1.0
141
16.0
290
     0
  0
SCALE
  5
10041
102
{ACAD_REACTORS
330
10039
102
}
330
10039
100
AcDbScale
 70
     0
300
1:20
140
1.0
141
20.0
290
     0
  0
SCALE
  5
10042
102
{ACAD_REACTORS
330
10039
102
}
330
10039
100
AcDbScale
 70
     0
300
1:30
140
1.0
141
30.0
290
     0
  0
SCALE
  5
10043
102
{ACAD_REACTORS
330
10039
102
}
330
10039
100
AcDbScale
 70
     0
300
1:40
140
1.0
141
40.0
290
     0
  0
SCALE
  5
10044
102
{ACAD_REACTORS
330
10039
102
}
330
10039
100
AcDbScale
 70
     0
300
1:50
140
1.0
141
50.0
290
     0
  0
SCALE
  5
10045
102
{ACAD_REACTORS
330
10039
102
}
330
10039
100
AcDbScale
 70
     0
300
1:100
140
1.0
141
100.0
290
     0
  0
SCALE
  5
10046
102
{ACAD_REACTORS
330
10039
102
}
330
10039
100
AcDbScale
 70
     0
300
2:1
140
2.0
141
1.0
290
     0
  0
SCALE
  5
10047
102
{ACAD_REACTORS
330
10039
102
}
330
10039
100
AcDbScale
 70
     0
300
4:1
140
4.0
141
1.0
290
     0
  0
SCALE
  5
10048
102
{ACAD_REACTORS
330
10039
102
}
330
10039
100
AcDbScale
 70
     0
300
8:1
140
8.0
141
1.0
290
     0
  0
SCALE
  5
10049
102
{ACAD_REACTORS
330
10039
102
}
330
10039
100
AcDbScale
 70
     0
300
10:1
140
10.0
141
1.0
290
     0
  0
SCALE
  5
1004A
102
{ACAD_REACTORS
330
10039
102
}
330
10039
100
AcDbScale
 70
     0
300
100:1
140
100.0
141
1.0
290
     0
  0
ACDBSECTIONVIEWSTYLE
  5
1004E
102
{ACAD_XDICTIONARY
360
1011C
102
}
102
{ACAD_REACTORS
330
1004D
102
}
330
1004D
100
AcDbModelDocViewStyle
 70
     0
  3
Metric50
290
     0
100
AcDbSectionViewStyle
 70
     0
 71
     0
 90
      102
 71
     1
340
11
 62
   256
 40
5.0
340
0
340
0
 62
   256
 40
5.0
300
I, O, Q, S, X, Z
 40
10.0
 90
        0
 40
2.5
 90
        0
 71
     2
340
16
 90
       25
 62
   256
340
16
 90
       50
 62
   256
 40
5.0
 40
2.5
 40
5.0
 71
     3
340
11
 62
   256
 40
5.0
 90
        0
 40
15.0
 90
        1
300
%<\AcVar ViewSectionStartId>%-%<\AcVar ViewSectionEndId>% (%<\AcVar ViewScale \f "%sn">%)
 71
     4
 62
   256
 62
   257
300
ANSI31
 40
1.0
 90
        0
290
     0
290
     0
 90
        6
 40
0.0
 40
1.570796326794896
 40
0.2617993877991494
 40
1.308996938995747
 40
-0.2617993877991494
 40
1.832595714594046
  0
TABLESTYLE
  5
10038
102
{ACAD_XDICTIONARY
360
10119
102
}
102
{ACAD_REACTORS
330
10037
102
}
330
10037
100
AcDbTableStyle
280
     0
  3
Standard
 70
     0
 71
     0
 40
1.5
 41
1.5
280
     0
281
     0
  7
STANDARD
140
4.5
170
     2
 62
     0
 63
     7
283
     0
 90
      512
 91
        0
  1

274
    -2
284
     1
 64
     0
275
    -2
285
     1
 65
     0
276
    -2
286
     1
 66
     0
277
    -2
287
     1
 67
     0
278
    -2
288
     1
 68
     0
279
    -2
289
     1
 69
     0
  7
STANDARD
140
6.0
170
     5
 62
     0
 63
     7
283
     0
 90
      512
 91
        0
  1

274
    -2
284
     1
 64
     0
275
    -2
285
     1
 65
     0
276
    -2
286
     1
 66
     0
277
    -2
287
     1
 67
     0
278
    -2
288
     1
 68
     0
279
    -2
289
     1
 69
     0
  7
STANDARD
140
4.5
170
     5
 62
     0
 63
     7
283
     0
 90
      512
 91
        0
  1

274
    -2
284
     1
 64
     0
275
    -2
285
     1
 65
     0
276
    -2
286
     1
 66
     0
277
    -2
287
     1
 67
     0
278
    -2
288
     1
 68
     0
279
    -2
289
     1
 69
     0
  0
VISUALSTYLE
  5
10022
102
{ACAD_REACTORS
330
1001C
102
}
330
1001C
100
AcDbVisualStyle
  2
2dWireframe
 70
     4
177
     3
291
     0
 70
    58
 90
        0
176
     1
 90
        2
176
     1
 90
        0
176
     1
 90
        0
176
     1
 40
0.6
176
     1
 40
30.0
176
     1
 62
     7
420
 16777215
176
     1
 90
        1
176
     1
 90
        4
176
     1
 62
     7
176
     1
 62
   257
176
     1
 90
        1
176
     1
 90
        1
176
     1
 40
1.0
176
     1
 90
        0
176
     1
 62
   257
176
     1
 40
1.0
176
     1
 90
        1
176
     1
 90
        6
176
     1
 90
        2
176
     1
 62
     7
176
     1
 90
        5
176
     1
 90
        0
176
     1
 90
        0
176
     1
290
     0
176
     1
 90
        1
176
     1
 40
0.0
176
     1
 90
        0
176
     1
290
     1
176
     1
290
     1
176
     1
290
     0
176
     1
290
     0
176
     1
290
     0
176
     1
290
     0
176
     1
290
     0
176
     1
290
     0
176
     1
290
     0
176
     1
 90
       50
176
     1
 40
0.0
176
     1
 40
1.0
176
     1
 90
        0
176
     1
 62
    18
420
        0
176
     1
 90
       50
176
     1
 90
        3
176
     1
 62
     5
420
      255
176
     1
290
     0
176
     1
 90
       50
176
     1
 90
       50
176
     1
 90
       50
176
     1
290
     0
176
     1
 90
       50
176
     1
 62
   256
176
     0
 40
1.0
176
     0
 90
        2
176
     1
  1
strokes_ogs.tif
176
     1
290
     0
176
     1
 40
1.0
176
     1
 40
1.0
176
     1
1001
ACAD
1000
AcDbSavedByObjectVersion
1070
     0
  0
VISUALSTYLE
  5
10021
102
{ACAD_REACTORS
330
1001C
102
}
330
1001C
100
AcDbVisualStyle
  2
Basic
 70
     7
177
     3
291
     1
 70
    58
 90
        1
176
     1
 90
        0
176
     1
 90
        1
176
     1
 90
        0
176
     1
 40
0.6
176
     1
 40
30.0
176
     1
 62
     7
420
 16777215
176
     1
 90
        0
176
     1
 90
        4
176
     1
 62
     7
176
     1
 62
   257
176
     1
 90
        1
176
     1
 90
        1
176
     1
 40
1.0
176
     1
 90
        8
176
     1
 62
     7
176
     1
 40
1.0
176
     1
 90
        1
176
     1
 90
        6
176
     1
 90
        2
176
     1
 62
     7
176
     1
 90
        5
176
     1
 90
        0
176
     1
 90
        0
176
     1
290
     0
176
     1
 90
        1
176
     1
 40
0.0
176
     1
 90
        0
176
     1
290
     0
176
     1
290
     1
176
     1
290
     1
176
     1
290
     0
176
     1
290
     0
176
     1
290
     0
176
     1
290
     0
176
     1
290
     0
176
     1
290
     0
176
     1
 90
       50
176
     1
 40
0.0
176
     1
 40
1.0
176
     1
 90
        0
176
     1
 62
    18
420
        0
176
     1
 90
       50
176
     1
 90
        3
176
     1
 62
     5
420
      255
176
     1
290
     0
176
     1
 90
       50
176
     1
 90
       50
176
     1
 90
       50
176
     1
290
     0
176
     1
 90
       50
176
     1
 62
   256
176
     0
 40
1.0
176
     0
 90
        2
176
     1
  1
strokes_ogs.tif
176
     1
290
     0
176
     1
 40
1.0
176
     1
 40
1.0
176
     1
1001
ACAD
1000
AcDbSavedByObjectVersion
1070
     0
  0
VISUALSTYLE
  5
10028
102
{ACAD_REACTORS
330
1001C
102
}
330
1001C
100
AcDbVisualStyle
  2
Brighten
 70
    12
177
     3
291
     1
 70
    58
 90
        2
176
     1
 90
        2
176
     1
 90
        0
176
     1
 90
        0
176
     1
 40
0.6
176
     1
 40
30.0
176
     1
 62
     7
420
 16777215
176
     1
 90
        1
176
     1
 90
        4
176
     1
 62
     7
176
     1
 62
   257
176
     1
 90
        1
176
     1
 90
        1
176
     1
 40
1.0
176
     1
 90
        8
176
     1
 62
     7
176
     1
 40
1.0
176
     1
 90
        1
176
     1
 90
        6
176
     1
 90
        2
176
     1
 62
     7
176
     1
 90
        5
176
     1
 90
        0
176
     1
 90
        0
176
     1
290
     0
176
     1
 90
        1
176
     1
 40
50.0
176
     1
 90
        0
176
     1
290
     0
176
     1
290
     1
176
     1
290
     1
176
     1
290
     0
176
     1
290
     0
176
     1
290
     0
176
     1
290
     0
176
     1
290
     0
176
     1
290
     0
176
     1
 90
       50
176
     1
 40
0.0
176
     1
 40
1.0
176
     1
 90
        0
176
     1
 62
    18
420
        0
176
     1
 90
       50
176
     1
 90
        3
176
     1
 62
     5
420
      255
176
     1
290
     0
176
     1
 90
       50
176
     1
 90
       50
176
     1
 90
       50
176
     1
290
     0
176
     1
 90
       50
176
     1
 62
   256
176
     0
 40
1.0
176
     0
 90
        2
176
     1
  1
strokes_ogs.tif
176
     1
290
     0
176
     1
 40
1.0
176
     1
 40
1.0
176
     1
1001
ACAD
1000
AcDbSavedByObjectVersion
1070
     0
  0
VISUALSTYLE
  5
1002C
102
{ACAD_REACTORS
330
1001C
102
}
330
1001C
100
AcDbVisualStyle
  2
ColorChange
 70
    16
177
     3
291
     1
 70
    58
 90
        2
176
     1
 90
        2
176
     1
 90
        3
176
     1
 90
        0
176
     1
 40
0.6
176
     1
 40
30.0
176
     1
 62
     8
420
  8421504
176
     1
 90
        1
176
     1
 90
        4
176
     1
 62
     7
176
     1
 62
   257
176
     1
 90
        1
176
     1
 90
        1
176
     1
 40
1.0
176
     1
 90
        8
176
     1
 62
     8
420
  8421504
176
     1
 40
1.0
176
     1
 90
        1
176
     1
 90
        6
176
     1
 90
        2
176
     1
 62
     7
176
     1
 90
        5
176
     1
 90
        0
176
     1
 90
        0
176
     1
290
     0
176
     1
 90
        1
176
     1
 40
0.0
176
     1
 90
        0
176
     1
290
     0
176
     1
290
     1
176
     1
290
     1
176
     1
290
     0
176
     1
290
     0
176
     1
290
     0
176
     1
290
     0
176
     1
290
     0
176
     1
290
     0
176
     1
 90
       50
176
     1
 40
0.0
176
     1
 40
1.0
176
     1
 90
        0
176
     1
 62
    18
420
        0
176
     1
 90
       50
176
     1
 90
        3
176
     1
 62
     5
420
      255
176
     1
290
     0
176
     1
 90
       50
176
     1
 90
       50
176
     1
 90
       50
176
     1
290
     0
176
     1
 90
       50
176
     1
 62
   256
176
     0
 40
1.0
176
     0
 90
        2
176
     1
  1
strokes_ogs.tif
176
     1
290
     0
176
     1
 40
1.0
176
     1
 40
1.0
176
     1
1001
ACAD
1000
AcDbSavedByObjectVersion
1070
     0
  0
VISUALSTYLE
  5
10025
102
{ACAD_REACTORS
330
1001C
102
}
330
1001C
100
AcDbVisualStyle
  2
Conceptual
 70
     9
177
     3
291
     0
 70
    58
 90
        3
176
     1
 90
        2
176
     1
 90
        0
176
     1
 90
        0
176
     1
 40
0.6
176
     1
 40
30.0
176
     1
 62
     7
420
 16777215
176
     1
 90
        2
176
     1
 90
        2
176
     1
 62
     7
176
     1
 62
   257
176
     1
 90
        1
176
     1
 90
        1
176
     1
 40
179.0
176
     1
 90
        8
176
     1
 62
     7
176
     1
 40
1.0
176
     1
 90
        1
176
     1
 90
        6
176
     1
 90
        2
176
     1
 62
     7
176
     1
 90
        3
176
     1
 90
        0
176
     1
 90
        0
176
     1
290
     0
176
     1
 90
        1
176
     1
 40
0.0
176
     1
 90
        0
176
     1
290
     0
176
     1
290
     1
176
     1
290
     1
176
     1
290
     0
176
     1
290
     0
176
     1
290
     0
176
     1
290
     0
176
     1
290
     0
176
     1
290
     0
176
     1
 90
       50
176
     1
 40
0.0
176
     1
 40
1.0
176
     1
 90
        0
176
     1
 62
    18
420
        0
176
     1
 90
       50
176
     1
 90
        3
176
     1
 62
     5
420
      255
176
     1
290
     0
176
     1
 90
       50
176
     1
 90
       50
176
     1
 90
       50
176
     1
290
     0
176
     1
 90
       50
176
     1
 62
   256
176
     0
 40
1.0
176
     0
 90
        2
176
     1
  1
strokes_ogs.tif
176
     1
290
     0
176
     1
 40
1.0
176
     1
 40
1.0
176
     1
1001
ACAD
1000
AcDbSavedByObjectVersion
1070
     0
  0
VISUALSTYLE
  5
10027
102
{ACAD_REACTORS
330
1001C
102
}
330
1001C
100
AcDbVisualStyle
  2
Dim
 70
    11
177
     3
291
     1
 70
    58
 90
        2
176
     1
 90
        2
176
     1
 90
        0
176
     1
 90
        0
176
     1
 40
0.6
176
     1
 40
30.0
176
     1
 62
     7
420
 16777215
176
     1
 90
        1
176
     1
 90
        4
176
     1
 62
     7
176
     1
 62
   257
176
     1
 90
        1
176
     1
 90
        1
176
     1
 40
1.0
176
     1
 90
        8
176
     1
 62
     7
176
     1
 40
1.0
176
     1
 90
        1
176
     1
 90
        6
176
     1
 90
        2
176
     1
 62
     7
176
     1
 90
        5
176
     1
 90
        0
176
     1
 90
        0
176
     1
290
     0
176
     1
 90
        1
176
     1
 40
-50.0
176
     1
 90
        0
176
     1
290
     0
176
     1
290
     1
176
     1
290
     1
176
     1
290
     0
176
     1
290
     0
176
     1
290
     0
176
     1
290
     0
176
     1
290
     0
176
     1
290
     0
176
     1
 90
       50
176
     1
 40
0.0
176
     1
 40
1.0
176
     1
 90
        0
176
     1
 62
    18
420
        0
176
     1
 90
       50
176
     1
 90
        3
176
     1
 62
     5
420
      255
176
     1
290
     0
176
     1
 90
       50
176
     1
 90
       50
176
     1
 90
       50
176
     1
290
     0
176
     1
 90
       50
176
     1
 62
   256
176
     0
 40
1.0
176
     0
 90
        2
176
     1
  1
strokes_ogs.tif
176
     1
290
     0
176
     1
 40
1.0
176
     1
 40
1.0
176
     1
1001
ACAD
1000
AcDbSavedByObjectVersion
1070
     0
  0
VISUALSTYLE
  5
10034
102
{ACAD_REACTORS
330
1001C
102
}
330
1001C
100
AcDbVisualStyle
  2
EdgeColorOff
 70
    22
177
     3
291
     1
 70
    58
 90
        2
176
     0
 90
        2
176
     0
 90
        0
176
     0
 90
        0
176
     0
 40
0.6
176
     0
 40
30.0
176
     0
 62
     7
420
 16777215
176
     0
 90
        1
176
     0
 90
        4
176
     0
 62
     7
176
     0
 62
   257
176
     0
 90
        1
176
     0
 90
        1
176
     0
 40
1.0
176
     0
 90
        8
176
     2
 62
     7
176
     0
 40
1.0
176
     0
 90
        1
176
     0
 90
        6
176
     0
 90
        2
176
     0
 62
     7
176
     0
 90
        5
176
     0
 90
        0
176
     0
 90
        0
176
     0
290
     0
176
     0
 90
        1
176
     0
 40
0.0
176
     0
 90
        0
176
     0
290
     0
176
     1
290
     1
176
     1
290
     1
176
     1
290
     0
176
     1
290
     0
176
     1
290
     0
176
     1
290
     0
176
     1
290
     0
176
     1
290
     0
176
     1
 90
       50
176
     0
 40
0.0
176
     0
 40
1.0
176
     0
 90
        0
176
     0
 62
    18
420
        0
176
     0
 90
       50
176
     0
 90
        3
176
     0
 62
     5
420
      255
176
     0
290
     0
176
     1
 90
       50
176
     0
 90
       50
176
     0
 90
       50
176
     0
290
     0
176
     1
 90
       50
176
     0
 62
   256
176
     0
 40
1.0
176
     0
 90
        2
176
     0
  1
strokes_ogs.tif
176
     0
290
     0
176
     1
 40
1.0
176
     0
 40
1.0
176
     0
1001
ACAD
1000
AcDbSavedByObjectVersion
1070
     0
  0
VISUALSTYLE
  5
1002B
102
{ACAD_REACTORS
330
1001C
102
}
330
1001C
100
AcDbVisualStyle
  2
Facepattern
 70
    15
177
     3
291
     1
 70
    58
 90
        2
176
     1
 90
        2
176
     1
 90
        0
176
     1
 90
        0
176
     1
 40
0.6
176
     1
 40
30.0
176
     1
 62
     7
420
 16777215
176
     1
 90
        1
176
     1
 90
        4
176
     1
 62
     7
176
     1
 62
   257
176
     1
 90
        1
176
     1
 90
        1
176
     1
 40
1.0
176
     1
 90
        8
176
     1
 62
     7
176
     1
 40
1.0
176
     1
 90
        1
176
     1
 90
        6
176
     1
 90
        2
176
     1
 62
     7
176
     1
 90
        5
176
     1
 90
        0
176
     1
 90
        0
176
     1
290
     0
176
     1
 90
        1
176
     1
 40
0.0
176
     1
 90
        0
176
     1
290
     0
176
     1
290
     1
176
     1
290
     1
176
     1
290
     0
176
     1
290
     0
176
     1
290
     0
176
     1
290
     0
176
     1
290
     0
176
     1
290
     0
176
     1
 90
       50
176
     1
 40
0.0
176
     1
 40
1.0
176
     1
 90
        0
176
     1
 62
    18
420
        0
176
     1
 90
       50
176
     1
 90
        3
176
     1
 62
     5
420
      255
176
     1
290
     0
176
     1
 90
       50
176
     1
 90
       50
176
     1
 90
       50
176
     1
290
     0
176
     1
 90
       50
176
     1
 62
   256
176
     0
 40
1.0
176
     0
 90
        2
176
     1
  1
strokes_ogs.tif
176
     1
290
     0
176
     1
 40
1.0
176
     1
 40
1.0
176
     1
1001
ACAD
1000
AcDbSavedByObjectVersion
1070
     0
  0
VISUALSTYLE
  5
1001D
102
{ACAD_REACTORS
330
1001C
102
}
330
1001C
100
AcDbVisualStyle
  2
Flat
 70
     0
177
     3
291
     1
 70
    58
 90
        2
176
     1
 90
        1
176
     1
 90
        1
176
     1
 90
        2
176
     1
 40
0.6
176
     1
 40
30.0
176
     1
 62
     7
420
 16777215
176
     1
 90
        0
176
     1
 90
        0
176
     1
 62
     7
176
     1
 62
   257
176
     1
 90
        1
176
     1
 90
        1
176
     1
 40
1.0
176
     1
 90
        8
176
     1
 62
     7
176
     1
 40
1.0
176
     1
 90
        1
176
     1
 90
        6
176
     1
 90
        2
176
     1
 62
     7
176
     1
 90
        5
176
     1
 90
        0
176
     1
 90
        0
176
     1
290
     0
176
     1
 90
       13
176
     1
 40
0.0
176
     1
 90
        0
176
     1
290
     0
176
     1
290
     1
176
     1
290
     1
176
     1
290
     0
176
     1
290
     0
176
     1
290
     0
176
     1
290
     0
176
     1
290
     0
176
     1
290
     0
176
     1
 90
       50
176
     1
 40
0.0
176
     1
 40
1.0
176
     1
 90
        0
176
     1
 62
    18
420
        0
176
     1
 90
       50
176
     1
 90
        3
176
     1
 62
     5
420
      255
176
     1
290
     0
176
     1
 90
       50
176
     1
 90
       50
176
     1
 90
       50
176
     1
290
     0
176
     1
 90
       50
176
     1
 62
   256
176
     0
 40
1.0
176
     0
 90
        2
176
     1
  1
strokes_ogs.tif
176
     1
290
     0
176
     1
 40
1.0
176
     1
 40
1.0
176
     1
1001
ACAD
1000
AcDbSavedByObjectVersion
1070
     0
  0
VISUALSTYLE
  5
1001E
102
{ACAD_REACTORS
330
1001C
102
}
330
1001C
100
AcDbVisualStyle
  2
FlatWithEdges
 70
     1
177
     3
291
     1
 70
    58
 90
        2
176
     1
 90
        1
176
     1
 90
        1
176
     1
 90
        2
176
     1
 40
0.6
176
     1
 40
30.0
176
     1
 62
     7
420
 16777215
176
     1
 90
        1
176
     1
 90
        0
176
     1
 62
     7
176
     1
 62
   257
176
     1
 90
        1
176
     1
 90
        1
176
     1
 40
1.0
176
     1
 90
        0
176
     1
 62
   257
176
     1
 40
1.0
176
     1
 90
        1
176
     1
 90
        6
176
     1
 90
        2
176
     1
 62
     7
176
     1
 90
        5
176
     1
 90
        0
176
     1
 90
        0
176
     1
290
     0
176
     1
 90
       13
176
     1
 40
0.0
176
     1
 90
        0
176
     1
290
     0
176
     1
290
     1
176
     1
290
     1
176
     1
290
     0
176
     1
290
     0
176
     1
290
     0
176
     1
290
     0
176
     1
290
     0
176
     1
290
     0
176
     1
 90
       50
176
     1
 40
0.0
176
     1
 40
1.0
176
     1
 90
        0
176
     1
 62
    18
420
        0
176
     1
 90
       50
176
     1
 90
        3
176
     1
 62
     5
420
      255
176
     1
290
     0
176
     1
 90
       50
176
     1
 90
       50
176
     1
 90
       50
176
     1
290
     0
176
     1
 90
       50
176
     1
 62
   256
176
     0
 40
1.0
176
     0
 90
        2
176
     1
  1
strokes_ogs.tif
176
     1
290
     0
176
     1
 40
1.0
176
     1
 40
1.0
176
     1
1001
ACAD
1000
AcDbSavedByObjectVersion
1070
     0
  0
VISUALSTYLE
  5
1001F
102
{ACAD_REACTORS
330
1001C
102
}
330
1001C
100
AcDbVisualStyle
  2
Gouraud
 70
     2
177
     3
291
     1
 70
    58
 90
        2
176
     1
 90
        2
176
     1
 90
        1
176
     1
 90
        2
176
     1
 40
0.6
176
     1
 40
30.0
176
     1
 62
     7
420
 16777215
176
     1
 90
        0
176
     1
 90
        0
176
     1
 62
     7
176
     1
 62
   257
176
     1
 90
        1
176
     1
 90
        1
176
     1
 40
1.0
176
     1
 90
        0
176
     1
 62
     7
176
     1
 40
1.0
176
     1
 90
        1
176
     1
 90
        6
176
     1
 90
        2
176
     1
 62
     7
176
     1
 90
        5
176
     1
 90
        0
176
     1
 90
        0
176
     1
290
     0
176
     1
 90
       13
176
     1
 40
0.0
176
     1
 90
        0
176
     1
290
     0
176
     1
290
     1
176
     1
290
     1
176
     1
290
     0
176
     1
290
     0
176
     1
290
     0
176
     1
290
     0
176
     1
290
     0
176
     1
290
     0
176
     1
 90
       50
176
     1
 40
0.0
176
     1
 40
1.0
176
     1
 90
        0
176
     1
 62
    18
420
        0
176
     1
 90
       50
176
     1
 90
        3
176
     1
 62
     5
420
      255
176
     1
290
     0
176
     1
 90
       50
176
     1
 90
       50
176
     1
 90
       50
176
     1
290
     0
176
     1
 90
       50
176
     1
 62
   256
176
     0
 40
1.0
176
     0
 90
        2
176
     1
  1
strokes_ogs.tif
176
     1
290
     0
176
     1
 40
1.0
176
     1
 40
1.0
176
     1
1001
ACAD
1000
AcDbSavedByObjectVersion
1070
     0
  0
VISUALSTYLE
  5
10020
102
{ACAD_REACTORS
330
1001C
102
}
330
1001C
100
AcDbVisualStyle
  2
GouraudWithEdges
 70
     3
177
     3
291
     1
 70
    58
 90
        2
176
     1
 90
        2
176
     1
 90
        1
176
     1
 90
        2
176
     1
 40
0.6
176
     1
 40
30.0
176
     1
 62
     7
420
 16777215
176
     1
 90
        1
176
     1
 90
        0
176
     1
 62
     7
176
     1
 62
   257
176
     1
 90
        1
176
     1
 90
        1
176
     1
 40
1.0
176
     1
 90
        0
176
     1
 62
   257
176
     1
 40
1.0
176
     1
 90
        1
176
     1
 90
        6
176
     1
 90
        2
176
     1
 62
     7
176
     1
 90
        5
176
     1
 90
        0
176
     1
 90
        0
176
     1
290
     0
176
     1
 90
       13
176
     1
 40
0.0
176
     1
 90
        0
176
     1
290
     0
176
     1
290
     1
176
     1
290
     1
176
     1
290
     0
176
     1
290
     0
176
     1
290
     0
176
     1
290
     0
176
     1
290
     0
176
     1
290
     0
176
     1
 90
       50
176
     1
 40
0.0
176
     1
 40
1.0
176
     1
 90
        0
176
     1
 62
    18
420
        0
176
     1
 90
       50
176
     1
 90
        3
176
     1
 62
     5
420
      255
176
     1
290
     0
176
     1
 90
       50
176
     1
 90
       50
176
     1
 90
       50
176
     1
290
     0
176
     1
 90
       50
176
     1
 62
   256
176
     0
 40
1.0
176
     0
 90
        2
176
     1
  1
strokes_ogs.tif
176
     1
290
     0
176
     1
 40
1.0
176
     1
 40
1.0
176
     1
1001
ACAD
1000
AcDbSavedByObjectVersion
1070
     0
  0
VISUALSTYLE
  5
10024
102
{ACAD_REACTORS
330
1001C
102
}
330
1001C
100
AcDbVisualStyle
  2
Hidden
 70
     6
177
     3
291
     0
 70
    58
 90
        1
176
     1
 90
        2
176
     1
 90
        2
176
     1
 90
        0
176
     1
 40
0.6
176
     1
 40
30.0
176
     1
 62
     7
420
 16777215
176
     1
 90
        2
176
     1
 90
        2
176
     1
 62
     7
176
     1
 62
   257
176
     1
 90
        2
176
     1
 90
        1
176
     1
 40
40.0
176
     1
 90
        0
176
     1
 62
   257
176
     1
 40
1.0
176
     1
 90
        1
176
     1
 90
        6
176
     1
 90
        2
176
     1
 62
     7
176
     1
 90
        3
176
     1
 90
        0
176
     1
 90
        0
176
     1
290
     0
176
     1
 90
        1
176
     1
 40
0.0
176
     1
 90
        0
176
     1
290
     0
176
     1
290
     1
176
     1
290
     1
176
     1
290
     0
176
     1
290
     0
176
     1
290
     0
176
     1
290
     0
176
     1
290
     0
176
     1
290
     0
176
     1
 90
       50
176
     1
 40
0.0
176
     1
 40
1.0
176
     1
 90
        0
176
     1
 62
    18
420
        0
176
     1
 90
       50
176
     1
 90
        3
176
     1
 62
     5
420
      255
176
     1
290
     0
176
     1
 90
       50
176
     1
 90
       50
176
     1
 90
       50
176
     1
290
     0
176
     1
 90
       50
176
     1
 62
   256
176
     0
 40
1.0
176
     0
 90
        2
176
     1
  1
strokes_ogs.tif
176
     1
290
     0
176
     1
 40
1.0
176
     1
 40
1.0
176
     1
1001
ACAD
1000
AcDbSavedByObjectVersion
1070
     0
  0
VISUALSTYLE
  5
10032
102
{ACAD_REACTORS
330
1001C
102
}
330
1001C
100
AcDbVisualStyle
  2
JitterOff
 70
    20
177
     3
291
     1
 70
    58
 90
        2
176
     0
 90
        2
176
     0
 90
        0
176
     0
 90
        0
176
     0
 40
0.6
176
     0
 40
30.0
176
     0
 62
     7
420
 16777215
176
     0
 90
        1
176
     0
 90
        4
176
     0
 62
     7
176
     0
 62
   257
176
     0
 90
        1
176
     0
 90
        1
176
     0
 40
1.0
176
     0
 90
       10
176
     2
 62
     7
176
     0
 40
1.0
176
     0
 90
        1
176
     0
 90
        6
176
     0
 90
        2
176
     0
 62
     7
176
     0
 90
        5
176
     0
 90
        0
176
     0
 90
        0
176
     0
290
     0
176
     0
 90
        1
176
     0
 40
0.0
176
     0
 90
        0
176
     0
290
     0
176
     1
290
     1
176
     1
290
     1
176
     1
290
     0
176
     1
290
     0
176
     1
290
     0
176
     1
290
     0
176
     1
290
     0
176
     1
290
     0
176
     1
 90
       50
176
     0
 40
0.0
176
     0
 40
1.0
176
     0
 90
        0
176
     0
 62
    18
420
        0
176
     0
 90
       50
176
     0
 90
        3
176
     0
 62
     5
420
      255
176
     0
290
     0
176
     1
 90
       50
176
     0
 90
       50
176
     0
 90
       50
176
     0
290
     0
176
     1
 90
       50
176
     0
 62
   256
176
     0
 40
1.0
176
     0
 90
        2
176
     0
  1
strokes_ogs.tif
176
     0
290
     0
176
     1
 40
1.0
176
     0
 40
1.0
176
     0
1001
ACAD
1000
AcDbSavedByObjectVersion
1070
     0
  0
VISUALSTYLE
  5
1002A
102
{ACAD_REACTORS
330
1001C
102
}
330
1001C
100
AcDbVisualStyle
  2
Linepattern
 70
    14
177
     3
291
     1
 70
    58
 90
        2
176
     1
 90
        2
176
     1
 90
        0
176
     1
 90
        0
176
     1
 40
0.6
176
     1
 40
30.0
176
     1
 62
     7
420
 16777215
176
     1
 90
        1
176
     1
 90
        4
176
     1
 62
     7
176
     1
 62
   257
176
     1
 90
        7
176
     1
 90
        7
176
     1
 40
1.0
176
     1
 90
        8
176
     1
 62
     7
176
     1
 40
1.0
176
     1
 90
        1
176
     1
 90
        6
176
     1
 90
        2
176
     1
 62
     7
176
     1
 90
        5
176
     1
 90
        0
176
     1
 90
        0
176
     1
290
     0
176
     1
 90
        1
176
     1
 40
0.0
176
     1
 90
        0
176
     1
290
     0
176
     1
290
     1
176
     1
290
     1
176
     1
290
     0
176
     1
290
     0
176
     1
290
     0
176
     1
290
     0
176
     1
290
     0
176
     1
290
     0
176
     1
 90
       50
176
     1
 40
0.0
176
     1
 40
1.0
176
     1
 90
        0
176
     1
 62
    18
420
        0
176
     1
 90
       50
176
     1
 90
        3
176
     1
 62
     5
420
      255
176
     1
290
     0
176
     1
 90
       50
176
     1
 90
       50
176
     1
 90
       50
176
     1
290
     0
176
     1
 90
       50
176
     1
 62
   256
176
     0
 40
1.0
176
     0
 90
        2
176
     1
  1
strokes_ogs.tif
176
     1
290
     0
176
     1
 40
1.0
176
     1
 40
1.0
176
     1
1001
ACAD
1000
AcDbSavedByObjectVersion
1070
     0
  0
VISUALSTYLE
  5
10033
102
{ACAD_REACTORS
330
1001C
102
}
330
1001C
100
AcDbVisualStyle
  2
OverhangOff
 70
    21
177
     3
291
     1
 70
    58
 90
        2
176
     0
 90
        2
176
     0
 90
        0
176
     0
 90
        0
176
     0
 40
0.6
176
     0
 40
30.0
176
     0
 62
     7
420
 16777215
176
     0
 90
        1
176
     0
 90
        4
176
     0
 62
     7
176
     0
 62
   257
176
     0
 90
        1
176
     0
 90
        1
176
     0
 40
1.0
176
     0
 90
        9
176
     2
 62
     7
176
     0
 40
1.0
176
     0
 90
        1
176
     0
 90
        6
176
     0
 90
        2
176
     0
 62
     7
176
     0
 90
        5
176
     0
 90
        0
176
     0
 90
        0
176
     0
290
     0
176
     0
 90
        1
176
     0
 40
0.0
176
     0
 90
        0
176
     0
290
     0
176
     1
290
     1
176
     1
290
     1
176
     1
290
     0
176
     1
290
     0
176
     1
290
     0
176
     1
290
     0
176
     1
290
     0
176
     1
290
     0
176
     1
 90
       50
176
     0
 40
0.0
176
     0
 40
1.0
176
     0
 90
        0
176
     0
 62
    18
420
        0
176
     0
 90
       50
176
     0
 90
        3
176
     0
 62
     5
420
      255
176
     0
290
     0
176
     1
 90
       50
176
     0
 90
       50
176
     0
 90
       50
176
     0
290
     0
176
     1
 90
       50
176
     0
 62
   256
176
     0
 40
1.0
176
     0
 90
        2
176
     0
  1
strokes_ogs.tif
176
     0
290
     0
176
     1
 40
1.0
176
     0
 40
1.0
176
     0
1001
ACAD
1000
AcDbSavedByObjectVersion
1070
     0
  0
VISUALSTYLE
  5
10026
102
{ACAD_REACTORS
330
1001C
102
}
330
1001C
100
AcDbVisualStyle
  2
Realistic
 70
     8
177
     3
291
     0
 70
    58
 90
        2
176
     1
 90
        3
176
     1
 90
        0
176
     1
 90
        2
176
     1
 40
0.6
176
     1
 40
30.0
176
     1
 62
     7
420
 16777215
176
     1
 90
        0
176
     1
 90
        0
176
     1
 62
     7
176
     1
 62
   257
176
     1
 90
        1
176
     1
 90
        1
176
     1
 40
1.0
176
     1
 90
        8
176
     1
 62
   257
176
     1
 40
1.0
176
     1
 90
        1
176
     1
 90
        6
176
     1
 90
        2
176
     1
 62
     7
176
     1
 90
        3
176
     1
 90
        0
176
     1
 90
        0
176
     1
290
     0
176
     1
 90
       13
176
     1
 40
0.0
176
     1
 90
        0
176
     1
290
     0
176
     1
290
     1
176
     1
290
     1
176
     1
290
     0
176
     1
290
     0
176
     1
290
     0
176
     1
290
     0
176
     1
290
     0
176
     1
290
     0
176
     1
 90
       50
176
     1
 40
0.0
176
     1
 40
1.0
176
     1
 90
        0
176
     1
 62
    18
420
        0
176
     1
 90
       50
176
     1
 90
        3
176
     1
 62
     5
420
      255
176
     1
290
     0
176
     1
 90
       50
176
     1
 90
       50
176
     1
 90
       50
176
     1
290
     0
176
     1
 90
       50
176
     1
 62
   256
176
     0
 40
1.0
176
     0
 90
        2
176
     1
  1
strokes_ogs.tif
176
     1
290
     0
176
     1
 40
1.0
176
     1
 40
1.0
176
     1
1001
ACAD
1000
AcDbSavedByObjectVersion
1070
     0
  0
VISUALSTYLE
  5
10031
102
{ACAD_REACTORS
330
1001C
102
}
330
1001C
100
AcDbVisualStyle
  2
Shaded
 70
    27
177
     3
291
     0
 70
    58
 90
        2
176
     1
 90
        2
176
     1
 90
        1
176
     1
 90
        2
176
     1
 40
0.6
176
     1
 40
30.0
176
     1
 62
     7
420
 16777215
176
     1
 90
        0
176
     1
 90
        4
176
     1
 62
     7
176
     1
 62
   257
176
     1
 90
        1
176
     1
 90
        1
176
     1
 40
1.0
176
     1
 90
        8
176
     1
 62
   257
176
     1
 40
1.0
176
     1
 90
        1
176
     1
 90
        6
176
     1
 90
        2
176
     1
 62
     8
420
  7895160
176
     1
 90
        3
176
     1
 90
        0
176
     1
 90
        0
176
     1
290
     0
176
     1
 90
        5
176
     1
 40
0.0
176
     1
 90
        0
176
     1
290
     0
176
     1
290
     1
176
     1
290
     1
176
     1
290
     0
176
     1
290
     0
176
     1
290
     0
176
     1
290
     0
176
     1
290
     0
176
     1
290
     0
176
     1
 90
       50
176
     1
 40
0.0
176
     1
 40
1.0
176
     1
 90
        0
176
     1
 62
    18
420
        0
176
     1
 90
       50
176
     1
 90
        3
176
     1
 62
     5
420
      255
176
     1
290
     0
176
     1
 90
       50
176
     1
 90
       50
176
     1
 90
       50
176
     1
290
     0
176
     1
 90
       50
176
     1
 62
   256
176
     0
 40
1.0
176
     0
 90
        2
176
     1
  1
strokes_ogs.tif
176
     1
290
     0
176
     1
 40
1.0
176
     1
 40
1.0
176
     1
1001
ACAD
1000
AcDbSavedByObjectVersion
1070
     0
  0
VISUALSTYLE
  5
10030
102
{ACAD_REACTORS
330
1001C
102
}
330
1001C
100
AcDbVisualStyle
  2
Shaded with edges
 70
    26
177
     3
291
     0
 70
    58
 90
        2
176
     1
 90
        2
176
     1
 90
        1
176
     1
 90
        2
176
     1
 40
0.6
176
     1
 40
30.0
176
     1
 62
     7
420
 16777215
176
     1
 90
        1
176
     1
 90
        2
176
     1
 62
     7
176
     1
 62
   257
176
     1
 90
        2
176
     1
 90
        1
176
     1
 40
1.0
176
     1
 90
        8
176
     1
 62
   257
176
     1
 40
1.0
176
     1
 90
        1
176
     1
 90
        6
176
     1
 90
        2
176
     1
 62
     7
176
     1
 90
        3
176
     1
 90
        0
176
     1
 90
        0
176
     1
290
     0
176
     1
 90
        5
176
     1
 40
0.0
176
     1
 90
        0
176
     1
290
     0
176
     1
290
     1
176
     1
290
     1
176
     1
290
     0
176
     1
290
     0
176
     1
290
     0
176
     1
290
     0
176
     1
290
     0
176
     1
290
     0
176
     1
 90
       50
176
     1
 40
0.0
176
     1
 40
1.0
176
     1
 90
        0
176
     1
 62
    18
420
        0
176
     1
 90
       50
176
     1
 90
        3
176
     1
 62
     5
420
      255
176
     1
290
     0
176
     1
 90
       50
176
     1
 90
       50
176
     1
 90
       50
176
     1
290
     0
176
     1
 90
       50
176
     1
 62
   256
176
     0
 40
1.0
176
     0
 90
        2
176
     1
  1
strokes_ogs.tif
176
     1
290
     0
176
     1
 40
1.0
176
     1
 40
1.0
176
     1
1001
ACAD
1000
AcDbSavedByObjectVersion
1070
     0
  0
VISUALSTYLE
  5
1002D
102
{ACAD_REACTORS
330
1001C
102
}
330
1001C
100
AcDbVisualStyle
  2
Shades of Gray
 70
    23
177
     3
291
     0
 70
    58
 90
        2
176
     1
 90
        2
176
     1
 90
        3
176
     1
 90
        0
176
     1
 40
0.6
176
     1
 40
30.0
176
     1
 62
     7
420
 16777215
176
     1
 90
        2
176
     1
 90
        2
176
     1
 62
     7
176
     1
 62
     7
176
     1
 90
        1
176
     1
 90
        1
176
     1
 40
40.0
176
     1
 90
        8
176
     1
 62
     7
176
     1
 40
1.0
176
     1
 90
        1
176
     1
 90
        6
176
     1
 90
        2
176
     1
 62
     7
176
     1
 90
        3
176
     1
 90
        0
176
     1
 90
        0
176
     1
290
     0
176
     1
 90
        1
176
     1
 40
0.0
176
     1
 90
        0
176
     1
290
     0
176
     1
290
     1
176
     1
290
     1
176
     1
290
     0
176
     1
290
     0
176
     1
290
     0
176
     1
290
     0
176
     1
290
     0
176
     1
290
     0
176
     1
 90
       50
176
     1
 40
0.0
176
     1
 40
1.0
176
     1
 90
        0
176
     1
 62
    18
420
        0
176
     1
 90
       50
176
     1
 90
        3
176
     1
 62
     5
420
      255
176
     1
290
     0
176
     1
 90
       50
176
     1
 90
       50
176
     1
 90
       50
176
     1
290
     0
176
     1
 90
       50
176
     1
 62
   256
176
     0
 40
1.0
176
     0
 90
        2
176
     1
  1
strokes_ogs.tif
176
     1
290
     0
176
     1
 40
1.0
176
     1
 40
1.0
176
     1
1001
ACAD
1000
AcDbSavedByObjectVersion
1070
     0
  0
VISUALSTYLE
  5
1002E
102
{ACAD_REACTORS
330
1001C
102
}
330
1001C
100
AcDbVisualStyle
  2
Sketchy
 70
    24
177
     3
291
     0
 70
    58
 90
        1
176
     1
 90
        2
176
     1
 90
        2
176
     1
 90
        0
176
     1
 40
0.6
176
     1
 40
30.0
176
     1
 62
     7
420
 16777215
176
     1
 90
        2
176
     1
 90
        2
176
     1
 62
     7
176
     1
 62
     7
176
     1
 90
        1
176
     1
 90
        1
176
     1
 40
40.0
176
     1
 90
       11
176
     1
 62
     7
176
     1
 40
1.0
176
     1
 90
        1
176
     1
 90
        6
176
     1
 90
        2
176
     1
 62
     7
176
     1
 90
        6
176
     1
 90
        0
176
     1
 90
        0
176
     1
290
     0
176
     1
 90
        1
176
     1
 40
0.0
176
     1
 90
        0
176
     1
290
     0
176
     1
290
     1
176
     1
290
     1
176
     1
290
     0
176
     1
290
     0
176
     1
290
     0
176
     1
290
     0
176
     1
290
     0
176
     1
290
     0
176
     1
 90
       50
176
     1
 40
0.0
176
     1
 40
1.0
176
     1
 90
        0
176
     1
 62
    18
420
        0
176
     1
 90
       50
176
     1
 90
        3
176
     1
 62
     5
420
      255
176
     1
290
     0
176
     1
 90
       50
176
     1
 90
       50
176
     1
 90
       50
176
     1
290
     0
176
     1
 90
       50
176
     1
 62
   256
176
     0
 40
1.0
176
     0
 90
        2
176
     1
  1
strokes_ogs.tif
176
     1
290
     0
176
     1
 40
1.0
176
     1
 40
1.0
176
     1
1001
ACAD
1000
AcDbSavedByObjectVersion
1070
     0
  0
VISUALSTYLE
  5
10029
102
{ACAD_REACTORS
330
1001C
102
}
330
1001C
100
AcDbVisualStyle
  2
Thicken
 70
    13
177
     3
291
     1
 70
    58
 90
        2
176
     1
 90
        2
176
     1
 90
        0
176
     1
 90
        0
176
     1
 40
0.6
176
     1
 40
30.0
176
     1
 62
     7
420
 16777215
176
     1
 90
        1
176
     1
 90
        4
176
     1
 62
     7
176
     1
 62
   257
176
     1
 90
        1
176
     1
 90
        1
176
     1
 40
1.0
176
     1
 90
       12
176
     1
 62
     7
176
     1
 40
1.0
176
     1
 90
        1
176
     1
 90
        6
176
     1
 90
        2
176
     1
 62
     7
176
     1
 90
        5
176
     1
 90
        0
176
     1
 90
        0
176
     1
290
     0
176
     1
 90
        1
176
     1
 40
0.0
176
     1
 90
        0
176
     1
290
     0
176
     1
290
     1
176
     1
290
     1
176
     1
290
     0
176
     1
290
     0
176
     1
290
     0
176
     1
290
     0
176
     1
290
     0
176
     1
290
     0
176
     1
 90
       50
176
     1
 40
0.0
176
     1
 40
1.0
176
     1
 90
        0
176
     1
 62
    18
420
        0
176
     1
 90
       50
176
     1
 90
        3
176
     1
 62
     5
420
      255
176
     1
290
     0
176
     1
 90
       50
176
     1
 90
       50
176
     1
 90
       50
176
     1
290
     0
176
     1
 90
       50
176
     1
 62
   256
176
     0
 40
1.0
176
     0
 90
        2
176
     1
  1
strokes_ogs.tif
176
     1
290
     0
176
     1
 40
1.0
176
     1
 40
1.0
176
     1
1001
ACAD
1000
AcDbSavedByObjectVersion
1070
     0
  0
VISUALSTYLE
  5
10023
102
{ACAD_REACTORS
330
1001C
102
}
330
1001C
100
AcDbVisualStyle
  2
Wireframe
 70
     5
177
     3
291
     0
 70
    58
 90
        0
176
     1
 90
        2
176
     1
 90
        0
176
     1
 90
        0
176
     1
 40
0.6
176
     1
 40
30.0
176
     1
 62
     7
420
 16777215
176
     1
 90
        1
176
     1
 90
        4
176
     1
 62
     7
176
     1
 62
   257
176
     1
 90
        1
176
     1
 90
        1
176
     1
 40
1.0
176
     1
 90
        0
176
     1
 62
   257
176
     1
 40
1.0
176
     1
 90
        1
176
     1
 90
        6
176
     1
 90
        2
176
     1
 62
     7
176
     1
 90
        3
176
     1
 90
        0
176
     1
 90
        0
176
     1
290
     0
176
     1
 90
        1
176
     1
 40
0.0
176
     1
 90
        0
176
     1
290
     0
176
     1
290
     1
176
     1
290
     1
176
     1
290
     0
176
     1
290
     0
176
     1
290
     0
176
     1
290
     0
176
     1
290
     0
176
     1
290
     0
176
     1
 90
       50
176
     1
 40
0.0
176
     1
 40
1.0
176
     1
 90
        0
176
     1
 62
    18
420
        0
176
     1
 90
       50
176
     1
 90
        3
176
     1
 62
     5
420
      255
176
     1
290
     0
176
     1
 90
       50
176
     1
 90
       50
176
     1
 90
       50
176
     1
290
     0
176
     1
 90
       50
176
     1
 62
   256
176
     0
 40
1.0
176
     0
 90
        2
176
     1
  1
strokes_ogs.tif
176
     1
290
     0
176
     1
 40
1.0
176
     1
 40
1.0
176
     1
1001
ACAD
1000
AcDbSavedByObjectVersion
1070
     0
  0
VISUALSTYLE
  5
1002F
102
{ACAD_REACTORS
330
1001C
102
}
330
1001C
100
AcDbVisualStyle
  2
X-Ray
 70
    25
177
     3
291
     0
 70
    58
 90
        2
176
     1
 90
        2
176
     1
 90
        1
176
     1
 90
        1
176
     1
 40
0.5
176
     1
 40
30.0
176
     1
 62
     7
420
 16777215
176
     1
 90
        1
176
     1
 90
        0
176
     1
 62
     7
176
     1
 62
   257
176
     1
 90
        1
176
     1
 90
        1
176
     1
 40
1.0
176
     1
 90
        8
176
     1
 62
     7
176
     1
 40
1.0
176
     1
 90
        1
176
     1
 90
        6
176
     1
 90
        2
176
     1
 62
     7
176
     1
 90
        3
176
     1
 90
        0
176
     1
 90
        0
176
     1
290
     0
176
     1
 90
       13
176
     1
 40
0.0
176
     1
 90
        0
176
     1
290
     0
176
     1
290
     1
176
     1
290
     1
176
     1
290
     0
176
     1
290
     0
176
     1
290
     0
176
     1
290
     0
176
     1
290
     0
176
     1
290
     0
176
     1
 90
       50
176
     1
 40
0.0
176
     1
 40
1.0
176
     1
 90
        0
176
     1
 62
    18
420
        0
176
     1
 90
       50
176
     1
 90
        3
176
     1
 62
     5
420
      255
176
     1
290
     0
176
     1
 90
       50
176
     1
 90
       50
176
     1
 90
       50
176
     1
290
     0
176
     1
 90
       50
176
     1
 62
   256
176
     0
 40
1.0
176
     0
 90
        2
176
     1
  1
strokes_ogs.tif
176
     1
290
     0
176
     1
 40
1.0
176
     1
 40
1.0
176
     1
1001
ACAD
1000
AcDbSavedByObjectVersion
1070
     0
  0
DICTIONARYVAR
  5
10066
102
{ACAD_REACTORS
330
10060
102
}
330
10060
100
DictionaryVariables
280
     0
  1
1:1
  0
DICTIONARYVAR
  5
10062
102
{ACAD_REACTORS
330
10060
102
}
330
10060
100
DictionaryVariables
280
     0
  1
STANDARD
  0
DICTIONARYVAR
  5
10061
102
{ACAD_REACTORS
330
10060
102
}
330
10060
100
DictionaryVariables
280
     0
  1
STANDARD
  0
DICTIONARYVAR
  5
10063
102
{ACAD_REACTORS
330
10060
102
}
330
10060
100
DictionaryVariables
280
     0
  1
Metric50
  0
DICTIONARYVAR
  5
10064
102
{ACAD_REACTORS
330
10060
102
}
330
10060
100
DictionaryVariables
280
     0
  1
Metric50
  0
DICTIONARYVAR
  5
100E9
102
{ACAD_REACTORS
330
10060
102
}
330
10060
100
DictionaryVariables
280
     0
  1
BYLAYER
  0
DICTIONARYVAR
  5
100E8
102
{ACAD_REACTORS
330
10060
102
}
330
10060
100
DictionaryVariables
280
     0
  1
ByLayer
  0
DICTIONARYVAR
  5
10068
102
{ACAD_REACTORS
330
10060
102
}
330
10060
100
DictionaryVariables
280
     0
  1
1
  0
DICTIONARYVAR
  5
10069
102
{ACAD_REACTORS
330
10060
102
}
330
10060
100
DictionaryVariables
280
     0
  1
15
  0
DICTIONARYVAR
  5
10067
102
{ACAD_REACTORS
330
10060
102
}
330
10060
100
DictionaryVariables
280
     0
  1
0
  0
DICTIONARYVAR
  5
10065
102
{ACAD_REACTORS
330
10060
102
}
330
10060
100
DictionaryVariables
280
     0
  1
0
  0
DICTIONARY
  5
1011E
330
10050
100
AcDbDictionary
280
     1
281
     1
  3
ACAD_XREC_ROUNDTRIP
360
1011F
  0
DICTIONARY
  5
1000D
330
1000C
100
AcDbDictionary
280
     1
281
     1
  3
BUMPTILE
360
1000F
  3
DIFFUSETILE
360
1000E
  3
OPACITYTILE
360
10012
  3
REFLECTIONTILE
360
10011
  3
REFRACTIONTILE
360
10013
  3
SPECULARTILE
360
10010
  0
DICTIONARY
  5
10005
330
10004
100
AcDbDictionary
280
     1
281
     1
  3
BUMPTILE
360
10007
  3
DIFFUSETILE
360
10006
  3
OPACITYTILE
360
1000A
  3
REFLECTIONTILE
360
10009
  3
REFRACTIONTILE
360
1000B
  3
SPECULARTILE
360
10008
  0
DICTIONARY
  5
10015
330
10014
100
AcDbDictionary
280
     1
281
     1
  3
BUMPTILE
360
10017
  3
DIFFUSETILE
360
10016
  3
OPACITYTILE
360
1001A
  3
REFLECTIONTILE
360
10019
  3
REFRACTIONTILE
360
1001B
  3
SPECULARTILE
360
10018
  0
DICTIONARY
  5
1011C
330
1004E
100
AcDbDictionary
280
     1
281
     1
  3
ACAD_XREC_ROUNDTRIP
360
1011D
  0
DICTIONARY
  5
10119
330
10038
100
AcDbDictionary
280
     1
281
     1
  3
ACAD_ROUNDTRIP_2008_TABLESTYLE_CELLSTYLEMAP
360
1011A
  0
XRECORD
  5
1011F
102
{ACAD_REACTORS
330
1011E
102
}
330
1011E
100
AcDbXrecord
280
     1
102
DISPLAYNAME
  1
Metric50
102
FLAGS
 90
        0
  0
XRECORD
  5
1000F
102
{ACAD_REACTORS
330
1000D
102
}
330
1000D
100
AcDbXrecord
280
     1
270
     1
271
     1
  0
XRECORD
  5
1000E
102
{ACAD_REACTORS
330
1000D
102
}
330
1000D
100
AcDbXrecord
280
     1
270
     1
271
     1
  0
XRECORD
  5
10012
102
{ACAD_REACTORS
330
1000D
102
}
330
1000D
100
AcDbXrecord
280
     1
270
     1
271
     1
  0
XRECORD
  5
10011
102
{ACAD_REACTORS
330
1000D
102
}
330
1000D
100
AcDbXrecord
280
     1
270
     1
271
     1
  0
XRECORD
  5
10013
102
{ACAD_REACTORS
330
1000D
102
}
330
1000D
100
AcDbXrecord
280
     1
270
     1
271
     1
  0
XRECORD
  5
10010
102
{ACAD_REACTORS
330
1000D
102
}
330
1000D
100
AcDbXrecord
280
     1
270
     1
271
     1
  0
XRECORD
  5
10007
102
{ACAD_REACTORS
330
10005
102
}
330
10005
100
AcDbXrecord
280
     1
270
     1
271
     1
  0
XRECORD
  5
10006
102
{ACAD_REACTORS
330
10005
102
}
330
10005
100
AcDbXrecord
280
     1
270
     1
271
     1
  0
XRECORD
  5
1000A
102
{ACAD_REACTORS
330
10005
102
}
330
10005
100
AcDbXrecord
280
     1
270
     1
271
     1
  0
XRECORD
  5
10009
102
{ACAD_REACTORS
330
10005
102
}
330
10005
100
AcDbXrecord
280
     1
270
     1
271
     1
  0
XRECORD
  5
1000B
102
{ACAD_REACTORS
330
10005
102
}
330
10005
100
AcDbXrecord
280
     1
270
     1
271
     1
  0
XRECORD
  5
10008
102
{ACAD_REACTORS
330
10005
102
}
330
10005
100
AcDbXrecord
280
     1
270
     1
271
     1
  0
XRECORD
  5
10017
102
{ACAD_REACTORS
330
10015
102
}
330
10015
100
AcDbXrecord
280
     1
270
     1
271
     1
  0
XRECORD
  5
10016
102
{ACAD_REACTORS
330
10015
102
}
330
10015
100
AcDbXrecord
280
     1
270
     1
271
     1
  0
XRECORD
  5
1001A
102
{ACAD_REACTORS
330
10015
102
}
330
10015
100
AcDbXrecord
280
     1
270
     1
271
     1
  0
XRECORD
  5
10019
102
{ACAD_REACTORS
330
10015
102
}
330
10015
100
AcDbXrecord
280
     1
270
     1
271
     1
  0
XRECORD
  5
1001B
102
{ACAD_REACTORS
330
10015
102
}
330
10015
100
AcDbXrecord
280
     1
270
     1
271
     1
  0
XRECORD
  5
10018
102
{ACAD_REACTORS
330
10015
102
}
330
10015
100
AcDbXrecord
280
     1
270
     1
271
     1
  0
XRECORD
  5
1011D
102
{ACAD_REACTORS
330
1011C
102
}
330
1011C
100
AcDbXrecord
280
     1
102
DISPLAYNAME
  1
Metric50
102
FLAGS
 90
        0
  0
CELLSTYLEMAP
  5
1011A
102
{ACAD_REACTORS
330
10119
102
}
330
10119
100
AcDbCellStyleMap
 90
        3
300
CELLSTYLE
  1
TABLEFORMAT_BEGIN
 90
        5
170
     1
 91
        0
 92
    32768
 62
   257
 93
        1
300
CONTENTFORMAT
  1
CONTENTFORMAT_BEGIN
 90
        0
 91
        0
 92
      512
 93
        0
300

 40
0.0
140
1.0
 94
        5
 62
     0
340
11
144
6.0
309
CONTENTFORMAT_END
171
     1
301
MARGIN
  1
CELLMARGIN_BEGIN
 40
1.5
 40
1.5
 40
1.5
 40
1.5
 40
4.5
 40
4.5
309
CELLMARGIN_END
 94
        6
 95
        1
302
GRIDFORMAT
  1
GRIDFORMAT_BEGIN
 90
        0
 91
        1
 62
     0
 92
       -2
340
0
 93
        0
 40
1.125
309
GRIDFORMAT_END
 95
        2
302
GRIDFORMAT
  1
GRIDFORMAT_BEGIN
 90
        0
 91
        1
 62
     0
 92
       -2
340
0
 93
        0
 40
1.125
309
GRIDFORMAT_END
 95
        4
302
GRIDFORMAT
  1
GRIDFORMAT_BEGIN
 90
        0
 91
        1
 62
     0
 92
       -2
340
0
 93
        0
 40
1.125
309
GRIDFORMAT_END
 95
        8
302
GRIDFORMAT
  1
GRIDFORMAT_BEGIN
 90
        0
 91
        1
 62
     0
 92
       -2
340
0
 93
        0
 40
1.125
309
GRIDFORMAT_END
 95
       16
302
GRIDFORMAT
  1
GRIDFORMAT_BEGIN
 90
        0
 91
        1
 62
     0
 92
       -2
340
0
 93
        0
 40
1.125
309
GRIDFORMAT_END
 95
       32
302
GRIDFORMAT
  1
GRIDFORMAT_BEGIN
 90
        0
 91
        1
 62
     0
 92
       -2
340
0
 93
        0
 40
1.125
309
GRIDFORMAT_END
309
TABLEFORMAT_END
  1
CELLSTYLE_BEGIN
 90
        1
 91
        1
300
_TITLE
309
CELLSTYLE_END
300
CELLSTYLE
  1
TABLEFORMAT_BEGIN
 90
        5
170
     1
 91
        0
 92
        0
 62
   257
 93
        1
300
CONTENTFORMAT
  1
CONTENTFORMAT_BEGIN
 90
        0
 91
        0
 92
      512
 93
        0
300

 40
0.0
140
1.0
 94
        5
 62
     0
340
11
144
4.5
309
CONTENTFORMAT_END
171
     1
301
MARGIN
  1
CELLMARGIN_BEGIN
 40
1.5
 40
1.5
 40
1.5
 40
1.5
 40
4.5
 40
4.5
309
CELLMARGIN_END
 94
        6
 95
        1
302
GRIDFORMAT
  1
GRIDFORMAT_BEGIN
 90
        0
 91
        1
 62
     0
 92
       -2
340
0
 93
        0
 40
1.125
309
GRIDFORMAT_END
 95
        2
302
GRIDFORMAT
  1
GRIDFORMAT_BEGIN
 90
        0
 91
        1
 62
     0
 92
       -2
340
0
 93
        0
 40
1.125
309
GRIDFORMAT_END
 95
        4
302
GRIDFORMAT
  1
GRIDFORMAT_BEGIN
 90
        0
 91
        1
 62
     0
 92
       -2
340
0
 93
        0
 40
1.125
309
GRIDFORMAT_END
 95
        8
302
GRIDFORMAT
  1
GRIDFORMAT_BEGIN
 90
        0
 91
        1
 62
     0
 92
       -2
340
0
 93
        0
 40
1.125
309
GRIDFORMAT_END
 95
       16
302
GRIDFORMAT
  1
GRIDFORMAT_BEGIN
 90
        0
 91
        1
 62
     0
 92
       -2
340
0
 93
        0
 40
1.125
309
GRIDFORMAT_END
 95
       32
302
GRIDFORMAT
  1
GRIDFORMAT_BEGIN
 90
        0
 91
        1
 62
     0
 92
       -2
340
0
 93
        0
 40
1.125
309
GRIDFORMAT_END
309
TABLEFORMAT_END
  1
CELLSTYLE_BEGIN
 90
        2
 91
        1
300
_HEADER
309
CELLSTYLE_END
300
CELLSTYLE
  1
TABLEFORMAT_BEGIN
 90
        5
170
     1
 91
        0
 92
        0
 62
   257
 93
        1
300
CONTENTFORMAT
  1
CONTENTFORMAT_BEGIN
 90
        0
 91
        0
 92
      512
 93
        0
300

 40
0.0
140
1.0
 94
        2
 62
     0
340
11
144
4.5
309
CONTENTFORMAT_END
171
     1
301
MARGIN
  1
CELLMARGIN_BEGIN
 40
1.5
 40
1.5
 40
1.5
 40
1.5
 40
4.5
 40
4.5
309
CELLMARGIN_END
 94
        6
 95
        1
302
GRIDFORMAT
  1
GRIDFORMAT_BEGIN
 90
        0
 91
        1
 62
     0
 92
       -2
340
0
 93
        0
 40
1.125
309
GRIDFORMAT_END
 95
        2
302
GRIDFORMAT
  1
GRIDFORMAT_BEGIN
 90
        0
 91
        1
 62
     0
 92
       -2
340
0
 93
        0
 40
1.125
309
GRIDFORMAT_END
 95
        4
302
GRIDFORMAT
  1
GRIDFORMAT_BEGIN
 90
        0
 91
        1
 62
     0
 92
       -2
340
0
 93
        0
 40
1.125
309
GRIDFORMAT_END
 95
        8
302
GRIDFORMAT
  1
GRIDFORMAT_BEGIN
 90
        0
 91
        1
 62
     0
 92
       -2
340
0
 93
        0
 40
1.125
309
GRIDFORMAT_END
 95
       16
302
GRIDFORMAT
  1
GRIDFORMAT_BEGIN
 90
        0
 91
        1
 62
     0
 92
       -2
340
0
 93
        0
 40
1.125
309
GRIDFORMAT_END
 95
       32
302
GRIDFORMAT
  1
GRIDFORMAT_BEGIN
 90
        0
 91
        1
 62
     0
 92
       -2
340
0
 93
        0
 40
1.125
309
GRIDFORMAT_END
309
TABLEFORMAT_END
  1
CELLSTYLE_BEGIN
 90
        3
 91
        2
300
_DATA
309
CELLSTYLE_END
  0
ENDSEC
  0
EOF
