  0
SECTION
  2
HEADER
  9
$ACADVER
  1
AC1032
  9
$ACADMAINTVER
 90
      174
  9
$DWGCODEPAGE
  3
ANSI_1252
  9
$LASTSAVEDBY
  1
kenji
  9
$REQUIREDVERSIONS
160
                 0
  9
$INSBASE
 10
0.0
 20
0.0
 30
0.0
  9
$EXTMIN
 10
18.79337050000002
 20
18.750018
 30
0.0
  9
$EXTMAX
 10
205.773058
 20
162.3185497011752
 30
0.0
  9
$LIMMIN
 10
0.0
 20
0.0
  9
$LIMMAX
 10
12.0
 20
9.0
  9
$ORTHOMODE
 70
     0
  9
$REGENMODE
 70
     1
  9
$FILLMODE
 70
     1
  9
$QTEXTMODE
 70
     0
  9
$MIRRTEXT
 70
     0
  9
$LTSCALE
 40
1.0
  9
$ATTMODE
 70
     1
  9
$TEXTSIZE
 40
2.5
  9
$TRACEWID
 40
0.05
  9
$TEXTSTYLE
  7
STANDARD
  9
$CLAYER
  8
logo-outline
  9
$CELTYPE
  6
CONTINUOUS
  9
$CECOLOR
 62
   256
  9
$CELTSCALE
 40
1.0
  9
$DISPSILH
 70
     0
  9
$DIMSCALE
 40
1.0
  9
$DIMASZ
 40
0.18
  9
$DIMEXO
 40
0.0625
  9
$DIMDLI
 40
0.38
  9
$DIMRND
 40
0.0
  9
$DIMDLE
 40
0.0
  9
$DIMEXE
 40
0.18
  9
$DIMTP
 40
0.0
  9
$DIMTM
 40
0.0
  9
$DIMTXT
 40
0.18
  9
$DIMCEN
 40
0.09
  9
$DIMTSZ
 40
0.0
  9
$DIMTOL
 70
     0
  9
$DIMLIM
 70
     0
  9
$DIMTIH
 70
     1
  9
$DIMTOH
 70
     1
  9
$DIMSE1
 70
     0
  9
$DIMSE2
 70
     0
  9
$DIMTAD
 70
     0
  9
$DIMZIN
 70
     0
  9
$DIMBLK
  1

  9
$DIMASO
 70
     1
  9
$DIMSHO
 70
     1
  9
$DIMPOST
  1

  9
$DIMAPOST
  1

  9
$DIMALT
 70
     0
  9
$DIMALTD
 70
     2
  9
$DIMALTF
 40
25.4
  9
$DIMLFAC
 40
1.0
  9
$DIMTOFL
 70
     0
  9
$DIMTVP
 40
0.0
  9
$DIMTIX
 70
     0
  9
$DIMSOXD
 70
     0
  9
$DIMSAH
 70
     0
  9
$DIMBLK1
  1

  9
$DIMBLK2
  1

  9
$DIMSTYLE
  2
ISO-25
  9
$DIMCLRD
 70
     0
  9
$DIMCLRE
 70
     0
  9
$DIMCLRT
 70
     0
  9
$DIMTFAC
 40
1.0
  9
$DIMGAP
 40
0.09
  9
$DIMJUST
 70
     0
  9
$DIMSD1
 70
     0
  9
$DIMSD2
 70
     0
  9
$DIMTOLJ
 70
     1
  9
$DIMTZIN
 70
     0
  9
$DIMALTZ
 70
     0
  9
$DIMALTTZ
 70
     0
  9
$DIMUPT
 70
     0
  9
$DIMDEC
 70
     4
  9
$DIMTDEC
 70
     4
  9
$DIMALTU
 70
     2
  9
$DIMALTTD
 70
     2
  9
$DIMTXSTY
  7
STANDARD
  9
$DIMAUNIT
 70
     0
  9
$DIMADEC
 70
     0
  9
$DIMALTRND
 40
0.0
  9
$DIMAZIN
 70
     0
  9
$DIMDSEP
 70
    46
  9
$DIMATFIT
 70
     3
  9
$DIMFRAC
 70
     0
  9
$DIMLDRBLK
  1

  9
$DIMLUNIT
 70
     2
  9
$DIMLWD
 70
    -2
  9
$DIMLWE
 70
    -2
  9
$DIMTMOVE
 70
     0
  9
$DIMFXL
 40
1.0
  9
$DIMFXLON
 70
     0
  9
$DIMJOGANG
 40
0.7853981633974483
  9
$DIMTFILL
 70
     0
  9
$DIMTFILLCLR
 70
     0
  9
$DIMARCSYM
 70
     0
  9
$DIMLTYPE
  6

  9
$DIMLTEX1
  6

  9
$DIMLTEX2
  6

  9
$DIMTXTDIRECTION
 70
     0
  9
$LUNITS
 70
     2
  9
$LUPREC
 70
     4
  9
$SKETCHINC
 40
0.1
  9
$FILLETRAD
 40
0.0
  9
$AUNITS
 70
     0
  9
$AUPREC
 70
     0
  9
$MENU
  1
.
  9
$ELEVATION
 40
0.0
  9
$PELEVATION
 40
0.0
  9
$THICKNESS
 40
0.0
  9
$LIMCHECK
 70
     0
  9
$CHAMFERA
 40
0.0
  9
$CHAMFERB
 40
0.0
  9
$CHAMFERC
 40
0.0
  9
$CHAMFERD
 40
0.0
  9
$SKPOLY
 70
     0
  9
$TDCREATE
 40
2459151.519942130
  9
$TDUCREATE
 40
2459151.061608797
  9
$TDUPDATE
 40
2459242.476064815
  9
$TDUUPDATE
 40
2459242.017731482
  9
$TDINDWG
 40
0.0538078704
  9
$TDUSRTIMER
 40
0.0538078704
  9
$USRTIMER
 70
     1
  9
$ANGBASE
 50
0.0
  9
$ANGDIR
 70
     0
  9
$PDMODE
 70
     0
  9
$PDSIZE
 40
0.0
  9
$PLINEWID
 40
0.0
  9
$SPLFRAME
 70
     0
  9
$SPLINETYPE
 70
     6
  9
$SPLINESEGS
 70
     8
  9
$HANDSEED
  5
10183
  9
$SURFTAB1
 70
     6
  9
$SURFTAB2
 70
     6
  9
$SURFTYPE
 70
     6
  9
$SURFU
 70
     6
  9
$SURFV
 70
     6
  9
$UCSBASE
  2

  9
$UCSNAME
  2

  9
$UCSORG
 10
0.0
 20
0.0
 30
0.0
  9
$UCSXDIR
 10
1.0
 20
0.0
 30
0.0
  9
$UCSYDIR
 10
0.0
 20
1.0
 30
0.0
  9
$UCSORTHOREF
  2

  9
$UCSORTHOVIEW
 70
     0
  9
$UCSORGTOP
 10
0.0
 20
0.0
 30
0.0
  9
$UCSORGBOTTOM
 10
0.0
 20
0.0
 30
0.0
  9
$UCSORGLEFT
 10
0.0
 20
0.0
 30
0.0
  9
$UCSORGRIGHT
 10
0.0
 20
0.0
 30
0.0
  9
$UCSORGFRONT
 10
0.0
 20
0.0
 30
0.0
  9
$UCSORGBACK
 10
0.0
 20
0.0
 30
0.0
  9
$PUCSBASE
  2

  9
$PUCSNAME
  2

  9
$PUCSORG
 10
0.0
 20
0.0
 30
0.0
  9
$PUCSXDIR
 10
1.0
 20
0.0
 30
0.0
  9
$PUCSYDIR
 10
0.0
 20
1.0
 30
0.0
  9
$PUCSORTHOREF
  2

  9
$PUCSORTHOVIEW
 70
     0
  9
$PUCSORGTOP
 10
0.0
 20
0.0
 30
0.0
  9
$PUCSORGBOTTOM
 10
0.0
 20
0.0
 30
0.0
  9
$PUCSORGLEFT
 10
0.0
 20
0.0
 30
0.0
  9
$PUCSORGRIGHT
 10
0.0
 20
0.0
 30
0.0
  9
$PUCSORGFRONT
 10
0.0
 20
0.0
 30
0.0
  9
$PUCSORGBACK
 10
0.0
 20
0.0
 30
0.0
  9
$USERI1
 70
     0
  9
$USERI2
 70
     0
  9
$USERI3
 70
     0
  9
$USERI4
 70
     0
  9
$USERI5
 70
     0
  9
$USERR1
 40
0.0
  9
$USERR2
 40
0.0
  9
$USERR3
 40
0.0
  9
$USERR4
 40
0.0
  9
$USERR5
 40
0.0
  9
$WORLDVIEW
 70
     1
  9
$SHADEDGE
 70
     3
  9
$SHADEDIF
 70
    70
  9
$TILEMODE
 70
     1
  9
$MAXACTVP
 70
    64
  9
$PINSBASE
 10
0.0
 20
0.0
 30
0.0
  9
$PLIMCHECK
 70
     0
  9
$PEXTMIN
 10
1.000000000000000E+20
 20
1.000000000000000E+20
 30
1.000000000000000E+20
  9
$PEXTMAX
 10
-1.000000000000000E+20
 20
-1.000000000000000E+20
 30
-1.000000000000000E+20
  9
$PLIMMIN
 10
0.0
 20
0.0
  9
$PLIMMAX
 10
12.0
 20
9.0
  9
$UNITMODE
 70
     0
  9
$VISRETAIN
 70
     1
  9
$PLINEGEN
 70
     0
  9
$PSLTSCALE
 70
     1
  9
$TREEDEPTH
 70
  3020
  9
$CMLSTYLE
  2
Standard
  9
$CMLJUST
 70
     0
  9
$CMLSCALE
 40
1.0
  9
$PROXYGRAPHICS
 70
     1
  9
$MEASUREMENT
 70
     1
  9
$CELWEIGHT
370
    -1
  9
$ENDCAPS
280
     0
  9
$JOINSTYLE
280
     0
  9
$LWDISPLAY
290
     0
  9
$INSUNITS
 70
     0
  9
$HYPERLINKBASE
  1

  9
$STYLESHEET
  1

  9
$XEDIT
290
     1
  9
$CEPSNTYPE
380
     0
  9
$PSTYLEMODE
290
     1
  9
$FINGERPRINTGUID
  2
{E9E29CE7-62C9-3C4D-809A-36F805758BA3}
  9
$VERSIONGUID
  2
{CD6F007F-0DB7-6540-9460-2C97DA6C5F43}
  9
$EXTNAMES
290
     1
  9
$PSVPSCALE
 40
0.0
  9
$OLESTARTUP
290
     0
  9
$SORTENTS
280
   127
  9
$INDEXCTL
280
     0
  9
$HIDETEXT
280
     0
  9
$XCLIPFRAME
280
     2
  9
$HALOGAP
280
     0
  9
$OBSCOLOR
 70
   257
  9
$OBSLTYPE
280
     0
  9
$INTERSECTIONDISPLAY
280
     0
  9
$INTERSECTIONCOLOR
 70
   257
  9
$DIMASSOC
280
     1
  9
$PROJECTNAME
  1

  9
$CAMERADISPLAY
290
     0
  9
$LENSLENGTH
 40
50.0
  9
$CAMERAHEIGHT
 40
0.0
  9
$STEPSPERSEC
 40
2.0
  9
$STEPSIZE
 40
6.0
  9
$3DDWFPREC
 40
2.0
  9
$PSOLWIDTH
 40
0.25
  9
$PSOLHEIGHT
 40
4.0
  9
$LOFTANG1
 40
1.570796326794896
  9
$LOFTANG2
 40
1.570796326794896
  9
$LOFTMAG1
 40
0.0
  9
$LOFTMAG2
 40
0.0
  9
$LOFTPARAM
 70
     7
  9
$LOFTNORMALS
280
     1
  9
$LATITUDE
 40
37.795
  9
$LONGITUDE
 40
-122.394
  9
$NORTHDIRECTION
 40
0.0
  9
$TIMEZONE
 70
 -8000
  9
$LIGHTGLYPHDISPLAY
280
     1
  9
$TILEMODELIGHTSYNCH
280
     1
  9
$CMATERIAL
347
10004
  9
$SOLIDHIST
280
     0
  9
$SHOWHIST
280
     1
  9
$DWFFRAME
280
     2
  9
$DGNFRAME
280
     0
  9
$REALWORLDSCALE
290
     1
  9
$INTERFERECOLOR
 62
     1
  9
$INTERFEREOBJVS
345
10026
  9
$INTERFEREVPVS
346
10023
  9
$CSHADOW
280
     0
  9
$SHADOWPLANELOCATION
 40
0.0
  0
ENDSEC
  0
SECTION
  2
CLASSES
  0
CLASS
  1
ACDBDICTIONARYWDFLT
  2
AcDbDictionaryWithDefault
  3
ObjectDBX Classes
 90
        0
 91
        1
280
     0
281
     0
  0
CLASS
  1
MATERIAL
  2
AcDbMaterial
  3
ObjectDBX Classes
 90
     1153
 91
        3
280
     0
281
     0
  0
CLASS
  1
VISUALSTYLE
  2
AcDbVisualStyle
  3
ObjectDBX Classes
 90
     4095
 91
       24
280
     0
281
     0
  0
CLASS
  1
TABLESTYLE
  2
AcDbTableStyle
  3
ObjectDBX Classes
 90
     4095
 91
        1
280
     0
281
     0
  0
CLASS
  1
SCALE
  2
AcDbScale
  3
ObjectDBX Classes
 90
     1153
 91
       17
280
     0
281
     0
  0
CLASS
  1
MLEADERSTYLE
  2
AcDbMLeaderStyle
  3
ACDB_MLEADERSTYLE_CLASS
 90
     4095
 91
        1
280
     0
281
     0
  0
CLASS
  1
ACDBSECTIONVIEWSTYLE
  2
AcDbSectionViewStyle
  3
ObjectDBX Classes
 90
     1025
 91
        1
280
     0
281
     0
  0
CLASS
  1
ACDBDETAILVIEWSTYLE
  2
AcDbDetailViewStyle
  3
ObjectDBX Classes
 90
     1025
 91
        1
280
     0
281
     0
  0
CLASS
  1
DICTIONARYVAR
  2
AcDbDictionaryVar
  3
ObjectDBX Classes
 90
        0
 91
       11
280
     0
281
     0
  0
CLASS
  1
CELLSTYLEMAP
  2
AcDbCellStyleMap
  3
ObjectDBX Classes
 90
     1152
 91
        1
280
     0
281
     0
  0
CLASS
  1
SORTENTSTABLE
  2
AcDbSortentsTable
  3
ObjectDBX Classes
 90
        0
 91
        1
280
     0
281
     0
  0
ENDSEC
  0
SECTION
  2
TABLES
  0
TABLE
  2
VPORT
  5
8
330
0
100
AcDbSymbolTable
 70
     1
1001
ACAD
1000
DbSaveVer
1071
      224
  0
VPORT
  5
2E
330
8
100
AcDbSymbolTableRecord
100
AcDbViewportTableRecord
  2
*ACTIVE
 70
     0
 10
0.0
 20
0.0
 11
1.0
 21
1.0
 12
128.7754555648572
 22
72.28920243215481
 13
0.0
 23
0.0
 14
10.0
 24
10.0
 15
10.0
 25
10.0
 16
0.0
 26
0.0
 36
1.0
 17
0.0
 27
0.0
 37
0.0
 40
365.6720830692062
 41
1.919230769230769
 42
50.0
 43
0.0
 44
0.0
 50
0.0
 51
0.0
 71
     0
 72
   100
 73
     1
 74
     3
 75
     0
 76
     0
 77
     0
 78
     0
281
     0
 65
     1
110
0.0
120
0.0
130
0.0
111
1.0
121
0.0
131
0.0
112
0.0
122
1.0
132
0.0
 79
     0
146
0.0
348
10022
 60
     3
 61
     5
292
     1
282
     1
141
0.0
142
0.0
 63
   250
421
  3355443
1001
ACAD_NAV_VCDISPLAY
1070
     3
  0
ENDTAB
  0
TABLE
  2
LTYPE
  5
5
330
0
100
AcDbSymbolTable
 70
     1
  0
LTYPE
  5
14
330
5
100
AcDbSymbolTableRecord
100
AcDbLinetypeTableRecord
  2
BYBLOCK
 70
     0
  3

 72
    65
 73
     0
 40
0.0
  0
LTYPE
  5
15
330
5
100
AcDbSymbolTableRecord
100
AcDbLinetypeTableRecord
  2
BYLAYER
 70
     0
  3

 72
    65
 73
     0
 40
0.0
  0
LTYPE
  5
16
330
5
100
AcDbSymbolTableRecord
100
AcDbLinetypeTableRecord
  2
CONTINUOUS
 70
     0
  3
Solid line
 72
    65
 73
     0
 40
0.0
  0
ENDTAB
  0
TABLE
  2
LAYER
  5
2
102
{ACAD_XDICTIONARY
360
10070
102
}
330
0
100
AcDbSymbolTable
 70
     2
  0
LAYER
  5
50
102
{ACAD_XDICTIONARY
360
100A9
102
}
330
2
100
AcDbSymbolTableRecord
100
AcDbLayerTableRecord
  2
0
 70
     0
 62
     7
  6
CONTINUOUS
370
    -3
390
10002
347
10014
348
0
  0
LAYER
  5
1006B
102
{ACAD_XDICTIONARY
360
1006C
102
}
330
2
100
AcDbSymbolTableRecord
100
AcDbLayerTableRecord
  2
logo-outline
 70
     0
 62
     7
  6
CONTINUOUS
370
    -3
390
10002
347
10014
348
0
1001
AcAecLayerStandard
1000

1000

1001
AcCmTransparency
1071
        0
  0
ENDTAB
  0
TABLE
  2
STYLE
  5
3
330
0
100
AcDbSymbolTable
 70
     1
  0
STYLE
  5
11
330
3
100
AcDbSymbolTableRecord
100
AcDbTextStyleTableRecord
  2
STANDARD
 70
     0
 40
0.0
 41
1.0
 50
0.0
 71
     0
 42
2.5
  3
txt
  4

  0
ENDTAB
  0
TABLE
  2
VIEW
  5
6
330
0
100
AcDbSymbolTable
 70
     0
  0
ENDTAB
  0
TABLE
  2
UCS
  5
7
330
0
100
AcDbSymbolTable
 70
     0
  0
ENDTAB
  0
TABLE
  2
APPID
  5
9
330
0
100
AcDbSymbolTable
 70
     7
  0
APPID
  5
12
330
9
100
AcDbSymbolTableRecord
100
AcDbRegAppTableRecord
  2
ACAD
 70
     0
  0
APPID
  5
10057
330
9
100
AcDbSymbolTableRecord
100
AcDbRegAppTableRecord
  2
ACAD_EXEMPT_FROM_CAD_STANDARDS
 70
     0
  0
APPID
  5
1005F
330
9
100
AcDbSymbolTableRecord
100
AcDbRegAppTableRecord
  2
ACAD_NAV_VCDISPLAY
 70
     0
  0
APPID
  5
1006D
330
9
100
AcDbSymbolTableRecord
100
AcDbRegAppTableRecord
  2
AcAecLayerStandard
 70
     0
  0
APPID
  5
1006E
330
9
100
AcDbSymbolTableRecord
100
AcDbRegAppTableRecord
  2
AcCmTransparency
 70
     0
  0
APPID
  5
100B5
330
9
100
AcDbSymbolTableRecord
100
AcDbRegAppTableRecord
  2
GradientColor1ACI
 70
     0
  0
APPID
  5
100B6
330
9
100
AcDbSymbolTableRecord
100
AcDbRegAppTableRecord
  2
GradientColor2ACI
 70
     0
  0
ENDTAB
  0
TABLE
  2
DIMSTYLE
  5
A
330
0
100
AcDbSymbolTable
 70
     1
100
AcDbDimStyleTable
 71
     1
340
27
  0
DIMSTYLE
105
27
330
A
100
AcDbSymbolTableRecord
100
AcDbDimStyleTableRecord
  2
ISO-25
 70
     0
 41
2.5
 42
0.625
 43
3.75
 44
1.25
 73
     0
 74
     0
 77
     1
 78
     8
140
2.5
141
2.5
143
0.03937007874016
147
0.625
171
     3
172
     1
271
     2
272
     2
274
     3
283
     0
284
     8
340
11
  0
ENDTAB
  0
TABLE
  2
BLOCK_RECORD
  5
1
330
0
100
AcDbSymbolTable
 70
     0
  0
BLOCK_RECORD
  5
1F
102
{ACAD_XDICTIONARY
360
100E6
102
}
330
1
100
AcDbSymbolTableRecord
100
AcDbBlockTableRecord
  2
*MODEL_SPACE
340
10052
 70
     0
280
     1
281
     0
  0
BLOCK_RECORD
  5
1B
330
1
100
AcDbSymbolTableRecord
100
AcDbBlockTableRecord
  2
*PAPER_SPACE
340
10053
 70
     0
280
     1
281
     0
  0
ENDTAB
  0
ENDSEC
  0
SECTION
  2
BLOCKS
  0
BLOCK
  5
20
330
1F
100
AcDbEntity
  8
0
100
AcDbBlockBegin
  2
*MODEL_SPACE
 70
     0
 10
0.0
 20
0.0
 30
0.0
  3
*MODEL_SPACE
  1

  0
ENDBLK
  5
21
330
1F
100
AcDbEntity
  8
0
100
AcDbBlockEnd
  0
BLOCK
  5
1C
330
1B
100
AcDbEntity
 67
     1
  8
0
100
AcDbBlockBegin
  2
*PAPER_SPACE
 70
     0
 10
0.0
 20
0.0
 30
0.0
  3
*PAPER_SPACE
  1

  0
ENDBLK
  5
1D
330
1B
100
AcDbEntity
 67
     1
  8
0
100
AcDbBlockEnd
  0
ENDSEC
  0
SECTION
  2
ENTITIES
  0
SPLINE
  5
1008E
330
1F
100
AcDbEntity
  8
logo-outline
100
AcDbSpline
210
0.0
220
0.0
230
1.0
 70
     9
 71
     3
 72
    53
 73
    49
 74
     0
 42
0.000000001
 43
0.0000000001
 40
0.0
 40
0.0
 40
0.0
 40
0.0
 40
1.0
 40
1.0
 40
1.0
 40
2.0
 40
2.0
 40
2.0
 40
3.0
 40
3.0
 40
3.0
 40
4.0
 40
4.0
 40
4.0
 40
5.0
 40
5.0
 40
5.0
 40
6.0
 40
6.0
 40
6.0
 40
7.0
 40
7.0
 40
7.0
 40
8.0
 40
8.0
 40
8.0
 40
9.0
 40
9.0
 40
9.0
 40
10.0
 40
10.0
 40
10.0
 40
11.0
 40
11.0
 40
11.0
 40
12.0
 40
12.0
 40
12.0
 40
13.0
 40
13.0
 40
13.0
 40
14.0
 40
14.0
 40
14.0
 40
15.0
 40
15.0
 40
15.0
 40
16.0
 40
16.0
 40
16.0
 40
16.0
 10
129.702058
 20
45.14786599999999
 30
0.0
 10
130.135558
 20
46.16186599999999
 30
0.0
 10
130.7423079999999
 20
47.06186599999999
 30
0.0
 10
131.520058
 20
47.847116
 30
0.0
 10
132.297808
 20
48.632366
 30
0.0
 10
133.193308
 20
49.250366
 30
0.0
 10
134.208058
 20
49.69961600000001
 30
0.0
 10
135.222058
 20
50.14961599999999
 30
0.0
 10
136.316308
 20
50.374616
 30
0.0
 10
137.490808
 20
50.374616
 30
0.0
 10
138.649558
 20
50.374616
 30
0.0
 10
139.736308
 20
50.14961599999999
 30
0.0
 10
140.750308
 20
49.69961600000001
 30
0.0
 10
141.765058
 20
49.24961599999999
 30
0.0
 10
142.664308
 20
48.632366
 30
0.0
 10
143.450308
 20
47.847116
 30
0.0
 10
144.235558
 20
47.06186599999999
 30
0.0
 10
144.849058
 20
46.16186599999999
 30
0.0
 10
145.291558
 20
45.14786599999999
 30
0.0
 10
145.734058
 20
44.133116
 30
0.0
 10
145.955308
 20
43.054616
 30
0.0
 10
145.955308
 20
41.911616
 30
0.0
 10
145.955308
 20
40.737116
 30
0.0
 10
145.734058
 20
39.639116
 30
0.0
 10
145.291558
 20
38.617616
 30
0.0
 10
144.849058
 20
37.595366
 30
0.0
 10
144.235558
 20
36.698366
 30
0.0
 10
143.450308
 20
35.929616
 30
0.0
 10
142.664308
 20
35.15936599999999
 30
0.0
 10
141.765058
 20
34.55711599999999
 30
0.0
 10
140.750308
 20
34.122116
 30
0.0
 10
139.736308
 20
33.687866
 30
0.0
 10
138.649558
 20
33.470366
 30
0.0
 10
137.490808
 20
33.470366
 30
0.0
 10
136.316308
 20
33.470366
 30
0.0
 10
135.222058
 20
33.684116
 30
0.0
 10
134.208058
 20
34.110866
 30
0.0
 10
133.193308
 20
34.538366
 30
0.0
 10
132.297808
 20
35.133116
 30
0.0
 10
131.520058
 20
35.895116
 30
0.0
 10
130.7423079999999
 20
36.65861599999999
 30
0.0
 10
130.135558
 20
37.550366
 30
0.0
 10
129.702058
 20
38.571866
 30
0.0
 10
129.267058
 20
39.593366
 30
0.0
 10
129.049558
 20
40.70636599999999
 30
0.0
 10
129.049558
 20
41.911616
 30
0.0
 10
129.049558
 20
43.05536599999999
 30
0.0
 10
129.267058
 20
44.13386599999999
 30
0.0
 10
129.702058
 20
45.14786599999999
 30
0.0
  0
LWPOLYLINE
  5
1008F
330
1F
100
AcDbEntity
  8
logo-outline
100
AcDbPolyline
 90
       13
 70
     1
 43
0.0
 10
108.416308
 20
33.653366
 10
108.416308
 20
50.718116
 10
108.439558
 20
50.718116
 10
116.578468
 20
39.16524
 10
124.818058
 20
50.718116
 10
124.863808
 20
50.718116
 10
124.863808
 20
33.653366
 10
122.667808
 20
33.653366
 10
122.667808
 20
44.369256
 10
116.560558
 20
35.734616
 10
116.514808
 20
35.734616
 10
110.567308
 20
44.022958
 10
110.567308
 20
33.653366
  0
SPLINE
  5
10090
330
1F
100
AcDbEntity
  8
logo-outline
100
AcDbSpline
210
0.0
220
0.0
230
1.0
 70
     9
 71
     3
 72
    53
 73
    49
 74
     0
 42
0.000000001
 43
0.0000000001
 40
0.0
 40
0.0
 40
0.0
 40
0.0
 40
1.0
 40
1.0
 40
1.0
 40
2.0
 40
2.0
 40
2.0
 40
3.0
 40
3.0
 40
3.0
 40
4.0
 40
4.0
 40
4.0
 40
5.0
 40
5.0
 40
5.0
 40
6.0
 40
6.0
 40
6.0
 40
7.0
 40
7.0
 40
7.0
 40
8.0
 40
8.0
 40
8.0
 40
9.0
 40
9.0
 40
9.0
 40
10.0
 40
10.0
 40
10.0
 40
11.0
 40
11.0
 40
11.0
 40
12.0
 40
12.0
 40
12.0
 40
13.0
 40
13.0
 40
13.0
 40
14.0
 40
14.0
 40
14.0
 40
15.0
 40
15.0
 40
15.0
 40
16.0
 40
16.0
 40
16.0
 40
16.0
 10
131.817058
 20
39.452366
 30
0.0
 10
132.138058
 20
38.696366
 30
0.0
 10
132.579808
 20
38.030366
 30
0.0
 10
133.144558
 20
37.449866
 30
0.0
 10
133.708558
 20
36.87086599999999
 30
0.0
 10
134.364808
 20
36.41711599999999
 30
0.0
 10
135.111808
 20
36.089366
 30
0.0
 10
135.858808
 20
35.761616
 30
0.0
 10
136.667308
 20
35.59736599999999
 30
0.0
 10
137.535808
 20
35.59736599999999
 30
0.0
 10
138.390058
 20
35.59736599999999
 30
0.0
 10
139.190308
 20
35.761616
 30
0.0
 10
139.938058
 20
36.089366
 30
0.0
 10
140.685058
 20
36.417866
 30
0.0
 10
141.333058
 20
36.87086599999999
 30
0.0
 10
141.882058
 20
37.449866
 30
0.0
 10
142.431058
 20
38.029616
 30
0.0
 10
142.866808
 20
38.696366
 30
0.0
 10
143.185558
 20
39.452366
 30
0.0
 10
143.506558
 20
40.206866
 30
0.0
 10
143.666308
 20
41.026616
 30
0.0
 10
143.666308
 20
41.910866
 30
0.0
 10
143.666308
 20
42.78011599999999
 30
0.0
 10
143.506558
 20
43.59911599999999
 30
0.0
 10
143.185558
 20
44.369366
 30
0.0
 10
142.866058
 20
45.139616
 30
0.0
 10
142.422808
 20
45.813866
 30
0.0
 10
141.858808
 20
46.39361599999999
 30
0.0
 10
141.294058
 20
46.97336599999999
 30
0.0
 10
140.638558
 20
47.42636599999999
 30
0.0
 10
139.891558
 20
47.75486599999999
 30
0.0
 10
139.143808
 20
48.08261599999999
 30
0.0
 10
138.344308
 20
48.24686599999999
 30
0.0
 10
137.490058
 20
48.24686599999999
 30
0.0
 10
136.620808
 20
48.24686599999999
 30
0.0
 10
135.812308
 20
48.07886599999999
 30
0.0
 10
135.065308
 20
47.74361599999999
 30
0.0
 10
134.318308
 20
47.40761599999999
 30
0.0
 10
133.662808
 20
46.95011599999999
 30
0.0
 10
133.098808
 20
46.37111599999999
 30
0.0
 10
132.533308
 20
45.791366
 30
0.0
 10
132.099808
 20
45.116366
 30
0.0
 10
131.794558
 20
44.34686599999999
 30
0.0
 10
131.489308
 20
43.57736599999999
 30
0.0
 10
131.336308
 20
42.757616
 30
0.0
 10
131.336308
 20
41.888366
 30
0.0
 10
131.336308
 20
41.018366
 30
0.0
 10
131.496808
 20
40.206866
 30
0.0
 10
131.817058
 20
39.452366
 30
0.0
  0
LWPOLYLINE
  5
10093
330
1F
100
AcDbEntity
  8
logo-outline
100
AcDbPolyline
 90
        8
 70
     1
 43
0.0
 10
148.928308
 20
50.191616
 10
159.907558
 20
50.191616
 10
159.907558
 20
48.06461599999999
 10
155.470558
 20
48.06461599999999
 10
155.470558
 20
33.653366
 10
153.251308
 20
33.653366
 10
153.251308
 20
48.06461599999999
 10
148.928308
 20
48.06461599999999
  0
SPLINE
  5
10094
330
1F
100
AcDbEntity
  8
logo-outline
100
AcDbSpline
210
0.0
220
0.0
230
1.0
 70
     9
 71
     3
 72
    53
 73
    49
 74
     0
 42
0.000000001
 43
0.0000000001
 40
0.0
 40
0.0
 40
0.0
 40
0.0
 40
1.0
 40
1.0
 40
1.0
 40
2.0
 40
2.0
 40
2.0
 40
3.0
 40
3.0
 40
3.0
 40
4.0
 40
4.0
 40
4.0
 40
5.0
 40
5.0
 40
5.0
 40
6.0
 40
6.0
 40
6.0
 40
7.0
 40
7.0
 40
7.0
 40
8.0
 40
8.0
 40
8.0
 40
9.0
 40
9.0
 40
9.0
 40
10.0
 40
10.0
 40
10.0
 40
11.0
 40
11.0
 40
11.0
 40
12.0
 40
12.0
 40
12.0
 40
13.0
 40
13.0
 40
13.0
 40
14.0
 40
14.0
 40
14.0
 40
15.0
 40
15.0
 40
15.0
 40
16.0
 40
16.0
 40
16.0
 40
16.0
 10
170.946058
 20
45.14786599999999
 30
0.0
 10
171.379558
 20
46.16186599999999
 30
0.0
 10
171.986308
 20
47.06186599999999
 30
0.0
 10
172.764058
 20
47.847116
 30
0.0
 10
173.5418079999999
 20
48.632366
 30
0.0
 10
174.438058
 20
49.250366
 30
0.0
 10
175.452058
 20
49.69961600000001
 30
0.0
 10
176.4660579999999
 20
50.148866
 30
0.0
 10
177.560308
 20
50.374616
 30
0.0
 10
178.734808
 20
50.374616
 30
0.0
 10
179.893558
 20
50.374616
 30
0.0
 10
180.980308
 20
50.14961599999999
 30
0.0
 10
181.994308
 20
49.69961600000001
 30
0.0
 10
183.008308
 20
49.24961599999999
 30
0.0
 10
183.909058
 20
48.632366
 30
0.0
 10
184.6943079999999
 20
47.847116
 30
0.0
 10
185.479558
 20
47.06186599999999
 30
0.0
 10
186.0930579999999
 20
46.16186599999999
 30
0.0
 10
186.535558
 20
45.14786599999999
 30
0.0
 10
186.978058
 20
44.133116
 30
0.0
 10
187.199308
 20
43.054616
 30
0.0
 10
187.199308
 20
41.911616
 30
0.0
 10
187.199308
 20
40.737116
 30
0.0
 10
186.978058
 20
39.639116
 30
0.0
 10
186.535558
 20
38.617616
 30
0.0
 10
186.0930579999999
 20
37.595366
 30
0.0
 10
185.479558
 20
36.698366
 30
0.0
 10
184.6943079999999
 20
35.929616
 30
0.0
 10
183.909058
 20
35.15936599999999
 30
0.0
 10
183.008308
 20
34.55711599999999
 30
0.0
 10
181.994308
 20
34.122116
 30
0.0
 10
180.980308
 20
33.687866
 30
0.0
 10
179.893558
 20
33.470366
 30
0.0
 10
178.734808
 20
33.470366
 30
0.0
 10
177.560308
 20
33.470366
 30
0.0
 10
176.4660579999999
 20
33.684116
 30
0.0
 10
175.452058
 20
34.110866
 30
0.0
 10
174.438058
 20
34.538366
 30
0.0
 10
173.5418079999999
 20
35.133116
 30
0.0
 10
172.764058
 20
35.895116
 30
0.0
 10
171.986308
 20
36.65861599999999
 30
0.0
 10
171.379558
 20
37.550366
 30
0.0
 10
170.946058
 20
38.571866
 30
0.0
 10
170.511058
 20
39.593366
 30
0.0
 10
170.294308
 20
40.70636599999999
 30
0.0
 10
170.294308
 20
41.911616
 30
0.0
 10
170.294308
 20
43.05536599999999
 30
0.0
 10
170.511058
 20
44.13386599999999
 30
0.0
 10
170.946058
 20
45.14786599999999
 30
0.0
  0
LWPOLYLINE
  5
10095
330
1F
100
AcDbEntity
  8
logo-outline
100
AcDbPolyline
 90
        4
 70
     1
 43
0.0
 10
163.888558
 20
50.191616
 10
166.107808
 20
50.191616
 10
166.107808
 20
33.653366
 10
163.888558
 20
33.653366
  0
SPLINE
  5
10096
330
1F
100
AcDbEntity
  8
logo-outline
100
AcDbSpline
210
0.0
220
0.0
230
1.0
 70
     9
 71
     3
 72
    53
 73
    49
 74
     0
 42
0.000000001
 43
0.0000000001
 40
0.0
 40
0.0
 40
0.0
 40
0.0
 40
1.0
 40
1.0
 40
1.0
 40
2.0
 40
2.0
 40
2.0
 40
3.0
 40
3.0
 40
3.0
 40
4.0
 40
4.0
 40
4.0
 40
5.0
 40
5.0
 40
5.0
 40
6.0
 40
6.0
 40
6.0
 40
7.0
 40
7.0
 40
7.0
 40
8.0
 40
8.0
 40
8.0
 40
9.0
 40
9.0
 40
9.0
 40
10.0
 40
10.0
 40
10.0
 40
11.0
 40
11.0
 40
11.0
 40
12.0
 40
12.0
 40
12.0
 40
13.0
 40
13.0
 40
13.0
 40
14.0
 40
14.0
 40
14.0
 40
15.0
 40
15.0
 40
15.0
 40
16.0
 40
16.0
 40
16.0
 40
16.0
 10
173.061808
 20
39.452366
 30
0.0
 10
173.382808
 20
38.696366
 30
0.0
 10
173.825308
 20
38.030366
 30
0.0
 10
174.389308
 20
37.449866
 30
0.0
 10
174.953308
 20
36.87086599999999
 30
0.0
 10
175.609558
 20
36.41711599999999
 30
0.0
 10
176.356558
 20
36.089366
 30
0.0
 10
177.103558
 20
35.761616
 30
0.0
 10
177.912058
 20
35.59736599999999
 30
0.0
 10
178.780558
 20
35.59736599999999
 30
0.0
 10
179.634808
 20
35.59736599999999
 30
0.0
 10
180.435808
 20
35.761616
 30
0.0
 10
181.182808
 20
36.089366
 30
0.0
 10
181.929808
 20
36.41711599999999
 30
0.0
 10
182.577058
 20
36.87086599999999
 30
0.0
 10
183.126808
 20
37.449866
 30
0.0
 10
183.675808
 20
38.029616
 30
0.0
 10
184.111558
 20
38.696366
 30
0.0
 10
184.430308
 20
39.452366
 30
0.0
 10
184.751308
 20
40.206866
 30
0.0
 10
184.911058
 20
41.026616
 30
0.0
 10
184.911058
 20
41.910866
 30
0.0
 10
184.911058
 20
42.78011599999999
 30
0.0
 10
184.751308
 20
43.59911599999999
 30
0.0
 10
184.430308
 20
44.369366
 30
0.0
 10
184.110808
 20
45.139616
 30
0.0
 10
183.668308
 20
45.813866
 30
0.0
 10
183.104308
 20
46.39361599999999
 30
0.0
 10
182.538808
 20
46.97336599999999
 30
0.0
 10
181.8840579999999
 20
47.42636599999999
 30
0.0
 10
181.1370580000001
 20
47.75486599999999
 30
0.0
 10
180.388558
 20
48.08261599999999
 30
0.0
 10
179.589058
 20
48.24686599999999
 30
0.0
 10
178.734808
 20
48.24686599999999
 30
0.0
 10
177.864808
 20
48.24686599999999
 30
0.0
 10
177.057808
 20
48.07886599999999
 30
0.0
 10
176.310808
 20
47.74361599999999
 30
0.0
 10
175.562308
 20
47.40761599999999
 30
0.0
 10
174.907558
 20
46.95011599999999
 30
0.0
 10
174.343558
 20
46.37111599999999
 30
0.0
 10
173.778058
 20
45.791366
 30
0.0
 10
173.344558
 20
45.116366
 30
0.0
 10
173.040058
 20
44.34686599999999
 30
0.0
 10
172.733308
 20
43.57736599999999
 30
0.0
 10
172.581058
 20
42.757616
 30
0.0
 10
172.581058
 20
41.888366
 30
0.0
 10
172.581058
 20
41.018366
 30
0.0
 10
172.742308
 20
40.206866
 30
0.0
 10
173.061808
 20
39.452366
 30
0.0
  0
LWPOLYLINE
  5
10097
330
1F
100
AcDbEntity
  8
logo-outline
100
AcDbPolyline
 90
        2
 70
     1
 43
0.0
 10
170.294308
 20
41.911616
 10
170.294308
 20
41.911616
  0
LWPOLYLINE
  5
10098
330
1F
100
AcDbEntity
  8
logo-outline
100
AcDbPolyline
 90
        2
 70
     1
 43
0.0
 10
172.581058
 20
41.888366
 10
172.581058
 20
41.888366
  0
LWPOLYLINE
  5
10099
330
1F
100
AcDbEntity
  8
logo-outline
100
AcDbPolyline
 90
       10
 70
     1
 43
0.0
 10
205.704058
 20
33.127616
 10
193.55963
 20
45.445841
 10
193.603558
 20
33.654116
 10
191.384308
 20
33.654116
 10
191.384308
 20
50.694866
 10
191.498308
 20
50.694866
 10
203.6212100000001
 20
38.221923
 10
203.577058
 20
50.191616
 10
205.773058
 20
50.191616
 10
205.773058
 20
33.127616
  0
SPLINE
  5
1009A
330
1F
100
AcDbEntity
  8
logo-outline
100
AcDbSpline
210
0.0
220
0.0
230
1.0
 70
    13
 71
     3
 72
   116
 73
   112
 74
     0
 42
0.000000001
 43
0.0000000001
 40
0.0
 40
0.0
 40
0.0
 40
0.0
 40
1.0
 40
1.0
 40
1.0
 40
2.0
 40
2.0
 40
2.0
 40
3.0
 40
3.0
 40
3.0
 40
4.0
 40
4.0
 40
4.0
 40
5.0
 40
5.0
 40
5.0
 40
6.0
 40
6.0
 40
6.0
 40
7.0
 40
7.0
 40
7.0
 40
8.0
 40
8.0
 40
8.0
 40
9.0
 40
9.0
 40
9.0
 40
10.0
 40
10.0
 40
10.0
 40
11.0
 40
11.0
 40
11.0
 40
12.0
 40
12.0
 40
12.0
 40
13.0
 40
13.0
 40
13.0
 40
14.0
 40
14.0
 40
14.0
 40
15.0
 40
15.0
 40
15.0
 40
16.0
 40
16.0
 40
16.0
 40
17.0
 40
17.0
 40
17.0
 40
18.0
 40
18.0
 40
18.0
 40
19.0
 40
19.0
 40
19.0
 40
20.0
 40
20.0
 40
20.0
 40
21.0
 40
21.0
 40
21.0
 40
22.0
 40
22.0
 40
22.0
 40
23.0
 40
23.0
 40
23.0
 40
24.0
 40
24.0
 40
24.0
 40
25.0
 40
25.0
 40
25.0
 40
26.0
 40
26.0
 40
26.0
 40
27.0
 40
27.0
 40
27.0
 40
28.0
 40
28.0
 40
28.0
 40
29.0
 40
29.0
 40
29.0
 40
30.0
 40
30.0
 40
30.0
 40
31.0
 40
31.0
 40
31.0
 40
32.0
 40
32.0
 40
32.0
 40
33.0
 40
33.0
 40
33.0
 40
34.0
 40
34.0
 40
34.0
 40
35.0
 40
35.0
 40
35.0
 40
36.0
 40
36.0
 40
36.0
 40
37.0
 40
37.0
 40
37.0
 40
37.0
 10
24.88955800000002
 20
48.178616
 30
0.0
 41
1.0
 10
24.03530800000004
 20
48.178616
 30
0.0
 41
1.0
 10
23.35730800000004
 20
47.98436599999999
 30
0.0
 41
1.0
 10
22.85405800000003
 20
47.59511599999999
 30
0.0
 41
1.0
 10
22.35080800000002
 20
47.20586599999999
 30
0.0
 41
1.0
 10
22.09955800000001
 20
46.676366
 30
0.0
 41
1.0
 10
22.09955800000001
 20
46.00511599999999
 30
0.0
 41
1.0
 10
22.09955800000001
 20
45.53186599999999
 30
0.0
 41
1.0
 10
22.26680800000002
 20
45.120116
 30
0.0
 41
1.0
 10
22.60280800000002
 20
44.76986599999999
 30
0.0
 41
1.0
 10
22.93805800000003
 20
44.41886599999999
 30
0.0
 41
1.0
 10
23.37230800000002
 20
44.11361599999999
 30
0.0
 41
1.0
 10
23.90630800000002
 20
43.854866
 30
0.0
 41
1.0
 10
24.43955800000003
 20
43.595366
 30
0.0
 41
1.0
 10
25.00430800000002
 20
43.35161599999999
 30
0.0
 41
1.0
 10
25.59905800000003
 20
43.122866
 30
0.0
 41
1.0
 10
26.10230800000004
 20
42.93986599999999
 30
0.0
 41
1.0
 10
26.60105800000001
 20
42.72236599999999
 30
0.0
 41
1.0
 10
27.09755800000004
 20
42.47111599999999
 30
0.0
 41
1.0
 10
27.59330800000002
 20
42.219866
 30
0.0
 41
1.0
 10
28.04330800000002
 20
41.910866
 30
0.0
 41
1.0
 10
28.44680800000002
 20
41.544866
 30
0.0
 41
1.0
 10
28.85105800000001
 20
41.179616
 30
0.0
 41
1.0
 10
29.171308
 20
40.725116
 30
0.0
 41
1.0
 10
29.40755800000004
 20
40.183616
 30
0.0
 41
1.0
 10
29.64380800000002
 20
39.642116
 30
0.0
 41
1.0
 10
29.76230800000001
 20
38.982866
 30
0.0
 41
1.0
 10
29.76230800000001
 20
38.205116
 30
0.0
 41
1.0
 10
29.76230800000001
 20
37.320116
 30
0.0
 41
1.0
 10
29.54480800000004
 20
36.51986599999999
 30
0.0
 41
1.0
 10
29.11055800000001
 20
35.803616
 30
0.0
 41
1.0
 10
28.67555800000002
 20
35.08661599999999
 30
0.0
 41
1.0
 10
28.05005800000003
 20
34.51811599999999
 30
0.0
 41
1.0
 10
27.23480800000004
 20
34.099616
 30
0.0
 41
1.0
 10
26.41880800000003
 20
33.679616
 30
0.0
 41
1.0
 10
25.43105800000003
 20
33.470366
 30
0.0
 41
1.0
 10
24.27230800000002
 20
33.470366
 30
0.0
 41
1.0
 10
23.570308
 20
33.470366
 30
0.0
 41
1.0
 10
22.88855800000004
 20
33.549866
 30
0.0
 41
1.0
 10
22.22480800000004
 20
33.710366
 30
0.0
 41
1.0
 10
21.56180800000003
 20
33.87086599999999
 30
0.0
 41
1.0
 10
20.93630800000001
 20
34.083866
 30
0.0
 41
1.0
 10
20.34905799999999
 20
34.350866
 30
0.0
 41
1.0
 10
19.76180800000001
 20
34.617116
 30
0.0
 41
1.0
 10
19.23155800000002
 20
34.91111599999999
 30
0.0
 41
1.0
 10
18.75905800000002
 20
35.23136599999999
 30
0.0
 41
1.0
 10
19.125058
 20
35.864116
 30
0.0
 41
1.0
 10
19.49105800000002
 20
36.496866
 30
0.0
 41
1.0
 10
19.85705800000003
 20
37.129616
 30
0.0
 41
1.0
 10
20.22305800000002
 20
36.870116
 30
0.0
 41
1.0
 10
20.642308
 20
36.62261599999999
 30
0.0
 41
1.0
 10
21.11555800000004
 20
36.386366
 30
0.0
 41
1.0
 10
21.588058
 20
36.150116
 30
0.0
 41
1.0
 10
22.08005800000002
 20
35.96336599999999
 30
0.0
 41
1.0
 10
22.59080800000003
 20
35.826116
 30
0.0
 41
1.0
 10
23.101558
 20
35.688866
 30
0.0
 41
1.0
 10
23.58605800000002
 20
35.620616
 30
0.0
 41
1.0
 10
24.04355800000001
 20
35.620616
 30
0.0
 41
1.0
 10
24.54680800000001
 20
35.620616
 30
0.0
 41
1.0
 10
25.04255800000003
 20
35.708366
 30
0.0
 41
1.0
 10
25.53005800000001
 20
35.883866
 30
0.0
 41
1.0
 10
26.01755800000002
 20
36.058616
 30
0.0
 41
1.0
 10
26.42180800000001
 20
36.333866
 30
0.0
 41
1.0
 10
26.74280800000002
 20
36.707366
 30
0.0
 41
1.0
 10
27.06305800000001
 20
37.080866
 30
0.0
 41
1.0
 10
27.22355800000002
 20
37.572866
 30
0.0
 41
1.0
 10
27.22355800000002
 20
38.18336599999999
 30
0.0
 41
1.0
 10
27.22355800000002
 20
38.701616
 30
0.0
 41
1.0
 10
27.082558
 20
39.139616
 30
0.0
 41
1.0
 10
26.80055800000002
 20
39.49886599999999
 30
0.0
 41
1.0
 10
26.51855800000004
 20
39.857366
 30
0.0
 41
1.0
 10
26.14430800000001
 20
40.165616
 30
0.0
 41
1.0
 10
25.67930800000004
 20
40.42436599999999
 30
0.0
 41
1.0
 10
25.21355800000002
 20
40.68386599999999
 30
0.0
 41
1.0
 10
24.71480800000001
 20
40.912616
 30
0.0
 41
1.0
 10
24.18080800000002
 20
41.111366
 30
0.0
 41
1.0
 10
23.66255800000004
 20
41.309366
 30
0.0
 41
1.0
 10
23.13605800000004
 20
41.530616
 30
0.0
 41
1.0
 10
22.60280800000002
 20
41.774366
 30
0.0
 41
1.0
 10
22.068808
 20
42.01811599999999
 30
0.0
 41
1.0
 10
21.57305800000002
 20
42.31211599999999
 30
0.0
 41
1.0
 10
21.11630800000002
 20
42.654866
 30
0.0
 41
1.0
 10
20.658808
 20
42.99836599999999
 30
0.0
 41
1.0
 10
20.28830800000001
 20
43.42436599999999
 30
0.0
 41
1.0
 10
20.00705800000002
 20
43.93586599999999
 30
0.0
 41
1.0
 10
19.72505800000003
 20
44.44661599999998
 30
0.0
 41
1.0
 10
19.58405800000002
 20
45.07586599999999
 30
0.0
 41
1.0
 10
19.58405800000002
 20
45.82286599999999
 30
0.0
 41
1.0
 10
19.58405800000002
 20
46.70711599999999
 30
0.0
 41
1.0
 10
19.79330800000003
 20
47.481116
 30
0.0
 41
1.0
 10
20.21255800000002
 20
48.14486600000001
 30
0.0
 41
1.0
 10
20.63180800000003
 20
48.807866
 30
0.0
 41
1.0
 10
21.21530800000003
 20
49.330616
 30
0.0
 41
1.0
 10
21.96230800000003
 20
49.711616
 30
0.0
 41
1.0
 10
22.709308
 20
50.092616
 30
0.0
 41
1.0
 10
23.57105800000004
 20
50.306366
 30
0.0
 41
1.0
 10
24.54680800000001
 20
50.352116
 30
0.0
 41
1.0
 10
25.65980800000001
 20
50.352116
 30
0.0
 41
1.0
 10
26.62805800000006
 20
50.21486599999999
 30
0.0
 41
1.0
 10
27.45230800000001
 20
49.940366
 30
0.0
 41
1.0
 10
28.27580800000002
 20
49.66586599999999
 30
0.0
 41
1.0
 10
29.007808
 20
49.338116
 30
0.0
 41
1.0
 10
29.64830800000004
 20
48.95636599999999
 30
0.0
 41
1.0
 10
29.33555800000004
 20
48.33111599999999
 30
0.0
 41
1.0
 10
29.02280799999998
 20
47.70586599999999
 30
0.0
 41
1.0
 10
28.71005799999999
 20
47.08061599999998
 30
0.0
 41
1.0
 10
28.130308
 20
47.385866
 30
0.0
 41
1.0
 10
27.50555799999999
 20
47.64461599999999
 30
0.0
 41
1.0
 10
26.834308
 20
47.85836599999999
 30
0.0
 41
1.0
 10
26.16305800000003
 20
48.07211599999999
 30
0.0
 41
1.0
 10
25.51505800000003
 20
48.178616
 30
0.0
 41
1.0
 10
24.88955800000002
 20
48.178616
 30
0.0
 41
1.0
  0
SPLINE
  5
1009B
330
1F
100
AcDbEntity
  8
logo-outline
100
AcDbSpline
210
0.0
220
0.0
230
1.0
 70
    13
 71
     3
 72
    41
 73
    37
 74
     0
 42
0.000000001
 43
0.0000000001
 40
0.0
 40
0.0
 40
0.0
 40
0.0
 40
1.0
 40
1.0
 40
1.0
 40
2.0
 40
2.0
 40
2.0
 40
3.0
 40
3.0
 40
3.0
 40
4.0
 40
4.0
 40
4.0
 40
5.0
 40
5.0
 40
5.0
 40
6.0
 40
6.0
 40
6.0
 40
7.0
 40
7.0
 40
7.0
 40
8.0
 40
8.0
 40
8.0
 40
9.0
 40
9.0
 40
9.0
 40
10.0
 40
10.0
 40
10.0
 40
11.0
 40
11.0
 40
11.0
 40
12.0
 40
12.0
 40
12.0
 40
12.0
 10
71.38280800000001
 20
49.631366
 30
0.0
 41
1.0
 10
72.259558
 20
49.211366
 30
0.0
 41
1.0
 10
72.93005800000002
 20
48.61361600000001
 30
0.0
 41
1.0
 10
73.39580800000003
 20
47.83586599999999
 30
0.0
 41
1.0
 10
73.86080800000001
 20
47.05811599999999
 30
0.0
 41
1.0
 10
74.09330800000002
 20
46.11236599999999
 30
0.0
 41
1.0
 10
74.09330800000002
 20
44.99936599999999
 30
0.0
 41
1.0
 10
74.09330800000002
 20
44.343116
 30
0.0
 41
1.0
 10
73.99430800000003
 20
43.69586599999999
 30
0.0
 41
1.0
 10
73.79630799999998
 20
43.05536599999999
 30
0.0
 41
1.0
 10
73.59830800000001
 20
42.41486599999999
 30
0.0
 41
1.0
 10
73.28180799999998
 20
41.831366
 30
0.0
 41
1.0
 10
72.84680799999998
 20
41.305616
 30
0.0
 41
1.0
 10
72.41180799999998
 20
40.779866
 30
0.0
 41
1.0
 10
71.83655800000001
 20
40.359866
 30
0.0
 41
1.0
 10
71.11955800000003
 20
40.04711599999999
 30
0.0
 41
1.0
 10
70.40255800000003
 20
39.73436599999999
 30
0.0
 41
1.0
 10
69.53330800000002
 20
39.578366
 30
0.0
 41
1.0
 10
68.51180800000001
 20
39.578366
 30
0.0
 41
1.0
 10
67.70355800000003
 20
39.578366
 30
0.0
 41
1.0
 10
66.89530799999999
 20
39.578366
 30
0.0
 41
1.0
 10
66.087058
 20
39.578366
 30
0.0
 41
1.0
 10
66.087058
 20
37.60361599999999
 30
0.0
 41
1.0
 10
66.087058
 20
35.628866
 30
0.0
 41
1.0
 10
66.087058
 20
33.654116
 30
0.0
 41
1.0
 10
65.27105800000002
 20
33.654116
 30
0.0
 41
1.0
 10
64.45505800000005
 20
33.654116
 30
0.0
 41
1.0
 10
63.63905800000001
 20
33.654116
 30
0.0
 41
1.0
 10
63.63905800000001
 20
39.189616
 30
0.0
 41
1.0
 10
63.63905800000001
 20
44.72511599999999
 30
0.0
 41
1.0
 10
63.63905800000001
 20
50.26061599999998
 30
0.0
 41
1.0
 10
65.16430800000005
 20
50.26061599999998
 30
0.0
 41
1.0
 10
66.68955800000002
 20
50.26061599999998
 30
0.0
 41
1.0
 10
68.21480800000005
 20
50.26061599999998
 30
0.0
 41
1.0
 10
69.450058
 20
50.26061599999998
 30
0.0
 41
1.0
 10
70.50605800000004
 20
50.050616
 30
0.0
 41
1.0
 10
71.38280800000001
 20
49.631366
 30
0.0
 41
1.0
  0
LWPOLYLINE
  5
1009C
330
1F
100
AcDbEntity
  8
logo-outline
100
AcDbPolyline
 90
        4
 70
     1
 43
0.0
 10
33.99380800000005
 20
50.26061599999998
 10
36.44180800000003
 20
50.26061599999998
 10
36.44180800000003
 20
33.653366
 10
33.99380800000005
 20
33.653366
  0
SPLINE
  5
1009D
330
1F
100
AcDbEntity
  8
logo-outline
100
AcDbSpline
210
0.0
220
0.0
230
1.0
 70
    13
 71
     3
 72
    38
 73
    34
 74
     0
 42
0.000000001
 43
0.0000000001
 40
0.0
 40
0.0
 40
0.0
 40
0.0
 40
1.0
 40
1.0
 40
1.0
 40
2.0
 40
2.0
 40
2.0
 40
3.0
 40
3.0
 40
3.0
 40
4.0
 40
4.0
 40
4.0
 40
5.0
 40
5.0
 40
5.0
 40
6.0
 40
6.0
 40
6.0
 40
7.0
 40
7.0
 40
7.0
 40
8.0
 40
8.0
 40
8.0
 40
9.0
 40
9.0
 40
9.0
 40
10.0
 40
10.0
 40
10.0
 40
11.0
 40
11.0
 40
11.0
 40
11.0
 10
70.04405800000005
 20
42.243116
 30
0.0
 41
1.0
 10
70.45580800000002
 20
42.448616
 30
0.0
 41
1.0
 10
70.77980800000005
 20
42.711866
 30
0.0
 41
1.0
 10
71.01605800000003
 20
43.032116
 30
0.0
 41
1.0
 10
71.25230800000003
 20
43.35236599999999
 30
0.0
 41
1.0
 10
71.42030800000002
 20
43.683866
 30
0.0
 41
1.0
 10
71.51930800000002
 20
44.02736599999999
 30
0.0
 41
1.0
 10
71.618308
 20
44.37086599999999
 30
0.0
 41
1.0
 10
71.66780800000002
 20
44.67986599999999
 30
0.0
 41
1.0
 10
71.66780800000002
 20
44.95361599999999
 30
0.0
 41
1.0
 10
71.66780800000002
 20
45.25886599999999
 30
0.0
 41
1.0
 10
71.618308
 20
45.58286599999999
 30
0.0
 41
1.0
 10
71.51930800000002
 20
45.92561599999999
 30
0.0
 41
1.0
 10
71.42030800000002
 20
46.26836599999999
 30
0.0
 41
1.0
 10
71.25605800000004
 20
46.588616
 30
0.0
 41
1.0
 10
71.02730800000005
 20
46.88636599999999
 30
0.0
 41
1.0
 10
70.798558
 20
47.18336599999999
 30
0.0
 41
1.0
 10
70.485808
 20
47.42786599999999
 30
0.0
 41
1.0
 10
70.08980800000005
 20
47.61836599999999
 30
0.0
 41
1.0
 10
69.69305799999999
 20
47.80886599999999
 30
0.0
 41
1.0
 10
69.19805800000005
 20
47.90411599999999
 30
0.0
 41
1.0
 10
68.60330800000001
 20
47.90411599999999
 30
0.0
 41
1.0
 10
67.764558
 20
47.90411599999999
 30
0.0
 41
1.0
 10
66.925808
 20
47.90411599999999
 30
0.0
 41
1.0
 10
66.087058
 20
47.90411599999999
 30
0.0
 41
1.0
 10
66.087058
 20
45.91411599999999
 30
0.0
 41
1.0
 10
66.087058
 20
43.924116
 30
0.0
 41
1.0
 10
66.087058
 20
41.934116
 30
0.0
 41
1.0
 10
66.89530800000004
 20
41.934116
 30
0.0
 41
1.0
 10
67.70355800000003
 20
41.934116
 30
0.0
 41
1.0
 10
68.51180800000007
 20
41.934116
 30
0.0
 41
1.0
 10
69.12155799999998
 20
41.934116
 30
0.0
 41
1.0
 10
69.63305800000004
 20
42.036866
 30
0.0
 41
1.0
 10
70.04405800000005
 20
42.243116
 30
0.0
 41
1.0
  0
LWPOLYLINE
  5
1009E
330
1F
100
AcDbEntity
  8
logo-outline
100
AcDbPolyline
 90
        6
 70
     1
 43
0.0
 10
78.05105799999998
 20
50.26061599999998
 10
80.49905800000002
 20
50.26061599999998
 10
80.49905800000002
 20
36.009866
 10
88.80230800000003
 20
36.009866
 10
88.80230800000003
 20
33.653366
 10
78.05105799999998
 20
33.653366
  0
LWPOLYLINE
  5
1009F
330
1F
100
AcDbEntity
  8
logo-outline
100
AcDbPolyline
 90
       13
 70
     1
 43
0.0
 10
92.98880799999999
 20
50.26061599999998
 10
103.899058
 20
50.26061599999998
 10
103.899058
 20
47.90411599999999
 10
95.43455800000002
 20
47.90411599999999
 10
95.43455800000002
 20
43.169366
 10
102.960808
 20
43.169366
 10
102.960808
 20
40.813616
 10
95.43455800000002
 20
40.813616
 10
95.43455800000002
 20
36.009866
 10
104.219308
 20
36.009866
 10
104.219308
 20
33.653366
 10
92.98805800000002
 20
33.653366
 10
92.98805800000002
 20
50.26061599999998
  0
LWPOLYLINE
  5
100A0
330
1F
100
AcDbEntity
  8
logo-outline
100
AcDbPolyline
 90
       14
 70
     1
 43
0.0
 10
53.91830800000001
 20
44.667491
 10
58.310308
 20
50.809616
 10
58.356058
 20
50.809616
 10
58.356058
 20
33.653366
 10
55.93130800000003
 20
33.653366
 10
55.93130800000003
 20
43.81162999999999
 10
49.96130800000002
 20
35.368616
 10
49.91555800000001
 20
35.368616
 10
44.08281200000003
 20
43.46693499999999
 10
44.08280799999999
 20
33.653366
 10
41.72555800000001
 20
33.653366
 10
41.72555800000001
 20
50.809616
 10
41.74880800000003
 20
50.809616
 10
49.97468200000001
 20
39.1524
  0
LWPOLYLINE
  5
100A1
330
1F
100
AcDbEntity
  8
logo-outline
100
AcDbPolyline
 90
        8
 70
     1
 43
0.0
 10
136.1300200501849
 20
124.2923365018174
 42
-0.1235510247152853
 10
141.7127603465143
 20
114.2565753812794
 42
-0.4142135623730951
 10
116.6894658250737
 20
70.91495789738456
 42
-0.2019381984217088
 10
74.80589251302681
 20
76.6771277691342
 42
-0.9999999999999948
 10
79.40210035764734
 20
84.42828619938675
 42
0.2019381984217089
 10
114.3571402401538
 20
79.61931548009864
 42
0.4142135623730951
 10
133.0084027638002
 20
111.9242497963594
 42
0.1235510247152854
 10
129.558079510305
 20
118.1266912718267
 42
-1.000000000000007
  0
LWPOLYLINE
  5
100A2
330
1F
100
AcDbEntity
  8
logo-outline
100
AcDbPolyline
 90
        8
 70
     1
 43
0.0
 10
103.6362779840235
 20
139.5787305991081
 42
-0.1235510247152853
 10
113.6720391045615
 20
145.1614708954376
 42
-0.4142135623730951
 10
157.0136565884564
 20
120.138176373997
 42
-0.2019381984217088
 10
151.2514867167067
 20
78.25460306195009
 42
-0.9999999999999948
 10
143.5003282864543
 20
82.85081090657062
 42
0.2019381984217089
 10
148.3092990057423
 20
117.8058507890771
 42
0.4142135623730951
 10
116.0043646894814
 20
136.4571133127234
 42
0.1235510247152854
 10
109.8019232140142
 20
133.0067900592282
 42
-1.000000000000007
  0
LWPOLYLINE
  5
100A3
330
1F
100
AcDbEntity
  8
logo-outline
100
AcDbPolyline
 90
        8
 70
     1
 43
0.0
 10
88.34988388673277
 20
107.0849885329467
 42
-0.1235510247152853
 10
82.76714359040338
 20
117.1207496534848
 42
-0.4142135623730951
 10
107.7904381118438
 20
160.4623671373797
 42
-0.2019381984217088
 10
149.6740114238908
 20
154.70019726563
 42
-0.9999999999999948
 10
145.0778035792703
 20
146.9490388353775
 42
0.2019381984217089
 10
110.1227636967638
 20
151.7580095546655
 42
0.4142135623730951
 10
91.47150117311744
 20
119.4530752384048
 42
0.1235510247152854
 10
94.92182442661272
 20
113.2506337629375
 42
-1.000000000000007
  0
LWPOLYLINE
  5
100A4
330
1F
100
AcDbEntity
  8
logo-outline
100
AcDbPolyline
 90
        8
 70
     1
 43
0.0
 10
120.8436259528942
 20
91.79859443565609
 42
-0.1235510247152853
 10
110.8078648323561
 20
86.21585413932663
 42
-0.4142135623730951
 10
67.46624734846129
 20
111.2391486607671
 42
-0.2019381984217088
 10
73.22841722021097
 20
153.1227219728141
 42
-0.9999999999999948
 10
80.97957565046341
 20
148.5265141281935
 42
0.2019381984217089
 10
76.17060493117536
 20
113.5714742456871
 42
0.4142135623730951
 10
108.4755392474362
 20
94.92021172204076
 42
0.1235510247152854
 10
114.6779807229034
 20
98.37053497553601
 42
-1.000000000000007
  0
LWPOLYLINE
  5
10129
330
1F
100
AcDbEntity
  8
logo-outline
 62
     7
100
AcDbPolyline
 90
        6
 70
     1
 43
0.0
 10
68.261044
 20
28.41492800000001
 10
69.76077099999999
 20
28.41492800000001
 10
69.76077099999999
 20
20.518924
 10
74.34968000000002
 20
20.518924
 10
74.34968000000002
 20
19.083288
 10
68.261044
 20
19.083288
  0
SPLINE
  5
1012A
330
1F
100
AcDbEntity
  8
logo-outline
 62
     7
100
AcDbSpline
210
0.0
220
0.0
230
1.0
 70
    13
 71
     3
 72
   132
 73
   128
 74
     0
 42
0.000000001
 43
0.0000000001
 40
0.0
 40
0.0
 40
0.0
 40
0.0
 40
0.3060254537518148
 40
0.5981069256325277
 40
0.8774359103458927
 40
1.606239148517214
 40
2.295327799558569
 40
2.954912847500821
 40
2.954912847500821
 40
2.954912847500821
 40
3.580810038037745
 40
4.183190060509438
 40
4.772220992848313
 40
4.772220992848313
 40
4.772220992848313
 40
5.359026703231228
 40
5.943281973745748
 40
6.536276866898298
 40
7.138895214002002
 40
7.752294513344607
 40
8.387244074869775
 40
9.167476913084117
 40
9.892444856678864
 40
10.57478017294792
 40
10.57478017294792
 40
10.57478017294792
 40
11.23086136826829
 40
11.85893761546921
 40
12.47189584018604
 40
12.47189584018604
 40
12.47189584018604
 40
13.08042389394198
 40
13.68143879472315
 40
14.28635463323956
 40
14.28635463323956
 40
14.28635463323956
 40
14.90364406976103
 40
15.52391101642513
 40
16.15585589750021
 40
16.70602781319384
 40
17.23122605844033
 40
17.7354578214224
 40
17.7354578214224
 40
17.7354578214224
 40
18.21892226697864
 40
18.66404549799898
 40
19.07424096094928
 40
19.07424096094928
 40
19.07424096094928
 40
20.07424096094929
 40
20.07424096094929
 40
20.07424096094929
 40
20.27489969737758
 40
20.50268024912202
 40
20.75857672516262
 40
20.75857672516262
 40
20.75857672516262
 40
21.03061251505799
 40
21.30118133993256
 40
21.57106001241336
 40
21.83095754945826
 40
22.07160017987315
 40
22.29394847415939
 40
22.81442625417021
 40
23.30333153050093
 40
23.76718480682437
 40
23.76718480682437
 40
23.76718480682437
 40
24.20049119048379
 40
24.62036990048584
 40
25.03595728615101
 40
25.45265004315069
 40
25.8757367367467
 40
26.31412133409131
 40
26.31412133409131
 40
26.31412133409131
 40
26.76293543356792
 40
27.23918657330409
 40
27.74971068651423
 40
28.21480161690312
 40
28.6581164131969
 40
29.0873325949049
 40
29.0873325949049
 40
29.0873325949049
 40
29.50837426303884
 40
29.91966746384089
 40
30.32886301159404
 40
30.7408239158908
 40
31.16070366385323
 40
31.59627151997327
 40
31.59627151997327
 40
31.59627151997327
 40
32.04584913759339
 40
32.51298667960966
 40
33.00352252576671
 40
33.29134639696922
 40
33.57450916504616
 40
33.85409694382236
 40
34.12183179779545
 40
34.37046000843334
 40
34.60296446518633
 40
34.60296446518633
 40
34.60296446518633
 40
35.60296446518633
 40
35.60296446518633
 40
35.60296446518633
 40
36.60296446518633
 40
36.60296446518633
 40
36.60296446518633
 40
37.60296446518633
 40
37.60296446518633
 40
37.60296446518633
 40
38.60296446518633
 40
38.60296446518633
 40
38.60296446518633
 40
39.60296446518633
 40
39.60296446518633
 40
39.60296446518633
 40
39.78587465561322
 40
39.99921175692005
 40
40.24571832429097
 40
40.50963653238585
 40
40.78972066759166
 40
41.08654119733986
 40
41.39252812496424
 40
41.70031231420078
 40
42.01064311864178
 40
42.01064311864178
 40
42.01064311864178
 40
42.01064311864178
 10
93.10403
 20
19.07047
 30
0.0
 41
1.0
 10
93.00357656396199
 20
19.05258470817579
 30
0.0
 41
1.0
 10
92.80724683040116
 20
19.0176290638793
 30
0.0
 41
1.0
 10
92.51598958367507
 20
18.98767556445932
 30
0.0
 41
1.0
 10
92.08256167427583
 20
18.9735068039124
 30
0.0
 41
1.0
 10
91.51680197507705
 20
19.00622008015782
 30
0.0
 41
1.0
 10
90.83007384531031
 20
19.11397288667093
 30
0.0
 41
1.0
 10
90.403115231067
 20
19.25692335766797
 30
0.0
 41
1.0
 10
90.19430599999999
 20
19.326835
 30
0.0
 41
1.0
 10
90.00216976984367
 20
19.40851873665217
 30
0.0
 41
1.0
 10
89.62511654630707
 20
19.56881706347034
 30
0.0
 41
1.0
 10
89.1054757068891
 20
19.88666967255916
 30
0.0
 41
1.0
 10
88.80478420921903
 20
20.14678336676984
 30
0.0
 41
1.0
 10
88.656123
 20
20.275383
 30
0.0
 41
1.0
 10
88.52018056260886
 20
20.41646794172166
 30
0.0
 41
1.0
 10
88.2488865358807
 20
20.69802462618987
 30
0.0
 41
1.0
 10
87.92006928852785
 20
21.18897596270127
 30
0.0
 41
1.0
 10
87.65525958438628
 20
21.72146721043394
 30
0.0
 41
1.0
 10
87.46257194301037
 20
22.29496233748243
 30
0.0
 41
1.0
 10
87.3467753308663
 20
22.90291466668013
 30
0.0
 41
1.0
 10
87.30977530015683
 20
23.57980200450096
 30
0.0
 41
1.0
 10
87.35038540218097
 20
24.29294355121117
 30
0.0
 41
1.0
 10
87.4693537478681
 20
25.01591483718021
 30
0.0
 41
1.0
 10
87.62978797248626
 20
25.45765292752592
 30
0.0
 41
1.0
 10
87.707575
 20
25.671831
 30
0.0
 41
1.0
 10
87.79811587404875
 20
25.87110040016373
 30
0.0
 41
1.0
 10
87.97533286806013
 20
26.26113334900027
 30
0.0
 41
1.0
 10
88.32811654433433
 20
26.79109684334657
 30
0.0
 41
1.0
 10
88.6163177838608
 20
27.08867395517029
 30
0.0
 41
1.0
 10
88.758663
 20
27.23565
 30
0.0
 41
1.0
 10
88.91040170378614
 20
27.37057102353733
 30
0.0
 41
1.0
 10
89.21200567908742
 20
27.63874727676223
 30
0.0
 41
1.0
 10
89.72674762495012
 20
27.96343413607031
 30
0.0
 41
1.0
 10
90.09786837523586
 20
28.11898698487351
 30
0.0
 41
1.0
 10
90.28402900000001
 20
28.19701500000001
 30
0.0
 41
1.0
 10
90.47972305680799
 20
28.26137708319058
 30
0.0
 41
1.0
 10
90.87205510531829
 20
28.3904117015966
 30
0.0
 41
1.0
 10
91.48887964391576
 20
28.49391277887114
 30
0.0
 41
1.0
 10
92.08979168233057
 20
28.52679671532884
 30
0.0
 41
1.0
 10
92.65888329974449
 20
28.50326111454803
 30
0.0
 41
1.0
 10
93.18304418077575
 20
28.44325874413522
 30
0.0
 41
1.0
 10
93.51718186311215
 20
28.36401358389976
 30
0.0
 41
1.0
 10
93.680848
 20
28.325198
 30
0.0
 41
1.0
 10
93.83586726123672
 20
28.28106826028717
 30
0.0
 41
1.0
 10
94.133611959817
 20
28.19630849595597
 30
0.0
 41
1.0
 10
94.55129450910341
 20
28.03589328061921
 30
0.0
 41
1.0
 10
94.80333832083442
 20
27.90221817604349
 30
0.0
 41
1.0
 10
94.92421400000001
 20
27.83811
 30
0.0
 41
1.0
 10
94.76184866666663
 20
27.37665466666667
 30
0.0
 41
1.0
 10
94.59948333333333
 20
26.91519933333334
 30
0.0
 41
1.0
 10
94.43711799999995
 20
26.453744
 30
0.0
 41
1.0
 10
94.37822476152391
 20
26.48551538204872
 30
0.0
 41
1.0
 10
94.25247804538278
 20
26.55335248972473
 30
0.0
 41
1.0
 10
94.04181510302256
 20
26.64176826982306
 30
0.0
 41
1.0
 10
93.88957557242395
 20
26.69484563561258
 30
0.0
 41
1.0
 10
93.80903100000001
 20
26.722927
 30
0.0
 41
1.0
 10
93.72341205624715
 20
26.75285757991256
 30
0.0
 41
1.0
 10
93.55263587268
 20
26.81255733776256
 30
0.0
 41
1.0
 10
93.29136054427154
 20
26.8845924637409
 30
0.0
 41
1.0
 10
93.03082987481735
 20
26.94247209819325
 30
0.0
 41
1.0
 10
92.77744750903584
 20
26.98495181899474
 30
0.0
 41
1.0
 10
92.53778080927792
 20
27.01167319314733
 30
0.0
 41
1.0
 10
92.20990097110586
 20
27.02325497046413
 30
0.0
 41
1.0
 10
91.79935014775141
 20
27.00076381738603
 30
0.0
 41
1.0
 10
91.31174656652923
 20
26.92951235450872
 30
0.0
 41
1.0
 10
91.00848821278008
 20
26.83367344986305
 30
0.0
 41
1.0
 10
90.86084599999999
 20
26.787014
 30
0.0
 41
1.0
 10
90.72603384677716
 20
26.73450271931526
 30
0.0
 41
1.0
 10
90.46058721614423
 20
26.63110742301031
 30
0.0
 41
1.0
 10
90.09841895802143
 20
26.40846108348892
 30
0.0
 41
1.0
 10
89.77635310499005
 20
26.14076024199565
 30
0.0
 41
1.0
 10
89.49874575456233
 20
25.82576525018602
 30
0.0
 41
1.0
 10
89.26343363153028
 20
25.46803538982677
 30
0.0
 41
1.0
 10
89.14977730895335
 20
25.2038277193056
 30
0.0
 41
1.0
 10
89.09194000000002
 20
25.069378
 30
0.0
 41
1.0
 10
89.04527436662725
 20
24.92699804462495
 30
0.0
 41
1.0
 10
88.94909032216583
 20
24.63353411906706
 30
0.0
 41
1.0
 10
88.8777109478249
 20
24.15846619163187
 30
0.0
 41
1.0
 10
88.85246581175026
 20
23.67453869038948
 30
0.0
 41
1.0
 10
88.87843298819106
 20
23.20149814666585
 30
0.0
 41
1.0
 10
88.95593787770009
 20
22.76026314590567
 30
0.0
 41
1.0
 10
89.05568855961101
 20
22.4865635421501
 30
0.0
 41
1.0
 10
89.10475799999998
 20
22.351925
 30
0.0
 41
1.0
 10
89.16536986486802
 20
22.22510978843752
 30
0.0
 41
1.0
 10
89.28519023519973
 20
21.97441554488972
 30
0.0
 41
1.0
 10
89.52475835028364
 20
21.63468905608134
 30
0.0
 41
1.0
 10
89.80363478139365
 20
21.33145449895372
 30
0.0
 41
1.0
 10
90.12552989234251
 20
21.06964884869123
 30
0.0
 41
1.0
 10
90.48726491645664
 20
20.84783135745287
 30
0.0
 41
1.0
 10
90.75179191299994
 20
20.7403070839867
 30
0.0
 41
1.0
 10
90.886481
 20
20.685559
 30
0.0
 41
1.0
 10
91.0299383835354
 20
20.64160530560567
 30
0.0
 41
1.0
 10
91.32245641177894
 20
20.55198114195935
 30
0.0
 41
1.0
 10
91.78809509622213
 20
20.48334415119317
 30
0.0
 41
1.0
 10
92.20325126726892
 20
20.46293362892771
 30
0.0
 41
1.0
 10
92.55717538325923
 20
20.47315320269551
 30
0.0
 41
1.0
 10
92.83967972053693
 20
20.49893490720345
 30
0.0
 41
1.0
 10
93.1136285819608
 20
20.54037417881711
 30
0.0
 41
1.0
 10
93.3723377066021
 20
20.60011640447825
 30
0.0
 41
1.0
 10
93.61000370154808
 20
20.67926470500975
 30
0.0
 41
1.0
 10
93.75282868771737
 20
20.75264528010772
 30
0.0
 41
1.0
 10
93.821848
 20
20.788106
 30
0.0
 41
1.0
 10
93.821848
 20
21.30510633333333
 30
0.0
 41
1.0
 10
93.821848
 20
21.82210666666667
 30
0.0
 41
1.0
 10
93.821848
 20
22.339107
 30
0.0
 41
1.0
 10
93.23648533333331
 20
22.339107
 30
0.0
 41
1.0
 10
92.65112266666667
 20
22.339107
 30
0.0
 41
1.0
 10
92.06576
 20
22.339107
 30
0.0
 41
1.0
 10
92.06576
 20
22.81765233333334
 30
0.0
 41
1.0
 10
92.06576
 20
23.29619766666667
 30
0.0
 41
1.0
 10
92.06576
 20
23.77474300000001
 30
0.0
 41
1.0
 10
93.151033
 20
23.774743
 30
0.0
 41
1.0
 10
94.236306
 20
23.774743
 30
0.0
 41
1.0
 10
95.32157899999999
 20
23.774743
 30
0.0
 41
1.0
 10
95.32157899999999
 20
22.49719733333333
 30
0.0
 41
1.0
 10
95.32157899999999
 20
21.21965166666667
 30
0.0
 41
1.0
 10
95.32157899999999
 20
19.94210599999999
 30
0.0
 41
1.0
 10
95.27606554886531
 20
19.90139163473089
 30
0.0
 41
1.0
 10
95.17746753359086
 20
19.81319011389224
 30
0.0
 41
1.0
 10
94.99439929506063
 20
19.70005179920609
 30
0.0
 41
1.0
 10
94.77874054114812
 20
19.59197189758723
 30
0.0
 41
1.0
 10
94.53844764428687
 20
19.48352640928932
 30
0.0
 41
1.0
 10
94.2772942443735
 20
19.38152195815895
 30
0.0
 41
1.0
 10
93.99907862362557
 20
19.28531323936653
 30
0.0
 41
1.0
 10
93.70798397760321
 20
19.19898852282401
 30
0.0
 41
1.0
 10
93.40862358848289
 20
19.12558932726003
 30
0.0
 41
1.0
 10
93.20583968402576
 20
19.08889350431605
 30
0.0
 41
1.0
 10
93.10403
 20
19.07047
 30
0.0
 41
1.0
  0
LWPOLYLINE
  5
1012B
330
1F
100
AcDbEntity
  8
logo-outline
 62
     7
100
AcDbPolyline
 90
        4
 70
     1
 43
0.0
 10
80.08649100000003
 20
28.41492800000001
 10
81.58621399999999
 20
28.41492800000001
 10
81.58621399999999
 20
19.083288
 10
80.08649100000003
 20
19.083288
  0
LWPOLYLINE
  5
1012C
330
1F
100
AcDbEntity
  8
logo-outline
 62
     7
100
AcDbPolyline
 90
       12
 70
     1
 43
0.0
 10
108.915921
 20
28.41492800000001
 10
108.915921
 20
19.083288
 10
107.429015
 20
19.083288
 10
107.429015
 20
23.056925
 10
102.840108
 20
23.056925
 10
102.840108
 20
19.083288
 10
101.340377
 20
19.083288
 10
101.340377
 20
28.41492800000001
 10
102.840108
 20
28.41492800000001
 10
102.840108
 20
24.479743
 10
107.429015
 20
24.479743
 10
107.429015
 20
28.41492800000001
  0
LWPOLYLINE
  5
1012D
330
1F
100
AcDbEntity
  8
logo-outline
 62
     7
100
AcDbPolyline
 90
        8
 70
     1
 43
0.0
 10
114.575837
 20
28.41492800000001
 10
120.818285
 20
28.41492800000001
 10
120.818285
 20
26.979292
 10
118.408466
 20
26.979292
 10
118.408466
 20
19.083288
 10
116.92156
 20
19.083288
 10
116.92156
 20
26.979292
 10
114.575837
 20
26.979292
  0
LWPOLYLINE
  5
1012E
330
1F
100
AcDbEntity
  8
logo-outline
 62
     7
100
AcDbPolyline
 90
        4
 70
     1
 43
0.0
 10
126.465361
 20
28.41492800000001
 10
127.965084
 20
28.41492800000001
 10
127.965084
 20
19.083288
 10
126.465361
 20
19.083288
  0
LWPOLYLINE
  5
1012F
330
1F
100
AcDbEntity
  8
logo-outline
 62
     7
100
AcDbPolyline
 90
       10
 70
     1
 43
0.0
 10
141.0586097002623
 20
22.12990547839886
 10
141.033901
 20
28.41492800000001
 10
142.520814
 20
28.41492800000001
 10
142.520814
 20
18.750018
 10
142.482354
 20
18.750018
 10
135.7542650615077
 20
25.27349248739371
 10
135.791278
 20
19.083288
 10
134.27873
 20
19.083288
 10
134.27873
 20
28.73538
 10
134.355635
 20
28.73538
  0
SPLINE
  5
10130
330
1F
100
AcDbEntity
  8
logo-outline
 62
     7
100
AcDbSpline
210
0.0
220
0.0
230
1.0
 70
    13
 71
     3
 72
   132
 73
   128
 74
     0
 42
0.000000001
 43
0.0000000001
 40
0.0
 40
0.0
 40
0.0
 40
0.0
 40
0.3060303869699813
 40
0.598112853593711
 40
0.8774438370326922
 40
1.606244079383101
 40
2.295331744538267
 40
2.954920618753869
 40
2.954920618753869
 40
2.954920618753869
 40
3.580815078656649
 40
4.183195101128353
 40
4.772228354686246
 40
4.772228354686246
 40
4.772228354686246
 40
5.359031375825363
 40
5.943287209450498
 40
6.53628299126096
 40
7.138900062112758
 40
7.752298985308747
 40
8.387248486270834
 40
9.167481269722671
 40
9.892449390128668
 40
10.57478470639772
 40
10.57478470639772
 40
10.57478470639772
 40
11.23086458619896
 40
11.85894083339988
 40
12.47190107960269
 40
12.47190107960269
 40
12.47190107960269
 40
13.08042913335863
 40
13.68144318814437
 40
14.28635902666078
 40
14.28635902666078
 40
14.28635902666078
 40
14.90364942069101
 40
15.52391636735512
 40
16.15586025001874
 40
16.70603316495822
 40
17.23123141020472
 40
17.73546317318678
 40
17.73546317318678
 40
17.73546317318678
 40
18.21892666132212
 40
18.66404709903871
 40
19.07423899265072
 40
19.07423899265072
 40
19.07423899265072
 40
20.07423899265072
 40
20.07423899265072
 40
20.07423899265072
 40
20.27490127793871
 40
20.50268091054005
 40
20.75857550537549
 40
20.75857550537549
 40
20.75857550537549
 40
21.03061034763839
 40
21.30118013580588
 40
21.57105880828668
 40
21.83095930450977
 40
22.07160193492466
 40
22.29394623216656
 40
22.81442800732206
 40
23.30333328365274
 40
23.76718271574469
 40
23.76718271574469
 40
23.76718271574469
 40
24.20049278073741
 40
24.62037405510435
 40
25.03596144076948
 40
25.45265220849659
 40
25.87573944743556
 40
26.314124889476
 40
26.314124889476
 40
26.314124889476
 40
26.7629378465539
 40
27.2391886633133
 40
27.7497127263074
 40
28.21480359851303
 40
28.65811784543502
 40
29.08733276621946
 40
29.08733276621946
 40
29.08733276621946
 40
29.5083748910146
 40
29.91966752044649
 40
30.32886374691248
 40
30.74082697446804
 40
31.16070928678901
 40
31.59627805846347
 40
31.59627805846347
 40
31.59627805846347
 40
32.04585278689245
 40
32.5129893410712
 40
33.00352918235325
 40
33.29135305355577
 40
33.57451582163271
 40
33.85410261215398
 40
34.12183843961272
 40
34.37046570506041
 40
34.60297106228256
 40
34.60297106228256
 40
34.60297106228256
 40
35.60297106228255
 40
35.60297106228255
 40
35.60297106228255
 40
36.60297106228255
 40
36.60297106228255
 40
36.60297106228255
 40
37.60297106228255
 40
37.60297106228255
 40
37.60297106228255
 40
38.60297106228255
 40
38.60297106228255
 40
38.60297106228255
 40
39.60297106228255
 40
39.60297106228255
 40
39.60297106228255
 40
39.78587820032258
 40
39.9992153016294
 40
40.24572542803599
 40
40.50963907601388
 40
40.78972135008709
 40
41.08654187983527
 40
41.39252784861488
 40
41.70031203785144
 40
42.01064284229246
 40
42.01064284229246
 40
42.01064284229246
 40
42.01064284229246
 10
154.051448
 20
19.07047
 30
0.0
 41
1.0
 10
153.9509928906815
 20
19.05258474242172
 30
0.0
 41
1.0
 10
153.7546611058301
 20
19.01762938209518
 30
0.0
 41
1.0
 10
153.463401256717
 20
18.98767548499349
 30
0.0
 41
1.0
 10
153.0299733351165
 20
18.97350689828547
 30
0.0
 41
1.0
 10
152.4642142712387
 20
19.00622002134644
 30
0.0
 41
1.0
 10
151.7774863837165
 20
19.11397360151427
 30
0.0
 41
1.0
 10
151.3505265829131
 20
19.25692341897026
 30
0.0
 41
1.0
 10
151.141716
 20
19.326835
 30
0.0
 41
1.0
 10
150.9495807994899
 20
19.4085188308518
 30
0.0
 41
1.0
 10
150.5725287898123
 20
19.56881768550764
 30
0.0
 41
1.0
 10
150.052888365034
 20
19.88667044560206
 30
0.0
 41
1.0
 10
149.7521952868315
 20
20.14678345106052
 30
0.0
 41
1.0
 10
149.603533
 20
20.275383
 30
0.0
 41
1.0
 10
149.4675921280828
 20
20.41646816649859
 30
0.0
 41
1.0
 10
149.1963004747542
 20
20.6980260786977
 30
0.0
 41
1.0
 10
148.8674827001682
 20
21.18897613585553
 30
0.0
 41
1.0
 10
148.6026692364036
 20
21.72146593180722
 30
0.0
 41
1.0
 10
148.4099877759125
 20
22.29496301133321
 30
0.0
 41
1.0
 10
148.2941922147009
 20
22.90291475740589
 30
0.0
 41
1.0
 10
148.2571940290204
 20
23.57980200346083
 30
0.0
 41
1.0
 10
148.2978015895026
 20
24.29294370796502
 30
0.0
 41
1.0
 10
148.4167721345011
 20
25.01591472363888
 30
0.0
 41
1.0
 10
148.5772061053163
 20
25.45765290857328
 30
0.0
 41
1.0
 10
148.654993
 20
25.671831
 30
0.0
 41
1.0
 10
148.7455327077373
 20
25.87110046475249
 30
0.0
 41
1.0
 10
148.9227475927038
 20
26.26113392251359
 30
0.0
 41
1.0
 10
149.2755316482051
 20
26.79109772145839
 30
0.0
 41
1.0
 10
149.5637346673227
 20
27.08867408128144
 30
0.0
 41
1.0
 10
149.706081
 20
27.23565
 30
0.0
 41
1.0
 10
149.8578197331792
 20
27.37057097634621
 30
0.0
 41
1.0
 10
150.1594235559515
 20
27.6387469482
 30
0.0
 41
1.0
 10
150.6741647832781
 20
27.963434408745
 30
0.0
 41
1.0
 10
151.0452853411546
 20
28.11898703950761
 30
0.0
 41
1.0
 10
151.231446
 20
28.19701500000001
 30
0.0
 41
1.0
 10
151.4271403944942
 20
28.26137707014654
 30
0.0
 41
1.0
 10
151.8194728149905
 20
28.39041156208492
 30
0.0
 41
1.0
 10
152.4362973079446
 20
28.49391274572056
 30
0.0
 41
1.0
 10
153.0372093479482
 20
28.52679671445177
 30
0.0
 41
1.0
 10
153.6063009682001
 20
28.50326115261306
 30
0.0
 41
1.0
 10
154.1304621807672
 20
28.44325874410999
 30
0.0
 41
1.0
 10
154.4645998631093
 20
28.36401358389146
 30
0.0
 41
1.0
 10
154.628266
 20
28.325198
 30
0.0
 41
1.0
 10
154.7832849471013
 20
28.28106831688915
 30
0.0
 41
1.0
 10
155.0810284293152
 20
28.1963088357798
 30
0.0
 41
1.0
 10
155.4987083696412
 20
28.03589351214559
 30
0.0
 41
1.0
 10
155.750749675316
 20
27.90221819638001
 30
0.0
 41
1.0
 10
155.871624
 20
27.83811
 30
0.0
 41
1.0
 10
155.7092613333334
 20
27.37665466666667
 30
0.0
 41
1.0
 10
155.5468986666667
 20
26.91519933333334
 30
0.0
 41
1.0
 10
155.384536
 20
26.453744
 30
0.0
 41
1.0
 10
155.3256413595022
 20
26.48551524850781
 30
0.0
 41
1.0
 10
155.1998931019658
 20
26.55335128767624
 30
0.0
 41
1.0
 10
154.9892304872658
 20
26.641768292801
 30
0.0
 41
1.0
 10
154.8369919310984
 20
26.69484567224439
 30
0.0
 41
1.0
 10
154.756448
 20
26.722927
 30
0.0
 41
1.0
 10
154.6708294054135
 20
26.7528576335507
 30
0.0
 41
1.0
 10
154.5000533184713
 20
26.81255770807508
 30
0.0
 41
1.0
 10
154.238777815235
 20
26.8845922269948
 30
0.0
 41
1.0
 10
153.9782459486849
 20
26.94247251281915
 30
0.0
 41
1.0
 10
153.7248624582086
 20
26.98495152685956
 30
0.0
 41
1.0
 10
153.4851961419574
 20
27.01167307523083
 30
0.0
 41
1.0
 10
153.1573163069517
 20
27.02325507870981
 30
0.0
 41
1.0
 10
152.7467654982465
 20
27.00076388645413
 30
0.0
 41
1.0
 10
152.2591617390717
 20
26.92951290152401
 30
0.0
 41
1.0
 10
151.9559048646695
 20
26.83367349551837
 30
0.0
 41
1.0
 10
151.808264
 20
26.787014
 30
0.0
 41
1.0
 10
151.6734505215813
 20
26.73450274188033
 30
0.0
 41
1.0
 10
151.4080015936462
 20
26.63110761154256
 30
0.0
 41
1.0
 10
151.0458305702828
 20
26.40846182434425
 30
0.0
 41
1.0
 10
150.7237640065951
 20
26.14076116634033
 30
0.0
 41
1.0
 10
150.4461599905267
 20
25.8257639381014
 30
0.0
 41
1.0
 10
150.2108465895193
 20
25.46803540750187
 30
0.0
 41
1.0
 10
150.0971889813058
 20
25.20382775318105
 30
0.0
 41
1.0
 10
150.039351
 20
25.069378
 30
0.0
 41
1.0
 10
149.9926868596039
 20
24.9269979776822
 30
0.0
 41
1.0
 10
149.8965057999065
 20
24.63353363204059
 30
0.0
 41
1.0
 10
149.8251280120965
 20
24.15846608793187
 30
0.0
 41
1.0
 10
149.799884194
 20
23.6745386745701
 30
0.0
 41
1.0
 10
149.8258503961395
 20
23.20149840290945
 30
0.0
 41
1.0
 10
149.9033519889107
 20
22.76026354216453
 30
0.0
 41
1.0
 10
150.0030999435549
 20
22.48656359492658
 30
0.0
 41
1.0
 10
150.052168
 20
22.351925
 30
0.0
 41
1.0
 10
150.1127803489922
 20
22.22510988147054
 30
0.0
 41
1.0
 10
150.232601529892
 20
21.97441612828645
 30
0.0
 41
1.0
 10
150.472168210198
 20
21.63468845920851
 30
0.0
 41
1.0
 10
150.7510460733721
 20
21.33145391808328
 30
0.0
 41
1.0
 10
151.0729440300617
 20
21.06964880766343
 30
0.0
 41
1.0
 10
151.4346815524478
 20
20.84783181202482
 30
0.0
 41
1.0
 10
151.6992096282621
 20
20.74030716603277
 30
0.0
 41
1.0
 10
151.833899
 20
20.685559
 30
0.0
 41
1.0
 10
151.9773553745003
 20
20.64160528614812
 30
0.0
 41
1.0
 10
152.2698719879806
 20
20.55198088590361
 30
0.0
 41
1.0
 10
152.7355107549256
 20
20.48334391143592
 30
0.0
 41
1.0
 10
153.1506679389662
 20
20.46293364075099
 30
0.0
 41
1.0
 10
153.5045933774763
 20
20.47315321739263
 30
0.0
 41
1.0
 10
153.7870974130547
 20
20.49893477818363
 30
0.0
 41
1.0
 10
154.0610461772214
 20
20.54037448963073
 30
0.0
 41
1.0
 10
154.3197551705192
 20
20.60011598482117
 30
0.0
 41
1.0
 10
154.5574211759663
 20
20.67926517070798
 30
0.0
 41
1.0
 10
154.7002463319393
 20
20.75264533701969
 30
0.0
 41
1.0
 10
154.769266
 20
20.788106
 30
0.0
 41
1.0
 10
154.769266
 20
21.30510633333333
 30
0.0
 41
1.0
 10
154.769266
 20
21.82210666666667
 30
0.0
 41
1.0
 10
154.769266
 20
22.339107
 30
0.0
 41
1.0
 10
154.1839006666667
 20
22.339107
 30
0.0
 41
1.0
 10
153.5985353333333
 20
22.339107
 30
0.0
 41
1.0
 10
153.01317
 20
22.339107
 30
0.0
 41
1.0
 10
153.01317
 20
22.81765233333334
 30
0.0
 41
1.0
 10
153.01317
 20
23.29619766666667
 30
0.0
 41
1.0
 10
153.01317
 20
23.77474300000001
 30
0.0
 41
1.0
 10
154.098443
 20
23.774743
 30
0.0
 41
1.0
 10
155.183716
 20
23.774743
 30
0.0
 41
1.0
 10
156.2689889999999
 20
23.774743
 30
0.0
 41
1.0
 10
156.2689889999999
 20
22.49719733333333
 30
0.0
 41
1.0
 10
156.2689889999999
 20
21.21965166666667
 30
0.0
 41
1.0
 10
156.2689889999999
 20
19.94210599999999
 30
0.0
 41
1.0
 10
156.2234769757857
 20
19.90139154233485
 30
0.0
 41
1.0
 10
156.1248811658619
 20
19.81318902885823
 30
0.0
 41
1.0
 10
155.9418123970628
 20
19.70005079136971
 30
0.0
 41
1.0
 10
155.726152441557
 20
19.59197422773157
 30
0.0
 41
1.0
 10
155.4858621285256
 20
19.48352540608382
 30
0.0
 41
1.0
 10
155.2247106487118
 20
19.38152173056541
 30
0.0
 41
1.0
 10
154.9464959030869
 20
19.28531343651917
 30
0.0
 41
1.0
 10
154.655401696742
 20
19.19898834173703
 30
0.0
 41
1.0
 10
154.3560415809542
 20
19.12558935381004
 30
0.0
 41
1.0
 10
154.1532576815092
 20
19.08889351319032
 30
0.0
 41
1.0
 10
154.051448
 20
19.07047
 30
0.0
 41
1.0
  0
ENDSEC
  0
SECTION
  2
OBJECTS
  0
DICTIONARY
  5
C
330
0
100
AcDbDictionary
281
     1
  3
ACAD_CIP_PREVIOUS_PRODUCT_INFO
350
10056
  3
ACAD_COLOR
350
10035
  3
ACAD_DETAILVIEWSTYLE
350
1004F
  3
ACAD_GROUP
350
D
  3
ACAD_LAYOUT
350
10036
  3
ACAD_MATERIAL
350
10003
  3
ACAD_MLEADERSTYLE
350
1004B
  3
ACAD_MLINESTYLE
350
17
  3
ACAD_PLOTSETTINGS
350
10051
  3
ACAD_PLOTSTYLENAME
350
10001
  3
ACAD_SCALELIST
350
10039
  3
ACAD_SECTIONVIEWSTYLE
350
1004D
  3
ACAD_TABLESTYLE
350
10037
  3
ACAD_VISUALSTYLE
350
1001C
  3
ACDB_RECOMPOSE_DATA
350
10182
  3
AcDbVariableDictionary
350
10060
  3
AEC_PROPERTY_SET_DEFS
350
10127
  0
DICTIONARY
  5
10070
330
2
100
AcDbDictionary
280
     1
281
     1
  3
ACAD_LAYERSTATES
360
10071
  0
DICTIONARY
  5
100A9
330
50
100
AcDbDictionary
280
     1
281
     1
  3
ADSK_XREC_LAYER_RECONCILED
360
100AA
  0
DICTIONARY
  5
1006C
330
1006B
100
AcDbDictionary
280
     1
281
     1
  3
ADSK_XREC_LAYER_RECONCILED
360
100AB
  0
DICTIONARY
  5
100E6
330
1F
100
AcDbDictionary
280
     1
281
     1
  3
ACAD_SORTENTS
360
100E7
  0
XRECORD
  5
10056
102
{ACAD_REACTORS
330
C
102
}
330
C
100
AcDbXrecord
280
     1
300
ACD
300
2021
300

  0
DICTIONARY
  5
10035
102
{ACAD_REACTORS
330
C
102
}
330
C
100
AcDbDictionary
281
     1
  0
DICTIONARY
  5
1004F
102
{ACAD_REACTORS
330
C
102
}
330
C
100
AcDbDictionary
281
     1
  3
Metric50
350
10050
  0
DICTIONARY
  5
D
330
C
100
AcDbDictionary
281
     1
  0
DICTIONARY
  5
10036
102
{ACAD_REACTORS
330
C
102
}
330
C
100
AcDbDictionary
281
     1
  3
Layout1
350
10053
  3
Model
350
10052
  0
DICTIONARY
  5
10003
102
{ACAD_REACTORS
330
C
102
}
330
C
100
AcDbDictionary
281
     1
  3
ByBlock
350
1000C
  3
ByLayer
350
10004
  3
Global
350
10014
  0
DICTIONARY
  5
1004B
102
{ACAD_REACTORS
330
C
102
}
330
C
100
AcDbDictionary
281
     1
  3
Standard
350
1004C
  0
DICTIONARY
  5
17
330
C
100
AcDbDictionary
281
     1
  3
Standard
350
1006F
  0
DICTIONARY
  5
10051
102
{ACAD_REACTORS
330
C
102
}
330
C
100
AcDbDictionary
281
     1
  0
ACDBDICTIONARYWDFLT
  5
10001
102
{ACAD_REACTORS
330
C
102
}
330
C
100
AcDbDictionary
281
     1
  3
Normal
350
10002
100
AcDbDictionaryWithDefault
340
10002
  0
DICTIONARY
  5
10039
102
{ACAD_REACTORS
330
C
102
}
330
C
100
AcDbDictionary
281
     1
  3
A0
350
1003A
  3
A1
350
1003B
  3
A2
350
1003C
  3
A3
350
1003D
  3
A4
350
1003E
  3
A5
350
1003F
  3
A6
350
10040
  3
A7
350
10041
  3
A8
350
10042
  3
A9
350
10043
  3
B0
350
10044
  3
B1
350
10045
  3
B2
350
10046
  3
B3
350
10047
  3
B4
350
10048
  3
B5
350
10049
  3
B6
350
1004A
  0
DICTIONARY
  5
1004D
102
{ACAD_REACTORS
330
C
102
}
330
C
100
AcDbDictionary
281
     1
  3
Metric50
350
1004E
  0
DICTIONARY
  5
10037
102
{ACAD_REACTORS
330
C
102
}
330
C
100
AcDbDictionary
281
     1
  3
Standard
350
10038
  0
DICTIONARY
  5
1001C
102
{ACAD_REACTORS
330
C
102
}
330
C
100
AcDbDictionary
281
     1
  3
2dWireframe
350
10022
  3
Basic
350
10021
  3
Brighten
350
10028
  3
ColorChange
350
1002C
  3
Conceptual
350
10025
  3
Dim
350
10027
  3
EdgeColorOff
350
10034
  3
Facepattern
350
1002B
  3
Flat
350
1001D
  3
FlatWithEdges
350
1001E
  3
Gouraud
350
1001F
  3
GouraudWithEdges
350
10020
  3
Hidden
350
10024
  3
JitterOff
350
10032
  3
Linepattern
350
1002A
  3
OverhangOff
350
10033
  3
Realistic
350
10026
  3
Shaded
350
10031
  3
Shaded with edges
350
10030
  3
Shades of Gray
350
1002D
  3
Sketchy
350
1002E
  3
Thicken
350
10029
  3
Wireframe
350
10023
  3
X-Ray
350
1002F
  0
XRECORD
  5
10182
102
{ACAD_REACTORS
330
C
102
}
330
C
100
AcDbXrecord
280
     1
 90
        1
330
10038
  0
DICTIONARY
  5
10060
102
{ACAD_REACTORS
330
C
102
}
330
C
100
AcDbDictionary
281
     1
  3
CANNOSCALE
350
10066
  3
CMLEADERSTYLE
350
10062
  3
CTABLESTYLE
350
10061
  3
CVIEWDETAILSTYLE
350
10063
  3
CVIEWSECTIONSTYLE
350
10064
  3
HPCOLOR
350
100E9
  3
HPTRANSPARENCY
350
100E8
  3
LAYEREVAL
350
10068
  3
LAYERNOTIFY
350
10069
  3
LIGHTINGUNITS
350
10067
  3
MSLTSCALE
350
10065
  0
DICTIONARY
  5
10127
102
{ACAD_REACTORS
330
C
102
}
330
C
100
AcDbDictionary
281
     1
  0
DICTIONARY
  5
10071
102
{ACAD_REACTORS
330
10070
102
}
330
10070
100
AcDbDictionary
281
     1
  0
XRECORD
  5
100AA
102
{ACAD_REACTORS
330
100A9
102
}
330
100A9
100
AcDbXrecord
280
     1
290
     1
  0
XRECORD
  5
100AB
102
{ACAD_REACTORS
330
1006C
102
}
330
1006C
100
AcDbXrecord
280
     1
290
     1
  0
SORTENTSTABLE
  5
100E7
102
{ACAD_REACTORS
330
100E6
102
}
330
100E6
100
AcDbSortentsTable
330
1F
331
1008E
  5
10091
331
1008F
  5
10093
331
10090
  5
10094
331
10093
  5
10099
331
10094
  5
1009D
331
10095
  5
1009F
331
10096
  5
100A0
331
10097
  5
100DD
331
10098
  5
100DE
331
10099
  5
100E1
331
1009A
  5
100E4
331
1009B
  5
100EC
331
1009C
  5
100EE
331
1009D
  5
100EF
331
1009E
  5
100F3
331
1009F
  5
100F6
331
100A0
  5
100F8
331
100A1
  5
100FA
331
100A2
  5
100FC
331
100A3
  5
100FE
331
100A4
  5
10100
331
10129
  5
1012B
331
1012A
  5
1012F
331
1012B
  5
10131
331
1012C
  5
10134
331
1012D
  5
10138
331
1012E
  5
1013B
331
1012F
  5
1013E
331
10130
  5
10141
  0
ACDBDETAILVIEWSTYLE
  5
10050
102
{ACAD_REACTORS
330
1004F
102
}
330
1004F
100
AcDbModelDocViewStyle
 70
     0
  3
Metric50
290
     0
300
Metric50
 90
        0
100
AcDbDetailViewStyle
 70
     0
 71
     0
 90
        3
 71
     1
340
11
 62
   256
 40
5.0
340
0
 62
   256
 40
5.0
300

 40
0.0
280
     1
 71
     2
340
16
 90
       25
 62
   256
 71
     3
340
11
 62
   256
 40
5.0
 90
        0
 40
15.0
 90
        1
300
%<\AcVar ViewDetailId>% (%<\AcVar ViewScale \f "%sn">%)
 71
     4
340
16
 90
       25
 62
   256
340
16
 90
       25
 62
   256
280
     0
  0
LAYOUT
  5
10053
102
{ACAD_REACTORS
330
10036
102
}
330
10036
100
AcDbPlotSettings
  1

  2
Microsoft Print to PDF
  4

  6

 40
0.0
 41
0.0
 42
0.0
 43
0.0
 44
0.0
 45
0.0
 46
0.0
 47
0.0
 48
0.0
 49
0.0
140
0.0
141
0.0
142
1.0
143
1.0
 70
   688
 72
     0
 73
     0
 74
     5
  7

 75
    16
147
1.0
 76
     0
 77
     2
 78
   300
148
0.0
149
0.0
100
AcDbLayout
  1
Layout1
 70
     1
 71
     1
 10
0.0
 20
0.0
 11
12.0
 21
9.0
 12
0.0
 22
0.0
 32
0.0
 14
1.000000000000000E+20
 24
1.000000000000000E+20
 34
1.000000000000000E+20
 15
-1.000000000000000E+20
 25
-1.000000000000000E+20
 35
-1.000000000000000E+20
146
0.0
 13
0.0
 23
0.0
 33
0.0
 16
1.0
 26
0.0
 36
0.0
 17
0.0
 27
1.0
 37
0.0
 76
     0
330
1B
  0
LAYOUT
  5
10052
102
{ACAD_REACTORS
330
10036
102
}
330
10036
100
AcDbPlotSettings
  1

  2
Microsoft Print to PDF
  4

  6

 40
0.0
 41
0.0
 42
0.0
 43
0.0
 44
0.0
 45
0.0
 46
0.0
 47
0.0
 48
0.0
 49
0.0
140
0.0
141
0.0
142
1.0
143
1.0
 70
  1712
 72
     0
 73
     0
 74
     0
  7

 75
     0
147
1.0
 76
     0
 77
     2
 78
   300
148
0.0
149
0.0
100
AcDbLayout
  1
Model
 70
     1
 71
     0
 10
0.0
 20
0.0
 11
12.0
 21
9.0
 12
0.0
 22
0.0
 32
0.0
 14
0.0
 24
0.0
 34
0.0
 15
0.0
 25
0.0
 35
0.0
146
0.0
 13
0.0
 23
0.0
 33
0.0
 16
1.0
 26
0.0
 36
0.0
 17
0.0
 27
1.0
 37
0.0
 76
     0
330
1F
331
2E
  0
MATERIAL
  5
1000C
102
{ACAD_XDICTIONARY
360
1000D
102
}
102
{ACAD_REACTORS
330
10003
102
}
330
10003
100
AcDbMaterial
  1
ByBlock
 72
     0
 43
0.0208333333333333
 43
0.0
 43
0.0
 43
0.0
 43
0.0
 43
0.0208333333333333
 43
0.0
 43
0.0
 43
0.0
 43
0.0
 43
1.0
 43
0.0
 43
0.0
 43
0.0
 43
0.0
 43
1.0
 77
     0
 47
0.0208333333333333
 47
0.0
 47
0.0
 47
0.0
 47
0.0
 47
0.0208333333333333
 47
0.0
 47
0.0
 47
0.0
 47
0.0
 47
1.0
 47
0.0
 47
0.0
 47
0.0
 47
0.0
 47
1.0
171
     0
 49
0.0208333333333333
 49
0.0
 49
0.0
 49
0.0
 49
0.0
 49
0.0208333333333333
 49
0.0
 49
0.0
 49
0.0
 49
0.0
 49
1.0
 49
0.0
 49
0.0
 49
0.0
 49
0.0
 49
1.0
175
     0
142
0.0208333333333333
142
0.0
142
0.0
142
0.0
142
0.0
142
0.0208333333333333
142
0.0
142
0.0
142
0.0
142
0.0
142
1.0
142
0.0
142
0.0
142
0.0
142
0.0
142
1.0
179
     0
144
0.0208333333333333
144
0.0
144
0.0
144
0.0
144
0.0
144
0.0208333333333333
144
0.0
144
0.0
144
0.0
144
0.0
144
1.0
144
0.0
144
0.0
144
0.0
144
0.0
144
1.0
147
0.0208333333333333
147
0.0
147
0.0
147
0.0
147
0.0
147
0.0208333333333333
147
0.0
147
0.0
147
0.0
147
0.0
147
1.0
147
0.0
147
0.0
147
0.0
147
0.0
147
1.0
  0
MATERIAL
  5
10004
102
{ACAD_XDICTIONARY
360
10005
102
}
102
{ACAD_REACTORS
330
10003
102
}
330
10003
100
AcDbMaterial
  1
ByLayer
 72
     0
 43
0.0208333333333333
 43
0.0
 43
0.0
 43
0.0
 43
0.0
 43
0.0208333333333333
 43
0.0
 43
0.0
 43
0.0
 43
0.0
 43
1.0
 43
0.0
 43
0.0
 43
0.0
 43
0.0
 43
1.0
 77
     0
 47
0.0208333333333333
 47
0.0
 47
0.0
 47
0.0
 47
0.0
 47
0.0208333333333333
 47
0.0
 47
0.0
 47
0.0
 47
0.0
 47
1.0
 47
0.0
 47
0.0
 47
0.0
 47
0.0
 47
1.0
171
     0
 49
0.0208333333333333
 49
0.0
 49
0.0
 49
0.0
 49
0.0
 49
0.0208333333333333
 49
0.0
 49
0.0
 49
0.0
 49
0.0
 49
1.0
 49
0.0
 49
0.0
 49
0.0
 49
0.0
 49
1.0
175
     0
142
0.0208333333333333
142
0.0
142
0.0
142
0.0
142
0.0
142
0.0208333333333333
142
0.0
142
0.0
142
0.0
142
0.0
142
1.0
142
0.0
142
0.0
142
0.0
142
0.0
142
1.0
179
     0
144
0.0208333333333333
144
0.0
144
0.0
144
0.0
144
0.0
144
0.0208333333333333
144
0.0
144
0.0
144
0.0
144
0.0
144
1.0
144
0.0
144
0.0
144
0.0
144
0.0
144
1.0
147
0.0208333333333333
147
0.0
147
0.0
147
0.0
147
0.0
147
0.0208333333333333
147
0.0
147
0.0
147
0.0
147
0.0
147
1.0
147
0.0
147
0.0
147
0.0
147
0.0
147
1.0
  0
MATERIAL
  5
10014
102
{ACAD_XDICTIONARY
360
10015
102
}
102
{ACAD_REACTORS
330
10003
102
}
330
10003
100
AcDbMaterial
  1
Global
 72
     0
 43
0.0208333333333333
 43
0.0
 43
0.0
 43
0.0
 43
0.0
 43
0.0208333333333333
 43
0.0
 43
0.0
 43
0.0
 43
0.0
 43
1.0
 43
0.0
 43
0.0
 43
0.0
 43
0.0
 43
1.0
 77
     0
 47
0.0208333333333333
 47
0.0
 47
0.0
 47
0.0
 47
0.0
 47
0.0208333333333333
 47
0.0
 47
0.0
 47
0.0
 47
0.0
 47
1.0
 47
0.0
 47
0.0
 47
0.0
 47
0.0
 47
1.0
171
     0
 49
0.0208333333333333
 49
0.0
 49
0.0
 49
0.0
 49
0.0
 49
0.0208333333333333
 49
0.0
 49
0.0
 49
0.0
 49
0.0
 49
1.0
 49
0.0
 49
0.0
 49
0.0
 49
0.0
 49
1.0
175
     0
142
0.0208333333333333
142
0.0
142
0.0
142
0.0
142
0.0
142
0.0208333333333333
142
0.0
142
0.0
142
0.0
142
0.0
142
1.0
142
0.0
142
0.0
142
0.0
142
0.0
142
1.0
179
     0
144
0.0208333333333333
144
0.0
144
0.0
144
0.0
144
0.0
144
0.0208333333333333
144
0.0
144
0.0
144
0.0
144
0.0
144
1.0
144
0.0
144
0.0
144
0.0
144
0.0
144
1.0
147
0.0208333333333333
147
0.0
147
0.0
147
0.0
147
0.0
147
0.0208333333333333
147
0.0
147
0.0
147
0.0
147
0.0
147
1.0
147
0.0
147
0.0
147
0.0
147
0.0
147
1.0
  0
MLEADERSTYLE
  5
1004C
102
{ACAD_REACTORS
330
1004B
102
}
330
1004B
100
AcDbMLeaderStyle
179
     2
170
     2
171
     1
172
     0
 90
        2
 40
0.0
 41
0.0
173
     1
 91
-1056964608
340
14
 92
       -2
290
     1
 42
2.0
291
     1
 43
0.36
  3
Standard
 44
4.0
300

342
11
174
     1
178
     6
175
     1
176
     0
 93
-1056964608
 45
4.0
292
     0
297
     0
 46
4.0
 94
-1056964608
 47
1.0
 49
1.0
140
1.0
293
     1
141
0.0
294
     1
177
     0
142
1.0
295
     0
296
     0
143
0.125
271
     0
272
     9
273
     9
298
     0
  0
MLINESTYLE
  5
1006F
102
{ACAD_REACTORS
330
17
102
}
330
17
100
AcDbMlineStyle
  2
STANDARD
 70
     0
  3

 62
   256
 51
90.0
 52
90.0
 71
     2
 49
0.5
 62
   256
  6
BYLAYER
 49
-0.5
 62
   256
  6
BYLAYER
  0
ACDBPLACEHOLDER
  5
10002
102
{ACAD_REACTORS
330
10001
102
}
330
10001
  0
SCALE
  5
1003A
102
{ACAD_REACTORS
330
10039
102
}
330
10039
100
AcDbScale
 70
     0
300
1:1
140
1.0
141
1.0
290
     1
  0
SCALE
  5
1003B
102
{ACAD_REACTORS
330
10039
102
}
330
10039
100
AcDbScale
 70
     0
300
1:2
140
1.0
141
2.0
290
     0
  0
SCALE
  5
1003C
102
{ACAD_REACTORS
330
10039
102
}
330
10039
100
AcDbScale
 70
     0
300
1:4
140
1.0
141
4.0
290
     0
  0
SCALE
  5
1003D
102
{ACAD_REACTORS
330
10039
102
}
330
10039
100
AcDbScale
 70
     0
300
1:5
140
1.0
141
5.0
290
     0
  0
SCALE
  5
1003E
102
{ACAD_REACTORS
330
10039
102
}
330
10039
100
AcDbScale
 70
     0
300
1:8
140
1.0
141
8.0
290
     0
  0
SCALE
  5
1003F
102
{ACAD_REACTORS
330
10039
102
}
330
10039
100
AcDbScale
 70
     0
300
1:10
140
1.0
141
10.0
290
     0
  0
SCALE
  5
10040
102
{ACAD_REACTORS
330
10039
102
}
330
10039
100
AcDbScale
 70
     0
300
1:16
140
1.0
141
16.0
290
     0
  0
SCALE
  5
10041
102
{ACAD_REACTORS
330
10039
102
}
330
10039
100
AcDbScale
 70
     0
300
1:20
140
1.0
141
20.0
290
     0
  0
SCALE
  5
10042
102
{ACAD_REACTORS
330
10039
102
}
330
10039
100
AcDbScale
 70
     0
300
1:30
140
1.0
141
30.0
290
     0
  0
SCALE
  5
10043
102
{ACAD_REACTORS
330
10039
102
}
330
10039
100
AcDbScale
 70
     0
300
1:40
140
1.0
141
40.0
290
     0
  0
SCALE
  5
10044
102
{ACAD_REACTORS
330
10039
102
}
330
10039
100
AcDbScale
 70
     0
300
1:50
140
1.0
141
50.0
290
     0
  0
SCALE
  5
10045
102
{ACAD_REACTORS
330
10039
102
}
330
10039
100
AcDbScale
 70
     0
300
1:100
140
1.0
141
100.0
290
     0
  0
SCALE
  5
10046
102
{ACAD_REACTORS
330
10039
102
}
330
10039
100
AcDbScale
 70
     0
300
2:1
140
2.0
141
1.0
290
     0
  0
SCALE
  5
10047
102
{ACAD_REACTORS
330
10039
102
}
330
10039
100
AcDbScale
 70
     0
300
4:1
140
4.0
141
1.0
290
     0
  0
SCALE
  5
10048
102
{ACAD_REACTORS
330
10039
102
}
330
10039
100
AcDbScale
 70
     0
300
8:1
140
8.0
141
1.0
290
     0
  0
SCALE
  5
10049
102
{ACAD_REACTORS
330
10039
102
}
330
10039
100
AcDbScale
 70
     0
300
10:1
140
10.0
141
1.0
290
     0
  0
SCALE
  5
1004A
102
{ACAD_REACTORS
330
10039
102
}
330
10039
100
AcDbScale
 70
     0
300
100:1
140
100.0
141
1.0
290
     0
  0
ACDBSECTIONVIEWSTYLE
  5
1004E
102
{ACAD_REACTORS
330
1004D
102
}
330
1004D
100
AcDbModelDocViewStyle
 70
     0
  3
Metric50
290
     0
300
Metric50
 90
        0
100
AcDbSectionViewStyle
 70
     0
 71
     0
 90
      102
 71
     1
340
11
 62
   256
 40
5.0
340
0
340
0
 62
   256
 40
5.0
300
I, O, Q, S, X, Z
 40
10.0
 90
        0
 40
2.5
 90
        0
 71
     2
340
16
 90
       25
 62
   256
340
16
 90
       50
 62
   256
 40
5.0
 40
2.5
 40
5.0
 71
     3
340
11
 62
   256
 40
5.0
 90
        0
 40
15.0
 90
        1
300
%<\AcVar ViewSectionStartId>%-%<\AcVar ViewSectionEndId>% (%<\AcVar ViewScale \f "%sn">%)
 71
     4
 62
   256
 62
   257
300
ANSI31
 40
1.0
 90
        0
290
     0
290
     0
 90
        6
 40
0.0
 40
1.570796326794896
 40
0.2617993877991494
 40
1.308996938995747
 40
-0.2617993877991494
 40
1.832595714594045
  0
TABLESTYLE
  5
10038
102
{ACAD_XDICTIONARY
360
1010B
102
}
102
{ACAD_REACTORS
330
10037
102
}
330
10037
100
AcDbTableStyle
280
     0
  3
Standard
 70
     0
 71
     0
 40
1.5
 41
1.5
280
     0
281
     0
  7
STANDARD
140
4.5
170
     2
 62
     0
 63
     7
283
     0
 90
      512
 91
        0
  1

274
    -2
284
     1
 64
     0
275
    -2
285
     1
 65
     0
276
    -2
286
     1
 66
     0
277
    -2
287
     1
 67
     0
278
    -2
288
     1
 68
     0
279
    -2
289
     1
 69
     0
  7
STANDARD
140
6.0
170
     5
 62
     0
 63
     7
283
     0
 90
      512
 91
        0
  1

274
    -2
284
     1
 64
     0
275
    -2
285
     1
 65
     0
276
    -2
286
     1
 66
     0
277
    -2
287
     1
 67
     0
278
    -2
288
     1
 68
     0
279
    -2
289
     1
 69
     0
  7
STANDARD
140
4.5
170
     5
 62
     0
 63
     7
283
     0
 90
      512
 91
        0
  1

274
    -2
284
     1
 64
     0
275
    -2
285
     1
 65
     0
276
    -2
286
     1
 66
     0
277
    -2
287
     1
 67
     0
278
    -2
288
     1
 68
     0
279
    -2
289
     1
 69
     0
  0
VISUALSTYLE
  5
10022
102
{ACAD_REACTORS
330
1001C
102
}
330
1001C
100
AcDbVisualStyle
  2
2dWireframe
 70
     4
177
     3
291
     0
 70
    58
 90
        0
176
     1
 90
        2
176
     1
 90
        0
176
     1
 90
        0
176
     1
 40
0.6
176
     1
 40
30.0
176
     1
 62
     7
420
 16777215
176
     1
 90
        1
176
     1
 90
        4
176
     1
 62
     7
176
     1
 62
   257
176
     1
 90
        1
176
     1
 90
        1
176
     1
 40
1.0
176
     1
 90
        0
176
     1
 62
   257
176
     1
 40
1.0
176
     1
 90
        1
176
     1
 90
        6
176
     1
 90
        2
176
     1
 62
     7
176
     1
 90
        5
176
     1
 90
        0
176
     1
 90
        0
176
     1
290
     0
176
     1
 90
        1
176
     1
 40
0.0
176
     1
 90
        0
176
     1
290
     1
176
     1
290
     1
176
     1
290
     0
176
     1
290
     0
176
     1
290
     0
176
     1
290
     0
176
     1
290
     0
176
     1
290
     0
176
     1
290
     0
176
     1
 90
       50
176
     1
 40
0.0
176
     1
 40
1.0
176
     1
 90
        0
176
     1
 62
    18
176
     1
 90
       50
176
     1
 90
        3
176
     1
 62
     5
420
      255
176
     1
290
     0
176
     1
 90
       50
176
     1
 90
       50
176
     1
 90
       50
176
     1
290
     0
176
     1
 90
       50
176
     1
 62
   256
176
     0
 40
1.0
176
     0
 90
        2
176
     1
  1
strokes_ogs.tif
176
     1
290
     0
176
     1
 40
1.0
176
     1
 40
1.0
176
     1
  0
VISUALSTYLE
  5
10021
102
{ACAD_REACTORS
330
1001C
102
}
330
1001C
100
AcDbVisualStyle
  2
Basic
 70
     7
177
     3
291
     1
 70
    58
 90
        1
176
     1
 90
        0
176
     1
 90
        1
176
     1
 90
        0
176
     1
 40
0.6
176
     1
 40
30.0
176
     1
 62
     7
420
 16777215
176
     1
 90
        0
176
     1
 90
        4
176
     1
 62
     7
176
     1
 62
   257
176
     1
 90
        1
176
     1
 90
        1
176
     1
 40
1.0
176
     1
 90
        8
176
     1
 62
     7
176
     1
 40
1.0
176
     1
 90
        1
176
     1
 90
        6
176
     1
 90
        2
176
     1
 62
     7
176
     1
 90
        5
176
     1
 90
        0
176
     1
 90
        0
176
     1
290
     0
176
     1
 90
        1
176
     1
 40
0.0
176
     1
 90
        0
176
     1
290
     0
176
     1
290
     1
176
     1
290
     1
176
     1
290
     0
176
     1
290
     0
176
     1
290
     0
176
     1
290
     0
176
     1
290
     0
176
     1
290
     0
176
     1
 90
       50
176
     1
 40
0.0
176
     1
 40
1.0
176
     1
 90
        0
176
     1
 62
    18
176
     1
 90
       50
176
     1
 90
        3
176
     1
 62
     5
420
      255
176
     1
290
     0
176
     1
 90
       50
176
     1
 90
       50
176
     1
 90
       50
176
     1
290
     0
176
     1
 90
       50
176
     1
 62
   256
176
     0
 40
1.0
176
     0
 90
        2
176
     1
  1
strokes_ogs.tif
176
     1
290
     0
176
     1
 40
1.0
176
     1
 40
1.0
176
     1
  0
VISUALSTYLE
  5
10028
102
{ACAD_REACTORS
330
1001C
102
}
330
1001C
100
AcDbVisualStyle
  2
Brighten
 70
    12
177
     3
291
     1
 70
    58
 90
        2
176
     1
 90
        2
176
     1
 90
        0
176
     1
 90
        0
176
     1
 40
0.6
176
     1
 40
30.0
176
     1
 62
     7
420
 16777215
176
     1
 90
        1
176
     1
 90
        4
176
     1
 62
     7
176
     1
 62
   257
176
     1
 90
        1
176
     1
 90
        1
176
     1
 40
1.0
176
     1
 90
        8
176
     1
 62
     7
176
     1
 40
1.0
176
     1
 90
        1
176
     1
 90
        6
176
     1
 90
        2
176
     1
 62
     7
176
     1
 90
        5
176
     1
 90
        0
176
     1
 90
        0
176
     1
290
     0
176
     1
 90
        1
176
     1
 40
50.0
176
     1
 90
        0
176
     1
290
     0
176
     1
290
     1
176
     1
290
     1
176
     1
290
     0
176
     1
290
     0
176
     1
290
     0
176
     1
290
     0
176
     1
290
     0
176
     1
290
     0
176
     1
 90
       50
176
     1
 40
0.0
176
     1
 40
1.0
176
     1
 90
        0
176
     1
 62
    18
176
     1
 90
       50
176
     1
 90
        3
176
     1
 62
     5
420
      255
176
     1
290
     0
176
     1
 90
       50
176
     1
 90
       50
176
     1
 90
       50
176
     1
290
     0
176
     1
 90
       50
176
     1
 62
   256
176
     0
 40
1.0
176
     0
 90
        2
176
     1
  1
strokes_ogs.tif
176
     1
290
     0
176
     1
 40
1.0
176
     1
 40
1.0
176
     1
  0
VISUALSTYLE
  5
1002C
102
{ACAD_REACTORS
330
1001C
102
}
330
1001C
100
AcDbVisualStyle
  2
ColorChange
 70
    16
177
     3
291
     1
 70
    58
 90
        2
176
     1
 90
        2
176
     1
 90
        3
176
     1
 90
        0
176
     1
 40
0.6
176
     1
 40
30.0
176
     1
 62
     8
420
  8421504
176
     1
 90
        1
176
     1
 90
        4
176
     1
 62
     7
176
     1
 62
   257
176
     1
 90
        1
176
     1
 90
        1
176
     1
 40
1.0
176
     1
 90
        8
176
     1
 62
     8
420
  8421504
176
     1
 40
1.0
176
     1
 90
        1
176
     1
 90
        6
176
     1
 90
        2
176
     1
 62
     7
176
     1
 90
        5
176
     1
 90
        0
176
     1
 90
        0
176
     1
290
     0
176
     1
 90
        1
176
     1
 40
0.0
176
     1
 90
        0
176
     1
290
     0
176
     1
290
     1
176
     1
290
     1
176
     1
290
     0
176
     1
290
     0
176
     1
290
     0
176
     1
290
     0
176
     1
290
     0
176
     1
290
     0
176
     1
 90
       50
176
     1
 40
0.0
176
     1
 40
1.0
176
     1
 90
        0
176
     1
 62
    18
176
     1
 90
       50
176
     1
 90
        3
176
     1
 62
     5
420
      255
176
     1
290
     0
176
     1
 90
       50
176
     1
 90
       50
176
     1
 90
       50
176
     1
290
     0
176
     1
 90
       50
176
     1
 62
   256
176
     0
 40
1.0
176
     0
 90
        2
176
     1
  1
strokes_ogs.tif
176
     1
290
     0
176
     1
 40
1.0
176
     1
 40
1.0
176
     1
  0
VISUALSTYLE
  5
10025
102
{ACAD_REACTORS
330
1001C
102
}
330
1001C
100
AcDbVisualStyle
  2
Conceptual
 70
     9
177
     3
291
     0
 70
    58
 90
        3
176
     1
 90
        2
176
     1
 90
        0
176
     1
 90
        0
176
     1
 40
0.6
176
     1
 40
30.0
176
     1
 62
     7
420
 16777215
176
     1
 90
        2
176
     1
 90
        2
176
     1
 62
     7
176
     1
 62
   257
176
     1
 90
        1
176
     1
 90
        1
176
     1
 40
179.0
176
     1
 90
        8
176
     1
 62
     7
176
     1
 40
1.0
176
     1
 90
        1
176
     1
 90
        6
176
     1
 90
        2
176
     1
 62
     7
176
     1
 90
        3
176
     1
 90
        0
176
     1
 90
        0
176
     1
290
     0
176
     1
 90
        1
176
     1
 40
0.0
176
     1
 90
        0
176
     1
290
     0
176
     1
290
     1
176
     1
290
     1
176
     1
290
     0
176
     1
290
     0
176
     1
290
     0
176
     1
290
     0
176
     1
290
     0
176
     1
290
     0
176
     1
 90
       50
176
     1
 40
0.0
176
     1
 40
1.0
176
     1
 90
        0
176
     1
 62
    18
176
     1
 90
       50
176
     1
 90
        3
176
     1
 62
     5
420
      255
176
     1
290
     0
176
     1
 90
       50
176
     1
 90
       50
176
     1
 90
       50
176
     1
290
     0
176
     1
 90
       50
176
     1
 62
   256
176
     0
 40
1.0
176
     0
 90
        2
176
     1
  1
strokes_ogs.tif
176
     1
290
     0
176
     1
 40
1.0
176
     1
 40
1.0
176
     1
  0
VISUALSTYLE
  5
10027
102
{ACAD_REACTORS
330
1001C
102
}
330
1001C
100
AcDbVisualStyle
  2
Dim
 70
    11
177
     3
291
     1
 70
    58
 90
        2
176
     1
 90
        2
176
     1
 90
        0
176
     1
 90
        0
176
     1
 40
0.6
176
     1
 40
30.0
176
     1
 62
     7
420
 16777215
176
     1
 90
        1
176
     1
 90
        4
176
     1
 62
     7
176
     1
 62
   257
176
     1
 90
        1
176
     1
 90
        1
176
     1
 40
1.0
176
     1
 90
        8
176
     1
 62
     7
176
     1
 40
1.0
176
     1
 90
        1
176
     1
 90
        6
176
     1
 90
        2
176
     1
 62
     7
176
     1
 90
        5
176
     1
 90
        0
176
     1
 90
        0
176
     1
290
     0
176
     1
 90
        1
176
     1
 40
-50.0
176
     1
 90
        0
176
     1
290
     0
176
     1
290
     1
176
     1
290
     1
176
     1
290
     0
176
     1
290
     0
176
     1
290
     0
176
     1
290
     0
176
     1
290
     0
176
     1
290
     0
176
     1
 90
       50
176
     1
 40
0.0
176
     1
 40
1.0
176
     1
 90
        0
176
     1
 62
    18
176
     1
 90
       50
176
     1
 90
        3
176
     1
 62
     5
420
      255
176
     1
290
     0
176
     1
 90
       50
176
     1
 90
       50
176
     1
 90
       50
176
     1
290
     0
176
     1
 90
       50
176
     1
 62
   256
176
     0
 40
1.0
176
     0
 90
        2
176
     1
  1
strokes_ogs.tif
176
     1
290
     0
176
     1
 40
1.0
176
     1
 40
1.0
176
     1
  0
VISUALSTYLE
  5
10034
102
{ACAD_REACTORS
330
1001C
102
}
330
1001C
100
AcDbVisualStyle
  2
EdgeColorOff
 70
    22
177
     3
291
     1
 70
    58
 90
        2
176
     0
 90
        2
176
     0
 90
        0
176
     0
 90
        0
176
     0
 40
0.6
176
     0
 40
30.0
176
     0
 62
     7
420
 16777215
176
     0
 90
        1
176
     0
 90
        4
176
     0
 62
     7
176
     0
 62
   257
176
     0
 90
        1
176
     0
 90
        1
176
     0
 40
1.0
176
     0
 90
        8
176
     2
 62
     7
176
     0
 40
1.0
176
     0
 90
        1
176
     0
 90
        6
176
     0
 90
        2
176
     0
 62
     7
176
     0
 90
        5
176
     0
 90
        0
176
     0
 90
        0
176
     0
290
     0
176
     0
 90
        1
176
     0
 40
0.0
176
     0
 90
        0
176
     0
290
     0
176
     1
290
     1
176
     1
290
     1
176
     1
290
     0
176
     1
290
     0
176
     1
290
     0
176
     1
290
     0
176
     1
290
     0
176
     1
290
     0
176
     1
 90
       50
176
     0
 40
0.0
176
     0
 40
1.0
176
     0
 90
        0
176
     0
 62
    18
176
     0
 90
       50
176
     0
 90
        3
176
     0
 62
     5
420
      255
176
     0
290
     0
176
     1
 90
       50
176
     0
 90
       50
176
     0
 90
       50
176
     0
290
     0
176
     1
 90
       50
176
     0
 62
   256
176
     0
 40
1.0
176
     0
 90
        2
176
     0
  1
strokes_ogs.tif
176
     0
290
     0
176
     1
 40
1.0
176
     0
 40
1.0
176
     0
  0
VISUALSTYLE
  5
1002B
102
{ACAD_REACTORS
330
1001C
102
}
330
1001C
100
AcDbVisualStyle
  2
Facepattern
 70
    15
177
     3
291
     1
 70
    58
 90
        2
176
     1
 90
        2
176
     1
 90
        0
176
     1
 90
        0
176
     1
 40
0.6
176
     1
 40
30.0
176
     1
 62
     7
420
 16777215
176
     1
 90
        1
176
     1
 90
        4
176
     1
 62
     7
176
     1
 62
   257
176
     1
 90
        1
176
     1
 90
        1
176
     1
 40
1.0
176
     1
 90
        8
176
     1
 62
     7
176
     1
 40
1.0
176
     1
 90
        1
176
     1
 90
        6
176
     1
 90
        2
176
     1
 62
     7
176
     1
 90
        5
176
     1
 90
        0
176
     1
 90
        0
176
     1
290
     0
176
     1
 90
        1
176
     1
 40
0.0
176
     1
 90
        0
176
     1
290
     0
176
     1
290
     1
176
     1
290
     1
176
     1
290
     0
176
     1
290
     0
176
     1
290
     0
176
     1
290
     0
176
     1
290
     0
176
     1
290
     0
176
     1
 90
       50
176
     1
 40
0.0
176
     1
 40
1.0
176
     1
 90
        0
176
     1
 62
    18
176
     1
 90
       50
176
     1
 90
        3
176
     1
 62
     5
420
      255
176
     1
290
     0
176
     1
 90
       50
176
     1
 90
       50
176
     1
 90
       50
176
     1
290
     0
176
     1
 90
       50
176
     1
 62
   256
176
     0
 40
1.0
176
     0
 90
        2
176
     1
  1
strokes_ogs.tif
176
     1
290
     0
176
     1
 40
1.0
176
     1
 40
1.0
176
     1
  0
VISUALSTYLE
  5
1001D
102
{ACAD_REACTORS
330
1001C
102
}
330
1001C
100
AcDbVisualStyle
  2
Flat
 70
     0
177
     3
291
     1
 70
    58
 90
        2
176
     1
 90
        1
176
     1
 90
        1
176
     1
 90
        2
176
     1
 40
0.6
176
     1
 40
30.0
176
     1
 62
     7
420
 16777215
176
     1
 90
        0
176
     1
 90
        0
176
     1
 62
     7
176
     1
 62
   257
176
     1
 90
        1
176
     1
 90
        1
176
     1
 40
1.0
176
     1
 90
        8
176
     1
 62
     7
176
     1
 40
1.0
176
     1
 90
        1
176
     1
 90
        6
176
     1
 90
        2
176
     1
 62
     7
176
     1
 90
        5
176
     1
 90
        0
176
     1
 90
        0
176
     1
290
     0
176
     1
 90
       13
176
     1
 40
0.0
176
     1
 90
        0
176
     1
290
     0
176
     1
290
     1
176
     1
290
     1
176
     1
290
     0
176
     1
290
     0
176
     1
290
     0
176
     1
290
     0
176
     1
290
     0
176
     1
290
     0
176
     1
 90
       50
176
     1
 40
0.0
176
     1
 40
1.0
176
     1
 90
        0
176
     1
 62
    18
176
     1
 90
       50
176
     1
 90
        3
176
     1
 62
     5
420
      255
176
     1
290
     0
176
     1
 90
       50
176
     1
 90
       50
176
     1
 90
       50
176
     1
290
     0
176
     1
 90
       50
176
     1
 62
   256
176
     0
 40
1.0
176
     0
 90
        2
176
     1
  1
strokes_ogs.tif
176
     1
290
     0
176
     1
 40
1.0
176
     1
 40
1.0
176
     1
  0
VISUALSTYLE
  5
1001E
102
{ACAD_REACTORS
330
1001C
102
}
330
1001C
100
AcDbVisualStyle
  2
FlatWithEdges
 70
     1
177
     3
291
     1
 70
    58
 90
        2
176
     1
 90
        1
176
     1
 90
        1
176
     1
 90
        2
176
     1
 40
0.6
176
     1
 40
30.0
176
     1
 62
     7
420
 16777215
176
     1
 90
        1
176
     1
 90
        0
176
     1
 62
     7
176
     1
 62
   257
176
     1
 90
        1
176
     1
 90
        1
176
     1
 40
1.0
176
     1
 90
        0
176
     1
 62
   257
176
     1
 40
1.0
176
     1
 90
        1
176
     1
 90
        6
176
     1
 90
        2
176
     1
 62
     7
176
     1
 90
        5
176
     1
 90
        0
176
     1
 90
        0
176
     1
290
     0
176
     1
 90
       13
176
     1
 40
0.0
176
     1
 90
        0
176
     1
290
     0
176
     1
290
     1
176
     1
290
     1
176
     1
290
     0
176
     1
290
     0
176
     1
290
     0
176
     1
290
     0
176
     1
290
     0
176
     1
290
     0
176
     1
 90
       50
176
     1
 40
0.0
176
     1
 40
1.0
176
     1
 90
        0
176
     1
 62
    18
176
     1
 90
       50
176
     1
 90
        3
176
     1
 62
     5
420
      255
176
     1
290
     0
176
     1
 90
       50
176
     1
 90
       50
176
     1
 90
       50
176
     1
290
     0
176
     1
 90
       50
176
     1
 62
   256
176
     0
 40
1.0
176
     0
 90
        2
176
     1
  1
strokes_ogs.tif
176
     1
290
     0
176
     1
 40
1.0
176
     1
 40
1.0
176
     1
  0
VISUALSTYLE
  5
1001F
102
{ACAD_REACTORS
330
1001C
102
}
330
1001C
100
AcDbVisualStyle
  2
Gouraud
 70
     2
177
     3
291
     1
 70
    58
 90
        2
176
     1
 90
        2
176
     1
 90
        1
176
     1
 90
        2
176
     1
 40
0.6
176
     1
 40
30.0
176
     1
 62
     7
420
 16777215
176
     1
 90
        0
176
     1
 90
        0
176
     1
 62
     7
176
     1
 62
   257
176
     1
 90
        1
176
     1
 90
        1
176
     1
 40
1.0
176
     1
 90
        0
176
     1
 62
     7
176
     1
 40
1.0
176
     1
 90
        1
176
     1
 90
        6
176
     1
 90
        2
176
     1
 62
     7
176
     1
 90
        5
176
     1
 90
        0
176
     1
 90
        0
176
     1
290
     0
176
     1
 90
       13
176
     1
 40
0.0
176
     1
 90
        0
176
     1
290
     0
176
     1
290
     1
176
     1
290
     1
176
     1
290
     0
176
     1
290
     0
176
     1
290
     0
176
     1
290
     0
176
     1
290
     0
176
     1
290
     0
176
     1
 90
       50
176
     1
 40
0.0
176
     1
 40
1.0
176
     1
 90
        0
176
     1
 62
    18
176
     1
 90
       50
176
     1
 90
        3
176
     1
 62
     5
420
      255
176
     1
290
     0
176
     1
 90
       50
176
     1
 90
       50
176
     1
 90
       50
176
     1
290
     0
176
     1
 90
       50
176
     1
 62
   256
176
     0
 40
1.0
176
     0
 90
        2
176
     1
  1
strokes_ogs.tif
176
     1
290
     0
176
     1
 40
1.0
176
     1
 40
1.0
176
     1
  0
VISUALSTYLE
  5
10020
102
{ACAD_REACTORS
330
1001C
102
}
330
1001C
100
AcDbVisualStyle
  2
GouraudWithEdges
 70
     3
177
     3
291
     1
 70
    58
 90
        2
176
     1
 90
        2
176
     1
 90
        1
176
     1
 90
        2
176
     1
 40
0.6
176
     1
 40
30.0
176
     1
 62
     7
420
 16777215
176
     1
 90
        1
176
     1
 90
        0
176
     1
 62
     7
176
     1
 62
   257
176
     1
 90
        1
176
     1
 90
        1
176
     1
 40
1.0
176
     1
 90
        0
176
     1
 62
   257
176
     1
 40
1.0
176
     1
 90
        1
176
     1
 90
        6
176
     1
 90
        2
176
     1
 62
     7
176
     1
 90
        5
176
     1
 90
        0
176
     1
 90
        0
176
     1
290
     0
176
     1
 90
       13
176
     1
 40
0.0
176
     1
 90
        0
176
     1
290
     0
176
     1
290
     1
176
     1
290
     1
176
     1
290
     0
176
     1
290
     0
176
     1
290
     0
176
     1
290
     0
176
     1
290
     0
176
     1
290
     0
176
     1
 90
       50
176
     1
 40
0.0
176
     1
 40
1.0
176
     1
 90
        0
176
     1
 62
    18
176
     1
 90
       50
176
     1
 90
        3
176
     1
 62
     5
420
      255
176
     1
290
     0
176
     1
 90
       50
176
     1
 90
       50
176
     1
 90
       50
176
     1
290
     0
176
     1
 90
       50
176
     1
 62
   256
176
     0
 40
1.0
176
     0
 90
        2
176
     1
  1
strokes_ogs.tif
176
     1
290
     0
176
     1
 40
1.0
176
     1
 40
1.0
176
     1
  0
VISUALSTYLE
  5
10024
102
{ACAD_REACTORS
330
1001C
102
}
330
1001C
100
AcDbVisualStyle
  2
Hidden
 70
     6
177
     3
291
     0
 70
    58
 90
        1
176
     1
 90
        2
176
     1
 90
        2
176
     1
 90
        0
176
     1
 40
0.6
176
     1
 40
30.0
176
     1
 62
     7
420
 16777215
176
     1
 90
        2
176
     1
 90
        2
176
     1
 62
     7
176
     1
 62
   257
176
     1
 90
        2
176
     1
 90
        1
176
     1
 40
40.0
176
     1
 90
        0
176
     1
 62
   257
176
     1
 40
1.0
176
     1
 90
        1
176
     1
 90
        6
176
     1
 90
        2
176
     1
 62
     7
176
     1
 90
        3
176
     1
 90
        0
176
     1
 90
        0
176
     1
290
     0
176
     1
 90
        1
176
     1
 40
0.0
176
     1
 90
        0
176
     1
290
     0
176
     1
290
     1
176
     1
290
     1
176
     1
290
     0
176
     1
290
     0
176
     1
290
     0
176
     1
290
     0
176
     1
290
     0
176
     1
290
     0
176
     1
 90
       50
176
     1
 40
0.0
176
     1
 40
1.0
176
     1
 90
        0
176
     1
 62
    18
176
     1
 90
       50
176
     1
 90
        3
176
     1
 62
     5
420
      255
176
     1
290
     0
176
     1
 90
       50
176
     1
 90
       50
176
     1
 90
       50
176
     1
290
     0
176
     1
 90
       50
176
     1
 62
   256
176
     0
 40
1.0
176
     0
 90
        2
176
     1
  1
strokes_ogs.tif
176
     1
290
     0
176
     1
 40
1.0
176
     1
 40
1.0
176
     1
  0
VISUALSTYLE
  5
10032
102
{ACAD_REACTORS
330
1001C
102
}
330
1001C
100
AcDbVisualStyle
  2
JitterOff
 70
    20
177
     3
291
     1
 70
    58
 90
        2
176
     0
 90
        2
176
     0
 90
        0
176
     0
 90
        0
176
     0
 40
0.6
176
     0
 40
30.0
176
     0
 62
     7
420
 16777215
176
     0
 90
        1
176
     0
 90
        4
176
     0
 62
     7
176
     0
 62
   257
176
     0
 90
        1
176
     0
 90
        1
176
     0
 40
1.0
176
     0
 90
       10
176
     2
 62
     7
176
     0
 40
1.0
176
     0
 90
        1
176
     0
 90
        6
176
     0
 90
        2
176
     0
 62
     7
176
     0
 90
        5
176
     0
 90
        0
176
     0
 90
        0
176
     0
290
     0
176
     0
 90
        1
176
     0
 40
0.0
176
     0
 90
        0
176
     0
290
     0
176
     1
290
     1
176
     1
290
     1
176
     1
290
     0
176
     1
290
     0
176
     1
290
     0
176
     1
290
     0
176
     1
290
     0
176
     1
290
     0
176
     1
 90
       50
176
     0
 40
0.0
176
     0
 40
1.0
176
     0
 90
        0
176
     0
 62
    18
176
     0
 90
       50
176
     0
 90
        3
176
     0
 62
     5
420
      255
176
     0
290
     0
176
     1
 90
       50
176
     0
 90
       50
176
     0
 90
       50
176
     0
290
     0
176
     1
 90
       50
176
     0
 62
   256
176
     0
 40
1.0
176
     0
 90
        2
176
     0
  1
strokes_ogs.tif
176
     0
290
     0
176
     1
 40
1.0
176
     0
 40
1.0
176
     0
  0
VISUALSTYLE
  5
1002A
102
{ACAD_REACTORS
330
1001C
102
}
330
1001C
100
AcDbVisualStyle
  2
Linepattern
 70
    14
177
     3
291
     1
 70
    58
 90
        2
176
     1
 90
        2
176
     1
 90
        0
176
     1
 90
        0
176
     1
 40
0.6
176
     1
 40
30.0
176
     1
 62
     7
420
 16777215
176
     1
 90
        1
176
     1
 90
        4
176
     1
 62
     7
176
     1
 62
   257
176
     1
 90
        7
176
     1
 90
        7
176
     1
 40
1.0
176
     1
 90
        8
176
     1
 62
     7
176
     1
 40
1.0
176
     1
 90
        1
176
     1
 90
        6
176
     1
 90
        2
176
     1
 62
     7
176
     1
 90
        5
176
     1
 90
        0
176
     1
 90
        0
176
     1
290
     0
176
     1
 90
        1
176
     1
 40
0.0
176
     1
 90
        0
176
     1
290
     0
176
     1
290
     1
176
     1
290
     1
176
     1
290
     0
176
     1
290
     0
176
     1
290
     0
176
     1
290
     0
176
     1
290
     0
176
     1
290
     0
176
     1
 90
       50
176
     1
 40
0.0
176
     1
 40
1.0
176
     1
 90
        0
176
     1
 62
    18
176
     1
 90
       50
176
     1
 90
        3
176
     1
 62
     5
420
      255
176
     1
290
     0
176
     1
 90
       50
176
     1
 90
       50
176
     1
 90
       50
176
     1
290
     0
176
     1
 90
       50
176
     1
 62
   256
176
     0
 40
1.0
176
     0
 90
        2
176
     1
  1
strokes_ogs.tif
176
     1
290
     0
176
     1
 40
1.0
176
     1
 40
1.0
176
     1
  0
VISUALSTYLE
  5
10033
102
{ACAD_REACTORS
330
1001C
102
}
330
1001C
100
AcDbVisualStyle
  2
OverhangOff
 70
    21
177
     3
291
     1
 70
    58
 90
        2
176
     0
 90
        2
176
     0
 90
        0
176
     0
 90
        0
176
     0
 40
0.6
176
     0
 40
30.0
176
     0
 62
     7
420
 16777215
176
     0
 90
        1
176
     0
 90
        4
176
     0
 62
     7
176
     0
 62
   257
176
     0
 90
        1
176
     0
 90
        1
176
     0
 40
1.0
176
     0
 90
        9
176
     2
 62
     7
176
     0
 40
1.0
176
     0
 90
        1
176
     0
 90
        6
176
     0
 90
        2
176
     0
 62
     7
176
     0
 90
        5
176
     0
 90
        0
176
     0
 90
        0
176
     0
290
     0
176
     0
 90
        1
176
     0
 40
0.0
176
     0
 90
        0
176
     0
290
     0
176
     1
290
     1
176
     1
290
     1
176
     1
290
     0
176
     1
290
     0
176
     1
290
     0
176
     1
290
     0
176
     1
290
     0
176
     1
290
     0
176
     1
 90
       50
176
     0
 40
0.0
176
     0
 40
1.0
176
     0
 90
        0
176
     0
 62
    18
176
     0
 90
       50
176
     0
 90
        3
176
     0
 62
     5
420
      255
176
     0
290
     0
176
     1
 90
       50
176
     0
 90
       50
176
     0
 90
       50
176
     0
290
     0
176
     1
 90
       50
176
     0
 62
   256
176
     0
 40
1.0
176
     0
 90
        2
176
     0
  1
strokes_ogs.tif
176
     0
290
     0
176
     1
 40
1.0
176
     0
 40
1.0
176
     0
  0
VISUALSTYLE
  5
10026
102
{ACAD_REACTORS
330
1001C
102
}
330
1001C
100
AcDbVisualStyle
  2
Realistic
 70
     8
177
     3
291
     0
 70
    58
 90
        2
176
     1
 90
        3
176
     1
 90
        0
176
     1
 90
        2
176
     1
 40
0.6
176
     1
 40
30.0
176
     1
 62
     7
420
 16777215
176
     1
 90
        0
176
     1
 90
        0
176
     1
 62
     7
176
     1
 62
   257
176
     1
 90
        1
176
     1
 90
        1
176
     1
 40
1.0
176
     1
 90
        8
176
     1
 62
   257
176
     1
 40
1.0
176
     1
 90
        1
176
     1
 90
        6
176
     1
 90
        2
176
     1
 62
     7
176
     1
 90
        3
176
     1
 90
        0
176
     1
 90
        0
176
     1
290
     0
176
     1
 90
       13
176
     1
 40
0.0
176
     1
 90
        0
176
     1
290
     0
176
     1
290
     1
176
     1
290
     1
176
     1
290
     0
176
     1
290
     0
176
     1
290
     0
176
     1
290
     0
176
     1
290
     0
176
     1
290
     0
176
     1
 90
       50
176
     1
 40
0.0
176
     1
 40
1.0
176
     1
 90
        0
176
     1
 62
    18
176
     1
 90
       50
176
     1
 90
        3
176
     1
 62
     5
420
      255
176
     1
290
     0
176
     1
 90
       50
176
     1
 90
       50
176
     1
 90
       50
176
     1
290
     0
176
     1
 90
       50
176
     1
 62
   256
176
     0
 40
1.0
176
     0
 90
        2
176
     1
  1
strokes_ogs.tif
176
     1
290
     0
176
     1
 40
1.0
176
     1
 40
1.0
176
     1
  0
VISUALSTYLE
  5
10031
102
{ACAD_REACTORS
330
1001C
102
}
330
1001C
100
AcDbVisualStyle
  2
Shaded
 70
    27
177
     3
291
     0
 70
    58
 90
        2
176
     1
 90
        2
176
     1
 90
        1
176
     1
 90
        2
176
     1
 40
0.6
176
     1
 40
30.0
176
     1
 62
     7
420
 16777215
176
     1
 90
        0
176
     1
 90
        4
176
     1
 62
     7
176
     1
 62
   257
176
     1
 90
        1
176
     1
 90
        1
176
     1
 40
1.0
176
     1
 90
        8
176
     1
 62
   257
176
     1
 40
1.0
176
     1
 90
        1
176
     1
 90
        6
176
     1
 90
        2
176
     1
 62
     8
420
  7895160
176
     1
 90
        3
176
     1
 90
        0
176
     1
 90
        0
176
     1
290
     0
176
     1
 90
        5
176
     1
 40
0.0
176
     1
 90
        0
176
     1
290
     0
176
     1
290
     1
176
     1
290
     1
176
     1
290
     0
176
     1
290
     0
176
     1
290
     0
176
     1
290
     0
176
     1
290
     0
176
     1
290
     0
176
     1
 90
       50
176
     1
 40
0.0
176
     1
 40
1.0
176
     1
 90
        0
176
     1
 62
    18
176
     1
 90
       50
176
     1
 90
        3
176
     1
 62
     5
420
      255
176
     1
290
     0
176
     1
 90
       50
176
     1
 90
       50
176
     1
 90
       50
176
     1
290
     0
176
     1
 90
       50
176
     1
 62
   256
176
     0
 40
1.0
176
     0
 90
        2
176
     1
  1
strokes_ogs.tif
176
     1
290
     0
176
     1
 40
1.0
176
     1
 40
1.0
176
     1
  0
VISUALSTYLE
  5
10030
102
{ACAD_REACTORS
330
1001C
102
}
330
1001C
100
AcDbVisualStyle
  2
Shaded with edges
 70
    26
177
     3
291
     0
 70
    58
 90
        2
176
     1
 90
        2
176
     1
 90
        1
176
     1
 90
        2
176
     1
 40
0.6
176
     1
 40
30.0
176
     1
 62
     7
420
 16777215
176
     1
 90
        1
176
     1
 90
        2
176
     1
 62
     7
176
     1
 62
   257
176
     1
 90
        2
176
     1
 90
        1
176
     1
 40
1.0
176
     1
 90
        8
176
     1
 62
   257
176
     1
 40
1.0
176
     1
 90
        1
176
     1
 90
        6
176
     1
 90
        2
176
     1
 62
     7
176
     1
 90
        3
176
     1
 90
        0
176
     1
 90
        0
176
     1
290
     0
176
     1
 90
        5
176
     1
 40
0.0
176
     1
 90
        0
176
     1
290
     0
176
     1
290
     1
176
     1
290
     1
176
     1
290
     0
176
     1
290
     0
176
     1
290
     0
176
     1
290
     0
176
     1
290
     0
176
     1
290
     0
176
     1
 90
       50
176
     1
 40
0.0
176
     1
 40
1.0
176
     1
 90
        0
176
     1
 62
    18
176
     1
 90
       50
176
     1
 90
        3
176
     1
 62
     5
420
      255
176
     1
290
     0
176
     1
 90
       50
176
     1
 90
       50
176
     1
 90
       50
176
     1
290
     0
176
     1
 90
       50
176
     1
 62
   256
176
     0
 40
1.0
176
     0
 90
        2
176
     1
  1
strokes_ogs.tif
176
     1
290
     0
176
     1
 40
1.0
176
     1
 40
1.0
176
     1
  0
VISUALSTYLE
  5
1002D
102
{ACAD_REACTORS
330
1001C
102
}
330
1001C
100
AcDbVisualStyle
  2
Shades of Gray
 70
    23
177
     3
291
     0
 70
    58
 90
        2
176
     1
 90
        2
176
     1
 90
        3
176
     1
 90
        0
176
     1
 40
0.6
176
     1
 40
30.0
176
     1
 62
     7
420
 16777215
176
     1
 90
        2
176
     1
 90
        2
176
     1
 62
     7
176
     1
 62
     7
176
     1
 90
        1
176
     1
 90
        1
176
     1
 40
40.0
176
     1
 90
        8
176
     1
 62
     7
176
     1
 40
1.0
176
     1
 90
        1
176
     1
 90
        6
176
     1
 90
        2
176
     1
 62
     7
176
     1
 90
        3
176
     1
 90
        0
176
     1
 90
        0
176
     1
290
     0
176
     1
 90
        1
176
     1
 40
0.0
176
     1
 90
        0
176
     1
290
     0
176
     1
290
     1
176
     1
290
     1
176
     1
290
     0
176
     1
290
     0
176
     1
290
     0
176
     1
290
     0
176
     1
290
     0
176
     1
290
     0
176
     1
 90
       50
176
     1
 40
0.0
176
     1
 40
1.0
176
     1
 90
        0
176
     1
 62
    18
176
     1
 90
       50
176
     1
 90
        3
176
     1
 62
     5
420
      255
176
     1
290
     0
176
     1
 90
       50
176
     1
 90
       50
176
     1
 90
       50
176
     1
290
     0
176
     1
 90
       50
176
     1
 62
   256
176
     0
 40
1.0
176
     0
 90
        2
176
     1
  1
strokes_ogs.tif
176
     1
290
     0
176
     1
 40
1.0
176
     1
 40
1.0
176
     1
  0
VISUALSTYLE
  5
1002E
102
{ACAD_REACTORS
330
1001C
102
}
330
1001C
100
AcDbVisualStyle
  2
Sketchy
 70
    24
177
     3
291
     0
 70
    58
 90
        1
176
     1
 90
        2
176
     1
 90
        2
176
     1
 90
        0
176
     1
 40
0.6
176
     1
 40
30.0
176
     1
 62
     7
420
 16777215
176
     1
 90
        2
176
     1
 90
        2
176
     1
 62
     7
176
     1
 62
     7
176
     1
 90
        1
176
     1
 90
        1
176
     1
 40
40.0
176
     1
 90
       11
176
     1
 62
     7
176
     1
 40
1.0
176
     1
 90
        1
176
     1
 90
        6
176
     1
 90
        2
176
     1
 62
     7
176
     1
 90
        6
176
     1
 90
        0
176
     1
 90
        0
176
     1
290
     0
176
     1
 90
        1
176
     1
 40
0.0
176
     1
 90
        0
176
     1
290
     0
176
     1
290
     1
176
     1
290
     1
176
     1
290
     0
176
     1
290
     0
176
     1
290
     0
176
     1
290
     0
176
     1
290
     0
176
     1
290
     0
176
     1
 90
       50
176
     1
 40
0.0
176
     1
 40
1.0
176
     1
 90
        0
176
     1
 62
    18
176
     1
 90
       50
176
     1
 90
        3
176
     1
 62
     5
420
      255
176
     1
290
     0
176
     1
 90
       50
176
     1
 90
       50
176
     1
 90
       50
176
     1
290
     0
176
     1
 90
       50
176
     1
 62
   256
176
     0
 40
1.0
176
     0
 90
        2
176
     1
  1
strokes_ogs.tif
176
     1
290
     0
176
     1
 40
1.0
176
     1
 40
1.0
176
     1
  0
VISUALSTYLE
  5
10029
102
{ACAD_REACTORS
330
1001C
102
}
330
1001C
100
AcDbVisualStyle
  2
Thicken
 70
    13
177
     3
291
     1
 70
    58
 90
        2
176
     1
 90
        2
176
     1
 90
        0
176
     1
 90
        0
176
     1
 40
0.6
176
     1
 40
30.0
176
     1
 62
     7
420
 16777215
176
     1
 90
        1
176
     1
 90
        4
176
     1
 62
     7
176
     1
 62
   257
176
     1
 90
        1
176
     1
 90
        1
176
     1
 40
1.0
176
     1
 90
       12
176
     1
 62
     7
176
     1
 40
1.0
176
     1
 90
        1
176
     1
 90
        6
176
     1
 90
        2
176
     1
 62
     7
176
     1
 90
        5
176
     1
 90
        0
176
     1
 90
        0
176
     1
290
     0
176
     1
 90
        1
176
     1
 40
0.0
176
     1
 90
        0
176
     1
290
     0
176
     1
290
     1
176
     1
290
     1
176
     1
290
     0
176
     1
290
     0
176
     1
290
     0
176
     1
290
     0
176
     1
290
     0
176
     1
290
     0
176
     1
 90
       50
176
     1
 40
0.0
176
     1
 40
1.0
176
     1
 90
        0
176
     1
 62
    18
176
     1
 90
       50
176
     1
 90
        3
176
     1
 62
     5
420
      255
176
     1
290
     0
176
     1
 90
       50
176
     1
 90
       50
176
     1
 90
       50
176
     1
290
     0
176
     1
 90
       50
176
     1
 62
   256
176
     0
 40
1.0
176
     0
 90
        2
176
     1
  1
strokes_ogs.tif
176
     1
290
     0
176
     1
 40
1.0
176
     1
 40
1.0
176
     1
  0
VISUALSTYLE
  5
10023
102
{ACAD_REACTORS
330
1001C
102
}
330
1001C
100
AcDbVisualStyle
  2
Wireframe
 70
     5
177
     3
291
     0
 70
    58
 90
        0
176
     1
 90
        2
176
     1
 90
        0
176
     1
 90
        0
176
     1
 40
0.6
176
     1
 40
30.0
176
     1
 62
     7
420
 16777215
176
     1
 90
        1
176
     1
 90
        4
176
     1
 62
     7
176
     1
 62
   257
176
     1
 90
        1
176
     1
 90
        1
176
     1
 40
1.0
176
     1
 90
        0
176
     1
 62
   257
176
     1
 40
1.0
176
     1
 90
        1
176
     1
 90
        6
176
     1
 90
        2
176
     1
 62
     7
176
     1
 90
        3
176
     1
 90
        0
176
     1
 90
        0
176
     1
290
     0
176
     1
 90
        1
176
     1
 40
0.0
176
     1
 90
        0
176
     1
290
     0
176
     1
290
     1
176
     1
290
     1
176
     1
290
     0
176
     1
290
     0
176
     1
290
     0
176
     1
290
     0
176
     1
290
     0
176
     1
290
     0
176
     1
 90
       50
176
     1
 40
0.0
176
     1
 40
1.0
176
     1
 90
        0
176
     1
 62
    18
176
     1
 90
       50
176
     1
 90
        3
176
     1
 62
     5
420
      255
176
     1
290
     0
176
     1
 90
       50
176
     1
 90
       50
176
     1
 90
       50
176
     1
290
     0
176
     1
 90
       50
176
     1
 62
   256
176
     0
 40
1.0
176
     0
 90
        2
176
     1
  1
strokes_ogs.tif
176
     1
290
     0
176
     1
 40
1.0
176
     1
 40
1.0
176
     1
  0
VISUALSTYLE
  5
1002F
102
{ACAD_REACTORS
330
1001C
102
}
330
1001C
100
AcDbVisualStyle
  2
X-Ray
 70
    25
177
     3
291
     0
 70
    58
 90
        2
176
     1
 90
        2
176
     1
 90
        1
176
     1
 90
        1
176
     1
 40
0.5
176
     1
 40
30.0
176
     1
 62
     7
420
 16777215
176
     1
 90
        1
176
     1
 90
        0
176
     1
 62
     7
176
     1
 62
   257
176
     1
 90
        1
176
     1
 90
        1
176
     1
 40
1.0
176
     1
 90
        8
176
     1
 62
     7
176
     1
 40
1.0
176
     1
 90
        1
176
     1
 90
        6
176
     1
 90
        2
176
     1
 62
     7
176
     1
 90
        3
176
     1
 90
        0
176
     1
 90
        0
176
     1
290
     0
176
     1
 90
       13
176
     1
 40
0.0
176
     1
 90
        0
176
     1
290
     0
176
     1
290
     1
176
     1
290
     1
176
     1
290
     0
176
     1
290
     0
176
     1
290
     0
176
     1
290
     0
176
     1
290
     0
176
     1
290
     0
176
     1
 90
       50
176
     1
 40
0.0
176
     1
 40
1.0
176
     1
 90
        0
176
     1
 62
    18
176
     1
 90
       50
176
     1
 90
        3
176
     1
 62
     5
420
      255
176
     1
290
     0
176
     1
 90
       50
176
     1
 90
       50
176
     1
 90
       50
176
     1
290
     0
176
     1
 90
       50
176
     1
 62
   256
176
     0
 40
1.0
176
     0
 90
        2
176
     1
  1
strokes_ogs.tif
176
     1
290
     0
176
     1
 40
1.0
176
     1
 40
1.0
176
     1
  0
DICTIONARYVAR
  5
10066
102
{ACAD_REACTORS
330
10060
102
}
330
10060
100
DictionaryVariables
280
     0
  1
1:1
  0
DICTIONARYVAR
  5
10062
102
{ACAD_REACTORS
330
10060
102
}
330
10060
100
DictionaryVariables
280
     0
  1
STANDARD
  0
DICTIONARYVAR
  5
10061
102
{ACAD_REACTORS
330
10060
102
}
330
10060
100
DictionaryVariables
280
     0
  1
STANDARD
  0
DICTIONARYVAR
  5
10063
102
{ACAD_REACTORS
330
10060
102
}
330
10060
100
DictionaryVariables
280
     0
  1
Metric50
  0
DICTIONARYVAR
  5
10064
102
{ACAD_REACTORS
330
10060
102
}
330
10060
100
DictionaryVariables
280
     0
  1
Metric50
  0
DICTIONARYVAR
  5
100E9
102
{ACAD_REACTORS
330
10060
102
}
330
10060
100
DictionaryVariables
280
     0
  1
BYLAYER
  0
DICTIONARYVAR
  5
100E8
102
{ACAD_REACTORS
330
10060
102
}
330
10060
100
DictionaryVariables
280
     0
  1
ByLayer
  0
DICTIONARYVAR
  5
10068
102
{ACAD_REACTORS
330
10060
102
}
330
10060
100
DictionaryVariables
280
     0
  1
1
  0
DICTIONARYVAR
  5
10069
102
{ACAD_REACTORS
330
10060
102
}
330
10060
100
DictionaryVariables
280
     0
  1
15
  0
DICTIONARYVAR
  5
10067
102
{ACAD_REACTORS
330
10060
102
}
330
10060
100
DictionaryVariables
280
     0
  1
0
  0
DICTIONARYVAR
  5
10065
102
{ACAD_REACTORS
330
10060
102
}
330
10060
100
DictionaryVariables
280
     0
  1
0
  0
DICTIONARY
  5
1000D
330
1000C
100
AcDbDictionary
280
     1
281
     1
  3
BUMPTILE
360
1000F
  3
DIFFUSETILE
360
1000E
  3
OPACITYTILE
360
10012
  3
REFLECTIONTILE
360
10011
  3
REFRACTIONTILE
360
10013
  3
SPECULARTILE
360
10010
  0
DICTIONARY
  5
10005
330
10004
100
AcDbDictionary
280
     1
281
     1
  3
BUMPTILE
360
10007
  3
DIFFUSETILE
360
10006
  3
OPACITYTILE
360
1000A
  3
REFLECTIONTILE
360
10009
  3
REFRACTIONTILE
360
1000B
  3
SPECULARTILE
360
10008
  0
DICTIONARY
  5
10015
330
10014
100
AcDbDictionary
280
     1
281
     1
  3
BUMPTILE
360
10017
  3
DIFFUSETILE
360
10016
  3
OPACITYTILE
360
1001A
  3
REFLECTIONTILE
360
10019
  3
REFRACTIONTILE
360
1001B
  3
SPECULARTILE
360
10018
  0
DICTIONARY
  5
1010B
330
10038
100
AcDbDictionary
280
     1
281
     1
  3
ACAD_ROUNDTRIP_2008_TABLESTYLE_CELLSTYLEMAP
360
10181
  0
XRECORD
  5
1000F
102
{ACAD_REACTORS
330
1000D
102
}
330
1000D
100
AcDbXrecord
280
     1
270
     1
271
     1
  0
XRECORD
  5
1000E
102
{ACAD_REACTORS
330
1000D
102
}
330
1000D
100
AcDbXrecord
280
     1
270
     1
271
     1
  0
XRECORD
  5
10012
102
{ACAD_REACTORS
330
1000D
102
}
330
1000D
100
AcDbXrecord
280
     1
270
     1
271
     1
  0
XRECORD
  5
10011
102
{ACAD_REACTORS
330
1000D
102
}
330
1000D
100
AcDbXrecord
280
     1
270
     1
271
     1
  0
XRECORD
  5
10013
102
{ACAD_REACTORS
330
1000D
102
}
330
1000D
100
AcDbXrecord
280
     1
270
     1
271
     1
  0
XRECORD
  5
10010
102
{ACAD_REACTORS
330
1000D
102
}
330
1000D
100
AcDbXrecord
280
     1
270
     1
271
     1
  0
XRECORD
  5
10007
102
{ACAD_REACTORS
330
10005
102
}
330
10005
100
AcDbXrecord
280
     1
270
     1
271
     1
  0
XRECORD
  5
10006
102
{ACAD_REACTORS
330
10005
102
}
330
10005
100
AcDbXrecord
280
     1
270
     1
271
     1
  0
XRECORD
  5
1000A
102
{ACAD_REACTORS
330
10005
102
}
330
10005
100
AcDbXrecord
280
     1
270
     1
271
     1
  0
XRECORD
  5
10009
102
{ACAD_REACTORS
330
10005
102
}
330
10005
100
AcDbXrecord
280
     1
270
     1
271
     1
  0
XRECORD
  5
1000B
102
{ACAD_REACTORS
330
10005
102
}
330
10005
100
AcDbXrecord
280
     1
270
     1
271
     1
  0
XRECORD
  5
10008
102
{ACAD_REACTORS
330
10005
102
}
330
10005
100
AcDbXrecord
280
     1
270
     1
271
     1
  0
XRECORD
  5
10017
102
{ACAD_REACTORS
330
10015
102
}
330
10015
100
AcDbXrecord
280
     1
270
     1
271
     1
  0
XRECORD
  5
10016
102
{ACAD_REACTORS
330
10015
102
}
330
10015
100
AcDbXrecord
280
     1
270
     1
271
     1
  0
XRECORD
  5
1001A
102
{ACAD_REACTORS
330
10015
102
}
330
10015
100
AcDbXrecord
280
     1
270
     1
271
     1
  0
XRECORD
  5
10019
102
{ACAD_REACTORS
330
10015
102
}
330
10015
100
AcDbXrecord
280
     1
270
     1
271
     1
  0
XRECORD
  5
1001B
102
{ACAD_REACTORS
330
10015
102
}
330
10015
100
AcDbXrecord
280
     1
270
     1
271
     1
  0
XRECORD
  5
10018
102
{ACAD_REACTORS
330
10015
102
}
330
10015
100
AcDbXrecord
280
     1
270
     1
271
     1
  0
CELLSTYLEMAP
  5
10181
102
{ACAD_REACTORS
330
1010B
102
}
330
1010B
100
AcDbCellStyleMap
 90
        3
300
CELLSTYLE
  1
TABLEFORMAT_BEGIN
 90
        5
170
     1
 91
        0
 92
    32768
 62
   257
 93
        1
300
CONTENTFORMAT
  1
CONTENTFORMAT_BEGIN
 90
        0
 91
        0
 92
      512
 93
        0
300

 40
0.0
140
1.0
 94
        5
 62
     0
340
11
144
6.0
309
CONTENTFORMAT_END
171
     1
301
MARGIN
  1
CELLMARGIN_BEGIN
 40
1.5
 40
1.5
 40
1.5
 40
1.5
 40
0.18
 40
0.18
309
CELLMARGIN_END
 94
        6
 95
        1
302
GRIDFORMAT
  1
GRIDFORMAT_BEGIN
 90
        0
 91
        1
 62
     0
 92
       -2
340
0
 93
        0
 40
1.125
309
GRIDFORMAT_END
 95
        2
302
GRIDFORMAT
  1
GRIDFORMAT_BEGIN
 90
        0
 91
        1
 62
     0
 92
       -2
340
0
 93
        0
 40
1.125
309
GRIDFORMAT_END
 95
        4
302
GRIDFORMAT
  1
GRIDFORMAT_BEGIN
 90
        0
 91
        1
 62
     0
 92
       -2
340
0
 93
        0
 40
1.125
309
GRIDFORMAT_END
 95
        8
302
GRIDFORMAT
  1
GRIDFORMAT_BEGIN
 90
        0
 91
        1
 62
     0
 92
       -2
340
0
 93
        0
 40
1.125
309
GRIDFORMAT_END
 95
       16
302
GRIDFORMAT
  1
GRIDFORMAT_BEGIN
 90
        0
 91
        1
 62
     0
 92
       -2
340
0
 93
        0
 40
1.125
309
GRIDFORMAT_END
 95
       32
302
GRIDFORMAT
  1
GRIDFORMAT_BEGIN
 90
        0
 91
        1
 62
     0
 92
       -2
340
0
 93
        0
 40
1.125
309
GRIDFORMAT_END
309
TABLEFORMAT_END
  1
CELLSTYLE_BEGIN
 90
        1
 91
        1
300
_TITLE
309
CELLSTYLE_END
300
CELLSTYLE
  1
TABLEFORMAT_BEGIN
 90
        5
170
     1
 91
        0
 92
        0
 62
   257
 93
        1
300
CONTENTFORMAT
  1
CONTENTFORMAT_BEGIN
 90
        0
 91
        0
 92
      512
 93
        0
300

 40
0.0
140
1.0
 94
        5
 62
     0
340
11
144
4.5
309
CONTENTFORMAT_END
171
     1
301
MARGIN
  1
CELLMARGIN_BEGIN
 40
1.5
 40
1.5
 40
1.5
 40
1.5
 40
0.18
 40
0.18
309
CELLMARGIN_END
 94
        6
 95
        1
302
GRIDFORMAT
  1
GRIDFORMAT_BEGIN
 90
        0
 91
        1
 62
     0
 92
       -2
340
0
 93
        0
 40
1.125
309
GRIDFORMAT_END
 95
        2
302
GRIDFORMAT
  1
GRIDFORMAT_BEGIN
 90
        0
 91
        1
 62
     0
 92
       -2
340
0
 93
        0
 40
1.125
309
GRIDFORMAT_END
 95
        4
302
GRIDFORMAT
  1
GRIDFORMAT_BEGIN
 90
        0
 91
        1
 62
     0
 92
       -2
340
0
 93
        0
 40
1.125
309
GRIDFORMAT_END
 95
        8
302
GRIDFORMAT
  1
GRIDFORMAT_BEGIN
 90
        0
 91
        1
 62
     0
 92
       -2
340
0
 93
        0
 40
1.125
309
GRIDFORMAT_END
 95
       16
302
GRIDFORMAT
  1
GRIDFORMAT_BEGIN
 90
        0
 91
        1
 62
     0
 92
       -2
340
0
 93
        0
 40
1.125
309
GRIDFORMAT_END
 95
       32
302
GRIDFORMAT
  1
GRIDFORMAT_BEGIN
 90
        0
 91
        1
 62
     0
 92
       -2
340
0
 93
        0
 40
1.125
309
GRIDFORMAT_END
309
TABLEFORMAT_END
  1
CELLSTYLE_BEGIN
 90
        2
 91
        1
300
_HEADER
309
CELLSTYLE_END
300
CELLSTYLE
  1
TABLEFORMAT_BEGIN
 90
        5
170
     1
 91
        0
 92
        0
 62
   257
 93
        1
300
CONTENTFORMAT
  1
CONTENTFORMAT_BEGIN
 90
        0
 91
        0
 92
      512
 93
        0
300

 40
0.0
140
1.0
 94
        2
 62
     0
340
11
144
4.5
309
CONTENTFORMAT_END
171
     1
301
MARGIN
  1
CELLMARGIN_BEGIN
 40
1.5
 40
1.5
 40
1.5
 40
1.5
 40
0.18
 40
0.18
309
CELLMARGIN_END
 94
        6
 95
        1
302
GRIDFORMAT
  1
GRIDFORMAT_BEGIN
 90
        0
 91
        1
 62
     0
 92
       -2
340
0
 93
        0
 40
1.125
309
GRIDFORMAT_END
 95
        2
302
GRIDFORMAT
  1
GRIDFORMAT_BEGIN
 90
        0
 91
        1
 62
     0
 92
       -2
340
0
 93
        0
 40
1.125
309
GRIDFORMAT_END
 95
        4
302
GRIDFORMAT
  1
GRIDFORMAT_BEGIN
 90
        0
 91
        1
 62
     0
 92
       -2
340
0
 93
        0
 40
1.125
309
GRIDFORMAT_END
 95
        8
302
GRIDFORMAT
  1
GRIDFORMAT_BEGIN
 90
        0
 91
        1
 62
     0
 92
       -2
340
0
 93
        0
 40
1.125
309
GRIDFORMAT_END
 95
       16
302
GRIDFORMAT
  1
GRIDFORMAT_BEGIN
 90
        0
 91
        1
 62
     0
 92
       -2
340
0
 93
        0
 40
1.125
309
GRIDFORMAT_END
 95
       32
302
GRIDFORMAT
  1
GRIDFORMAT_BEGIN
 90
        0
 91
        1
 62
     0
 92
       -2
340
0
 93
        0
 40
1.125
309
GRIDFORMAT_END
309
TABLEFORMAT_END
  1
CELLSTYLE_BEGIN
 90
        3
 91
        2
300
_DATA
309
CELLSTYLE_END
  0
ENDSEC
  0
SECTION
  2
ACDSDATA
 70
     2
 71
     8
  0
ACDSSCHEMA
 90
        0
  1
AcDb_Thumbnail_Schema
  2
AcDbDs::ID
280
    10
 91
        8
  2
Thumbnail_Data
280
    15
 91
        0
101
ACDSRECORD
 95
        0
 90
        1
  2
AcDbDs::TreatedAsObjectData
280
     1
291
     1
101
ACDSRECORD
 95
        0
 90
        2
  2
AcDbDs::Legacy
280
     1
291
     1
101
ACDSRECORD
  1
AcDbDs::ID
 90
        3
  2
AcDs:Indexable
280
     1
291
     1
101
ACDSRECORD
  1
AcDbDs::ID
 90
        4
  2
AcDbDs::HandleAttribute
280
     7
282
     1
  0
ACDSSCHEMA
 90
        1
  1
AcDbDs::TreatedAsObjectDataSchema
  2
AcDbDs::TreatedAsObjectData
280
     1
 91
        0
  0
ACDSSCHEMA
 90
        2
  1
AcDbDs::LegacySchema
  2
AcDbDs::Legacy
280
     1
 91
        0
  0
ACDSSCHEMA
 90
        3
  1
AcDbDs::IndexedPropertySchema
  2
AcDs:Indexable
280
     1
 91
        0
  0
ACDSSCHEMA
 90
        4
  1
AcDbDs::HandleAttributeSchema
  2
AcDbDs::HandleAttribute
280
     7
 91
        1
284
     1
  0
ACDSRECORD
 90
        0
  2
AcDbDs::ID
280
    10
320
10052
  2
Thumbnail_Data
280
    15
 94
     1682
310
89504E470D0A1A0A0000000D49484452000001000000008108030000001837949D00000300504C5445212830FFFFFF2128300000000000000000000000000000000000000000000000000000330000660000990000CC0000FF0033000033330033660033990033CC0033FF0066000066330066660066990066CC0066FF0099
310
000099330099660099990099CC0099FF00CC0000CC3300CC6600CC9900CCCC00CCFF00FF0000FF3300FF6600FF9900FFCC00FFFF3300003300333300663300993300CC3300FF3333003333333333663333993333CC3333FF3366003366333366663366993366CC3366FF3399003399333399663399993399CC3399FF33CC00
310
33CC3333CC6633CC9933CCCC33CCFF33FF0033FF3333FF6633FF9933FFCC33FFFF6600006600336600666600996600CC6600FF6633006633336633666633996633CC6633FF6666006666336666666666996666CC6666FF6699006699336699666699996699CC6699FF66CC0066CC3366CC6666CC9966CCCC66CCFF66FF0066
310
FF3366FF6666FF9966FFCC66FFFF9900009900339900669900999900CC9900FF9933009933339933669933999933CC9933FF9966009966339966669966999966CC9966FF9999009999339999669999999999CC9999FF99CC0099CC3399CC6699CC9999CCCC99CCFF99FF0099FF3399FF6699FF9999FFCC99FFFFCC0000CC00
310
33CC0066CC0099CC00CCCC00FFCC3300CC3333CC3366CC3399CC33CCCC33FFCC6600CC6633CC6666CC6699CC66CCCC66FFCC9900CC9933CC9966CC9999CC99CCCC99FFCCCC00CCCC33CCCC66CCCC99CCCCCCCCCCFFCCFF00CCFF33CCFF66CCFF99CCFFCCCCFFFFFF0000FF0033FF0066FF0099FF00CCFF00FFFF3300FF3333
310
FF3366FF3399FF33CCFF33FFFF6600FF6633FF6666FF6699FF66CCFF66FFFF9900FF9933FF9966FF9999FF99CCFF99FFFFCC00FFCC33FFCC66FFCC99FFCCCCFFCCFFFFFF00FFFF33FFFF66FFFF99FFFFCCFFFFFF0000000D0D0D1A1A1A2828283535354343435050505D5D5D6B6B6B787878868686939393A1A1A1AEAEAEBB
310
BBBBC9C9C9D6D6D6E4E4E4F1F1F1FFFFFF0000000000000000000000000000000000000000000000000000000000002E4550F10000033B4944415478DAED9B518EEB200C45BD15F6BF2BEFE1FEBF3680B109CC549AF7919A7BA4699B341AC527061C42450821841042082184104208791CAA18E871D15F510FAEADA3C2D71B
310
07E5C12AFCE640F3C68C62975FF70059E32FA519B0F8E17B41A720A58062027AFCAF98FDD51E129035FE26A087A99B9E1179051458026CA24C3B10D4F8DF025AFC560AA975007D8FA44E80107FAB7E9A85D465D04A40ED0743099057C132FE5B3594B70A8A09806D2DAC590D98809100560CC43A286933B0311076955F6FEF
310
0DC1747790D3C0BD05D4CF124AC15E07EA092DA0C5BCBA454C68602BE09629491BC1C702FA017A9E80D63722E760F8BB00BD0685D108F2D741B7BB40D5C40626015867406DFB8905BC06BD7A2B2058777E57DC40C63630CD06EC0C404D45EEBB61FD3105D2B601585B5F553A96FAB97BC16E605303A5151053605DEBF61A21
310
792520DB5A3FB980CB80B4B930394F804B815FEE83D20AF8D5407201660071EC7BEF3D6114B046608F88EB84501906A20091C406BA8260247B0BF0068ACD85D7F88F11300C38E01340930B90825981BFFE2620F352A9A800BE073C2001FAD8D7248C6553E32639B180ABD7DB6CCC9301299F8E6DD7C0F935439AB70BC0580D
310
EA93C23D14952620E903E2B13852FC2371C4A511D77441CE75828A1F96878EA4CFBC5676BB4038C49C7BC538160E0EFBA580C655C187FD48C017013834784208218490B4355E7F1DD33DB5F21BDF5A25188EF1DFAFFEA708BE227EAD731C2E983AD50FBFAFCF00C207FE9E206C47B5F9B2B85BA2C467C6AFE3CCD19E6EF990
310
6E19506EC75C473901287D4B6AC63C5B005C404140DDC694EA4DC0F5165A89BDF6BDF508C1F30558B2A21AC05A40BBC4C5BDC2399C05588E3C5C80B41FC3B6D355D849E3DE07F4FC9E029B0588CF23B7E7C94960A7AB90B580910105107C9A01633C7976473804681C11567DC0F5F7691FD09ACBD3677AC6F5925940ECE76B
310
5CF328309513F03D8B0D1C4F16301256FCE7950097E06EC00F79F05575C05F4FEFE74A50BEA720248BCB18523B340FDF68FC0159058CCA761630C683E402EE65E328741E5FEBFD1701BD7B9F0558369CD404561990B209843BFC9D8070C0C9A30521841042082184104208218410420821841042C827FC03BA6CC5D2E613D5
310
C00000000049454E44AE426082FCEF172551F40000000049454E44AE426082
  0
ENDSEC
  0
EOF
