<?xml version="1.0" encoding="UTF-8" standalone="no"?>
<!DOCTYPE svg PUBLIC "-//W3C//DTD SVG 1.1//EN" "http://www.w3.org/Graphics/SVG/1.1/DTD/svg11.dtd">
<svg xmlns="http://www.w3.org/2000/svg" xmlns:xl="http://www.w3.org/1999/xlink" xmlns:dc="http://purl.org/dc/elements/1.1/" version="1.1" viewBox="-49.86772 -49.86772 699.8677 699.8677" width="699.8677" height="699.8677">
  <defs/>
  <g id="Canvas_1" stroke-opacity="1" fill="none" stroke="none" fill-opacity="1" stroke-dasharray="none">
    <title>Canvas 1</title>
    <g id="Canvas_1_Layer_2">
      <title>Layer 2</title>
      <g id="Group_7">
        <title>layer1</title>
        <g id="Graphic_11">
          <title>path5560</title>
          <path d="M 355.4067 453.7318 C 337.17558 470.83584 315.0013 483.17105 290.85467 489.6411 C 232.54192 505.266 170.41056 497.0862 118.12879 466.9013 C 65.84702 436.7164 27.697483 386.99892 12.072646 328.68617 C -12.345283 237.55726 1.0168044 140.43201 49.136084 59.282474 C 57.30089 45.51691 75.07839 40.975655 88.84489 49.13887 C 102.6114 57.302084 107.15471 75.07906 98.9931 88.84651 C 58.83398 156.5719 47.682303 237.6302 68.06083 313.6841 C 79.70684 357.1479 108.1418 394.2052 147.11034 416.70376 C 186.07888 439.2023 232.3889 445.2992 275.85268 433.6531 C 290.77613 429.65435 304.4806 422.03073 315.74803 411.4598 C 323.29663 404.3602 334.06153 401.8312 343.9818 404.8269 C 353.9021 407.8226 361.468 415.8871 363.8254 425.9781 C 366.1828 436.06913 362.97296 446.651 355.4067 453.7318 Z" fill="#ff6900"/>
        </g>
        <g id="Graphic_10">
          <title>path5554</title>
          <path d="M 453.7319 244.7255 C 470.83593 262.95667 483.17114 285.131 489.6412 309.2777 C 522.1782 430.70767 450.11625 555.5226 328.6863 588.05965 C 237.55744 612.47756 140.43223 599.11546 59.28272 550.9962 C 45.515085 542.8324 40.97228 525.05344 49.13608 511.2858 C 57.29988 497.51817 75.07882 492.97536 88.84646 501.13916 C 156.57193 541.29834 237.63033 552.45 313.68433 532.0714 C 357.14808 520.4253 394.2053 491.9903 416.70377 453.02177 C 439.20226 414.05323 445.2991 367.74325 433.653 324.2795 C 429.6543 309.35605 422.0307 295.6516 411.45983 284.38415 C 404.3665 276.83448 401.84215 266.0728 404.83853 256.15642 C 407.8349 246.24003 415.8963 238.677 425.9835 236.31868 C 436.0707 233.96037 446.6496 237.16542 453.7319 244.7255 Z" fill="white"/>
        </g>
        <g id="Graphic_9">
          <title>path5556</title>
          <path d="M 244.72557 146.40018 C 262.9567 129.29614 285.13097 116.96093 309.2776 110.49085 C 367.59036 94.866 429.7217 103.04575 482.0035 133.23066 C 534.28526 163.41558 572.4348 213.13305 588.0596 271.4458 C 612.47756 362.5747 599.1155 459.69996 550.9962 540.8495 C 542.82215 554.5941 525.06 559.1205 511.3049 550.9641 C 497.54975 542.8078 493.00053 525.05146 501.1392 511.28585 C 541.2984 443.56036 552.4501 362.5019 532.07145 286.44786 C 507.8197 195.93931 414.78815 142.22754 324.2796 166.47924 C 309.35617 170.47793 295.65172 178.10147 284.38425 188.6723 C 272.71113 199.62374 254.3703 199.0387 243.41886 187.36558 C 232.46741 175.69246 233.05245 157.35162 244.72557 146.40018 Z" fill="white"/>
        </g>
        <g id="Graphic_8">
          <title>path5558</title>
          <path d="M 146.4004 355.40687 C 129.29635 337.1757 116.96114 315.00137 110.49109 290.85467 C 77.95409 169.4247 150.01602 44.609786 271.44596 12.072713 C 362.5748 -12.345275 459.7 1.0167258 540.84956 49.13591 C 554.6135 57.30138 559.1537 75.07766 550.9911 88.84334 C 542.8285 102.60902 525.0532 107.15292 511.2858 98.9932 C 443.5604 58.83393 362.502 47.682173 286.44795 68.060725 C 242.9842 79.7068 205.927 108.1418 183.4285 147.11034 C 160.93002 186.07887 154.8332 232.38886 166.47927 275.8526 C 170.478 290.77605 178.10158 304.4805 188.67245 315.74796 C 195.76278 323.29813 198.2849 334.05825 195.28823 343.9728 C 192.29154 353.8873 184.23162 361.449 174.14628 363.8078 C 164.06094 366.1666 153.48341 362.96392 146.4004 355.40687 Z" fill="white"/>
        </g>
      </g>
    </g>
  </g>
</svg>
