<?xml version="1.0" encoding="UTF-8" standalone="no"?>
<svg
   xmlns:dc="http://purl.org/dc/elements/1.1/"
   xmlns:cc="http://creativecommons.org/ns#"
   xmlns:rdf="http://www.w3.org/1999/02/22-rdf-syntax-ns#"
   xmlns:svg="http://www.w3.org/2000/svg"
   xmlns="http://www.w3.org/2000/svg"
   xmlns:sodipodi="http://sodipodi.sourceforge.net/DTD/sodipodi-0.dtd"
   xmlns:inkscape="http://www.inkscape.org/namespaces/inkscape"
   inkscape:version="1.0.1 (3bc2e813f5, 2020-09-07)"
   sodipodi:docname="SM-v201021-612-LogoSquare-ColourBlack-OnWhite.svg"
   id="svg925"
   version="1.1"
   viewBox="0 0 55.940342 55.940323"
   height="55.940323mm"
   width="55.940342mm">
  <defs
     id="defs919">
    <marker
       id="DistanceX"
       orient="auto"
       refX="0"
       refY="0"
       style="overflow:visible">
      <path
         d="M 3,-3 -3,3 M 0,-5 V 5"
         style="stroke:#000000;stroke-width:0.5"
         id="path927" />
    </marker>
    <pattern
       id="Hatch"
       patternUnits="userSpaceOnUse"
       width="8"
       height="8"
       x="0"
       y="0">
      <path
         d="M8 4 l-4,4"
         stroke="#000000"
         stroke-width="0.25"
         linecap="square"
         id="path930" />
      <path
         d="M6 2 l-4,4"
         stroke="#000000"
         stroke-width="0.25"
         linecap="square"
         id="path932" />
      <path
         d="M4 0 l-4,4"
         stroke="#000000"
         stroke-width="0.25"
         linecap="square"
         id="path934" />
    </pattern>
    <symbol
       id="*Model_Space" />
    <symbol
       id="*Paper_Space" />
    <symbol
       id="*Paper_Space0" />
  </defs>
  <sodipodi:namedview
     inkscape:window-maximized="1"
     inkscape:window-y="-9"
     inkscape:window-x="-9"
     inkscape:window-height="1001"
     inkscape:window-width="1920"
     fit-margin-bottom="0"
     fit-margin-right="0"
     fit-margin-left="0"
     fit-margin-top="0"
     showgrid="false"
     inkscape:document-rotation="0"
     inkscape:current-layer="layer1"
     inkscape:document-units="mm"
     inkscape:cy="105.71399"
     inkscape:cx="105.71403"
     inkscape:zoom="3.7885238"
     inkscape:pageshadow="2"
     inkscape:pageopacity="0"
     borderopacity="1.0"
     bordercolor="#666666"
     pagecolor="#000000"
     id="base"
     inkscape:pagecheckerboard="true" />
  <metadata
     id="metadata922">
    <rdf:RDF>
      <cc:Work
         rdf:about="">
        <dc:format>image/svg+xml</dc:format>
        <dc:type
           rdf:resource="http://purl.org/dc/dcmitype/StillImage" />
        <dc:title />
      </cc:Work>
    </rdf:RDF>
  </metadata>
  <g
     transform="translate(-91.47031,-114.14889)"
     id="layer1"
     inkscape:groupmode="layer"
     inkscape:label="Layer 1">
    <path
       d="M 145.02411,114.28118 H 93.85685 a 2.2542486,2.2542486 0 0 0 -2.254248,2.25425 v 51.16724 a 2.2542486,2.2542486 0 0 0 2.254248,2.25425 h 51.16726 a 2.2542486,2.2542486 0 0 0 2.25425,-2.25425 v -51.16724 a 2.2542486,2.2542486 0 0 0 -2.25425,-2.25425 z"
       style="fill:#ffffff;stroke:none;stroke-width:0.264583"
       id="path954" />
    <path
       d="m 131.39291,137.81454 a 11.803399,11.803399 0 0 1 2.7931,5.021 17.705098,17.705098 0 0 1 -12.5194,21.68422 27.254247,27.254247 0 0 1 -20.95475,-2.88287 2.2542497,2.2542497 0 0 1 2.29953,-3.87798 22.745751,22.745751 0 0 0 17.48834,2.40597 13.196601,13.196601 0 0 0 9.33141,-16.16247 7.2949016,7.2949016 0 0 0 -1.72623,-3.10314 2.2542486,2.2542486 0 1 1 3.288,-3.08473 z"
       style="fill:#000000;stroke:none;stroke-width:0.264583"
       id="path944" />
    <path
       d="m 115.13598,130.1666 a 11.803399,11.803399 0 0 1 5.02099,-2.7931 17.705098,17.705098 0 0 1 21.68423,12.5194 27.254247,27.254247 0 0 1 -2.88287,20.95476 2.2542486,2.2542486 0 0 1 -3.87798,-2.29952 22.745751,22.745751 0 0 0 2.40597,-17.48835 13.196601,13.196601 0 0 0 -16.16247,-9.3314 7.2949016,7.2949016 0 0 0 -3.10314,1.72622 2.2542498,2.2542498 0 1 1 -3.08473,-3.28801 z"
       style="fill:#000000;stroke:none;stroke-width:0.264583"
       id="path946" />
    <path
       d="m 107.48805,146.42356 a 11.803399,11.803399 0 0 1 -2.7931,-5.021 17.705098,17.705098 0 0 1 12.5194,-21.68422 27.254247,27.254247 0 0 1 20.95475,2.88285 2.2542583,2.2542583 0 0 1 -2.29953,3.878 22.745751,22.745751 0 0 0 -17.48834,-2.40599 13.196601,13.196601 0 0 0 -9.33141,16.16247 7.2949016,7.2949016 0 0 0 1.72623,3.10314 2.2542551,2.2542551 0 1 1 -3.288,3.08475 z"
       style="fill:#000000;stroke:none;stroke-width:0.264583"
       id="path948" />
    <path
       d="m 123.74498,154.07147 a 11.803399,11.803399 0 0 1 -5.02099,2.7931 17.705098,17.705098 0 0 1 -21.684225,-12.5194 27.254247,27.254247 0 0 1 2.882869,-20.95476 2.2542536,2.2542536 0 0 1 3.877976,2.29955 22.745751,22.745751 0 0 0 -2.40597,17.48832 13.196601,13.196601 0 0 0 16.16247,9.33143 7.2949016,7.2949016 0 0 0 3.10314,-1.72624 2.2542486,2.2542486 0 1 1 3.08473,3.288 z"
       style="fill:#ff0031;stroke:none;stroke-width:0.264583;fill-opacity:1"
       id="path950" />
  </g>
</svg>
